# Blender 4.4.3
# www.blender.org
mtllib textures.mtl
o cube.028
v 0.312500 1.062500 -0.187500
v 0.312500 1.062500 -0.812500
v 0.312500 0.437500 -0.187500
v 0.312500 0.437500 -0.812500
v -0.312500 1.062500 -0.812500
v -0.312500 1.062500 -0.187500
v -0.312500 0.437500 -0.812500
v -0.312500 0.437500 -0.187500
v -0.374375 1.026420 0.721851
v -0.374375 0.971851 0.223580
v -0.374375 0.528149 0.776420
v -0.374375 0.473580 0.278149
v -0.750625 0.971851 0.223580
v -0.750625 1.026420 0.721851
v -0.750625 0.473580 0.278149
v -0.750625 0.528149 0.776420
v -0.437500 1.384894 0.556215
v -0.437500 1.357677 0.307701
v -0.437500 0.763608 0.624257
v -0.437500 0.736392 0.375743
v -0.687500 1.357677 0.307701
v -0.687500 1.384894 0.556215
v -0.687500 0.736392 0.375743
v -0.687500 0.763608 0.624257
v 0.687500 1.384894 0.556215
v 0.687500 1.357677 0.307701
v 0.687500 0.763608 0.624257
v 0.687500 0.736392 0.375743
v 0.437500 1.357677 0.307701
v 0.437500 1.384894 0.556215
v 0.437500 0.736392 0.375743
v 0.437500 0.763608 0.624257
v 0.750625 1.026420 0.721851
v 0.750625 0.971851 0.223580
v 0.750625 0.528149 0.776420
v 0.750625 0.473580 0.278149
v 0.374375 0.971851 0.223580
v 0.374375 1.026420 0.721851
v 0.374375 0.473580 0.278149
v 0.374375 0.528149 0.776420
v -0.374375 0.971851 -0.223580
v -0.374375 1.026420 -0.721851
v -0.374375 0.473580 -0.278149
v -0.374375 0.528149 -0.776420
v -0.750625 1.026420 -0.721851
v -0.750625 0.971851 -0.223580
v -0.750625 0.528149 -0.776420
v -0.750625 0.473580 -0.278149
v 0.687500 1.357677 -0.307701
v 0.687500 1.384894 -0.556215
v 0.687500 0.736392 -0.375743
v 0.687500 0.763608 -0.624257
v 0.437500 1.384894 -0.556215
v 0.437500 1.357677 -0.307701
v 0.437500 0.763608 -0.624257
v 0.437500 0.736392 -0.375743
v -0.437500 1.357677 -0.307701
v -0.437500 1.384894 -0.556215
v -0.437500 0.736392 -0.375743
v -0.437500 0.763608 -0.624257
v -0.687500 1.384894 -0.556215
v -0.687500 1.357677 -0.307701
v -0.687500 0.763608 -0.624257
v -0.687500 0.736392 -0.375743
v 0.750625 0.971851 -0.223580
v 0.750625 1.026420 -0.721851
v 0.750625 0.473580 -0.278149
v 0.750625 0.528149 -0.776420
v 0.374375 1.026420 -0.721851
v 0.374375 0.971851 -0.223580
v 0.374375 0.528149 -0.776420
v 0.374375 0.473580 -0.278149
v -0.375000 1.000000 1.750000
v -0.375000 1.000000 1.250000
v -0.375000 0.500000 1.750000
v -0.375000 0.500000 1.250000
v -0.750000 1.000000 1.250000
v -0.750000 1.000000 1.750000
v -0.750000 0.500000 1.250000
v -0.750000 0.500000 1.750000
v 0.750000 1.000000 1.750000
v 0.750000 1.000000 1.250000
v 0.750000 0.500000 1.750000
v 0.750000 0.500000 1.250000
v 0.375000 1.000000 1.250000
v 0.375000 1.000000 1.750000
v 0.375000 0.500000 1.250000
v 0.375000 0.500000 1.750000
v 0.750000 1.000000 -1.250000
v 0.750000 1.000000 -1.750000
v 0.750000 0.500000 -1.250000
v 0.750000 0.500000 -1.750000
v 0.375000 1.000000 -1.750000
v 0.375000 1.000000 -1.250000
v 0.375000 0.500000 -1.750000
v 0.375000 0.500000 -1.250000
v -0.375000 1.000000 -1.250000
v -0.375000 1.000000 -1.750000
v -0.375000 0.500000 -1.250000
v -0.375000 0.500000 -1.750000
v -0.750000 1.000000 -1.750000
v -0.750000 1.000000 -1.250000
v -0.750000 0.500000 -1.750000
v -0.750000 0.500000 -1.250000
v 0.437500 1.250000 0.437500
v 0.437500 1.250000 -0.437500
v 0.437500 0.750000 0.437500
v 0.437500 0.750000 -0.437500
v -0.437500 1.250000 -0.437500
v -0.437500 1.250000 0.437500
v -0.437500 0.750000 -0.437500
v -0.437500 0.750000 0.437500
v 0.750000 1.312500 0.500000
v 0.750000 1.312500 -0.500000
v 0.750000 0.687500 0.500000
v 0.750000 0.687500 -0.500000
v 0.375000 1.312500 -0.500000
v 0.375000 1.312500 0.500000
v 0.375000 0.687500 -0.500000
v 0.375000 0.687500 0.500000
v 0.312500 1.062500 1.812500
v 0.312500 1.062500 1.187500
v 0.312500 0.437500 1.812500
v 0.312500 0.437500 1.187500
v -0.312500 1.062500 1.187500
v -0.312500 1.062500 1.812500
v -0.312500 0.437500 1.187500
v -0.312500 0.437500 1.812500
v 0.093750 1.250000 1.593750
v 0.093750 1.250000 1.406250
v 0.093750 1.062500 1.593750
v 0.093750 1.062500 1.406250
v -0.093750 1.250000 1.406250
v -0.093750 1.250000 1.593750
v -0.093750 1.062500 1.406250
v -0.093750 1.062500 1.593750
v 0.250000 1.500000 0.250000
v 0.250000 1.500000 -0.250000
v 0.250000 1.250000 0.250000
v 0.250000 1.250000 -0.250000
v -0.250000 1.500000 -0.250000
v -0.250000 1.500000 0.250000
v -0.250000 1.250000 -0.250000
v -0.250000 1.250000 0.250000
v -0.375000 1.312500 0.500000
v -0.375000 1.312500 -0.500000
v -0.375000 0.687500 0.500000
v -0.375000 0.687500 -0.500000
v -0.750000 1.312500 -0.500000
v -0.750000 1.312500 0.500000
v -0.750000 0.687500 -0.500000
v -0.750000 0.687500 0.500000
v 0.312500 1.062500 0.187500
v 0.312500 1.062500 -0.000000
v 0.312500 0.437500 0.187500
v 0.312500 0.437500 -0.000000
v -0.312500 1.062500 -0.000000
v -0.312500 1.062500 0.187500
v -0.312500 0.437500 -0.000000
v -0.312500 0.437500 0.187500
v 0.312500 1.062500 0.812500
v 0.312500 1.062500 0.187500
v 0.312500 0.437500 0.812500
v 0.312500 0.437500 0.187500
v -0.312500 1.062500 0.187500
v -0.312500 1.062500 0.812500
v -0.312500 0.437500 0.187500
v -0.312500 0.437500 0.812500
v 0.312500 1.062500 -0.187500
v 0.312500 1.062500 -0.812500
v 0.312500 0.437500 -0.187500
v 0.312500 0.437500 -0.812500
v -0.312500 1.062500 -0.812500
v -0.312500 1.062500 -0.187500
v -0.312500 0.437500 -0.812500
v -0.312500 0.437500 -0.187500
v 0.312500 1.062500 -0.000000
v 0.312500 1.062500 -0.187500
v 0.312500 0.437500 -0.000000
v 0.312500 0.437500 -0.187500
v -0.312500 1.062500 -0.187500
v -0.312500 1.062500 -0.000000
v -0.312500 0.437500 -0.187500
v -0.312500 0.437500 -0.000000
v 0.687500 0.875000 1.250000
v 0.687500 0.875000 0.687500
v 0.687500 0.625000 1.250000
v 0.687500 0.625000 0.687500
v 0.437500 0.875000 0.687500
v 0.437500 0.875000 1.250000
v 0.437500 0.625000 0.687500
v 0.437500 0.625000 1.250000
v -0.437500 0.875000 1.250000
v -0.437500 0.875000 0.687500
v -0.437500 0.625000 1.250000
v -0.437500 0.625000 0.687500
v -0.687500 0.875000 0.687500
v -0.687500 0.875000 1.250000
v -0.687500 0.625000 0.687500
v -0.687500 0.625000 1.250000
v 0.687500 0.875000 -0.687500
v 0.687500 0.875000 -1.250000
v 0.687500 0.625000 -0.687500
v 0.687500 0.625000 -1.250000
v 0.437500 0.875000 -1.250000
v 0.437500 0.875000 -0.687500
v 0.437500 0.625000 -1.250000
v 0.437500 0.625000 -0.687500
v 0.312500 1.062500 -1.187500
v 0.312500 1.062500 -1.812500
v 0.312500 0.437500 -1.187500
v 0.312500 0.437500 -1.812500
v -0.312500 1.062500 -1.812500
v -0.312500 1.062500 -1.187500
v -0.312500 0.437500 -1.812500
v -0.312500 0.437500 -1.187500
v 0.093750 1.250000 -1.406250
v 0.093750 1.250000 -1.593750
v 0.093750 1.062500 -1.406250
v 0.093750 1.062500 -1.593750
v -0.093750 1.250000 -1.593750
v -0.093750 1.250000 -1.406250
v -0.093750 1.062500 -1.593750
v -0.093750 1.062500 -1.406250
v -0.437500 0.875000 -0.687500
v -0.437500 0.875000 -1.250000
v -0.437500 0.625000 -0.687500
v -0.437500 0.625000 -1.250000
v -0.687500 0.875000 -1.250000
v -0.687500 0.875000 -0.687500
v -0.687500 0.625000 -1.250000
v -0.687500 0.625000 -0.687500
vn -0.0000 -0.0000 -1.0000
vn 1.0000 -0.0000 -0.0000
vn -0.0000 -0.0000 1.0000
vn -1.0000 -0.0000 -0.0000
vn -0.0000 1.0000 -0.0000
vn -0.0000 -1.0000 -0.0000
vn -0.0000 -0.1089 -0.9941
vn -0.0000 0.1089 0.9941
vn -0.0000 0.9941 -0.1089
vn -0.0000 -0.9941 0.1089
vn -0.0000 0.1089 -0.9941
vn -0.0000 -0.1089 0.9941
vn -0.0000 0.9941 0.1089
vn -0.0000 -0.9941 -0.1089
vt 0.625000 0.000000
vt 0.312500 0.000000
vt 0.312500 0.312500
vt 0.625000 0.312500
vt 1.000000 0.687500
vt 0.687500 0.687500
vt 0.687500 1.000000
vt 1.000000 1.000000
vt 0.937500 0.000000
vt 0.937500 0.312500
vt 0.218750 0.000000
vt 0.031250 0.000000
vt 0.031250 0.250000
vt 0.218750 0.250000
vt 0.250000 0.250000
vt 0.000000 0.250000
vt 0.000000 0.500000
vt 0.250000 0.500000
vt 0.375000 0.187500
vt 0.250000 0.187500
vt 0.375000 0.500000
vt 0.500000 0.187500
vt 0.500000 0.500000
vt 0.375000 0.375000
vt 0.250000 0.375000
vt 0.718750 0.156250
vt 0.875000 0.156250
vt 0.875000 0.000000
vt 0.718750 0.000000
vt 0.750000 0.312500
vt 0.750000 0.562500
vt 0.312500 0.562500
vt 0.687500 0.562500
vt 0.437500 1.000000
vt 0.437500 0.562500
vt 0.000000 0.562500
vt 0.000000 1.000000
vt 0.500000 0.000000
vt 0.500000 0.312500
vt 1.000000 0.500000
vt 1.000000 0.812500
vt 0.500000 0.812500
vt 1.000000 0.125000
vt 1.000000 0.312500
vt 0.500000 0.125000
vt 0.718750 0.375000
vt 0.625000 0.375000
vt 0.625000 0.468750
vt 0.718750 0.468750
vt 0.812500 0.468750
vt 0.812500 0.375000
vt 0.125000 0.333333
vt 0.291667 0.333333
vt 0.291667 0.416667
vt 0.125000 0.416667
vt 0.770833 0.000000
vt 1.000000 0.000000
vt 1.000000 0.166667
vt 0.770833 0.166667
vt 0.312500 0.531250
vt 0.312500 0.437500
vt 0.000000 0.437500
vt 0.000000 0.531250
vt 0.000000 0.875000
vt 0.125000 0.875000
vt 0.125000 1.000000
vt 0.075000 0.137500
vt 0.187500 0.137500
vt 0.187500 0.200000
vt 0.075000 0.200000
vt 0.187500 0.150000
vt 0.075000 0.150000
s 1
usemtl frame
f 4/1/1 7/2/1 5/3/1 2/4/1
f 3/1/2 4/4/2 2/3/2 1/2/2
f 8/5/3 3/6/3 1/7/3 6/8/3
f 7/4/4 8/1/4 6/2/4 5/3/4
f 6/1/5 1/9/5 2/10/5 5/4/5
f 7/4/6 4/10/6 3/9/6 8/1/6
f 108/3/1 111/30/1 109/31/1 106/32/1
f 107/33/2 108/7/2 106/34/2 105/35/2
f 112/3/3 107/30/3 105/31/3 110/32/3
f 111/33/4 112/7/4 110/34/4 109/35/4
f 110/36/5 105/35/5 106/34/5 109/37/5
f 111/36/6 108/35/6 107/34/6 112/37/6
f 124/1/1 127/2/1 125/3/1 122/4/1
f 123/1/2 124/2/2 122/3/2 121/4/2
f 128/1/3 123/9/3 121/10/3 126/4/3
f 127/1/4 128/2/4 126/3/4 125/4/4
f 126/1/5 121/9/5 122/10/5 125/4/5
f 127/1/6 124/9/6 123/10/6 128/4/6
f 155/60/2 156/61/2 154/62/2 153/63/2
f 159/61/4 160/60/4 158/63/4 157/62/4
f 158/63/5 153/60/5 154/61/5 157/62/5
f 159/62/6 156/61/6 155/60/6 160/63/6
f 164/6/1 167/5/1 165/8/1 162/7/1
f 163/4/2 164/1/2 162/2/2 161/3/2
f 168/2/3 163/1/3 161/4/3 166/3/3
f 167/1/4 168/4/4 166/3/4 165/2/4
f 166/4/5 161/10/5 162/9/5 165/1/5
f 167/1/6 164/9/6 163/10/6 168/4/6
f 172/1/1 175/2/1 173/3/1 170/4/1
f 171/1/2 172/4/2 170/3/2 169/2/2
f 176/5/3 171/6/3 169/7/3 174/8/3
f 175/4/4 176/1/4 174/2/4 173/3/4
f 174/1/5 169/9/5 170/10/5 173/4/5
f 175/4/6 172/10/6 171/9/6 176/1/6
f 179/61/2 180/60/2 178/63/2 177/62/2
f 183/60/4 184/61/4 182/62/4 181/63/4
f 182/62/5 177/61/5 178/60/5 181/63/5
f 183/63/6 180/60/6 179/61/6 184/62/6
f 212/9/1 215/1/1 213/4/1 210/10/1
f 211/2/2 212/1/2 210/4/2 209/3/2
f 216/2/3 211/1/3 209/4/3 214/3/3
f 215/2/4 216/1/4 214/4/4 213/3/4
f 214/4/5 209/10/5 210/9/5 213/1/5
f 215/4/6 212/10/6 211/9/6 216/1/6
usemtl frame2
f 12/11/7 15/12/7 13/13/7 10/14/7
f 11/15/2 12/16/2 10/17/2 9/18/2
f 16/11/8 11/12/8 9/13/8 14/14/8
f 15/15/4 16/16/4 14/17/4 13/18/4
f 14/13/9 9/14/9 10/11/9 13/12/9
f 15/13/10 12/14/10 11/11/10 16/12/10
f 20/19/7 23/20/7 21/18/7 18/21/7
f 19/22/2 20/19/2 18/21/2 17/23/2
f 24/19/8 19/20/8 17/18/8 22/21/8
f 23/22/4 24/19/4 22/21/4 21/23/4
f 22/18/9 17/21/9 18/24/9 21/25/9
f 23/26/10 20/27/10 19/28/10 24/29/10
f 28/19/7 31/20/7 29/18/7 26/21/7
f 27/22/2 28/19/2 26/21/2 25/23/2
f 32/19/8 27/20/8 25/18/8 30/21/8
f 31/22/4 32/19/4 30/21/4 29/23/4
f 30/18/9 25/21/9 26/24/9 29/25/9
f 36/11/7 39/12/7 37/13/7 34/14/7
f 35/15/2 36/16/2 34/17/2 33/18/2
f 40/11/8 35/12/8 33/13/8 38/14/8
f 39/15/4 40/16/4 38/17/4 37/18/4
f 38/13/9 33/14/9 34/11/9 37/12/9
f 39/13/10 36/14/10 35/11/10 40/12/10
f 44/12/11 47/11/11 45/14/11 42/13/11
f 43/16/2 44/15/2 42/18/2 41/17/2
f 48/12/12 43/11/12 41/14/12 46/13/12
f 47/16/4 48/15/4 46/18/4 45/17/4
f 46/12/13 41/11/13 42/14/13 45/13/13
f 47/12/14 44/11/14 43/14/14 48/13/14
f 52/20/11 55/19/11 53/21/11 50/18/11
f 51/19/2 52/22/2 50/23/2 49/21/2
f 56/20/12 51/19/12 49/21/12 54/18/12
f 55/19/4 56/22/4 54/23/4 53/21/4
f 54/25/13 49/24/13 50/21/13 53/18/13
f 60/20/11 63/19/11 61/21/11 58/18/11
f 59/19/2 60/22/2 58/23/2 57/21/2
f 64/20/12 59/19/12 57/21/12 62/18/12
f 63/19/4 64/22/4 62/23/4 61/21/4
f 62/25/13 57/24/13 58/21/13 61/18/13
f 63/29/14 60/28/14 59/27/14 64/26/14
f 68/12/11 71/11/11 69/14/11 66/13/11
f 67/16/2 68/15/2 66/18/2 65/17/2
f 72/12/12 67/11/12 65/14/12 70/13/12
f 71/16/4 72/15/4 70/18/4 69/17/4
f 70/12/13 65/11/13 66/14/13 69/13/13
f 71/12/14 68/11/14 67/14/14 72/13/14
f 76/11/1 79/12/1 77/13/1 74/14/1
f 75/15/2 76/16/2 74/17/2 73/18/2
f 80/11/3 75/12/3 73/13/3 78/14/3
f 79/15/4 80/16/4 78/17/4 77/18/4
f 78/13/5 73/14/5 74/11/5 77/12/5
f 79/13/6 76/14/6 75/11/6 80/12/6
f 84/11/1 87/12/1 85/13/1 82/14/1
f 83/15/2 84/16/2 82/17/2 81/18/2
f 88/11/3 83/12/3 81/13/3 86/14/3
f 87/15/4 88/16/4 86/17/4 85/18/4
f 86/13/5 81/14/5 82/11/5 85/12/5
f 87/13/6 84/14/6 83/11/6 88/12/6
f 92/12/1 95/11/1 93/14/1 90/13/1
f 91/16/2 92/15/2 90/18/2 89/17/2
f 96/12/3 91/11/3 89/14/3 94/13/3
f 95/16/4 96/15/4 94/18/4 93/17/4
f 94/12/5 89/11/5 90/14/5 93/13/5
f 95/12/6 92/11/6 91/14/6 96/13/6
f 100/12/1 103/11/1 101/14/1 98/13/1
f 99/16/2 100/15/2 98/18/2 97/17/2
f 104/12/3 99/11/3 97/14/3 102/13/3
f 103/16/4 104/15/4 102/18/4 101/17/4
f 102/12/5 97/11/5 98/14/5 101/13/5
f 103/12/6 100/11/6 99/14/6 104/13/6
usemtl single_axle_body
f 116/2/1 119/38/1 117/39/1 114/3/1
f 115/23/2 116/40/2 114/41/2 113/42/2
f 120/2/3 115/38/3 113/39/3 118/3/3
f 119/23/4 120/40/4 118/41/4 117/42/4
f 118/43/5 113/44/5 114/39/5 117/45/5
f 119/40/6 116/44/6 115/39/6 120/23/6
f 148/2/1 151/38/1 149/39/1 146/3/1
f 147/23/2 148/40/2 146/41/2 145/42/2
f 152/2/3 147/38/3 145/39/3 150/3/3
f 151/23/4 152/40/4 150/41/4 149/42/4
f 150/43/5 145/44/5 146/39/5 149/45/5
f 151/44/6 148/40/6 147/23/6 152/39/6
usemtl wheels
f 132/46/1 135/47/1 133/48/1 130/49/1
f 131/46/2 132/47/2 130/48/2 129/49/2
f 136/46/3 131/47/3 129/48/3 134/49/3
f 135/46/4 136/47/4 134/48/4 133/49/4
f 134/49/5 129/50/5 130/51/5 133/46/5
f 220/47/1 223/46/1 221/49/1 218/48/1
f 219/47/2 220/46/2 218/49/2 217/48/2
f 224/47/3 219/46/3 217/49/3 222/48/3
f 223/47/4 224/46/4 222/49/4 221/48/4
f 222/46/5 217/51/5 218/50/5 221/49/5
usemtl trailing_bogey_base
f 140/52/1 143/53/1 141/54/1 138/55/1
f 139/52/2 140/53/2 138/54/2 137/55/2
f 144/52/3 139/53/3 137/54/3 142/55/3
f 143/52/4 144/53/4 142/54/4 141/55/4
f 142/56/5 137/57/5 138/58/5 141/59/5
f 143/56/6 140/57/6 139/58/6 144/59/6
usemtl none
f 188/64/1 191/65/1 189/66/1 186/37/1
f 192/64/3 187/65/3 185/66/3 190/37/3
f 196/64/1 199/65/1 197/66/1 194/37/1
f 200/64/3 195/65/3 193/66/3 198/37/3
f 204/65/1 207/64/1 205/37/1 202/66/1
f 208/65/3 203/64/3 201/37/3 206/66/3
f 228/65/1 231/64/1 229/37/1 226/66/1
f 232/65/3 227/64/3 225/37/3 230/66/3
usemtl frame4
f 187/67/2 188/68/2 186/69/2 185/70/2
f 191/67/4 192/68/4 190/69/4 189/70/4
f 190/68/5 185/69/5 186/70/5 189/67/5
f 191/71/6 188/69/6 187/70/6 192/72/6
f 195/67/2 196/68/2 194/69/2 193/70/2
f 199/67/4 200/68/4 198/69/4 197/70/4
f 198/68/5 193/69/5 194/70/5 197/67/5
f 199/71/6 196/69/6 195/70/6 200/72/6
f 203/68/2 204/67/2 202/70/2 201/69/2
f 207/68/4 208/67/4 206/70/4 205/69/4
f 206/67/5 201/70/5 202/69/5 205/68/5
f 207/72/6 204/70/6 203/69/6 208/71/6
f 227/68/2 228/67/2 226/70/2 225/69/2
f 231/68/4 232/67/4 230/70/4 229/69/4
f 230/67/5 225/70/5 226/69/5 229/68/5
f 231/72/6 228/70/6 227/69/6 232/71/6
