# Made in Blockbench 4.12.5
mtllib textures.mtl

o cube
v -1.0625 0.125 2.375
v -1.0625 0.125 2.125
v -1.0625 -0.125 2.375
v -1.0625 -0.125 2.125
v -1.3125 0.125 2.375
v -1.3125 0.125 2.125
v -1.3125 -0.125 2.375
v -1.3125 -0.125 2.125
v -1.0625 0.125 0.125
v -1.0625 0.125 -0.125
v -1.0625 -0.125 0.125
v -1.0625 -0.125 -0.125
v -1.3125 0.125 0.125
v -1.3125 0.125 -0.125
v -1.3125 -0.125 0.125
v -1.3125 -0.125 -0.125
v -1.0625 0.125 -2.125
v -1.0625 0.125 -2.375
v -1.0625 -0.125 -2.125
v -1.0625 -0.125 -2.375
v -1.3125 0.125 -2.125
v -1.3125 0.125 -2.375
v -1.3125 -0.125 -2.125
v -1.3125 -0.125 -2.375
vt 0.8928570833333334 0.035714374999999965
vt 0.8928570833333334 0.07142854166666668
vt 0.8571429166666666 0.07142854166666668
vt 0.8571429166666666 0.035714374999999965
vt 0.9285714583333333 0.035714374999999965
vt 0.9285714583333333 0.07142854166666668
vt 0.8928570833333334 0.07142854166666668
vt 0.8928570833333334 0.035714374999999965
vt 0.9285714583333333 0.035714374999999965
vt 0.9285714583333333 0.07142854166666668
vt 0.8928570833333334 0.07142854166666668
vt 0.8928570833333334 0.035714374999999965
vt 0.9285714583333333 0.035714374999999965
vt 0.9285714583333333 0.07142854166666668
vt 0.8928570833333334 0.07142854166666668
vt 0.8928570833333334 0.035714374999999965
vt 0.8928570833333334 0.035714374999999965
vt 0.8928570833333334 0.07142854166666668
vt 0.9285714583333333 0.07142854166666668
vt 0.9285714583333333 0.035714374999999965
vt 0.8928570833333334 0.035714374999999965
vt 0.8928570833333334 0.07142854166666668
vt 0.8571429166666666 0.07142854166666668
vt 0.8571429166666666 0.035714374999999965
vt 0.9285714583333333 0.035714374999999965
vt 0.9285714583333333 0.07142854166666668
vt 0.8928570833333334 0.07142854166666668
vt 0.8928570833333334 0.035714374999999965
vt 0.9285714583333333 0.035714374999999965
vt 0.9285714583333333 0.07142854166666668
vt 0.8928570833333334 0.07142854166666668
vt 0.8928570833333334 0.035714374999999965
vt 0.9285714583333333 0.035714374999999965
vt 0.9285714583333333 0.07142854166666668
vt 0.8928570833333334 0.07142854166666668
vt 0.8928570833333334 0.035714374999999965
vt 0.8928570833333334 0.035714374999999965
vt 0.8928570833333334 0.07142854166666668
vt 0.9285714583333333 0.07142854166666668
vt 0.9285714583333333 0.035714374999999965
vt 0.8928570833333334 0.035714374999999965
vt 0.8928570833333334 0.07142854166666668
vt 0.8571429166666666 0.07142854166666668
vt 0.8571429166666666 0.035714374999999965
vt 0.9285714583333333 0.035714374999999965
vt 0.9285714583333333 0.07142854166666668
vt 0.8928570833333334 0.07142854166666668
vt 0.8928570833333334 0.035714374999999965
vt 0.9285714583333333 0.035714374999999965
vt 0.9285714583333333 0.07142854166666668
vt 0.8928570833333334 0.07142854166666668
vt 0.8928570833333334 0.035714374999999965
vt 0.9285714583333333 0.035714374999999965
vt 0.9285714583333333 0.07142854166666668
vt 0.8928570833333334 0.07142854166666668
vt 0.8928570833333334 0.035714374999999965
vt 0.8928570833333334 0.035714374999999965
vt 0.8928570833333334 0.07142854166666668
vt 0.9285714583333333 0.07142854166666668
vt 0.9285714583333333 0.035714374999999965
vn -1 0 0
vn 0 1 0
vn 0 -1 0
vn 0 0 1
vn 0 0 -1
vn -1 0 0
vn 0 1 0
vn 0 -1 0
vn 0 0 1
vn 0 0 -1
vn -1 0 0
vn 0 1 0
vn 0 -1 0
vn 0 0 1
vn 0 0 -1
usemtl xl_textures
f 7/1/1 5/2/1 6/3/1 8/4/1
f 1/5/2 2/6/2 6/7/2 5/8/2
f 4/9/3 3/10/3 7/11/3 8/12/3
f 3/13/4 1/14/4 5/15/4 7/16/4
f 8/17/5 6/18/5 2/19/5 4/20/5
f 15/21/6 13/22/6 14/23/6 16/24/6
f 9/25/7 10/26/7 14/27/7 13/28/7
f 12/29/8 11/30/8 15/31/8 16/32/8
f 11/33/9 9/34/9 13/35/9 15/36/9
f 16/37/10 14/38/10 10/39/10 12/40/10
f 23/41/11 21/42/11 22/43/11 24/44/11
f 17/45/12 18/46/12 22/47/12 21/48/12
f 20/49/13 19/50/13 23/51/13 24/52/13
f 19/53/14 17/54/14 21/55/14 23/56/14
f 24/57/15 22/58/15 18/59/15 20/60/15