# Made in Blockbench 4.12.5
mtllib textures.mtl

o cube
v -1.0625 1.5 3.625
v -1.0625 1.5 2.5
v -1.0625 1.3125 3.625
v -1.0625 1.3125 2.5
v -1.1875 1.5 3.625
v -1.1875 1.5 2.5
v -1.1875 1.3125 3.625
v -1.1875 1.3125 2.5
v -1.0625 1.1875 3.625
v -1.0625 1.1875 2.5
v -1.0625 1 3.625
v -1.0625 1 2.5
v -1.1875 1.1875 3.625
v -1.1875 1.1875 2.5
v -1.1875 1 3.625
v -1.1875 1 2.5
v -1.0625 1.5 2
v -1.0625 1.5 0.25
v -1.0625 1.3125 2
v -1.0625 1.3125 0.25
v -1.1875 1.5 2
v -1.1875 1.5 0.25
v -1.1875 1.3125 2
v -1.1875 1.3125 0.25
v -1.0625 1.1875 2
v -1.0625 1.1875 0.25
v -1.0625 1 2
v -1.0625 1 0.25
v -1.1875 1.1875 2
v -1.1875 1.1875 0.25
v -1.1875 1 2
v -1.1875 1 0.25
v -1.0625 1.5 -0.25
v -1.0625 1.5 -2
v -1.0625 1.3125 -0.25
v -1.0625 1.3125 -2
v -1.1875 1.5 -0.25
v -1.1875 1.5 -2
v -1.1875 1.3125 -0.25
v -1.1875 1.3125 -2
v -1.0625 1.1875 -0.25
v -1.0625 1.1875 -2
v -1.0625 1 -0.25
v -1.0625 1 -2
v -1.1875 1.1875 -0.25
v -1.1875 1.1875 -2
v -1.1875 1 -0.25
v -1.1875 1 -2
v -1.0625 1.5 -2.5
v -1.0625 1.5 -3.625
v -1.0625 1.3125 -2.5
v -1.0625 1.3125 -3.625
v -1.1875 1.5 -2.5
v -1.1875 1.5 -3.625
v -1.1875 1.3125 -2.5
v -1.1875 1.3125 -3.625
v -1.0625 1.1875 -2.5
v -1.0625 1.1875 -3.625
v -1.0625 1 -2.5
v -1.0625 1 -3.625
v -1.1875 1.1875 -2.5
v -1.1875 1.1875 -3.625
v -1.1875 1 -2.5
v -1.1875 1 -3.625
v -1.0625 1.8125 -2.0625
v -1.0625 1.8125 -2.4375
v -1.0625 1.6875 -2.0625
v -1.0625 1.6875 -2.4375
v -1.1875 1.8125 -2.0625
v -1.1875 1.8125 -2.4375
v -1.1875 1.6875 -2.0625
v -1.1875 1.6875 -2.4375
v -1.0625 1.6875 -2.0625
v -1.0625 1.6875 -2.1875
v -1.0625 0.8125 -2.0625
v -1.0625 0.8125 -2.1875
v -1.1875 1.6875 -2.0625
v -1.1875 1.6875 -2.1875
v -1.1875 0.8125 -2.0625
v -1.1875 0.8125 -2.1875
v -1.0625 1.6875 -2.3125
v -1.0625 1.6875 -2.4375
v -1.0625 0.8125 -2.3125
v -1.0625 0.8125 -2.4375
v -1.1875 1.6875 -2.3125
v -1.1875 1.6875 -2.4375
v -1.1875 0.8125 -2.3125
v -1.1875 0.8125 -2.4375
v -1.0625 1.5625 -2.375
v -1.0625 1.5625 -2.5
v -1.0625 0.9375 -2.375
v -1.0625 0.9375 -2.5
v -1.25 1.5625 -2.375
v -1.25 1.5625 -2.5
v -1.25 0.9375 -2.375
v -1.25 0.9375 -2.5
v -1.0625 1.5625 -2
v -1.0625 1.5625 -2.125
v -1.0625 0.9375 -2
v -1.0625 0.9375 -2.125
v -1.25 1.5625 -2
v -1.25 1.5625 -2.125
v -1.25 0.9375 -2
v -1.25 0.9375 -2.125
v -1.0625 0.8125 -2.0625
v -1.0625 0.8125 -2.4375
v -1.0625 0.6875 -2.0625
v -1.0625 0.6875 -2.4375
v -1.1875 0.8125 -2.0625
v -1.1875 0.8125 -2.4375
v -1.1875 0.6875 -2.0625
v -1.1875 0.6875 -2.4375
v -1.0625 1.8125 0.1875
v -1.0625 1.8125 -0.1875
v -1.0625 1.6875 0.1875
v -1.0625 1.6875 -0.1875
v -1.1875 1.8125 0.1875
v -1.1875 1.8125 -0.1875
v -1.1875 1.6875 0.1875
v -1.1875 1.6875 -0.1875
v -1.0625 1.6875 -0.0625
v -1.0625 1.6875 -0.1875
v -1.0625 0.8125 -0.0625
v -1.0625 0.8125 -0.1875
v -1.1875 1.6875 -0.0625
v -1.1875 1.6875 -0.1875
v -1.1875 0.8125 -0.0625
v -1.1875 0.8125 -0.1875
v -1.0625 1.6875 0.1875
v -1.0625 1.6875 0.0625
v -1.0625 0.8125 0.1875
v -1.0625 0.8125 0.0625
v -1.1875 1.6875 0.1875
v -1.1875 1.6875 0.0625
v -1.1875 0.8125 0.1875
v -1.1875 0.8125 0.0625
v -1.0625 0.8125 0.1875
v -1.0625 0.8125 -0.1875
v -1.0625 0.6875 0.1875
v -1.0625 0.6875 -0.1875
v -1.1875 0.8125 0.1875
v -1.1875 0.8125 -0.1875
v -1.1875 0.6875 0.1875
v -1.1875 0.6875 -0.1875
v -1.0625 1.5625 0.25
v -1.0625 1.5625 0.125
v -1.0625 0.9375 0.25
v -1.0625 0.9375 0.125
v -1.25 1.5625 0.25
v -1.25 1.5625 0.125
v -1.25 0.9375 0.25
v -1.25 0.9375 0.125
v -1.0625 1.5625 -0.125
v -1.0625 1.5625 -0.25
v -1.0625 0.9375 -0.125
v -1.0625 0.9375 -0.25
v -1.25 1.5625 -0.125
v -1.25 1.5625 -0.25
v -1.25 0.9375 -0.125
v -1.25 0.9375 -0.25
v -1.0625 0.8125 2.4375
v -1.0625 0.8125 2.0625
v -1.0625 0.6875 2.4375
v -1.0625 0.6875 2.0625
v -1.1875 0.8125 2.4375
v -1.1875 0.8125 2.0625
v -1.1875 0.6875 2.4375
v -1.1875 0.6875 2.0625
v -1.0625 1.8125 2.4375
v -1.0625 1.8125 2.0625
v -1.0625 1.6875 2.4375
v -1.0625 1.6875 2.0625
v -1.1875 1.8125 2.4375
v -1.1875 1.8125 2.0625
v -1.1875 1.6875 2.4375
v -1.1875 1.6875 2.0625
v -1.0625 1.6875 2.4375
v -1.0625 1.6875 2.3125
v -1.0625 0.8125 2.4375
v -1.0625 0.8125 2.3125
v -1.1875 1.6875 2.4375
v -1.1875 1.6875 2.3125
v -1.1875 0.8125 2.4375
v -1.1875 0.8125 2.3125
v -1.0625 1.6875 2.1875
v -1.0625 1.6875 2.0625
v -1.0625 0.8125 2.1875
v -1.0625 0.8125 2.0625
v -1.1875 1.6875 2.1875
v -1.1875 1.6875 2.0625
v -1.1875 0.8125 2.1875
v -1.1875 0.8125 2.0625
v -1.0625 1.5625 2.125
v -1.0625 1.5625 2
v -1.0625 0.9375 2.125
v -1.0625 0.9375 2
v -1.25 1.5625 2.125
v -1.25 1.5625 2
v -1.25 0.9375 2.125
v -1.25 0.9375 2
v -1.0625 1.5625 2.5
v -1.0625 1.5625 2.375
v -1.0625 0.9375 2.5
v -1.0625 0.9375 2.375
v -1.25 1.5625 2.5
v -1.25 1.5625 2.375
v -1.25 0.9375 2.5
v -1.25 0.9375 2.375
vt 0.5625 0
vt 0.5625 0.09375
vt 0 0.09375
vt 0 0
vt 0 0
vt 0 0.09375
vt 0.5625 0.09375
vt 0.5625 0
vt 0 0.03125
vt 0.5625 0.03125
vt 0.5625 0.09375
vt 0 0.09375
vt 0.5625 0.0625
vt 0 0.0625
vt 0 0
vt 0.5625 0
vt 0.125 0.90625
vt 0.125 1
vt 0.0625 1
vt 0.0625 0.90625
vt 0.5625 0
vt 0.5625 0.09375
vt 0 0.09375
vt 0 0
vt 0 0
vt 0 0.09375
vt 0.5625 0.09375
vt 0.5625 0
vt 0 0.03125
vt 0.5625 0.03125
vt 0.5625 0.09375
vt 0 0.09375
vt 0.5625 0.0625
vt 0 0.0625
vt 0 0
vt 0.5625 0
vt 0.125 0.90625
vt 0.125 1
vt 0.0625 1
vt 0.0625 0.90625
vt 0.875 0.09375
vt 0.875 0.1875
vt 0 0.1875
vt 0 0.09375
vt 0.875 0.09375
vt 0.875 0.1875
vt 0 0.1875
vt 0 0.09375
vt 0.875 0.125
vt 0 0.125
vt 0 0.1875
vt 0.875 0.1875
vt 0 0.15625
vt 0.875 0.15625
vt 0.875 0.09375
vt 0 0.09375
vt 0.125 0.90625
vt 0.125 1
vt 0.0625 1
vt 0.0625 0.90625
vt 0.875 0.09375
vt 0.875 0.1875
vt 0 0.1875
vt 0 0.09375
vt 0.875 0.09375
vt 0.875 0.1875
vt 0 0.1875
vt 0 0.09375
vt 0.875 0.125
vt 0 0.125
vt 0 0.1875
vt 0.875 0.1875
vt 0 0.15625
vt 0.875 0.15625
vt 0.875 0.09375
vt 0 0.09375
vt 0.125 0.90625
vt 0.125 1
vt 0.0625 1
vt 0.0625 0.90625
vt 0.875 0.09375
vt 0.875 0.1875
vt 0 0.1875
vt 0 0.09375
vt 0.875 0.09375
vt 0.875 0.1875
vt 0 0.1875
vt 0 0.09375
vt 0.875 0.125
vt 0 0.125
vt 0 0.1875
vt 0.875 0.1875
vt 0 0.15625
vt 0.875 0.15625
vt 0.875 0.09375
vt 0 0.09375
vt 0.125 0.90625
vt 0.125 1
vt 0.0625 1
vt 0.0625 0.90625
vt 0.875 0.09375
vt 0.875 0.1875
vt 0 0.1875
vt 0 0.09375
vt 0.875 0.09375
vt 0.875 0.1875
vt 0 0.1875
vt 0 0.09375
vt 0.875 0.125
vt 0 0.125
vt 0 0.1875
vt 0.875 0.1875
vt 0 0.15625
vt 0.875 0.15625
vt 0.875 0.09375
vt 0 0.09375
vt 0.125 0.90625
vt 0.125 1
vt 0.0625 1
vt 0.0625 0.90625
vt 0 0
vt 0 0.09375
vt 0.5625 0.09375
vt 0.5625 0
vt 0.5625 0
vt 0.5625 0.09375
vt 0 0.09375
vt 0 0
vt 0.5625 0.03125
vt 0 0.03125
vt 0 0.09375
vt 0.5625 0.09375
vt 0 0.0625
vt 0.5625 0.0625
vt 0.5625 0
vt 0 0
vt 0.125 0.90625
vt 0.125 1
vt 0.0625 1
vt 0.0625 0.90625
vt 0 0
vt 0 0.09375
vt 0.5625 0.09375
vt 0.5625 0
vt 0.5625 0
vt 0.5625 0.09375
vt 0 0.09375
vt 0 0
vt 0.5625 0.03125
vt 0 0.03125
vt 0 0.09375
vt 0.5625 0.09375
vt 0 0.0625
vt 0.5625 0.0625
vt 0.5625 0
vt 0 0
vt 0.125 0.90625
vt 0.125 1
vt 0.0625 1
vt 0.0625 0.90625
vt 0.1875 0.5625
vt 0.1875 0.5
vt 0 0.5
vt 0 0.5625
vt 0.125 0.6875
vt 0.125 0.875
vt 0.0625 0.875
vt 0.0625 0.6875
vt 0.0625 0.6875
vt 0.0625 0.875
vt 0.125 0.875
vt 0.125 0.6875
vt 0.25 0.5
vt 0.25 0.5625
vt 0.1875 0.5625
vt 0.1875 0.5
vt 0.1875 0.5
vt 0.1875 0.5625
vt 0.25 0.5625
vt 0.25 0.5
vt 0.0625 0.1875
vt 0.0625 0.625
vt 0 0.625
vt 0 0.1875
vt 0.25 0.25
vt 0.25 0.6875
vt 0.1875 0.6875
vt 0.1875 0.25
vt 0.1875 0.1875
vt 0.1875 0.625
vt 0.25 0.625
vt 0.25 0.1875
vt 0.0625 0.1875
vt 0.0625 0.625
vt 0 0.625
vt 0 0.1875
vt 0.1875 0.1875
vt 0.1875 0.625
vt 0.25 0.625
vt 0.25 0.1875
vt 0.1875 0.25
vt 0.1875 0.6875
vt 0.25 0.6875
vt 0.25 0.25
vt 0.625 0.21875
vt 0.9375 0.21875
vt 0.9375 0.28125
vt 0.625 0.28125
vt 0.15625 0.40625
vt 0.09375 0.40625
vt 0.09375 0.3125
vt 0.15625 0.3125
vt 0.09375 0.40625
vt 0.15625 0.40625
vt 0.15625 0.3125
vt 0.09375 0.3125
vt 0.25 0.21875
vt 0.25 0.53125
vt 0.34375 0.53125
vt 0.34375 0.21875
vt 0.25 0.21875
vt 0.25 0.53125
vt 0.34375 0.53125
vt 0.34375 0.21875
vt 0.625 0.28125
vt 0.9375 0.28125
vt 0.9375 0.21875
vt 0.625 0.21875
vt 0.09375 0.40625
vt 0.15625 0.40625
vt 0.15625 0.3125
vt 0.09375 0.3125
vt 0.15625 0.40625
vt 0.09375 0.40625
vt 0.09375 0.3125
vt 0.15625 0.3125
vt 0.25 0.21875
vt 0.25 0.53125
vt 0.34375 0.53125
vt 0.34375 0.21875
vt 0.25 0.21875
vt 0.25 0.53125
vt 0.34375 0.53125
vt 0.34375 0.21875
vt 0 0.9375
vt 0 0.875
vt 0.1875 0.875
vt 0.1875 0.9375
vt 0.0625 0.6875
vt 0.0625 0.875
vt 0.125 0.875
vt 0.125 0.6875
vt 0.125 0.6875
vt 0.125 0.875
vt 0.0625 0.875
vt 0.0625 0.6875
vt 0.25 0.9375
vt 0.25 0.875
vt 0.1875 0.875
vt 0.1875 0.9375
vt 0.1875 0.9375
vt 0.1875 0.875
vt 0.25 0.875
vt 0.25 0.9375
vt 0.1875 0.5625
vt 0.1875 0.5
vt 0 0.5
vt 0 0.5625
vt 0.125 0.6875
vt 0.125 0.875
vt 0.0625 0.875
vt 0.0625 0.6875
vt 0.0625 0.6875
vt 0.0625 0.875
vt 0.125 0.875
vt 0.125 0.6875
vt 0.25 0.5
vt 0.25 0.5625
vt 0.1875 0.5625
vt 0.1875 0.5
vt 0.1875 0.5
vt 0.1875 0.5625
vt 0.25 0.5625
vt 0.25 0.5
vt 0.0625 0.1875
vt 0.0625 0.625
vt 0 0.625
vt 0 0.1875
vt 0.1875 0.1875
vt 0.1875 0.625
vt 0.25 0.625
vt 0.25 0.1875
vt 0.1875 0.25
vt 0.1875 0.6875
vt 0.25 0.6875
vt 0.25 0.25
vt 0.0625 0.1875
vt 0.0625 0.625
vt 0 0.625
vt 0 0.1875
vt 0.25 0.25
vt 0.25 0.6875
vt 0.1875 0.6875
vt 0.1875 0.25
vt 0.1875 0.1875
vt 0.1875 0.625
vt 0.25 0.625
vt 0.25 0.1875
vt 0 0.9375
vt 0 0.875
vt 0.1875 0.875
vt 0.1875 0.9375
vt 0.0625 0.6875
vt 0.0625 0.875
vt 0.125 0.875
vt 0.125 0.6875
vt 0.125 0.6875
vt 0.125 0.875
vt 0.0625 0.875
vt 0.0625 0.6875
vt 0.25 0.9375
vt 0.25 0.875
vt 0.1875 0.875
vt 0.1875 0.9375
vt 0.1875 0.9375
vt 0.1875 0.875
vt 0.25 0.875
vt 0.25 0.9375
vt 0.625 0.28125
vt 0.9375 0.28125
vt 0.9375 0.21875
vt 0.625 0.21875
vt 0.09375 0.40625
vt 0.15625 0.40625
vt 0.15625 0.3125
vt 0.09375 0.3125
vt 0.15625 0.40625
vt 0.09375 0.40625
vt 0.09375 0.3125
vt 0.15625 0.3125
vt 0.25 0.21875
vt 0.25 0.53125
vt 0.34375 0.53125
vt 0.34375 0.21875
vt 0.25 0.21875
vt 0.25 0.53125
vt 0.34375 0.53125
vt 0.34375 0.21875
vt 0.625 0.21875
vt 0.9375 0.21875
vt 0.9375 0.28125
vt 0.625 0.28125
vt 0.15625 0.40625
vt 0.09375 0.40625
vt 0.09375 0.3125
vt 0.15625 0.3125
vt 0.09375 0.40625
vt 0.15625 0.40625
vt 0.15625 0.3125
vt 0.09375 0.3125
vt 0.25 0.21875
vt 0.25 0.53125
vt 0.34375 0.53125
vt 0.34375 0.21875
vt 0.25 0.21875
vt 0.25 0.53125
vt 0.34375 0.53125
vt 0.34375 0.21875
vt 0 0.9375
vt 0 0.875
vt 0.1875 0.875
vt 0.1875 0.9375
vt 0.0625 0.6875
vt 0.0625 0.875
vt 0.125 0.875
vt 0.125 0.6875
vt 0.125 0.6875
vt 0.125 0.875
vt 0.0625 0.875
vt 0.0625 0.6875
vt 0.25 0.9375
vt 0.25 0.875
vt 0.1875 0.875
vt 0.1875 0.9375
vt 0.1875 0.9375
vt 0.1875 0.875
vt 0.25 0.875
vt 0.25 0.9375
vt 0.1875 0.5625
vt 0.1875 0.5
vt 0 0.5
vt 0 0.5625
vt 0.125 0.6875
vt 0.125 0.875
vt 0.0625 0.875
vt 0.0625 0.6875
vt 0.0625 0.6875
vt 0.0625 0.875
vt 0.125 0.875
vt 0.125 0.6875
vt 0.25 0.5
vt 0.25 0.5625
vt 0.1875 0.5625
vt 0.1875 0.5
vt 0.1875 0.5
vt 0.1875 0.5625
vt 0.25 0.5625
vt 0.25 0.5
vt 0.0625 0.1875
vt 0.0625 0.625
vt 0 0.625
vt 0 0.1875
vt 0.25 0.25
vt 0.25 0.6875
vt 0.1875 0.6875
vt 0.1875 0.25
vt 0.1875 0.1875
vt 0.1875 0.625
vt 0.25 0.625
vt 0.25 0.1875
vt 0.0625 0.1875
vt 0.0625 0.625
vt 0 0.625
vt 0 0.1875
vt 0.1875 0.1875
vt 0.1875 0.625
vt 0.25 0.625
vt 0.25 0.1875
vt 0.1875 0.25
vt 0.1875 0.6875
vt 0.25 0.6875
vt 0.25 0.25
vt 0.625 0.21875
vt 0.9375 0.21875
vt 0.9375 0.28125
vt 0.625 0.28125
vt 0.15625 0.40625
vt 0.09375 0.40625
vt 0.09375 0.3125
vt 0.15625 0.3125
vt 0.09375 0.40625
vt 0.15625 0.40625
vt 0.15625 0.3125
vt 0.09375 0.3125
vt 0.25 0.21875
vt 0.25 0.53125
vt 0.34375 0.53125
vt 0.34375 0.21875
vt 0.25 0.21875
vt 0.25 0.53125
vt 0.34375 0.53125
vt 0.34375 0.21875
vt 0.625 0.28125
vt 0.9375 0.28125
vt 0.9375 0.21875
vt 0.625 0.21875
vt 0.09375 0.40625
vt 0.15625 0.40625
vt 0.15625 0.3125
vt 0.09375 0.3125
vt 0.15625 0.40625
vt 0.09375 0.40625
vt 0.09375 0.3125
vt 0.15625 0.3125
vt 0.25 0.21875
vt 0.25 0.53125
vt 0.34375 0.53125
vt 0.34375 0.21875
vt 0.25 0.21875
vt 0.25 0.53125
vt 0.34375 0.53125
vt 0.34375 0.21875
vn 1 0 0
vn -1 0 0
vn 0 1 0
vn 0 -1 0
vn 0 0 -1
vn 1 0 0
vn -1 0 0
vn 0 1 0
vn 0 -1 0
vn 0 0 -1
vn 1 0 0
vn -1 0 0
vn 0 1 0
vn 0 -1 0
vn 0 0 -1
vn 1 0 0
vn -1 0 0
vn 0 1 0
vn 0 -1 0
vn 0 0 -1
vn 1 0 0
vn -1 0 0
vn 0 1 0
vn 0 -1 0
vn 0 0 -1
vn 1 0 0
vn -1 0 0
vn 0 1 0
vn 0 -1 0
vn 0 0 -1
vn 1 0 0
vn -1 0 0
vn 0 1 0
vn 0 -1 0
vn 0 0 -1
vn 1 0 0
vn -1 0 0
vn 0 1 0
vn 0 -1 0
vn 0 0 -1
vn -1 0 0
vn 0 1 0
vn 0 -1 0
vn 0 0 1
vn 0 0 -1
vn -1 0 0
vn 0 0 1
vn 0 0 -1
vn -1 0 0
vn 0 0 1
vn 0 0 -1
vn -1 0 0
vn 0 1 0
vn 0 -1 0
vn 0 0 1
vn 0 0 -1
vn -1 0 0
vn 0 1 0
vn 0 -1 0
vn 0 0 1
vn 0 0 -1
vn -1 0 0
vn 0 1 0
vn 0 -1 0
vn 0 0 1
vn 0 0 -1
vn -1 0 0
vn 0 1 0
vn 0 -1 0
vn 0 0 1
vn 0 0 -1
vn -1 0 0
vn 0 0 1
vn 0 0 -1
vn -1 0 0
vn 0 0 1
vn 0 0 -1
vn -1 0 0
vn 0 1 0
vn 0 -1 0
vn 0 0 1
vn 0 0 -1
vn -1 0 0
vn 0 1 0
vn 0 -1 0
vn 0 0 1
vn 0 0 -1
vn -1 0 0
vn 0 1 0
vn 0 -1 0
vn 0 0 1
vn 0 0 -1
vn -1 0 0
vn 0 1 0
vn 0 -1 0
vn 0 0 1
vn 0 0 -1
vn -1 0 0
vn 0 1 0
vn 0 -1 0
vn 0 0 1
vn 0 0 -1
vn -1 0 0
vn 0 0 1
vn 0 0 -1
vn -1 0 0
vn 0 0 1
vn 0 0 -1
vn -1 0 0
vn 0 1 0
vn 0 -1 0
vn 0 0 1
vn 0 0 -1
vn -1 0 0
vn 0 1 0
vn 0 -1 0
vn 0 0 1
vn 0 0 -1
usemtl broad_piston
f 4/1/1 2/2/1 1/3/1 3/4/1
f 7/5/2 5/6/2 6/7/2 8/8/2
f 1/9/3 2/10/3 6/11/3 5/12/3
f 4/13/4 3/14/4 7/15/4 8/16/4
f 8/17/5 6/18/5 2/19/5 4/20/5
f 12/21/6 10/22/6 9/23/6 11/24/6
f 15/25/7 13/26/7 14/27/7 16/28/7
f 9/29/8 10/30/8 14/31/8 13/32/8
f 12/33/9 11/34/9 15/35/9 16/36/9
f 16/37/10 14/38/10 10/39/10 12/40/10
f 20/41/11 18/42/11 17/43/11 19/44/11
f 23/45/12 21/46/12 22/47/12 24/48/12
f 17/49/13 18/50/13 22/51/13 21/52/13
f 20/53/14 19/54/14 23/55/14 24/56/14
f 24/57/15 22/58/15 18/59/15 20/60/15
f 28/61/16 26/62/16 25/63/16 27/64/16
f 31/65/17 29/66/17 30/67/17 32/68/17
f 25/69/18 26/70/18 30/71/18 29/72/18
f 28/73/19 27/74/19 31/75/19 32/76/19
f 32/77/20 30/78/20 26/79/20 28/80/20
f 36/81/21 34/82/21 33/83/21 35/84/21
f 39/85/22 37/86/22 38/87/22 40/88/22
f 33/89/23 34/90/23 38/91/23 37/92/23
f 36/93/24 35/94/24 39/95/24 40/96/24
f 40/97/25 38/98/25 34/99/25 36/100/25
f 44/101/26 42/102/26 41/103/26 43/104/26
f 47/105/27 45/106/27 46/107/27 48/108/27
f 41/109/28 42/110/28 46/111/28 45/112/28
f 44/113/29 43/114/29 47/115/29 48/116/29
f 48/117/30 46/118/30 42/119/30 44/120/30
f 52/121/31 50/122/31 49/123/31 51/124/31
f 55/125/32 53/126/32 54/127/32 56/128/32
f 49/129/33 50/130/33 54/131/33 53/132/33
f 52/133/34 51/134/34 55/135/34 56/136/34
f 56/137/35 54/138/35 50/139/35 52/140/35
f 60/141/36 58/142/36 57/143/36 59/144/36
f 63/145/37 61/146/37 62/147/37 64/148/37
f 57/149/38 58/150/38 62/151/38 61/152/38
f 60/153/39 59/154/39 63/155/39 64/156/39
f 64/157/40 62/158/40 58/159/40 60/160/40
usemtl piston
f 71/161/41 69/162/41 70/163/41 72/164/41
f 65/165/42 66/166/42 70/167/42 69/168/42
f 68/169/43 67/170/43 71/171/43 72/172/43
f 67/173/44 65/174/44 69/175/44 71/176/44
f 72/177/45 70/178/45 66/179/45 68/180/45
usemtl broad_piston
f 79/181/46 77/182/46 78/183/46 80/184/46
f 75/185/47 73/186/47 77/187/47 79/188/47
f 80/189/48 78/190/48 74/191/48 76/192/48
f 87/193/49 85/194/49 86/195/49 88/196/49
f 83/197/50 81/198/50 85/199/50 87/200/50
f 88/201/51 86/202/51 82/203/51 84/204/51
f 95/205/52 93/206/52 94/207/52 96/208/52
f 89/209/53 90/210/53 94/211/53 93/212/53
f 92/213/54 91/214/54 95/215/54 96/216/54
f 91/217/55 89/218/55 93/219/55 95/220/55
f 96/221/56 94/222/56 90/223/56 92/224/56
f 103/225/57 101/226/57 102/227/57 104/228/57
f 97/229/58 98/230/58 102/231/58 101/232/58
f 100/233/59 99/234/59 103/235/59 104/236/59
f 99/237/60 97/238/60 101/239/60 103/240/60
f 104/241/61 102/242/61 98/243/61 100/244/61
usemtl piston
f 111/245/62 109/246/62 110/247/62 112/248/62
f 105/249/63 106/250/63 110/251/63 109/252/63
f 108/253/64 107/254/64 111/255/64 112/256/64
f 107/257/65 105/258/65 109/259/65 111/260/65
f 112/261/66 110/262/66 106/263/66 108/264/66
f 119/265/67 117/266/67 118/267/67 120/268/67
f 113/269/68 114/270/68 118/271/68 117/272/68
f 116/273/69 115/274/69 119/275/69 120/276/69
f 115/277/70 113/278/70 117/279/70 119/280/70
f 120/281/71 118/282/71 114/283/71 116/284/71
usemtl broad_piston
f 127/285/72 125/286/72 126/287/72 128/288/72
f 123/289/73 121/290/73 125/291/73 127/292/73
f 128/293/74 126/294/74 122/295/74 124/296/74
f 135/297/75 133/298/75 134/299/75 136/300/75
f 131/301/76 129/302/76 133/303/76 135/304/76
f 136/305/77 134/306/77 130/307/77 132/308/77
usemtl piston
f 143/309/78 141/310/78 142/311/78 144/312/78
f 137/313/79 138/314/79 142/315/79 141/316/79
f 140/317/80 139/318/80 143/319/80 144/320/80
f 139/321/81 137/322/81 141/323/81 143/324/81
f 144/325/82 142/326/82 138/327/82 140/328/82
usemtl broad_piston
f 151/329/83 149/330/83 150/331/83 152/332/83
f 145/333/84 146/334/84 150/335/84 149/336/84
f 148/337/85 147/338/85 151/339/85 152/340/85
f 147/341/86 145/342/86 149/343/86 151/344/86
f 152/345/87 150/346/87 146/347/87 148/348/87
f 159/349/88 157/350/88 158/351/88 160/352/88
f 153/353/89 154/354/89 158/355/89 157/356/89
f 156/357/90 155/358/90 159/359/90 160/360/90
f 155/361/91 153/362/91 157/363/91 159/364/91
f 160/365/92 158/366/92 154/367/92 156/368/92
usemtl piston
f 167/369/93 165/370/93 166/371/93 168/372/93
f 161/373/94 162/374/94 166/375/94 165/376/94
f 164/377/95 163/378/95 167/379/95 168/380/95
f 163/381/96 161/382/96 165/383/96 167/384/96
f 168/385/97 166/386/97 162/387/97 164/388/97
f 175/389/98 173/390/98 174/391/98 176/392/98
f 169/393/99 170/394/99 174/395/99 173/396/99
f 172/397/100 171/398/100 175/399/100 176/400/100
f 171/401/101 169/402/101 173/403/101 175/404/101
f 176/405/102 174/406/102 170/407/102 172/408/102
usemtl broad_piston
f 183/409/103 181/410/103 182/411/103 184/412/103
f 179/413/104 177/414/104 181/415/104 183/416/104
f 184/417/105 182/418/105 178/419/105 180/420/105
f 191/421/106 189/422/106 190/423/106 192/424/106
f 187/425/107 185/426/107 189/427/107 191/428/107
f 192/429/108 190/430/108 186/431/108 188/432/108
f 199/433/109 197/434/109 198/435/109 200/436/109
f 193/437/110 194/438/110 198/439/110 197/440/110
f 196/441/111 195/442/111 199/443/111 200/444/111
f 195/445/112 193/446/112 197/447/112 199/448/112
f 200/449/113 198/450/113 194/451/113 196/452/113
f 207/453/114 205/454/114 206/455/114 208/456/114
f 201/457/115 202/458/115 206/459/115 205/460/115
f 204/461/116 203/462/116 207/463/116 208/464/116
f 203/465/117 201/466/117 205/467/117 207/468/117
f 208/469/118 206/470/118 202/471/118 204/472/118