# Blender 4.4.3
# www.blender.org
mtllib textures.mtl
o cube.033
v -0.500000 0.953735 4.553637
v -0.500000 1.312500 3.687500
v -0.500000 0.895992 4.529719
v -0.500000 1.254758 3.663582
v -0.687500 1.312500 3.687500
v -0.687500 0.953735 4.553637
v -0.687500 1.254758 3.663582
v -0.687500 0.895992 4.529719
v 0.687500 0.953735 4.553637
v 0.687500 1.312500 3.687500
v 0.687500 0.895992 4.529719
v 0.687500 1.254758 3.663582
v 0.500000 1.312500 3.687500
v 0.500000 0.953735 4.553637
v 0.500000 1.254758 3.663582
v 0.500000 0.895992 4.529719
v 0.687500 0.625000 4.250000
v 0.687500 0.625000 3.250000
v 0.687500 0.562500 4.250000
v 0.687500 0.562500 3.250000
v 0.500000 0.625000 3.250000
v 0.500000 0.625000 4.250000
v 0.500000 0.562500 3.250000
v 0.500000 0.562500 4.250000
v 0.687500 0.625000 3.250000
v 0.687500 0.625000 2.250000
v 0.687500 0.562500 3.250000
v 0.687500 0.562500 2.250000
v 0.500000 0.625000 2.250000
v 0.500000 0.625000 3.250000
v 0.500000 0.562500 2.250000
v 0.500000 0.562500 3.250000
v 0.687500 1.375000 3.062500
v 0.687500 1.375000 2.062500
v 0.687500 1.312500 3.062500
v 0.687500 1.312500 2.062500
v 0.500000 1.375000 2.062500
v 0.500000 1.375000 3.062500
v 0.500000 1.312500 2.062500
v 0.500000 1.312500 3.062500
v 0.687500 1.375000 2.062500
v 0.687500 1.375000 1.437500
v 0.687500 1.312500 2.062500
v 0.687500 1.312500 1.437500
v 0.500000 1.375000 1.437500
v 0.500000 1.375000 2.062500
v 0.500000 1.312500 1.437500
v 0.500000 1.312500 2.062500
v 0.687500 1.312500 -3.687500
v 0.687500 0.953734 -4.553637
v 0.687500 1.254757 -3.663582
v 0.687500 0.895991 -4.529719
v 0.500000 0.953734 -4.553637
v 0.500000 1.312500 -3.687500
v 0.500000 0.895991 -4.529719
v 0.500000 1.254757 -3.663582
v 0.687500 0.625000 2.250000
v 0.687500 0.625000 1.250000
v 0.687500 0.562500 2.250000
v 0.687500 0.562500 1.250000
v 0.500000 0.625000 1.250000
v 0.500000 0.625000 2.250000
v 0.500000 0.562500 1.250000
v 0.500000 0.562500 2.250000
v 0.687500 0.625000 1.250000
v 0.687500 0.625000 0.250000
v 0.687500 0.562500 1.250000
v 0.687500 0.562500 0.250000
v 0.500000 0.625000 0.250000
v 0.500000 0.625000 1.250000
v 0.500000 0.562500 0.250000
v 0.500000 0.562500 1.250000
v 0.687500 0.625000 0.250000
v 0.687500 0.625000 -0.750000
v 0.687500 0.562500 0.250000
v 0.687500 0.562500 -0.750000
v 0.500000 0.625000 -0.750000
v 0.500000 0.625000 0.250000
v 0.500000 0.562500 -0.750000
v 0.500000 0.562500 0.250000
v 0.687500 0.625000 -0.750000
v 0.687500 0.625000 -1.750000
v 0.687500 0.562500 -0.750000
v 0.687500 0.562500 -1.750000
v 0.500000 0.625000 -1.750000
v 0.500000 0.625000 -0.750000
v 0.500000 0.562500 -1.750000
v 0.500000 0.562500 -0.750000
v 0.687500 0.625000 -1.750000
v 0.687500 0.625000 -2.750000
v 0.687500 0.562500 -1.750000
v 0.687500 0.562500 -2.750000
v 0.500000 0.625000 -2.750000
v 0.500000 0.625000 -1.750000
v 0.500000 0.562500 -2.750000
v 0.500000 0.562500 -1.750000
v 0.687500 0.625000 -2.750000
v 0.687500 0.625000 -3.750000
v 0.687500 0.562500 -2.750000
v 0.687500 0.562500 -3.750000
v 0.500000 0.625000 -3.750000
v 0.500000 0.625000 -2.750000
v 0.500000 0.562500 -3.750000
v 0.500000 0.562500 -2.750000
v 0.687500 0.625000 -3.750000
v 0.687500 0.625000 -4.125000
v 0.687500 0.562500 -3.750000
v 0.687500 0.562500 -4.125000
v 0.500000 0.625000 -4.125000
v 0.500000 0.625000 -3.750000
v 0.500000 0.562500 -4.125000
v 0.500000 0.562500 -3.750000
v 0.687500 1.375000 -0.187500
v 0.687500 1.375000 -0.812500
v 0.687500 1.312500 -0.187500
v 0.687500 1.312500 -0.812500
v 0.500000 1.375000 -0.812500
v 0.500000 1.375000 -0.187500
v 0.500000 1.312500 -0.812500
v 0.500000 1.312500 -0.187500
v 0.687500 1.375000 0.812500
v 0.687500 1.375000 -0.187500
v 0.687500 1.312500 0.812500
v 0.687500 1.312500 -0.187500
v 0.500000 1.375000 -0.187500
v 0.500000 1.375000 0.812500
v 0.500000 1.312500 -0.187500
v 0.500000 1.312500 0.812500
v 0.687500 1.375000 -2.437500
v 0.687500 1.375000 -3.062500
v 0.687500 1.312500 -2.437500
v 0.687500 1.312500 -3.062500
v 0.500000 1.375000 -3.062500
v 0.500000 1.375000 -2.437500
v 0.500000 1.312500 -3.062500
v 0.500000 1.312500 -2.437500
v 0.687500 1.375000 -1.437500
v 0.687500 1.375000 -2.437500
v 0.687500 1.312500 -1.437500
v 0.687500 1.312500 -2.437500
v 0.500000 1.375000 -2.437500
v 0.500000 1.375000 -1.437500
v 0.500000 1.312500 -2.437500
v 0.500000 1.312500 -1.437500
v -0.500000 1.312500 -3.687500
v -0.500000 0.953734 -4.553637
v -0.500000 1.254757 -3.663582
v -0.500000 0.895991 -4.529719
v -0.687500 0.953734 -4.553637
v -0.687500 1.312500 -3.687500
v -0.687500 0.895991 -4.529719
v -0.687500 1.254757 -3.663582
v -0.500000 1.375000 -2.437500
v -0.500000 1.375000 -3.062500
v -0.500000 1.312500 -2.437500
v -0.500000 1.312500 -3.062500
v -0.687500 1.375000 -3.062500
v -0.687500 1.375000 -2.437500
v -0.687500 1.312500 -3.062500
v -0.687500 1.312500 -2.437500
v -0.500000 1.375000 -1.437500
v -0.500000 1.375000 -2.437500
v -0.500000 1.312500 -1.437500
v -0.500000 1.312500 -2.437500
v -0.687500 1.375000 -2.437500
v -0.687500 1.375000 -1.437500
v -0.687500 1.312500 -2.437500
v -0.687500 1.312500 -1.437500
v -0.500000 1.375000 -0.187500
v -0.500000 1.375000 -0.812500
v -0.500000 1.312500 -0.187500
v -0.500000 1.312500 -0.812500
v -0.687500 1.375000 -0.812500
v -0.687500 1.375000 -0.187500
v -0.687500 1.312500 -0.812500
v -0.687500 1.312500 -0.187500
v -0.500000 1.375000 0.812500
v -0.500000 1.375000 -0.187500
v -0.500000 1.312500 0.812500
v -0.500000 1.312500 -0.187500
v -0.687500 1.375000 -0.187500
v -0.687500 1.375000 0.812500
v -0.687500 1.312500 -0.187500
v -0.687500 1.312500 0.812500
v -0.500000 1.375000 2.062500
v -0.500000 1.375000 1.437500
v -0.500000 1.312500 2.062500
v -0.500000 1.312500 1.437500
v -0.687500 1.375000 1.437500
v -0.687500 1.375000 2.062500
v -0.687500 1.312500 1.437500
v -0.687500 1.312500 2.062500
v -0.500000 1.375000 3.062500
v -0.500000 1.375000 2.062500
v -0.500000 1.312500 3.062500
v -0.500000 1.312500 2.062500
v -0.687500 1.375000 2.062500
v -0.687500 1.375000 3.062500
v -0.687500 1.312500 2.062500
v -0.687500 1.312500 3.062500
v -0.500000 0.625000 -3.750000
v -0.500000 0.625000 -4.125000
v -0.500000 0.562500 -3.750000
v -0.500000 0.562500 -4.125000
v -0.687500 0.625000 -4.125000
v -0.687500 0.625000 -3.750000
v -0.687500 0.562500 -4.125000
v -0.687500 0.562500 -3.750000
v -0.500000 0.625000 -2.750000
v -0.500000 0.625000 -3.750000
v -0.500000 0.562500 -2.750000
v -0.500000 0.562500 -3.750000
v -0.687500 0.625000 -3.750000
v -0.687500 0.625000 -2.750000
v -0.687500 0.562500 -3.750000
v -0.687500 0.562500 -2.750000
v -0.500000 0.625000 -1.750000
v -0.500000 0.625000 -2.750000
v -0.500000 0.562500 -1.750000
v -0.500000 0.562500 -2.750000
v -0.687500 0.625000 -2.750000
v -0.687500 0.625000 -1.750000
v -0.687500 0.562500 -2.750000
v -0.687500 0.562500 -1.750000
v -0.500000 0.625000 -0.750000
v -0.500000 0.625000 -1.750000
v -0.500000 0.562500 -0.750000
v -0.500000 0.562500 -1.750000
v -0.687500 0.625000 -1.750000
v -0.687500 0.625000 -0.750000
v -0.687500 0.562500 -1.750000
v -0.687500 0.562500 -0.750000
v -0.500000 0.625000 0.250000
v -0.500000 0.625000 -0.750000
v -0.500000 0.562500 0.250000
v -0.500000 0.562500 -0.750000
v -0.687500 0.625000 -0.750000
v -0.687500 0.625000 0.250000
v -0.687500 0.562500 -0.750000
v -0.687500 0.562500 0.250000
v -0.500000 0.625000 1.250000
v -0.500000 0.625000 0.250000
v -0.500000 0.562500 1.250000
v -0.500000 0.562500 0.250000
v -0.687500 0.625000 0.250000
v -0.687500 0.625000 1.250000
v -0.687500 0.562500 0.250000
v -0.687500 0.562500 1.250000
v -0.500000 0.625000 2.250000
v -0.500000 0.625000 1.250000
v -0.500000 0.562500 2.250000
v -0.500000 0.562500 1.250000
v -0.687500 0.625000 1.250000
v -0.687500 0.625000 2.250000
v -0.687500 0.562500 1.250000
v -0.687500 0.562500 2.250000
v -0.500000 0.625000 3.250000
v -0.500000 0.625000 2.250000
v -0.500000 0.562500 3.250000
v -0.500000 0.562500 2.250000
v -0.687500 0.625000 2.250000
v -0.687500 0.625000 3.250000
v -0.687500 0.562500 2.250000
v -0.687500 0.562500 3.250000
v -0.500000 0.625000 4.250000
v -0.500000 0.625000 3.250000
v -0.500000 0.562500 4.250000
v -0.500000 0.562500 3.250000
v -0.687500 0.625000 3.250000
v -0.687500 0.625000 4.250000
v -0.687500 0.562500 3.250000
v -0.687500 0.562500 4.250000
vn 1.0000 -0.0000 -0.0000
vn -1.0000 -0.0000 -0.0000
vn -0.0000 0.9239 0.3827
vn -0.0000 -0.9239 -0.3827
vn -0.0000 1.0000 -0.0000
vn -0.0000 -1.0000 -0.0000
vn -0.0000 0.9239 -0.3827
vn -0.0000 -0.9239 0.3827
vt 0.312500 0.937500
vt 0.312500 0.000000
vt 0.250000 0.000000
vt 0.250000 0.937500
vt 0.187500 0.000000
vt 0.187500 0.937500
vt 0.125000 0.937500
vt 0.125000 0.000000
vt 0.187500 1.000000
vt 0.125000 1.000000
vt 0.312500 1.000000
vt 0.250000 1.000000
vt 0.187500 0.375000
vt 0.125000 0.375000
vt 0.312500 0.375000
vt 0.250000 0.375000
s 1
usemtl belts
f 3/1/1 4/2/1 2/3/1 1/4/1
f 7/5/2 8/6/2 6/7/2 5/8/2
f 6/7/3 1/1/3 2/2/3 5/8/3
f 7/8/4 4/2/4 3/1/4 8/7/4
f 11/6/1 12/5/1 10/8/1 9/7/1
f 15/2/2 16/1/2 14/4/2 13/3/2
f 14/1/3 9/7/3 10/8/3 13/2/3
f 15/2/4 12/8/4 11/7/4 16/1/4
f 19/5/1 20/9/1 18/10/1 17/8/1
f 23/11/2 24/2/2 22/3/2 21/12/2
f 22/2/5 17/8/5 18/10/5 21/11/5
f 23/11/6 20/10/6 19/8/6 24/2/6
f 27/5/1 28/9/1 26/10/1 25/8/1
f 31/11/2 32/2/2 30/3/2 29/12/2
f 30/2/5 25/8/5 26/10/5 29/11/5
f 31/11/6 28/10/6 27/8/6 32/2/6
f 35/9/1 36/5/1 34/8/1 33/10/1
f 39/2/2 40/11/2 38/12/2 37/3/2
f 38/11/5 33/10/5 34/8/5 37/2/5
f 39/2/6 36/8/6 35/10/6 40/11/6
f 43/9/1 44/13/1 42/14/1 41/10/1
f 47/15/2 48/11/2 46/12/2 45/16/2
f 46/11/5 41/10/5 42/14/5 45/15/5
f 47/15/6 44/14/6 43/10/6 48/11/6
f 51/6/1 52/5/1 50/8/1 49/7/1
f 55/2/2 56/1/2 54/4/2 53/3/2
f 54/1/7 49/7/7 50/8/7 53/2/7
f 55/2/8 52/8/8 51/7/8 56/1/8
f 59/5/1 60/9/1 58/10/1 57/8/1
f 63/11/2 64/2/2 62/3/2 61/12/2
f 62/2/5 57/8/5 58/10/5 61/11/5
f 63/11/6 60/10/6 59/8/6 64/2/6
f 67/5/1 68/9/1 66/10/1 65/8/1
f 71/11/2 72/2/2 70/3/2 69/12/2
f 70/2/5 65/8/5 66/10/5 69/11/5
f 71/11/6 68/10/6 67/8/6 72/2/6
f 75/5/1 76/9/1 74/10/1 73/8/1
f 79/11/2 80/2/2 78/3/2 77/12/2
f 78/2/5 73/8/5 74/10/5 77/11/5
f 79/11/6 76/10/6 75/8/6 80/2/6
f 83/5/1 84/9/1 82/10/1 81/8/1
f 87/11/2 88/2/2 86/3/2 85/12/2
f 86/2/5 81/8/5 82/10/5 85/11/5
f 87/11/6 84/10/6 83/8/6 88/2/6
f 91/5/1 92/9/1 90/10/1 89/8/1
f 95/11/2 96/2/2 94/3/2 93/12/2
f 94/2/5 89/8/5 90/10/5 93/11/5
f 95/11/6 92/10/6 91/8/6 96/2/6
f 99/5/1 100/9/1 98/10/1 97/8/1
f 103/11/2 104/2/2 102/3/2 101/12/2
f 102/2/5 97/8/5 98/10/5 101/11/5
f 103/11/6 100/10/6 99/8/6 104/2/6
f 107/5/1 108/13/1 106/14/1 105/8/1
f 111/15/2 112/2/2 110/3/2 109/16/2
f 110/2/5 105/8/5 106/14/5 109/15/5
f 111/15/6 108/14/6 107/8/6 112/2/6
f 115/9/1 116/13/1 114/14/1 113/10/1
f 119/15/2 120/11/2 118/12/2 117/16/2
f 118/11/5 113/10/5 114/14/5 117/15/5
f 119/15/6 116/14/6 115/10/6 120/11/6
f 123/9/1 124/5/1 122/8/1 121/10/1
f 127/2/2 128/11/2 126/12/2 125/3/2
f 126/11/5 121/10/5 122/8/5 125/2/5
f 127/2/6 124/8/6 123/10/6 128/11/6
f 131/9/1 132/13/1 130/14/1 129/10/1
f 135/15/2 136/11/2 134/12/2 133/16/2
f 134/11/5 129/10/5 130/14/5 133/15/5
f 135/15/6 132/14/6 131/10/6 136/11/6
f 139/9/1 140/5/1 138/8/1 137/10/1
f 143/2/2 144/11/2 142/12/2 141/3/2
f 142/11/5 137/10/5 138/8/5 141/2/5
f 143/2/6 140/8/6 139/10/6 144/11/6
f 147/1/1 148/2/1 146/3/1 145/4/1
f 151/5/2 152/6/2 150/7/2 149/8/2
f 150/7/7 145/1/7 146/2/7 149/8/7
f 151/8/8 148/2/8 147/1/8 152/7/8
f 155/11/1 156/15/1 154/16/1 153/12/1
f 159/13/2 160/9/2 158/10/2 157/14/2
f 158/10/5 153/11/5 154/15/5 157/14/5
f 159/14/6 156/15/6 155/11/6 160/10/6
f 163/11/1 164/2/1 162/3/1 161/12/1
f 167/5/2 168/9/2 166/10/2 165/8/2
f 166/10/5 161/11/5 162/2/5 165/8/5
f 167/8/6 164/2/6 163/11/6 168/10/6
f 171/11/1 172/15/1 170/16/1 169/12/1
f 175/13/2 176/9/2 174/10/2 173/14/2
f 174/10/5 169/11/5 170/15/5 173/14/5
f 175/14/6 172/15/6 171/11/6 176/10/6
f 179/11/1 180/2/1 178/3/1 177/12/1
f 183/5/2 184/9/2 182/10/2 181/8/2
f 182/10/5 177/11/5 178/2/5 181/8/5
f 183/8/6 180/2/6 179/11/6 184/10/6
f 187/11/1 188/15/1 186/16/1 185/12/1
f 191/13/2 192/9/2 190/10/2 189/14/2
f 190/10/5 185/11/5 186/15/5 189/14/5
f 191/14/6 188/15/6 187/11/6 192/10/6
f 195/11/1 196/2/1 194/3/1 193/12/1
f 199/5/2 200/9/2 198/10/2 197/8/2
f 198/10/5 193/11/5 194/2/5 197/8/5
f 199/8/6 196/2/6 195/11/6 200/10/6
f 203/2/1 204/15/1 202/16/1 201/3/1
f 207/13/2 208/5/2 206/8/2 205/14/2
f 206/8/5 201/2/5 202/15/5 205/14/5
f 207/14/6 204/15/6 203/2/6 208/8/6
f 211/2/1 212/11/1 210/12/1 209/3/1
f 215/9/2 216/5/2 214/8/2 213/10/2
f 214/8/5 209/2/5 210/11/5 213/10/5
f 215/10/6 212/11/6 211/2/6 216/8/6
f 219/2/1 220/11/1 218/12/1 217/3/1
f 223/9/2 224/5/2 222/8/2 221/10/2
f 222/8/5 217/2/5 218/11/5 221/10/5
f 223/10/6 220/11/6 219/2/6 224/8/6
f 227/2/1 228/11/1 226/12/1 225/3/1
f 231/9/2 232/5/2 230/8/2 229/10/2
f 230/8/5 225/2/5 226/11/5 229/10/5
f 231/10/6 228/11/6 227/2/6 232/8/6
f 235/2/1 236/11/1 234/12/1 233/3/1
f 239/9/2 240/5/2 238/8/2 237/10/2
f 238/8/5 233/2/5 234/11/5 237/10/5
f 239/10/6 236/11/6 235/2/6 240/8/6
f 243/2/1 244/11/1 242/12/1 241/3/1
f 247/9/2 248/5/2 246/8/2 245/10/2
f 246/8/5 241/2/5 242/11/5 245/10/5
f 247/10/6 244/11/6 243/2/6 248/8/6
f 251/2/1 252/11/1 250/12/1 249/3/1
f 255/9/2 256/5/2 254/8/2 253/10/2
f 254/8/5 249/2/5 250/11/5 253/10/5
f 255/10/6 252/11/6 251/2/6 256/8/6
f 259/2/1 260/11/1 258/12/1 257/3/1
f 263/9/2 264/5/2 262/8/2 261/10/2
f 262/8/5 257/2/5 258/11/5 261/10/5
f 263/10/6 260/11/6 259/2/6 264/8/6
f 267/2/1 268/11/1 266/12/1 265/3/1
f 271/9/2 272/5/2 270/8/2 269/10/2
f 270/8/5 265/2/5 266/11/5 269/10/5
f 271/10/6 268/11/6 267/2/6 272/8/6
