# Blender 4.4.3
# www.blender.org
mtllib textures.mtl

o cube.046
v 0.312500 1.062500 0.500000
v 0.312500 1.062500 -0.500000
v 0.312500 0.437500 0.500000
v 0.312500 0.437500 -0.500000
v -0.312500 1.062500 -0.500000
v -0.312500 1.062500 0.500000
v -0.312500 0.437500 -0.500000
v -0.312500 0.437500 0.500000
v 0.312500 1.062500 2.750000
v 0.312500 1.062500 1.750000
v 0.312500 0.437500 2.750000
v 0.312500 0.437500 1.750000
v -0.312500 1.062500 1.750000
v -0.312500 1.062500 2.750000
v -0.312500 0.437500 1.750000
v -0.312500 0.437500 2.750000
v 0.437500 1.250000 2.625000
v 0.437500 1.250000 1.875000
v 0.437500 0.750000 2.625000
v 0.437500 0.750000 1.875000
v -0.437500 1.250000 1.875000
v -0.437500 1.250000 2.625000
v -0.437500 0.750000 1.875000
v -0.437500 0.750000 2.625000
v -0.431250 1.443750 3.693750
v -0.431250 1.443750 3.056250
v -0.431250 0.681250 3.693750
v -0.431250 0.681250 3.056250
v -0.756250 1.443750 3.056250
v -0.756250 1.443750 3.693750
v -0.756250 0.681250 3.056250
v -0.756250 0.681250 3.693750
v 0.312500 1.062500 3.937500
v 0.312500 1.062500 2.812500
v 0.312500 0.437500 3.937500
v 0.312500 0.437500 2.812500
v -0.312500 1.062500 2.812500
v -0.312500 1.062500 3.937500
v -0.312500 0.437500 2.812500
v -0.312500 0.437500 3.937500
v -0.224112 0.588389 3.687500
v -0.224112 0.588389 3.500000
v -0.312500 0.500000 3.687500
v -0.312500 0.500000 3.500000
v -0.445083 0.809359 3.500000
v -0.445083 0.809359 3.687500
v -0.533471 0.720971 3.500000
v -0.533471 0.720971 3.687500
v -0.224112 0.588389 3.250000
v -0.224112 0.588389 3.062500
v -0.312500 0.500000 3.250000
v -0.312500 0.500000 3.062500
v -0.445083 0.809359 3.062500
v -0.445083 0.809359 3.250000
v -0.533471 0.720971 3.062500
v -0.533471 0.720971 3.250000
v 0.445083 0.809359 3.250000
v 0.445083 0.809359 3.062500
v 0.533471 0.720971 3.250000
v 0.533471 0.720971 3.062500
v 0.224112 0.588389 3.062500
v 0.224112 0.588389 3.250000
v 0.312500 0.500000 3.062500
v 0.312500 0.500000 3.250000
v 0.445083 0.809359 3.687500
v 0.445083 0.809359 3.500000
v 0.533471 0.720971 3.687500
v 0.533471 0.720971 3.500000
v 0.224112 0.588389 3.500000
v 0.224112 0.588389 3.687500
v 0.312500 0.500000 3.500000
v 0.312500 0.500000 3.687500
v 0.756250 1.443750 3.693750
v 0.756250 1.443750 3.056250
v 0.756250 0.681250 3.693750
v 0.756250 0.681250 3.056250
v 0.431250 1.443750 3.056250
v 0.431250 1.443750 3.693750
v 0.431250 0.681250 3.056250
v 0.431250 0.681250 3.693750
v 0.312500 1.062500 4.687500
v 0.312500 1.062500 4.062500
v 0.312500 0.437500 4.687500
v 0.312500 0.437500 4.062500
v -0.312500 1.062500 4.062500
v -0.312500 1.062500 4.687500
v -0.312500 0.437500 4.062500
v -0.312500 0.437500 4.687500
v 0.093750 1.250000 4.468750
v 0.093750 1.250000 4.281250
v 0.093750 1.062500 4.468750
v 0.093750 1.062500 4.281250
v -0.093750 1.250000 4.281250
v -0.093750 1.250000 4.468750
v -0.093750 1.062500 4.281250
v -0.093750 1.062500 4.468750
v -0.437500 1.000000 4.625000
v -0.437500 1.000000 4.125000
v -0.437500 0.500000 4.625000
v -0.437500 0.500000 4.125000
v -0.750000 1.000000 4.125000
v -0.750000 1.000000 4.625000
v -0.750000 0.500000 4.125000
v -0.750000 0.500000 4.625000
v 0.312500 1.062500 -4.062500
v 0.312500 1.062500 -4.687500
v 0.312500 0.437500 -4.062500
v 0.312500 0.437500 -4.687500
v -0.312500 1.062500 -4.687500
v -0.312500 1.062500 -4.062500
v -0.312500 0.437500 -4.687500
v -0.312500 0.437500 -4.062500
v 0.750000 1.000000 -4.125000
v 0.750000 1.000000 -4.625000
v 0.750000 0.500000 -4.125000
v 0.750000 0.500000 -4.625000
v 0.437500 1.000000 -4.625000
v 0.437500 1.000000 -4.125000
v 0.437500 0.500000 -4.625000
v 0.437500 0.500000 -4.125000
v 0.093750 1.250000 -4.281250
v 0.093750 1.250000 -4.468750
v 0.093750 1.062500 -4.281250
v 0.093750 1.062500 -4.468750
v -0.093750 1.250000 -4.468750
v -0.093750 1.250000 -4.281250
v -0.093750 1.062500 -4.468750
v -0.093750 1.062500 -4.281250
v -0.437500 1.000000 -4.125000
v -0.437500 1.000000 -4.625000
v -0.437500 0.500000 -4.125000
v -0.437500 0.500000 -4.625000
v -0.750000 1.000000 -4.625000
v -0.750000 1.000000 -4.125000
v -0.750000 0.500000 -4.625000
v -0.750000 0.500000 -4.125000
v 0.437500 1.250000 3.812500
v 0.437500 1.250000 2.937500
v 0.437500 0.750000 3.812500
v 0.437500 0.750000 2.937500
v -0.437500 1.250000 2.937500
v -0.437500 1.250000 3.812500
v -0.437500 0.750000 2.937500
v -0.437500 0.750000 3.812500
v 0.312500 1.062500 -1.750000
v 0.312500 1.062500 -2.750000
v 0.312500 0.437500 -1.750000
v 0.312500 0.437500 -2.750000
v -0.312500 1.062500 -2.750000
v -0.312500 1.062500 -1.750000
v -0.312500 0.437500 -2.750000
v -0.312500 0.437500 -1.750000
v 0.437500 1.250000 -1.875000
v 0.437500 1.250000 -2.625000
v 0.437500 0.750000 -1.875000
v 0.437500 0.750000 -2.625000
v -0.437500 1.250000 -2.625000
v -0.437500 1.250000 -1.875000
v -0.437500 0.750000 -2.625000
v -0.437500 0.750000 -1.875000
v 0.756250 1.443750 -3.056250
v 0.756250 1.443750 -3.693750
v 0.756250 0.681250 -3.056250
v 0.756250 0.681250 -3.693750
v 0.431250 1.443750 -3.693750
v 0.431250 1.443750 -3.056250
v 0.431250 0.681250 -3.693750
v 0.431250 0.681250 -3.056250
v -0.431250 1.443750 -3.056250
v -0.431250 1.443750 -3.693750
v -0.431250 0.681250 -3.056250
v -0.431250 0.681250 -3.693750
v -0.756250 1.443750 -3.693750
v -0.756250 1.443750 -3.056250
v -0.756250 0.681250 -3.693750
v -0.756250 0.681250 -3.056250
v 0.312500 1.062500 -2.812500
v 0.312500 1.062500 -3.937500
v 0.312500 0.437500 -2.812500
v 0.312500 0.437500 -3.937500
v -0.312500 1.062500 -3.937500
v -0.312500 1.062500 -2.812500
v -0.312500 0.437500 -3.937500
v -0.312500 0.437500 -2.812500
v -0.224112 0.588388 -3.062500
v -0.224112 0.588388 -3.250000
v -0.312500 0.500000 -3.062500
v -0.312500 0.500000 -3.250000
v -0.445083 0.809359 -3.250000
v -0.445083 0.809359 -3.062500
v -0.533471 0.720971 -3.250000
v -0.533471 0.720971 -3.062500
v -0.224112 0.588388 -3.500000
v -0.224112 0.588388 -3.687500
v -0.312500 0.500000 -3.500000
v -0.312500 0.500000 -3.687500
v -0.445083 0.809359 -3.687500
v -0.445083 0.809359 -3.500000
v -0.533471 0.720971 -3.687500
v -0.533471 0.720971 -3.500000
v 0.445083 0.809359 -3.500000
v 0.445083 0.809359 -3.687500
v 0.533471 0.720971 -3.500000
v 0.533471 0.720971 -3.687500
v 0.224112 0.588388 -3.687500
v 0.224112 0.588388 -3.500000
v 0.312500 0.500000 -3.687500
v 0.312500 0.500000 -3.500000
v 0.445083 0.809359 -3.062500
v 0.445083 0.809359 -3.250000
v 0.533471 0.720971 -3.062500
v 0.533471 0.720971 -3.250000
v 0.224112 0.588388 -3.250000
v 0.224112 0.588388 -3.062500
v 0.312500 0.500000 -3.250000
v 0.312500 0.500000 -3.062500
v 0.756250 1.443750 -0.806250
v 0.756250 1.443750 -1.443750
v 0.756250 0.681250 -0.806250
v 0.756250 0.681250 -1.443750
v 0.431250 1.443750 -1.443750
v 0.431250 1.443750 -0.806250
v 0.431250 0.681250 -1.443750
v 0.431250 0.681250 -0.806250
v -0.431250 1.443750 -0.806250
v -0.431250 1.443750 -1.443750
v -0.431250 0.681250 -0.806250
v -0.431250 0.681250 -1.443750
v -0.756250 1.443750 -1.443750
v -0.756250 1.443750 -0.806250
v -0.756250 0.681250 -1.443750
v -0.756250 0.681250 -0.806250
v 0.312500 1.062500 -0.562500
v 0.312500 1.062500 -1.687500
v 0.312500 0.437500 -0.562500
v 0.312500 0.437500 -1.687500
v -0.312500 1.062500 -1.687500
v -0.312500 1.062500 -0.562500
v -0.312500 0.437500 -1.687500
v -0.312500 0.437500 -0.562500
v -0.224112 0.588388 -0.812500
v -0.224112 0.588388 -1.000000
v -0.312500 0.500000 -0.812500
v -0.312500 0.500000 -1.000000
v -0.445083 0.809359 -1.000000
v -0.445083 0.809359 -0.812500
v -0.533471 0.720971 -1.000000
v -0.533471 0.720971 -0.812500
v -0.224112 0.588388 -1.250000
v -0.224112 0.588388 -1.437500
v -0.312500 0.500000 -1.250000
v -0.312500 0.500000 -1.437500
v -0.445083 0.809359 -1.437500
v -0.445083 0.809359 -1.250000
v -0.533471 0.720971 -1.437500
v -0.533471 0.720971 -1.250000
v 0.445083 0.809359 -1.250000
v 0.445083 0.809359 -1.437500
v 0.533471 0.720971 -1.250000
v 0.533471 0.720971 -1.437500
v 0.224112 0.588388 -1.437500
v 0.224112 0.588388 -1.250000
v 0.312500 0.500000 -1.437500
v 0.312500 0.500000 -1.250000
v 0.445083 0.809359 -0.812500
v 0.445083 0.809359 -1.000000
v 0.533471 0.720971 -0.812500
v 0.533471 0.720971 -1.000000
v 0.224112 0.588388 -1.000000
v 0.224112 0.588388 -0.812500
v 0.312500 0.500000 -1.000000
v 0.312500 0.500000 -0.812500
v 0.437500 1.250000 -2.937500
v 0.437500 1.250000 -3.812500
v 0.437500 0.750000 -2.937500
v 0.437500 0.750000 -3.812500
v -0.437500 1.250000 -3.812500
v -0.437500 1.250000 -2.937500
v -0.437500 0.750000 -3.812500
v -0.437500 0.750000 -2.937500
v 0.437500 1.250000 -0.687500
v 0.437500 1.250000 -1.562500
v 0.437500 0.750000 -0.687500
v 0.437500 0.750000 -1.562500
v -0.437500 1.250000 -1.562500
v -0.437500 1.250000 -0.687500
v -0.437500 0.750000 -1.562500
v -0.437500 0.750000 -0.687500
v 0.250000 1.500000 0.250000
v 0.250000 1.500000 -0.250000
v 0.250000 1.250000 0.250000
v 0.250000 1.250000 -0.250000
v -0.250000 1.500000 -0.250000
v -0.250000 1.500000 0.250000
v -0.250000 1.250000 -0.250000
v -0.250000 1.250000 0.250000
v 0.750000 1.000000 4.625000
v 0.750000 1.000000 4.125000
v 0.750000 0.500000 4.625000
v 0.750000 0.500000 4.125000
v 0.437500 1.000000 4.125000
v 0.437500 1.000000 4.625000
v 0.437500 0.500000 4.125000
v 0.437500 0.500000 4.625000
v -0.224112 0.588388 1.437500
v -0.224112 0.588388 1.250000
v -0.312500 0.500000 1.437500
v -0.312500 0.500000 1.250000
v -0.445083 0.809359 1.250000
v -0.445083 0.809359 1.437500
v -0.533471 0.720971 1.250000
v -0.533471 0.720971 1.437500
v -0.224112 0.588388 1.000000
v -0.224112 0.588388 0.812500
v -0.312500 0.500000 1.000000
v -0.312500 0.500000 0.812500
v -0.445083 0.809359 0.812500
v -0.445083 0.809359 1.000000
v -0.533471 0.720971 0.812500
v -0.533471 0.720971 1.000000
v 0.445083 0.809359 1.437500
v 0.445083 0.809359 1.250000
v 0.533471 0.720971 1.437500
v 0.533471 0.720971 1.250000
v 0.224112 0.588388 1.250000
v 0.224112 0.588388 1.437500
v 0.312500 0.500000 1.250000
v 0.312500 0.500000 1.437500
v 0.445083 0.809359 1.000000
v 0.445083 0.809359 0.812500
v 0.533471 0.720971 1.000000
v 0.533471 0.720971 0.812500
v 0.224112 0.588388 0.812500
v 0.224112 0.588388 1.000000
v 0.312500 0.500000 0.812500
v 0.312500 0.500000 1.000000
v 0.756250 1.443750 1.443750
v 0.756250 1.443750 0.806250
v 0.756250 0.681250 1.443750
v 0.756250 0.681250 0.806250
v 0.431250 1.443750 0.806250
v 0.431250 1.443750 1.443750
v 0.431250 0.681250 0.806250
v 0.431250 0.681250 1.443750
v -0.431250 1.443750 1.443750
v -0.431250 1.443750 0.806250
v -0.431250 0.681250 1.443750
v -0.431250 0.681250 0.806250
v -0.756250 1.443750 0.806250
v -0.756250 1.443750 1.443750
v -0.756250 0.681250 0.806250
v -0.756250 0.681250 1.443750
v 0.437500 1.250000 1.562500
v 0.437500 1.250000 0.687500
v 0.437500 0.750000 1.562500
v 0.437500 0.750000 0.687500
v -0.437500 1.250000 0.687500
v -0.437500 1.250000 1.562500
v -0.437500 0.750000 0.687500
v -0.437500 0.750000 1.562500
v 0.312500 1.062500 1.687500
v 0.312500 1.062500 0.562500
v 0.312500 0.437500 1.687500
v 0.312500 0.437500 0.562500
v -0.312500 1.062500 0.562500
v -0.312500 1.062500 1.687500
v -0.312500 0.437500 0.562500
v -0.312500 0.437500 1.687500
v 0.437500 1.250000 0.375000
v 0.437500 1.250000 -0.375000
v 0.437500 0.750000 0.375000
v 0.437500 0.750000 -0.375000
v -0.437500 1.250000 -0.375000
v -0.437500 1.250000 0.375000
v -0.437500 0.750000 -0.375000
v -0.437500 0.750000 0.375000
vn -0.0000 -0.0000 -1.0000
vn 1.0000 -0.0000 -0.0000
vn -0.0000 -0.0000 1.0000
vn -1.0000 -0.0000 -0.0000
vn -0.0000 1.0000 -0.0000
vn -0.0000 -1.0000 -0.0000
vn 0.7071 -0.7071 -0.0000
vn -0.7071 0.7071 -0.0000
vn 0.7071 0.7071 -0.0000
vn -0.7071 -0.7071 -0.0000
vt 0.000000 0.500000
vt 0.312500 0.500000
vt 0.312500 0.812500
vt 0.000000 0.812500
vt 0.312500 0.000000
vt 0.000000 0.000000
vt 0.562500 0.000000
vt 1.000000 0.000000
vt 1.000000 0.250000
vt 0.562500 0.250000
vt 0.562500 0.375000
vt 0.312500 0.375000
vt 1.000000 0.625000
vt 0.562500 0.625000
vt 0.812500 0.656250
vt 0.968750 0.656250
vt 0.968750 1.000000
vt 0.812500 1.000000
vt 0.500000 0.656250
vt 0.500000 1.000000
vt 0.812500 0.500000
vt 0.500000 0.500000
vt 0.687500 0.687500
vt 1.000000 0.687500
vt 1.000000 1.000000
vt 0.687500 1.000000
vt 0.312500 0.562500
vt 0.000000 0.562500
vt 0.812500 0.531250
vt 0.812500 0.375000
vt 0.750000 0.375000
vt 0.750000 0.531250
vt 0.718750 0.625000
vt 0.687500 0.625000
vt 0.718750 0.687500
vt 0.906250 0.531250
vt 0.906250 0.375000
vt 0.625000 0.000000
vt 0.625000 0.312500
vt 0.312500 0.312500
vt 0.937500 0.000000
vt 0.937500 0.312500
vt 0.625000 0.375000
vt 0.718750 0.375000
vt 0.718750 0.468750
vt 0.625000 0.468750
vt 0.812500 0.468750
vt 0.281250 0.156250
vt 0.468750 0.156250
vt 0.468750 0.343750
vt 0.281250 0.343750
vt 0.812500 0.000000
vt 0.656250 0.000000
vt 0.656250 0.250000
vt 0.812500 0.250000
vt 0.593750 0.031250
vt 0.343750 0.031250
vt 0.343750 0.281250
vt 0.593750 0.281250
vt 0.500000 0.000000
vt 0.500000 0.250000
vt 0.750000 0.250000
vt 0.750000 0.500000
vt 0.750000 0.312500
vt 0.750000 0.562500
vt 0.687500 0.562500
vt 0.437500 1.000000
vt 0.437500 0.562500
vt 0.000000 1.000000
vt 0.125000 0.333333
vt 0.291667 0.333333
vt 0.291667 0.416667
vt 0.125000 0.416667
s 1
usemtl small_frame
f 4/1/1 7/2/1 5/3/1 2/4/1
f 3/5/2 4/2/2 2/1/2 1/6/2
f 8/1/3 3/2/3 1/3/3 6/4/3
f 7/5/4 8/2/4 6/1/4 5/6/4
f 6/6/5 1/5/5 2/2/5 5/1/5
f 7/6/6 4/5/6 3/2/6 8/1/6
f 12/1/1 15/2/1 13/3/1 10/4/1
f 11/5/2 12/2/2 10/1/2 9/6/2
f 16/1/3 11/2/3 9/3/3 14/4/3
f 15/5/4 16/2/4 14/1/4 13/6/4
f 14/6/5 9/5/5 10/2/5 13/1/5
f 15/6/6 12/5/6 11/2/6 16/1/6
f 20/7/1 23/8/1 21/9/1 18/10/1
f 19/7/2 20/11/2 18/12/2 17/5/2
f 24/7/3 19/8/3 17/9/3 22/10/3
f 23/7/4 24/11/4 22/12/4 21/5/4
f 22/10/5 17/9/5 18/13/5 21/14/5
f 23/10/6 20/9/6 19/13/6 24/14/6
f 148/1/1 151/2/1 149/3/1 146/4/1
f 147/5/2 148/2/2 146/1/2 145/6/2
f 152/1/3 147/2/3 145/3/3 150/4/3
f 151/5/4 152/2/4 150/1/4 149/6/4
f 150/6/5 145/5/5 146/2/5 149/1/5
f 151/6/6 148/5/6 147/2/6 152/1/6
f 156/7/1 159/8/1 157/9/1 154/10/1
f 155/7/2 156/11/2 154/12/2 153/5/2
f 160/7/3 155/8/3 153/9/3 158/10/3
f 159/7/4 160/11/4 158/12/4 157/5/4
f 158/10/5 153/9/5 154/13/5 157/14/5
f 159/10/6 156/9/6 155/13/6 160/14/6
f 372/7/1 375/8/1 373/9/1 370/10/1
f 371/7/2 372/11/2 370/12/2 369/5/2
f 376/7/3 371/8/3 369/9/3 374/10/3
f 375/7/4 376/11/4 374/12/4 373/5/4
f 374/10/5 369/9/5 370/13/5 373/14/5
f 375/10/6 372/9/6 371/13/6 376/14/6
usemtl piston
f 28/15/1 31/16/1 29/17/1 26/18/1
f 27/19/2 28/15/2 26/18/2 25/20/2
f 32/15/3 27/16/3 25/17/3 30/18/3
f 31/19/4 32/15/4 30/18/4 29/20/4
f 30/21/5 25/15/5 26/19/5 29/22/5
f 31/21/6 28/15/6 27/19/6 32/22/6
f 76/15/1 79/16/1 77/17/1 74/18/1
f 75/19/2 76/15/2 74/18/2 73/20/2
f 80/15/3 75/16/3 73/17/3 78/18/3
f 79/19/4 80/15/4 78/18/4 77/20/4
f 78/21/5 73/15/5 74/19/5 77/22/5
f 79/21/6 76/15/6 75/19/6 80/22/6
f 100/52/1 103/53/1 101/54/1 98/55/1
f 104/60/3 99/53/3 97/54/3 102/61/3
f 103/62/4 104/61/4 102/22/4 101/63/4
f 102/52/5 97/53/5 98/54/5 101/55/5
f 103/53/6 100/60/6 99/61/6 104/54/6
f 116/60/1 119/53/1 117/54/1 114/61/1
f 115/62/2 116/61/2 114/22/2 113/63/2
f 120/52/3 115/53/3 113/54/3 118/55/3
f 118/55/5 113/54/5 114/53/5 117/52/5
f 119/53/6 116/60/6 115/61/6 120/54/6
f 132/60/1 135/53/1 133/54/1 130/61/1
f 136/52/3 131/53/3 129/54/3 134/55/3
f 135/62/4 136/61/4 134/22/4 133/63/4
f 134/55/5 129/54/5 130/53/5 133/52/5
f 135/53/6 132/60/6 131/61/6 136/54/6
f 164/15/1 167/16/1 165/17/1 162/18/1
f 163/19/2 164/15/2 162/18/2 161/20/2
f 168/15/3 163/16/3 161/17/3 166/18/3
f 167/19/4 168/15/4 166/18/4 165/20/4
f 166/21/5 161/15/5 162/19/5 165/22/5
f 167/21/6 164/15/6 163/19/6 168/22/6
f 172/15/1 175/16/1 173/17/1 170/18/1
f 171/19/2 172/15/2 170/18/2 169/20/2
f 176/15/3 171/16/3 169/17/3 174/18/3
f 175/19/4 176/15/4 174/18/4 173/20/4
f 174/21/5 169/15/5 170/19/5 173/22/5
f 175/21/6 172/15/6 171/19/6 176/22/6
f 220/15/1 223/16/1 221/17/1 218/18/1
f 219/19/2 220/15/2 218/18/2 217/20/2
f 224/15/3 219/16/3 217/17/3 222/18/3
f 223/19/4 224/15/4 222/18/4 221/20/4
f 222/21/5 217/15/5 218/19/5 221/22/5
f 223/21/6 220/15/6 219/19/6 224/22/6
f 228/15/1 231/16/1 229/17/1 226/18/1
f 227/19/2 228/15/2 226/18/2 225/20/2
f 232/15/3 227/16/3 225/17/3 230/18/3
f 231/19/4 232/15/4 230/18/4 229/20/4
f 230/21/5 225/15/5 226/19/5 229/22/5
f 231/21/6 228/15/6 227/19/6 232/22/6
f 300/53/1 303/52/1 301/55/1 298/54/1
f 299/61/2 300/62/2 298/63/2 297/22/2
f 304/53/3 299/60/3 297/61/3 302/54/3
f 302/53/5 297/52/5 298/55/5 301/54/5
f 303/60/6 300/53/6 299/54/6 304/61/6
f 340/15/1 343/16/1 341/17/1 338/18/1
f 339/19/2 340/15/2 338/18/2 337/20/2
f 344/15/3 339/16/3 337/17/3 342/18/3
f 343/19/4 344/15/4 342/18/4 341/20/4
f 342/21/5 337/15/5 338/19/5 341/22/5
f 343/21/6 340/15/6 339/19/6 344/22/6
f 348/15/1 351/16/1 349/17/1 346/18/1
f 347/19/2 348/15/2 346/18/2 345/20/2
f 352/15/3 347/16/3 345/17/3 350/18/3
f 351/19/4 352/15/4 350/18/4 349/20/4
f 350/21/5 345/15/5 346/19/5 349/22/5
f 351/21/6 348/15/6 347/19/6 352/22/6
usemtl frame
f 36/23/1 39/24/1 37/25/1 34/26/1
f 35/5/2 36/27/2 34/28/2 33/6/2
f 40/23/3 35/24/3 33/25/3 38/26/3
f 39/5/4 40/27/4 38/28/4 37/6/4
f 38/6/5 33/5/5 34/27/5 37/28/5
f 39/6/6 36/5/6 35/27/6 40/28/6
f 44/29/1 47/30/1 45/31/1 42/32/1
f 43/33/7 44/34/7 42/23/7 41/35/7
f 48/29/3 43/30/3 41/31/3 46/32/3
f 47/33/8 48/34/8 46/23/8 45/35/8
f 46/36/9 41/37/9 42/30/9 45/29/9
f 47/36/10 44/37/10 43/30/10 48/29/10
f 52/29/1 55/30/1 53/31/1 50/32/1
f 51/33/7 52/34/7 50/23/7 49/35/7
f 56/29/3 51/30/3 49/31/3 54/32/3
f 55/33/8 56/34/8 54/23/8 53/35/8
f 54/36/9 49/37/9 50/30/9 53/29/9
f 55/36/10 52/37/10 51/30/10 56/29/10
f 60/30/1 63/29/1 61/32/1 58/31/1
f 59/34/9 60/33/9 58/35/9 57/23/9
f 64/30/3 59/29/3 57/32/3 62/31/3
f 63/34/10 64/33/10 62/35/10 61/23/10
f 62/37/8 57/36/8 58/29/8 61/30/8
f 63/37/7 60/36/7 59/29/7 64/30/7
f 68/30/1 71/29/1 69/32/1 66/31/1
f 67/34/9 68/33/9 66/35/9 65/23/9
f 72/30/3 67/29/3 65/32/3 70/31/3
f 71/34/10 72/33/10 70/35/10 69/23/10
f 70/37/8 65/36/8 66/29/8 69/30/8
f 71/37/7 68/36/7 67/29/7 72/30/7
f 84/5/1 87/38/1 85/39/1 82/40/1
f 83/5/2 84/38/2 82/39/2 81/40/2
f 88/38/3 83/41/3 81/42/3 86/39/3
f 87/5/4 88/38/4 86/39/4 85/40/4
f 86/38/5 81/41/5 82/42/5 85/39/5
f 87/38/6 84/41/6 83/42/6 88/39/6
f 99/56/2 100/57/2 98/58/2 97/59/2
f 108/38/1 111/41/1 109/42/1 106/39/1
f 107/5/2 108/38/2 106/39/2 105/40/2
f 112/5/3 107/38/3 105/39/3 110/40/3
f 111/5/4 112/38/4 110/39/4 109/40/4
f 110/38/5 105/41/5 106/42/5 109/39/5
f 111/38/6 108/41/6 107/42/6 112/39/6
f 119/56/4 120/57/4 118/58/4 117/59/4
f 131/56/2 132/57/2 130/58/2 129/59/2
f 140/40/1 143/64/1 141/65/1 138/27/1
f 139/66/2 140/26/2 138/67/2 137/68/2
f 144/40/3 139/64/3 137/65/3 142/27/3
f 143/66/4 144/26/4 142/67/4 141/68/4
f 142/68/5 137/28/5 138/69/5 141/67/5
f 143/68/6 140/28/6 139/69/6 144/67/6
f 180/23/1 183/24/1 181/25/1 178/26/1
f 179/5/2 180/27/2 178/28/2 177/6/2
f 184/23/3 179/24/3 177/25/3 182/26/3
f 183/5/4 184/27/4 182/28/4 181/6/4
f 182/6/5 177/5/5 178/27/5 181/28/5
f 183/6/6 180/5/6 179/27/6 184/28/6
f 188/29/1 191/30/1 189/31/1 186/32/1
f 187/33/7 188/34/7 186/23/7 185/35/7
f 192/29/3 187/30/3 185/31/3 190/32/3
f 191/33/8 192/34/8 190/23/8 189/35/8
f 190/36/9 185/37/9 186/30/9 189/29/9
f 191/36/10 188/37/10 187/30/10 192/29/10
f 196/29/1 199/30/1 197/31/1 194/32/1
f 195/33/7 196/34/7 194/23/7 193/35/7
f 200/29/3 195/30/3 193/31/3 198/32/3
f 199/33/8 200/34/8 198/23/8 197/35/8
f 198/36/9 193/37/9 194/30/9 197/29/9
f 199/36/10 196/37/10 195/30/10 200/29/10
f 204/30/1 207/29/1 205/32/1 202/31/1
f 203/34/9 204/33/9 202/35/9 201/23/9
f 208/30/3 203/29/3 201/32/3 206/31/3
f 207/34/10 208/33/10 206/35/10 205/23/10
f 206/37/8 201/36/8 202/29/8 205/30/8
f 207/37/7 204/36/7 203/29/7 208/30/7
f 212/30/1 215/29/1 213/32/1 210/31/1
f 211/34/9 212/33/9 210/35/9 209/23/9
f 216/30/3 211/29/3 209/32/3 214/31/3
f 215/34/10 216/33/10 214/35/10 213/23/10
f 214/37/8 209/36/8 210/29/8 213/30/8
f 215/37/7 212/36/7 211/29/7 216/30/7
f 236/23/1 239/24/1 237/25/1 234/26/1
f 235/5/2 236/27/2 234/28/2 233/6/2
f 240/23/3 235/24/3 233/25/3 238/26/3
f 239/5/4 240/27/4 238/28/4 237/6/4
f 238/6/5 233/5/5 234/27/5 237/28/5
f 239/6/6 236/5/6 235/27/6 240/28/6
f 244/29/1 247/30/1 245/31/1 242/32/1
f 243/33/7 244/34/7 242/23/7 241/35/7
f 248/29/3 243/30/3 241/31/3 246/32/3
f 247/33/8 248/34/8 246/23/8 245/35/8
f 246/36/9 241/37/9 242/30/9 245/29/9
f 247/36/10 244/37/10 243/30/10 248/29/10
f 252/29/1 255/30/1 253/31/1 250/32/1
f 251/33/7 252/34/7 250/23/7 249/35/7
f 256/29/3 251/30/3 249/31/3 254/32/3
f 255/33/8 256/34/8 254/23/8 253/35/8
f 254/36/9 249/37/9 250/30/9 253/29/9
f 255/36/10 252/37/10 251/30/10 256/29/10
f 260/30/1 263/29/1 261/32/1 258/31/1
f 259/34/9 260/33/9 258/35/9 257/23/9
f 264/30/3 259/29/3 257/32/3 262/31/3
f 263/34/10 264/33/10 262/35/10 261/23/10
f 262/37/8 257/36/8 258/29/8 261/30/8
f 263/37/7 260/36/7 259/29/7 264/30/7
f 268/30/1 271/29/1 269/32/1 266/31/1
f 267/34/9 268/33/9 266/35/9 265/23/9
f 272/30/3 267/29/3 265/32/3 270/31/3
f 271/34/10 272/33/10 270/35/10 269/23/10
f 270/37/8 265/36/8 266/29/8 269/30/8
f 271/37/7 268/36/7 267/29/7 272/30/7
f 276/40/1 279/64/1 277/65/1 274/27/1
f 275/66/2 276/26/2 274/67/2 273/68/2
f 280/40/3 275/64/3 273/65/3 278/27/3
f 279/66/4 280/26/4 278/67/4 277/68/4
f 278/68/5 273/28/5 274/69/5 277/67/5
f 279/68/6 276/28/6 275/69/6 280/67/6
f 284/40/1 287/64/1 285/65/1 282/27/1
f 283/66/2 284/26/2 282/67/2 281/68/2
f 288/40/3 283/64/3 281/65/3 286/27/3
f 287/66/4 288/26/4 286/67/4 285/68/4
f 286/68/5 281/28/5 282/69/5 285/67/5
f 287/68/6 284/28/6 283/69/6 288/67/6
f 303/57/4 304/56/4 302/59/4 301/58/4
f 308/29/1 311/30/1 309/31/1 306/32/1
f 307/33/7 308/34/7 306/23/7 305/35/7
f 312/29/3 307/30/3 305/31/3 310/32/3
f 311/33/8 312/34/8 310/23/8 309/35/8
f 310/36/9 305/37/9 306/30/9 309/29/9
f 311/36/10 308/37/10 307/30/10 312/29/10
f 316/29/1 319/30/1 317/31/1 314/32/1
f 315/33/7 316/34/7 314/23/7 313/35/7
f 320/29/3 315/30/3 313/31/3 318/32/3
f 319/33/8 320/34/8 318/23/8 317/35/8
f 318/36/9 313/37/9 314/30/9 317/29/9
f 319/36/10 316/37/10 315/30/10 320/29/10
f 324/30/1 327/29/1 325/32/1 322/31/1
f 323/34/9 324/33/9 322/35/9 321/23/9
f 328/30/3 323/29/3 321/32/3 326/31/3
f 327/34/10 328/33/10 326/35/10 325/23/10
f 326/37/8 321/36/8 322/29/8 325/30/8
f 327/37/7 324/36/7 323/29/7 328/30/7
f 332/30/1 335/29/1 333/32/1 330/31/1
f 331/34/9 332/33/9 330/35/9 329/23/9
f 336/30/3 331/29/3 329/32/3 334/31/3
f 335/34/10 336/33/10 334/35/10 333/23/10
f 334/37/8 329/36/8 330/29/8 333/30/8
f 335/37/7 332/36/7 331/29/7 336/30/7
f 356/40/1 359/64/1 357/65/1 354/27/1
f 355/66/2 356/26/2 354/67/2 353/68/2
f 360/40/3 355/64/3 353/65/3 358/27/3
f 359/66/4 360/26/4 358/67/4 357/68/4
f 358/68/5 353/28/5 354/69/5 357/67/5
f 359/68/6 356/28/6 355/69/6 360/67/6
f 364/23/1 367/24/1 365/25/1 362/26/1
f 363/5/2 364/27/2 362/28/2 361/6/2
f 368/23/3 363/24/3 361/25/3 366/26/3
f 367/5/4 368/27/4 366/28/4 365/6/4
f 366/6/5 361/5/5 362/27/5 365/28/5
f 367/6/6 364/5/6 363/27/6 368/28/6
usemtl wheels
f 92/43/1 95/44/1 93/45/1 90/46/1
f 91/43/2 92/44/2 90/45/2 89/46/2
f 96/43/3 91/44/3 89/45/3 94/46/3
f 95/43/4 96/44/4 94/45/4 93/46/4
f 94/44/5 89/30/5 90/47/5 93/45/5
f 124/43/1 127/44/1 125/45/1 122/46/1
f 123/43/2 124/44/2 122/45/2 121/46/2
f 128/43/3 123/44/3 121/45/3 126/46/3
f 127/43/4 128/44/4 126/45/4 125/46/4
f 126/44/5 121/30/5 122/47/5 125/45/5
usemtl none
f 95/48/6 92/49/6 91/50/6 96/51/6
f 127/48/6 124/49/6 123/50/6 128/51/6
usemtl trailing_bogey_base
f 292/70/1 295/71/1 293/72/1 290/73/1
f 291/70/2 292/71/2 290/72/2 289/73/2
f 296/70/3 291/71/3 289/72/3 294/73/3
f 295/70/4 296/71/4 294/72/4 293/73/4
