# Blender 4.4.3
# www.blender.org
mtllib textures.mtl

o cube.010
v 1.250000 0.125000 -3.250000
v 1.250000 0.125000 -3.500000
v 1.250000 -0.125000 -3.250000
v 1.250000 -0.125000 -3.500000
v 1.000000 0.125000 -3.500000
v 1.000000 0.125000 -3.250000
v 1.000000 -0.125000 -3.500000
v 1.000000 -0.125000 -3.250000
v 1.187500 0.187500 -0.937500
v 1.187500 0.187500 -1.312500
v 1.187500 -0.187500 -0.937500
v 1.187500 -0.187500 -1.312500
v 1.062500 0.187500 -1.312500
v 1.062500 0.187500 -0.937500
v 1.062500 -0.187500 -1.312500
v 1.062500 -0.187500 -0.937500
v 1.187500 0.125000 -1.312500
v 1.187500 0.125000 -3.187500
v 1.187500 -0.125000 -1.312500
v 1.187500 -0.125000 -3.187500
v 1.062500 0.125000 -3.187500
v 1.062500 0.125000 -1.312500
v 1.062500 -0.125000 -3.187500
v 1.062500 -0.125000 -1.312500
v 1.187500 0.187500 -3.187500
v 1.187500 0.187500 -3.562500
v 1.187500 -0.187500 -3.187500
v 1.187500 -0.187500 -3.562500
v 1.062500 0.187500 -3.562500
v 1.062500 0.187500 -3.187500
v 1.062500 -0.187500 -3.562500
v 1.062500 -0.187500 -3.187500
v 1.187500 0.125000 0.937500
v 1.187500 0.125000 -0.937500
v 1.187500 -0.125000 0.937500
v 1.187500 -0.125000 -0.937500
v 1.062500 0.125000 -0.937500
v 1.062500 0.125000 0.937500
v 1.062500 -0.125000 -0.937500
v 1.062500 -0.125000 0.937500
v 1.187500 0.187500 1.312500
v 1.187500 0.187500 0.937500
v 1.187500 -0.187500 1.312500
v 1.187500 -0.187500 0.937500
v 1.062500 0.187500 0.937500
v 1.062500 0.187500 1.312500
v 1.062500 -0.187500 0.937500
v 1.062500 -0.187500 1.312500
v 1.250000 0.125000 1.250000
v 1.250000 0.125000 1.000000
v 1.250000 -0.125000 1.250000
v 1.250000 -0.125000 1.000000
v 1.000000 0.125000 1.000000
v 1.000000 0.125000 1.250000
v 1.000000 -0.125000 1.000000
v 1.000000 -0.125000 1.250000
v 1.187500 0.187500 3.562500
v 1.187500 0.187500 3.187500
v 1.187500 -0.187500 3.562500
v 1.187500 -0.187500 3.187500
v 1.062500 0.187500 3.187500
v 1.062500 0.187500 3.562500
v 1.062500 -0.187500 3.187500
v 1.062500 -0.187500 3.562500
v 1.250000 0.125000 3.500000
v 1.250000 0.125000 3.250000
v 1.250000 -0.125000 3.500000
v 1.250000 -0.125000 3.250000
v 1.000000 0.125000 3.250000
v 1.000000 0.125000 3.500000
v 1.000000 -0.125000 3.250000
v 1.000000 -0.125000 3.500000
v 1.187500 0.125000 3.187500
v 1.187500 0.125000 1.312500
v 1.187500 -0.125000 3.187500
v 1.187500 -0.125000 1.312500
v 1.062500 0.125000 1.312500
v 1.062500 0.125000 3.187500
v 1.062500 -0.125000 1.312500
v 1.062500 -0.125000 3.187500
v 1.250000 0.125000 -1.000000
v 1.250000 0.125000 -1.250000
v 1.250000 -0.125000 -1.000000
v 1.250000 -0.125000 -1.250000
v 1.000000 0.125000 -1.250000
v 1.000000 0.125000 -1.000000
v 1.000000 -0.125000 -1.250000
v 1.000000 -0.125000 -1.000000
vn -0.0000 -0.0000 -1.0000
vn 1.0000 -0.0000 -0.0000
vn -0.0000 -0.0000 1.0000
vn -1.0000 -0.0000 -0.0000
vn -0.0000 1.0000 -0.0000
vn -0.0000 -1.0000 -0.0000
vt 0.892857 0.035714
vt 0.928571 0.035714
vt 0.928571 0.071429
vt 0.892857 0.071429
vt 0.857143 0.035714
vt 0.857143 0.071429
vt 0.839286 0.008929
vt 0.857143 0.008929
vt 0.857143 0.062500
vt 0.839286 0.062500
vt 0.785714 0.008929
vt 0.785714 0.062500
vt 0.982143 0.571429
vt 1.000000 0.571429
vt 1.000000 0.607143
vt 0.982143 0.607143
vt 0.732143 0.571429
vt 0.732143 0.607143
vt 0.750000 0.571429
vt 0.750000 0.607143
vt 1.000000 0.535714
vt 1.000000 0.553571
vt 0.732143 0.553571
vt 0.732143 0.535714
s 1
usemtl xl_textures
f 4/1/1 7/2/1 5/3/1 2/4/1
f 3/5/2 4/1/2 2/4/2 1/6/2
f 8/2/3 3/1/3 1/4/3 6/3/3
f 7/1/4 8/5/4 6/6/4 5/4/4
f 6/2/5 1/1/5 2/4/5 5/3/5
f 7/2/6 4/1/6 3/4/6 8/3/6
f 12/7/1 15/8/1 13/9/1 10/10/1
f 11/7/2 12/11/2 10/12/2 9/10/2
f 16/8/3 11/7/3 9/10/3 14/9/3
f 15/11/4 16/7/4 14/10/4 13/12/4
f 14/8/5 9/7/5 10/10/5 13/9/5
f 15/8/6 12/7/6 11/10/6 16/9/6
f 20/13/1 23/14/1 21/15/1 18/16/1
f 19/17/2 20/14/2 18/15/2 17/18/2
f 24/17/3 19/19/3 17/20/3 22/18/3
f 23/17/4 24/14/4 22/15/4 21/18/4
f 22/21/5 17/22/5 18/23/5 21/24/5
f 23/21/6 20/22/6 19/23/6 24/24/6
f 28/7/1 31/8/1 29/9/1 26/10/1
f 27/7/2 28/11/2 26/12/2 25/10/2
f 32/8/3 27/7/3 25/10/3 30/9/3
f 31/11/4 32/7/4 30/10/4 29/12/4
f 30/8/5 25/7/5 26/10/5 29/9/5
f 31/8/6 28/7/6 27/10/6 32/9/6
f 36/13/1 39/14/1 37/15/1 34/16/1
f 35/17/2 36/14/2 34/15/2 33/18/2
f 40/17/3 35/19/3 33/20/3 38/18/3
f 39/17/4 40/14/4 38/15/4 37/18/4
f 38/21/5 33/22/5 34/23/5 37/24/5
f 39/21/6 36/22/6 35/23/6 40/24/6
f 44/7/1 47/8/1 45/9/1 42/10/1
f 43/7/2 44/11/2 42/12/2 41/10/2
f 48/8/3 43/7/3 41/10/3 46/9/3
f 47/11/4 48/7/4 46/10/4 45/12/4
f 46/8/5 41/7/5 42/10/5 45/9/5
f 47/8/6 44/7/6 43/10/6 48/9/6
f 52/1/1 55/2/1 53/3/1 50/4/1
f 51/5/2 52/1/2 50/4/2 49/6/2
f 56/2/3 51/1/3 49/4/3 54/3/3
f 55/1/4 56/5/4 54/6/4 53/4/4
f 54/2/5 49/1/5 50/4/5 53/3/5
f 55/2/6 52/1/6 51/4/6 56/3/6
f 60/7/1 63/8/1 61/9/1 58/10/1
f 59/7/2 60/11/2 58/12/2 57/10/2
f 64/8/3 59/7/3 57/10/3 62/9/3
f 63/11/4 64/7/4 62/10/4 61/12/4
f 62/8/5 57/7/5 58/10/5 61/9/5
f 63/8/6 60/7/6 59/10/6 64/9/6
f 68/1/1 71/2/1 69/3/1 66/4/1
f 67/5/2 68/1/2 66/4/2 65/6/2
f 72/2/3 67/1/3 65/4/3 70/3/3
f 71/1/4 72/5/4 70/6/4 69/4/4
f 70/2/5 65/1/5 66/4/5 69/3/5
f 71/2/6 68/1/6 67/4/6 72/3/6
f 76/13/1 79/14/1 77/15/1 74/16/1
f 75/17/2 76/14/2 74/15/2 73/18/2
f 80/17/3 75/19/3 73/20/3 78/18/3
f 79/17/4 80/14/4 78/15/4 77/18/4
f 78/21/5 73/22/5 74/23/5 77/24/5
f 79/21/6 76/22/6 75/23/6 80/24/6
f 84/1/1 87/2/1 85/3/1 82/4/1
f 83/5/2 84/1/2 82/4/2 81/6/2
f 88/2/3 83/1/3 81/4/3 86/3/3
f 87/1/4 88/5/4 86/6/4 85/4/4
f 86/2/5 81/1/5 82/4/5 85/3/5
f 87/2/6 84/1/6 83/4/6 88/3/6
