# Made in Blockbench 4.12.5
mtllib left_c_rod.mtl

o cube
v -1.0625 0.125 0.9375
v -1.0625 0.125 -0.9375
v -1.0625 -0.125 0.9375
v -1.0625 -0.125 -0.9375
v -1.1875 0.125 0.9375
v -1.1875 0.125 -0.9375
v -1.1875 -0.125 0.9375
v -1.1875 -0.125 -0.9375
v -1.0625 0.1875 -0.9375
v -1.0625 0.1875 -1.3125
v -1.0625 -0.1875 -0.9375
v -1.0625 -0.1875 -1.3125
v -1.1875 0.1875 -0.9375
v -1.1875 0.1875 -1.3125
v -1.1875 -0.1875 -0.9375
v -1.1875 -0.1875 -1.3125
v -1.0625 0.1875 1.3125
v -1.0625 0.1875 0.9375
v -1.0625 -0.1875 1.3125
v -1.0625 -0.1875 0.9375
v -1.1875 0.1875 1.3125
v -1.1875 0.1875 0.9375
v -1.1875 -0.1875 1.3125
v -1.1875 -0.1875 0.9375
v -1.1875 0.125 1.25
v -1.1875 0.125 1
v -1.1875 -0.125 1.25
v -1.1875 -0.125 1
v -1.25 0.125 1.25
v -1.25 0.125 1
v -1.25 -0.125 1.25
v -1.25 -0.125 1
v -1.375 0.125 -1
v -1.375 0.125 -1.25
v -1.375 -0.125 -1
v -1.375 -0.125 -1.25
v -1.1875 0.125 -1.25
v -1.1875 0.125 -1
v -1.1875 -0.125 -1
v -1.1875 -0.125 -1.25
vt 0.7321428571428571 0.5357142857142857
vt 0.7321428571428571 0.5714285714285714
vt 1 0.5714285714285714
vt 1 0.5357142857142857
vt 1 0.5714285714285714
vt 1 0.6071428571428572
vt 0.7321428571428571 0.6071428571428572
vt 0.7321428571428571 0.5714285714285714
vt 1 0.5892857142857143
vt 0.7321428571428571 0.5892857142857143
vt 0.7321428571428571 0.6071428571428572
vt 1 0.6071428571428572
vt 0.7321428571428571 0.5892857142857143
vt 1 0.5892857142857143
vt 1 0.5714285714285714
vt 0.7321428571428571 0.5714285714285714
vt 0.8392857142857143 0.008928571428571397
vt 0.8392857142857143 0.0625
vt 0.7857142857142857 0.0625
vt 0.7857142857142857 0.008928571428571397
vt 0.8571428571428571 0.008928571428571397
vt 0.8571428571428571 0.0625
vt 0.8392857142857143 0.0625
vt 0.8392857142857143 0.008928571428571397
vt 0.8571428571428571 0.008928571428571397
vt 0.8571428571428571 0.0625
vt 0.8392857142857143 0.0625
vt 0.8392857142857143 0.008928571428571397
vt 0.8571428571428571 0.008928571428571397
vt 0.8571428571428571 0.0625
vt 0.8392857142857143 0.0625
vt 0.8392857142857143 0.008928571428571397
vt 0.8392857142857143 0.008928571428571397
vt 0.8392857142857143 0.0625
vt 0.8571428571428571 0.0625
vt 0.8571428571428571 0.008928571428571397
vt 0.8392857142857143 0.008928571428571397
vt 0.8392857142857143 0.0625
vt 0.7857142857142857 0.0625
vt 0.7857142857142857 0.008928571428571397
vt 0.8571428571428571 0.008928571428571397
vt 0.8571428571428571 0.0625
vt 0.8392857142857143 0.0625
vt 0.8392857142857143 0.008928571428571397
vt 0.8571428571428571 0.008928571428571397
vt 0.8571428571428571 0.0625
vt 0.8392857142857143 0.0625
vt 0.8392857142857143 0.008928571428571397
vt 0.8571428571428571 0.008928571428571397
vt 0.8571428571428571 0.0625
vt 0.8392857142857143 0.0625
vt 0.8392857142857143 0.008928571428571397
vt 0.8392857142857143 0.008928571428571397
vt 0.8392857142857143 0.0625
vt 0.8571428571428571 0.0625
vt 0.8571428571428571 0.008928571428571397
vt 0.8571428571428571 0.0357142857142857
vt 0.8571428571428571 0.0714285714285714
vt 0.8928571428571429 0.0714285714285714
vt 0.8928571428571429 0.0357142857142857
vt 0.9017857142857143 0.0357142857142857
vt 0.9017857142857143 0.0714285714285714
vt 0.8928571428571429 0.0714285714285714
vt 0.8928571428571429 0.0357142857142857
vt 0.9017857142857143 0.0357142857142857
vt 0.9017857142857143 0.0714285714285714
vt 0.8928571428571429 0.0714285714285714
vt 0.8928571428571429 0.0357142857142857
vt 0.9017857142857143 0.0357142857142857
vt 0.9017857142857143 0.0714285714285714
vt 0.8928571428571429 0.0714285714285714
vt 0.8928571428571429 0.0357142857142857
vt 0.8928571428571429 0.0357142857142857
vt 0.8928571428571429 0.0714285714285714
vt 0.9017857142857143 0.0714285714285714
vt 0.9017857142857143 0.0357142857142857
vt 0.8571428571428571 0.0357142857142857
vt 0.8571428571428571 0.0714285714285714
vt 0.8928571428571429 0.0714285714285714
vt 0.8928571428571429 0.0357142857142857
vt 0.9196428571428571 0.0357142857142857
vt 0.9196428571428571 0.0714285714285714
vt 0.8928571428571429 0.0714285714285714
vt 0.8928571428571429 0.0357142857142857
vt 0.9196428571428571 0.0357142857142857
vt 0.9196428571428571 0.0714285714285714
vt 0.8928571428571429 0.0714285714285714
vt 0.8928571428571429 0.0357142857142857
vt 0.9196428571428571 0.0357142857142857
vt 0.9196428571428571 0.0714285714285714
vt 0.8928571428571429 0.0714285714285714
vt 0.8928571428571429 0.0357142857142857
vt 0.8928571428571429 0.0357142857142857
vt 0.8928571428571429 0.0714285714285714
vt 0.9196428571428571 0.0714285714285714
vt 0.9196428571428571 0.0357142857142857
vn 1 0 0
vn -1 0 0
vn 0 1 0
vn 0 -1 0
vn -1 0 0
vn 0 1 0
vn 0 -1 0
vn 0 0 1
vn 0 0 -1
vn -1 0 0
vn 0 1 0
vn 0 -1 0
vn 0 0 1
vn 0 0 -1
vn -1 0 0
vn 0 1 0
vn 0 -1 0
vn 0 0 1
vn 0 0 -1
vn -1 0 0
vn 0 1 0
vn 0 -1 0
vn 0 0 1
vn 0 0 -1
usemtl xl_textures
f 4/1/1 2/2/1 1/3/1 3/4/1
f 7/5/2 5/6/2 6/7/2 8/8/2
f 1/9/3 2/10/3 6/11/3 5/12/3
f 4/13/4 3/14/4 7/15/4 8/16/4
f 15/17/5 13/18/5 14/19/5 16/20/5
f 9/21/6 10/22/6 14/23/6 13/24/6
f 12/25/7 11/26/7 15/27/7 16/28/7
f 11/29/8 9/30/8 13/31/8 15/32/8
f 16/33/9 14/34/9 10/35/9 12/36/9
f 23/37/10 21/38/10 22/39/10 24/40/10
f 17/41/11 18/42/11 22/43/11 21/44/11
f 20/45/12 19/46/12 23/47/12 24/48/12
f 19/49/13 17/50/13 21/51/13 23/52/13
f 24/53/14 22/54/14 18/55/14 20/56/14
f 31/57/15 29/58/15 30/59/15 32/60/15
f 25/61/16 26/62/16 30/63/16 29/64/16
f 28/65/17 27/66/17 31/67/17 32/68/17
f 27/69/18 25/70/18 29/71/18 31/72/18
f 32/73/19 30/74/19 26/75/19 28/76/19
f 35/77/20 33/78/20 34/79/20 36/80/20
f 38/81/21 37/82/21 34/83/21 33/84/21
f 40/85/22 39/86/22 35/87/22 36/88/22
f 39/89/23 38/90/23 33/91/23 35/92/23
f 36/93/24 34/94/24 37/95/24 40/96/24