# Made in Blockbench 4.12.5
mtllib textures.mtl

o cube
v -1.125 0.030696950992243205 0.07590893991999528
v -1.125 -0.17409106008000472 0.2193030490077568
v -1.125 0.17409106008000472 0.28069695099224323
v -1.125 -0.030696950992243205 0.42409106008000474
v -1.375 0.030696950992243205 0.07590893991999528
v -1.375 -0.17409106008000472 0.2193030490077568
v -1.375 0.17409106008000472 0.28069695099224323
v -1.375 -0.030696950992243205 0.42409106008000474
v -1.3125 -0.16210173449998327 -0.09047069374190919
v -1.3125 -0.26449574003610726 -0.018773639198028436
v -1.3125 -0.01870762541222175 0.11431731733033876
v -1.3125 -0.12110163094834571 0.18601437187421951
v -1.375 -0.16210173449998327 -0.09047069374190919
v -1.375 -0.26449574003610726 -0.018773639198028436
v -1.375 -0.01870762541222175 0.11431731733033876
v -1.375 -0.12110163094834571 0.18601437187421951
v 1.375 0.07590882627139242 -0.03069668587583585
v 1.375 0.21930293535915393 0.17409132519641207
v 1.375 0.28069683734364037 -0.17409079496359736
v 1.375 0.4240909464314018 0.03069721610865056
v 1.125 0.07590882627139242 -0.03069668587583585
v 1.125 0.21930293535915393 0.17409132519641207
v 1.125 0.28069683734364037 -0.17409079496359736
v 1.125 0.4240909464314018 0.03069721610865056
v 1.375 -0.09047080739051203 0.16210199961639063
v 1.375 -0.01877375284663127 0.2644960051525146
v 1.375 0.1143172036817359 0.01870789052862909
v 1.375 0.18601425822561665 0.12110189606475305
v 1.3125 -0.09047080739051203 0.16210199961639063
v 1.3125 -0.01877375284663127 0.2644960051525146
v 1.3125 0.1143172036817359 0.01870789052862909
v 1.3125 0.18601425822561665 0.12110189606475305
vt 0.8928571428571429 0.0714285714285714
vt 0.8571428571428571 0.0714285714285714
vt 0.8571428571428571 0.0357142857142857
vt 0.8928571428571429 0.0357142857142857
vt 0.9285714285714286 0.0357142857142857
vt 0.9285714285714286 0.0714285714285714
vt 0.8928571428571429 0.0714285714285714
vt 0.8928571428571429 0.0357142857142857
vt 0.9285714285714286 0.0357142857142857
vt 0.9285714285714286 0.0714285714285714
vt 0.8928571428571429 0.0714285714285714
vt 0.8928571428571429 0.0357142857142857
vt 0.9285714285714286 0.0357142857142857
vt 0.9285714285714286 0.0714285714285714
vt 0.8928571428571429 0.0714285714285714
vt 0.8928571428571429 0.0357142857142857
vt 0.8928571428571429 0.0714285714285714
vt 0.8928571428571429 0.0357142857142857
vt 0.9285714285714286 0.0357142857142857
vt 0.9285714285714286 0.0714285714285714
vt 0.08035714285714286 0
vt 0.11607142857142858 0
vt 0.11607142857142858 0.017857142857142905
vt 0.08035714285714286 0.017857142857142905
vt 0.08035714285714286 0.017857142857142905
vt 0.11607142857142858 0.017857142857142905
vt 0.11607142857142858 0
vt 0.08035714285714286 0
vt 0.10714285714285714 0.017857142857142905
vt 0.10714285714285714 0
vt 0.11607142857142858 0
vt 0.11607142857142858 0.017857142857142905
vt 0.08035714285714286 0.017857142857142905
vt 0.11607142857142858 0.017857142857142905
vt 0.11607142857142858 0.008928571428571397
vt 0.08035714285714286 0.008928571428571397
vt 0.08035714285714286 0.008928571428571397
vt 0.11607142857142858 0.008928571428571397
vt 0.11607142857142858 0
vt 0.08035714285714286 0
vt 0.8928571428571429 0.0357142857142857
vt 0.8571428571428571 0.0357142857142857
vt 0.8571428571428571 0.0714285714285714
vt 0.8928571428571429 0.0714285714285714
vt 0.8928571428571429 0.0357142857142857
vt 0.8928571428571429 0.0714285714285714
vt 0.9285714285714286 0.0714285714285714
vt 0.9285714285714286 0.0357142857142857
vt 0.8928571428571429 0.0357142857142857
vt 0.8928571428571429 0.0714285714285714
vt 0.9285714285714286 0.0714285714285714
vt 0.9285714285714286 0.0357142857142857
vt 0.8928571428571429 0.0357142857142857
vt 0.8928571428571429 0.0714285714285714
vt 0.9285714285714286 0.0714285714285714
vt 0.9285714285714286 0.0357142857142857
vt 0.9285714285714286 0.0714285714285714
vt 0.9285714285714286 0.0357142857142857
vt 0.8928571428571429 0.0357142857142857
vt 0.8928571428571429 0.0714285714285714
vt 0.08035714285714286 0
vt 0.11607142857142858 0
vt 0.11607142857142858 0.017857142857142905
vt 0.08035714285714286 0.017857142857142905
vt 0.08035714285714286 0.017857142857142905
vt 0.11607142857142858 0.017857142857142905
vt 0.11607142857142858 0
vt 0.08035714285714286 0
vt 0.11607142857142858 0.017857142857142905
vt 0.11607142857142858 0
vt 0.10714285714285714 0
vt 0.10714285714285714 0.017857142857142905
vt 0.08035714285714286 0.008928571428571397
vt 0.11607142857142858 0.008928571428571397
vt 0.11607142857142858 0.017857142857142905
vt 0.08035714285714286 0.017857142857142905
vt 0.08035714285714286 0
vt 0.11607142857142858 0
vt 0.11607142857142858 0.008928571428571397
vt 0.08035714285714286 0.008928571428571397
vn -1 0 0
vn 0 -0.5735764363510462 -0.8191520442889919
vn 0 0.5735764363510462 0.8191520442889919
vn 0 0.8191520442889919 -0.5735764363510462
vn 0 -0.8191520442889919 0.5735764363510462
vn 1 0 0
vn -1 0 0
vn 0 -0.5735764363510462 -0.8191520442889919
vn 0 0.8191520442889919 -0.5735764363510462
vn 0 -0.8191520442889919 0.5735764363510462
vn 1 0 0
vn 0 -0.8191520442889919 0.5735764363510462
vn 0 0.8191520442889919 -0.5735764363510462
vn 0 -0.5735764363510462 -0.8191520442889919
vn 0 0.5735764363510462 0.8191520442889919
vn 1 0 0
vn -1 0 0
vn 0 -0.8191520442889919 0.5735764363510462
vn 0 -0.5735764363510462 -0.8191520442889919
vn 0 0.5735764363510462 0.8191520442889919
usemtl xl_textures
f 7/1/1 5/2/1 6/3/1 8/4/1
f 1/5/2 2/6/2 6/7/2 5/8/2
f 4/9/3 3/10/3 7/11/3 8/12/3
f 3/13/4 1/14/4 5/15/4 7/16/4
f 8/17/5 6/18/5 2/19/5 4/20/5
f 12/21/6 10/22/6 9/23/6 11/24/6
f 15/25/7 13/26/7 14/27/7 16/28/7
f 9/29/8 10/30/8 14/31/8 13/32/8
f 11/33/9 9/34/9 13/35/9 15/36/9
f 16/37/10 14/38/10 10/39/10 12/40/10
f 20/41/11 18/42/11 17/43/11 19/44/11
f 17/45/12 18/46/12 22/47/12 21/48/12
f 20/49/13 19/50/13 23/51/13 24/52/13
f 19/53/14 17/54/14 21/55/14 23/56/14
f 24/57/15 22/58/15 18/59/15 20/60/15
f 28/61/16 26/62/16 25/63/16 27/64/16
f 31/65/17 29/66/17 30/67/17 32/68/17
f 25/69/18 26/70/18 30/71/18 29/72/18
f 27/73/19 25/74/19 29/75/19 31/76/19
f 32/77/20 30/78/20 26/79/20 28/80/20