# Made in Blockbench 4.12.5
mtllib textures.mtl

o cube
v -1.3125000000000002 0.3125 0.0625
v -1.3125000000000002 0.3125 -0.0625
v -1.3125000000000002 -0.625 0.0625
v -1.3125000000000002 -0.625 -0.0625
v -1.3750000000000002 0.3125 0.0625
v -1.3750000000000002 0.3125 -0.0625
v -1.3750000000000002 -0.625 0.0625
v -1.3750000000000002 -0.625 -0.0625
v -1.375 -0.375 0.0625
v -1.375 -0.375 -0.0625
v -1.5 0.3125 0.0625
v -1.5 0.3125 -0.0625
v -1.5 -0.375 0.0625
v -1.5 -0.375 -0.0625
vt 0 0.6071428571428572
vt 0.13392857142857142 0.6071428571428572
vt 0.13392857142857142 0.625
vt 0 0.625
vt 0 0.625
vt 0.13392857142857142 0.625
vt 0.13392857142857142 0.6071428571428572
vt 0 0.6071428571428572
vt 0.13392857142857142 0.625
vt 0.13392857142857142 0.6071428571428572
vt 0.125 0.6071428571428572
vt 0.125 0.625
vt 0.008928571428571428 0.6071428571428572
vt 0.008928571428571428 0.625
vt 0 0.625
vt 0 0.6071428571428572
vt 0 0.625
vt 0.13392857142857142 0.625
vt 0.13392857142857142 0.6160714285714286
vt 0 0.6160714285714286
vt 0 0.6160714285714286
vt 0.13392857142857142 0.6160714285714286
vt 0.13392857142857142 0.6071428571428572
vt 0 0.6071428571428572
vt 0.53125 0.65625
vt 0.53125 1
vt 0.46875 1
vt 0.46875 0.65625
vt 0.46875 0.65625
vt 0.46875 1
vt 0.53125 1
vt 0.53125 0.65625
vt 1 0.0625
vt 1 0
vt 0.9375 0
vt 0.9375 0.0625
vt 0.96875 0
vt 0.96875 0.0625
vt 0.90625 0.0625
vt 0.90625 0
vt 0.3125 0.65625
vt 0.3125 1
vt 0.25 1
vt 0.25 0.65625
vt 0.34375 0.3125
vt 0.34375 0.65625
vt 0.28125 0.65625
vt 0.28125 0.3125
vn 1 0 0
vn -1 0 0
vn 0 1 0
vn 0 -1 0
vn 0 0 1
vn 0 0 -1
vn 1 3.2297397080004555e-16 0
vn -1 0 0
vn 0 1 0
vn 0 -1 0
vn 0 0 1
vn 0 0 -1
usemtl xl_textures
f 4/1/1 2/2/1 1/3/1 3/4/1
f 7/5/2 5/6/2 6/7/2 8/8/2
f 1/9/3 2/10/3 6/11/3 5/12/3
f 4/13/4 3/14/4 7/15/4 8/16/4
f 3/17/5 1/18/5 5/19/5 7/20/5
f 8/21/6 6/22/6 2/23/6 4/24/6
usemtl extras
f 10/25/7 6/26/7 5/27/7 9/28/7
f 13/29/8 11/30/8 12/31/8 14/32/8
f 5/33/9 6/34/9 12/35/9 11/36/9
f 10/37/10 9/38/10 13/39/10 14/40/10
f 9/41/11 5/42/11 11/43/11 13/44/11
f 14/45/12 12/46/12 6/47/12 10/48/12