# Made in Blockbench 4.12.5
mtllib textures.mtl

o cube
v -1.1875 1.5 0.0625
v -1.1875 1.5 -0.5625
v -1.1875 1.375 0.0625
v -1.1875 1.375 -0.5625
v -1.3125 1.5 0.0625
v -1.3125 1.5 -0.5625
v -1.3125 1.375 0.0625
v -1.3125 1.375 -0.5625
vt 0 0.4107142857142857
vt 0 0.3928571428571429
vt 0.08928571428571429 0.3928571428571429
vt 0.08928571428571429 0.4107142857142857
vt 0.08928571428571429 0.3928571428571429
vt 0.08928571428571429 0.4107142857142857
vt 0 0.4107142857142857
vt 0 0.3928571428571429
vt 0.08928571428571429 0.3928571428571429
vt 0 0.3928571428571429
vt 0 0.4107142857142857
vt 0.08928571428571429 0.4107142857142857
vt 0 0.4107142857142857
vt 0.08928571428571429 0.4107142857142857
vt 0.08928571428571429 0.3928571428571429
vt 0 0.3928571428571429
vt 0.05357142857142857 0.375
vt 0.05357142857142857 0.3928571428571429
vt 0.07142857142857142 0.3928571428571429
vt 0.07142857142857142 0.375
vn 1 0 0
vn -1 0 0
vn 0 1 0
vn 0 -1 0
vn 0 0 1
usemtl xl_textures
f 4/1/1 2/2/1 1/3/1 3/4/1
f 7/5/2 5/6/2 6/7/2 8/8/2
f 1/9/3 2/10/3 6/11/3 5/12/3
f 4/13/4 3/14/4 7/15/4 8/16/4
f 3/17/5 1/18/5 5/19/5 7/20/5