# Made in Blockbench 4.12.5
mtllib textures.mtl

o cube
v 1.3750000000000002 -0.625 0.0625
v 1.3750000000000002 -0.625 -0.0625
v 1.3125000000000002 0.3125 0.0625
v 1.3125000000000002 0.3125 -0.0625
v 1.3125000000000002 -0.625 0.0625
v 1.3125000000000002 -0.625 -0.0625
v 1.5 -0.375 0.0625
v 1.5 0.3125 0.0625
v 1.5 0.3125 -0.0625
v 1.5 -0.375 -0.0625
v 1.375 -0.375 0.0625
v 1.375 -0.375 -0.0625
v 1.3750000000000002 0.3125 0.0625
v 1.3750000000000002 0.3125 -0.0625
vt 0 0.6071428571428572
vt 0.13392857142857142 0.6071428571428572
vt 0.13392857142857142 0.625
vt 0 0.625
vt 0 0.625
vt 0.13392857142857142 0.625
vt 0.13392857142857142 0.6071428571428572
vt 0 0.6071428571428572
vt 0.125 0.625
vt 0.125 0.6071428571428572
vt 0.13392857142857142 0.6071428571428572
vt 0.13392857142857142 0.625
vt 0 0.6071428571428572
vt 0 0.625
vt 0.008928571428571428 0.625
vt 0.008928571428571428 0.6071428571428572
vt 0 0.6160714285714286
vt 0.13392857142857142 0.6160714285714286
vt 0.13392857142857142 0.625
vt 0 0.625
vt 0 0.6071428571428572
vt 0.13392857142857142 0.6071428571428572
vt 0.13392857142857142 0.6160714285714286
vt 0 0.6160714285714286
vt 0.53125 0.65625
vt 0.53125 1
vt 0.46875 1
vt 0.46875 0.65625
vt 0.46875 0.65625
vt 0.46875 1
vt 0.53125 1
vt 0.53125 0.65625
vt 0.9375 0.0625
vt 0.9375 0
vt 1 0
vt 1 0.0625
vt 0.90625 0
vt 0.90625 0.0625
vt 0.96875 0.0625
vt 0.96875 0
vt 0.25 0.65625
vt 0.25 1
vt 0.3125 1
vt 0.3125 0.65625
vt 0.28125 0.3125
vt 0.28125 0.65625
vt 0.34375 0.65625
vt 0.34375 0.3125
vn 1 0 0
vn -1 0 0
vn 0 1 0
vn 0 -1 0
vn 0 0 1
vn 0 0 -1
vn 1 0 0
vn -1 3.2297397080004555e-16 0
vn 0 1 0
vn 0 -1 0
vn 0 0 1
vn 0 0 -1
usemtl xl_textures
f 2/1/1 14/2/1 13/3/1 1/4/1
f 5/5/2 3/6/2 4/7/2 6/8/2
f 13/9/3 14/10/3 4/11/3 3/12/3
f 2/13/4 1/14/4 5/15/4 6/16/4
f 1/17/5 13/18/5 3/19/5 5/20/5
f 6/21/6 4/22/6 14/23/6 2/24/6
usemtl extras
f 10/25/7 9/26/7 8/27/7 7/28/7
f 11/29/8 13/30/8 14/31/8 12/32/8
f 8/33/9 9/34/9 14/35/9 13/36/9
f 10/37/10 7/38/10 11/39/10 12/40/10
f 7/41/11 8/42/11 13/43/11 11/44/11
f 12/45/12 14/46/12 9/47/12 10/48/12