# Made in Blockbench 4.12.5
mtllib textures.mtl

o Rod
v 1.3125 1.125 -0.1875
v 1.3125 1.125 -1.125
v 1.3125 0.875 -0.1875
v 1.3125 0.875 -1.125
v 1.1875 1.125 -0.1875
v 1.1875 1.125 -1.125
v 1.1875 0.875 -0.1875
v 1.1875 0.875 -1.125
v 1.18125 1.25625 0.1937500000000001
v 1.31875 1.25625 0.1937500000000001
v 1.18125 0.74375 0.1937500000000001
v 1.31875 0.74375 0.1937500000000001
v 1.18125 1.25625 -0.1937500000000001
v 1.31875 1.25625 -0.1937500000000001
v 1.18125 0.74375 -0.1937500000000001
v 1.31875 0.74375 -0.1937500000000001
v 1.375 1.125 0.125
v 1.375 1.125 -0.125
v 1.375 0.875 0.125
v 1.375 0.875 -0.125
v 1.1875 1.125 0.125
v 1.1875 1.125 -0.125
v 1.1875 0.875 0.125
v 1.1875 0.875 -0.125
vt 0.9910714285714286 0.2232142857142857
vt 0.9910714285714286 0.2589285714285714
vt 0.8571428571428571 0.2589285714285714
vt 0.8571428571428571 0.2232142857142857
vt 0.8571428571428571 0.2232142857142857
vt 0.8571428571428571 0.2589285714285714
vt 0.9910714285714286 0.2589285714285714
vt 0.9910714285714286 0.2232142857142857
vt 0.8571428571428571 0.2589285714285714
vt 0.9910714285714286 0.2589285714285714
vt 0.9910714285714286 0.2410714285714286
vt 0.8571428571428571 0.2410714285714286
vt 0.9910714285714286 0.2232142857142857
vt 0.8571428571428571 0.2232142857142857
vt 0.8571428571428571 0.2410714285714286
vt 0.9910714285714286 0.2410714285714286
vt 0.9553571428571429 0
vt 0.9553571428571429 0.0714285714285714
vt 0.9464285714285714 0.0714285714285714
vt 0.9464285714285714 0
vt 1 0
vt 1 0.0714285714285714
vt 0.9910714285714286 0.0714285714285714
vt 0.9910714285714286 0
vt 0.9464285714285714 0.0714285714285714
vt 0.9464285714285714 0.0625
vt 1 0.0625
vt 1 0.0714285714285714
vt 0.9464285714285714 0
vt 0.9464285714285714 0.008928571428571397
vt 1 0.008928571428571397
vt 1 0
vt 0.7321428571428571 0.1428571428571429
vt 0.7321428571428571 0.2142857142857143
vt 0.7857142857142857 0.2142857142857143
vt 0.7857142857142857 0.1428571428571429
vt 1 0
vt 1 0.0714285714285714
vt 0.9464285714285714 0.0714285714285714
vt 0.9464285714285714 0
vt 0.8928571428571429 0.0357142857142857
vt 0.8571428571428571 0.0357142857142857
vt 0.8571428571428571 0.0714285714285714
vt 0.8928571428571429 0.0714285714285714
vt 0.8928571428571429 0.0357142857142857
vt 0.8928571428571429 0.0714285714285714
vt 0.9017857142857143 0.0714285714285714
vt 0.9017857142857143 0.0357142857142857
vt 0.8928571428571429 0.0357142857142857
vt 0.8928571428571429 0.0714285714285714
vt 0.9017857142857143 0.0714285714285714
vt 0.9017857142857143 0.0357142857142857
vt 0.8928571428571429 0.0357142857142857
vt 0.8928571428571429 0.0714285714285714
vt 0.9017857142857143 0.0714285714285714
vt 0.9017857142857143 0.0357142857142857
vt 0.9017857142857143 0.0714285714285714
vt 0.9017857142857143 0.0357142857142857
vt 0.8928571428571429 0.0357142857142857
vt 0.8928571428571429 0.0714285714285714
vn 1 0 0
vn -1 0 0
vn 0 1 0
vn 0 -1 0
vn 0 0 1
vn 0 0 -1
vn 0 1 0
vn 0 -1 0
vn -1 0 0
vn 1 0 0
vn 1 0 0
vn 0 1 0
vn 0 -1 0
vn 0 0 1
vn 0 0 -1
usemtl xl_textures
f 4/1/1 2/2/1 1/3/1 3/4/1
f 7/5/2 5/6/2 6/7/2 8/8/2
f 1/9/3 2/10/3 6/11/3 5/12/3
f 4/13/4 3/14/4 7/15/4 8/16/4
f 12/17/5 10/18/5 9/19/5 11/20/5
f 15/21/6 13/22/6 14/23/6 16/24/6
f 9/25/7 10/26/7 14/27/7 13/28/7
f 12/29/8 11/30/8 15/31/8 16/32/8
f 11/33/9 9/34/9 13/35/9 15/36/9
f 16/37/10 14/38/10 10/39/10 12/40/10
f 20/41/11 18/42/11 17/43/11 19/44/11
f 17/45/12 18/46/12 22/47/12 21/48/12
f 20/49/13 19/50/13 23/51/13 24/52/13
f 19/53/14 17/54/14 21/55/14 23/56/14
f 24/57/15 22/58/15 18/59/15 20/60/15