# Made in Blockbench 4.12.5
mtllib textures.mtl

o cube
v 1.4375 0.0625 0.0625
v 1.4375 0.0625 -0.4375
v 1.4375 -0.0625 0.0625
v 1.4375 -0.0625 -0.4375
v 1.375 0.0625 0.0625
v 1.375 0.0625 -0.4375
v 1.375 -0.0625 0.0625
v 1.375 -0.0625 -0.4375
vt 0.45535714285714285 0
vt 0.45535714285714285 0.017857142857142905
vt 0.5267857142857143 0.017857142857142905
vt 0.5267857142857143 0
vt 0.5267857142857143 0
vt 0.5267857142857143 0.017857142857142905
vt 0.45535714285714285 0.017857142857142905
vt 0.45535714285714285 0
vt 0.5267857142857143 0.017857142857142905
vt 0.45535714285714285 0.017857142857142905
vt 0.45535714285714285 0.008928571428571397
vt 0.5267857142857143 0.008928571428571397
vt 0.45535714285714285 0.008928571428571397
vt 0.5267857142857143 0.008928571428571397
vt 0.5267857142857143 0
vt 0.45535714285714285 0
vt 0.5267857142857143 0
vt 0.5267857142857143 0.017857142857142905
vt 0.5178571428571429 0.017857142857142905
vt 0.5178571428571429 0
vt 0.4642857142857143 0
vt 0.4642857142857143 0.017857142857142905
vt 0.45535714285714285 0.017857142857142905
vt 0.45535714285714285 0
vn 1 0 0
vn -1 0 0
vn 0 1 0
vn 0 -1 0
vn 0 0 1
vn 0 0 -1
usemtl xl_textures
f 4/1/1 2/2/1 1/3/1 3/4/1
f 7/5/2 5/6/2 6/7/2 8/8/2
f 1/9/3 2/10/3 6/11/3 5/12/3
f 4/13/4 3/14/4 7/15/4 8/16/4
f 3/17/5 1/18/5 5/19/5 7/20/5
f 8/21/6 6/22/6 2/23/6 4/24/6