# Made in Blockbench 4.12.5
mtllib textures.mtl

o cube
v -1.0625 0.1875 0.1875
v -1.0625 0.1875 -0.1875
v -1.0625 -0.1875 0.1875
v -1.0625 -0.1875 -0.1875
v -1.1875 0.1875 0.1875
v -1.1875 0.1875 -0.1875
v -1.1875 -0.1875 0.1875
v -1.1875 -0.1875 -0.1875
v -1.0625 0.1875 1.875
v -1.0625 0.1875 1.5
v -1.0625 -0.1875 1.875
v -1.0625 -0.1875 1.5
v -1.1875 0.1875 1.875
v -1.1875 0.1875 1.5
v -1.1875 -0.1875 1.875
v -1.1875 -0.1875 1.5
v -1.0625 0.125 -0.1875
v -1.0625 0.125 -1.5
v -1.0625 -0.125 -0.1875
v -1.0625 -0.125 -1.5
v -1.1875 0.125 -0.1875
v -1.1875 0.125 -1.5
v -1.1875 -0.125 -0.1875
v -1.1875 -0.125 -1.5
v -1.0625 0.125 1.5
v -1.0625 0.125 0.1875
v -1.0625 -0.125 1.5
v -1.0625 -0.125 0.1875
v -1.1875 0.125 1.5
v -1.1875 0.125 0.1875
v -1.1875 -0.125 1.5
v -1.1875 -0.125 0.1875
v -1.0625 0.1875 -1.5
v -1.0625 0.1875 -1.875
v -1.0625 -0.1875 -1.5
v -1.0625 -0.1875 -1.875
v -1.1875 0.1875 -1.5
v -1.1875 0.1875 -1.875
v -1.1875 -0.1875 -1.5
v -1.1875 -0.1875 -1.875
v -1.1875 0.125 1.8125
v -1.1875 0.125 1.5625
v -1.1875 -0.125 1.8125
v -1.1875 -0.125 1.5625
v -1.25 0.125 1.8125
v -1.25 0.125 1.5625
v -1.25 -0.125 1.8125
v -1.25 -0.125 1.5625
v -1.1875 0.125 0.125
v -1.1875 0.125 -0.125
v -1.1875 -0.125 0.125
v -1.1875 -0.125 -0.125
v -1.375 0.125 0.125
v -1.375 0.125 -0.125
v -1.375 -0.125 0.125
v -1.375 -0.125 -0.125
vt 0.8392857142857143 0.0625
vt 0.7857142857142857 0.0625
vt 0.7857142857142857 0.008928571428571397
vt 0.8392857142857143 0.008928571428571397
vt 0.8571428571428571 0.008928571428571397
vt 0.8571428571428571 0.0625
vt 0.8392857142857143 0.0625
vt 0.8392857142857143 0.008928571428571397
vt 0.8571428571428571 0.008928571428571397
vt 0.8571428571428571 0.0625
vt 0.8392857142857143 0.0625
vt 0.8392857142857143 0.008928571428571397
vt 0.8571428571428571 0.008928571428571397
vt 0.8571428571428571 0.0625
vt 0.8392857142857143 0.0625
vt 0.8392857142857143 0.008928571428571397
vt 0.8392857142857143 0.0625
vt 0.8392857142857143 0.008928571428571397
vt 0.8571428571428571 0.008928571428571397
vt 0.8571428571428571 0.0625
vt 0.8392857142857143 0.0625
vt 0.7857142857142857 0.0625
vt 0.7857142857142857 0.008928571428571397
vt 0.8392857142857143 0.008928571428571397
vt 0.8571428571428571 0.008928571428571397
vt 0.8571428571428571 0.0625
vt 0.8392857142857143 0.0625
vt 0.8392857142857143 0.008928571428571397
vt 0.8571428571428571 0.008928571428571397
vt 0.8571428571428571 0.0625
vt 0.8392857142857143 0.0625
vt 0.8392857142857143 0.008928571428571397
vt 0.8571428571428571 0.008928571428571397
vt 0.8571428571428571 0.0625
vt 0.8392857142857143 0.0625
vt 0.8392857142857143 0.008928571428571397
vt 0.8392857142857143 0.0625
vt 0.8392857142857143 0.008928571428571397
vt 0.8571428571428571 0.008928571428571397
vt 0.8571428571428571 0.0625
vt 1 0.375
vt 1 0.4107142857142857
vt 0.8125 0.4107142857142857
vt 0.8125 0.375
vt 0.8125 0.4107142857142857
vt 0.8125 0.4464285714285714
vt 1 0.4464285714285714
vt 1 0.4107142857142857
vt 0.8125 0.4285714285714286
vt 1 0.4285714285714286
vt 1 0.4464285714285714
vt 0.8125 0.4464285714285714
vt 1 0.4285714285714286
vt 0.8125 0.4285714285714286
vt 0.8125 0.4107142857142857
vt 1 0.4107142857142857
vt 1 0.375
vt 1 0.4107142857142857
vt 0.8125 0.4107142857142857
vt 0.8125 0.375
vt 0.8125 0.4107142857142857
vt 0.8125 0.4464285714285714
vt 1 0.4464285714285714
vt 1 0.4107142857142857
vt 0.8125 0.4285714285714286
vt 1 0.4285714285714286
vt 1 0.4464285714285714
vt 0.8125 0.4464285714285714
vt 1 0.4285714285714286
vt 0.8125 0.4285714285714286
vt 0.8125 0.4107142857142857
vt 1 0.4107142857142857
vt 0.8392857142857143 0.2142857142857143
vt 0.7857142857142857 0.2142857142857143
vt 0.7857142857142857 0.1607142857142857
vt 0.8392857142857143 0.1607142857142857
vt 0.8571428571428571 0.1607142857142857
vt 0.8571428571428571 0.2142857142857143
vt 0.8392857142857143 0.2142857142857143
vt 0.8392857142857143 0.1607142857142857
vt 0.8571428571428571 0.1607142857142857
vt 0.8571428571428571 0.2142857142857143
vt 0.8392857142857143 0.2142857142857143
vt 0.8392857142857143 0.1607142857142857
vt 0.8571428571428571 0.1607142857142857
vt 0.8571428571428571 0.2142857142857143
vt 0.8392857142857143 0.2142857142857143
vt 0.8392857142857143 0.1607142857142857
vt 0.8392857142857143 0.2142857142857143
vt 0.8392857142857143 0.1607142857142857
vt 0.8571428571428571 0.1607142857142857
vt 0.8571428571428571 0.2142857142857143
vt 0.8928571428571429 0.0714285714285714
vt 0.8571428571428571 0.0714285714285714
vt 0.8571428571428571 0.0357142857142857
vt 0.8928571428571429 0.0357142857142857
vt 0.9017857142857143 0.0357142857142857
vt 0.9017857142857143 0.0714285714285714
vt 0.8928571428571429 0.0714285714285714
vt 0.8928571428571429 0.0357142857142857
vt 0.9017857142857143 0.0357142857142857
vt 0.9017857142857143 0.0714285714285714
vt 0.8928571428571429 0.0714285714285714
vt 0.8928571428571429 0.0357142857142857
vt 0.9017857142857143 0.0357142857142857
vt 0.9017857142857143 0.0714285714285714
vt 0.8928571428571429 0.0714285714285714
vt 0.8928571428571429 0.0357142857142857
vt 0.8928571428571429 0.0714285714285714
vt 0.8928571428571429 0.0357142857142857
vt 0.9017857142857143 0.0357142857142857
vt 0.9017857142857143 0.0714285714285714
vt 0.8928571428571429 0.0714285714285714
vt 0.8571428571428571 0.0714285714285714
vt 0.8571428571428571 0.0357142857142857
vt 0.8928571428571429 0.0357142857142857
vt 0.9196428571428571 0.0357142857142857
vt 0.9196428571428571 0.0714285714285714
vt 0.8928571428571429 0.0714285714285714
vt 0.8928571428571429 0.0357142857142857
vt 0.9196428571428571 0.0357142857142857
vt 0.9196428571428571 0.0714285714285714
vt 0.8928571428571429 0.0714285714285714
vt 0.8928571428571429 0.0357142857142857
vt 0.9196428571428571 0.0357142857142857
vt 0.9196428571428571 0.0714285714285714
vt 0.8928571428571429 0.0714285714285714
vt 0.8928571428571429 0.0357142857142857
vt 0.8928571428571429 0.0714285714285714
vt 0.8928571428571429 0.0357142857142857
vt 0.9196428571428571 0.0357142857142857
vt 0.9196428571428571 0.0714285714285714
vn -1 0 0
vn 0 1 0
vn 0 -1 0
vn 0 0 1
vn 0 0 -1
vn -1 0 0
vn 0 1 0
vn 0 -1 0
vn 0 0 1
vn 0 0 -1
vn 1 0 0
vn -1 0 0
vn 0 1 0
vn 0 -1 0
vn 1 0 0
vn -1 0 0
vn 0 1 0
vn 0 -1 0
vn -1 0 0
vn 0 1 0
vn 0 -1 0
vn 0 0 1
vn 0 0 -1
vn -1 0 0
vn 0 1 0
vn 0 -1 0
vn 0 0 1
vn 0 0 -1
vn -1 0 0
vn 0 1 0
vn 0 -1 0
vn 0 0 1
vn 0 0 -1
usemtl xl_textures
f 7/1/1 5/2/1 6/3/1 8/4/1
f 1/5/2 2/6/2 6/7/2 5/8/2
f 4/9/3 3/10/3 7/11/3 8/12/3
f 3/13/4 1/14/4 5/15/4 7/16/4
f 8/17/5 6/18/5 2/19/5 4/20/5
f 15/21/6 13/22/6 14/23/6 16/24/6
f 9/25/7 10/26/7 14/27/7 13/28/7
f 12/29/8 11/30/8 15/31/8 16/32/8
f 11/33/9 9/34/9 13/35/9 15/36/9
f 16/37/10 14/38/10 10/39/10 12/40/10
f 20/41/11 18/42/11 17/43/11 19/44/11
f 23/45/12 21/46/12 22/47/12 24/48/12
f 17/49/13 18/50/13 22/51/13 21/52/13
f 20/53/14 19/54/14 23/55/14 24/56/14
f 28/57/15 26/58/15 25/59/15 27/60/15
f 31/61/16 29/62/16 30/63/16 32/64/16
f 25/65/17 26/66/17 30/67/17 29/68/17
f 28/69/18 27/70/18 31/71/18 32/72/18
f 39/73/19 37/74/19 38/75/19 40/76/19
f 33/77/20 34/78/20 38/79/20 37/80/20
f 36/81/21 35/82/21 39/83/21 40/84/21
f 35/85/22 33/86/22 37/87/22 39/88/22
f 40/89/23 38/90/23 34/91/23 36/92/23
f 47/93/24 45/94/24 46/95/24 48/96/24
f 41/97/25 42/98/25 46/99/25 45/100/25
f 44/101/26 43/102/26 47/103/26 48/104/26
f 43/105/27 41/106/27 45/107/27 47/108/27
f 48/109/28 46/110/28 42/111/28 44/112/28
f 55/113/29 53/114/29 54/115/29 56/116/29
f 49/117/30 50/118/30 54/119/30 53/120/30
f 52/121/31 51/122/31 55/123/31 56/124/31
f 51/125/32 49/126/32 53/127/32 55/128/32
f 56/129/33 54/130/33 50/131/33 52/132/33