# Made in Blockbench 4.12.5
mtllib textures.mtl

o cube
v -1.0625 0.125 0.125
v -1.0625 0.125 -0.125
v -1.0625 -0.125 0.125
v -1.0625 -0.125 -0.125
v -1.3125 0.125 -0.125
v -1.3125 0.125 0.125
v -1.3125 -0.125 -0.125
v -1.3125 -0.125 0.125
vt 0.9286057692307692 0.0714285576923076
vt 0.8928571634615385 0.0714285576923076
vt 0.8928571634615385 0.035679951923076825
vt 0.9286057692307692 0.035679951923076825
vt 0.8928571634615385 0.0714285576923076
vt 0.9286057692307692 0.0714285576923076
vt 0.9286057692307692 0.035679951923076825
vt 0.8928571634615385 0.035679951923076825
vt 0.8571428365384615 0.0714285576923076
vt 0.8928914903846153 0.0714285576923076
vt 0.8928914903846153 0.035679951923076825
vt 0.8571428365384615 0.035679951923076825
vt 0.8928571634615385 0.0714285576923076
vt 0.9286057692307692 0.0714285576923076
vt 0.9286057692307692 0.035679951923076825
vt 0.8928571634615385 0.035679951923076825
vt 0.8928571634615385 0.0714285576923076
vt 0.9286057692307692 0.0714285576923076
vt 0.9286057692307692 0.035679951923076825
vt 0.8928571634615385 0.035679951923076825
vn 0 0 -1
vn 0 0 1
vn -1 0 0
vn 0 1 0
vn 0 -1 0
usemtl xl_textures
f 4/4/1 7/3/1 5/2/1 2/1/1
f 8/8/2 3/7/2 1/6/2 6/5/2
f 7/12/3 8/11/3 6/10/3 5/9/3
f 6/16/4 1/15/4 2/14/4 5/13/4
f 7/20/5 4/19/5 3/18/5 8/17/5