# Made in Blockbench 4.12.5
mtllib textures.mtl

o cube
v 1.1875 1.5 -0.25
v 1.1875 1.5 -1.4375
v 1.1875 1.3125 -0.25
v 1.1875 1.3125 -1.4375
v 1.0625 1.5 -0.25
v 1.0625 1.5 -1.4375
v 1.0625 1.3125 -0.25
v 1.0625 1.3125 -1.4375
v 1.1875 1.1875 -0.25
v 1.1875 1.1875 -1.4375
v 1.1875 1 -0.25
v 1.1875 1 -1.4375
v 1.0625 1.1875 -0.25
v 1.0625 1.1875 -1.4375
v 1.0625 1 -0.25
v 1.0625 1 -1.4375
v 1.0625 1.5 1.4375
v 1.1875 1.5 1.4375
v 1.1875 1.5 0.25
v 1.1875 1.3125 1.4375
v 1.1875 1.3125 0.25
v 1.0625 1.5 0.25
v 1.0625 1.3125 1.4375
v 1.0625 1.3125 0.25
v 1.1875 1.1875 1.4375
v 1.1875 1.1875 0.25
v 1.1875 1 1.4375
v 1.1875 1 0.25
v 1.0625 1.1875 1.4375
v 1.0625 1.1875 0.25
v 1.0625 1 1.4375
v 1.0625 1 0.25
v 1.25 1.5625 0.25
v 1.25 1.5625 0.125
v 1.25 0.9375 0.25
v 1.25 0.9375 0.125
v 1.0625 1.5625 0.25
v 1.0625 1.5625 0.125
v 1.0625 0.9375 0.25
v 1.0625 0.9375 0.125
v 1.1875 1.8125 0.1875
v 1.1875 1.8125 -0.1875
v 1.1875 1.6875 0.1875
v 1.1875 1.6875 -0.1875
v 1.0625 1.8125 0.1875
v 1.0625 1.8125 -0.1875
v 1.0625 1.6875 0.1875
v 1.0625 1.6875 -0.1875
v 1.1875 1.6875 0.1875
v 1.1875 1.6875 0.0625
v 1.1875 0.8125 0.1875
v 1.1875 0.8125 0.0625
v 1.0625 1.6875 0.1875
v 1.0625 1.6875 0.0625
v 1.0625 0.8125 0.1875
v 1.0625 0.8125 0.0625
v 1.1875 1.6875 -0.0625
v 1.1875 1.6875 -0.1875
v 1.1875 0.8125 -0.0625
v 1.1875 0.8125 -0.1875
v 1.0625 1.6875 -0.0625
v 1.0625 1.6875 -0.1875
v 1.0625 0.8125 -0.0625
v 1.0625 0.8125 -0.1875
v 1.25 1.5625 -0.125
v 1.25 1.5625 -0.25
v 1.25 0.9375 -0.125
v 1.25 0.9375 -0.25
v 1.0625 1.5625 -0.125
v 1.0625 1.5625 -0.25
v 1.0625 0.9375 -0.125
v 1.0625 0.9375 -0.25
v 1.1875 0.8125 0.1875
v 1.1875 0.8125 -0.1875
v 1.1875 0.6875 0.1875
v 1.1875 0.6875 -0.1875
v 1.0625 0.8125 0.1875
v 1.0625 0.8125 -0.1875
v 1.0625 0.6875 0.1875
v 1.0625 0.6875 -0.1875
vt 0 0
vt 0 0.09375
vt 0.59375 0.09375
vt 0.59375 0
vt 0.59375 0
vt 0.59375 0.09375
vt 0 0.09375
vt 0 0
vt 0.59375 0.09375
vt 0 0.09375
vt 0 0.03125
vt 0.59375 0.03125
vt 0 0
vt 0.59375 0
vt 0.59375 0.0625
vt 0 0.0625
vt 0 0
vt 0 0.09375
vt 0.59375 0.09375
vt 0.59375 0
vt 0.59375 0
vt 0.59375 0.09375
vt 0 0.09375
vt 0 0
vt 0.59375 0.09375
vt 0 0.09375
vt 0 0.03125
vt 0.59375 0.03125
vt 0 0
vt 0.59375 0
vt 0.59375 0.0625
vt 0 0.0625
vt 0.59375 0
vt 0.59375 0.09375
vt 0 0.09375
vt 0 0
vt 0 0
vt 0 0.09375
vt 0.59375 0.09375
vt 0.59375 0
vt 0 0.09375
vt 0.59375 0.09375
vt 0.59375 0.03125
vt 0 0.03125
vt 0.59375 0
vt 0 0
vt 0 0.0625
vt 0.59375 0.0625
vt 0.59375 0
vt 0.59375 0.09375
vt 0 0.09375
vt 0 0
vt 0 0
vt 0 0.09375
vt 0.59375 0.09375
vt 0.59375 0
vt 0 0.09375
vt 0.59375 0.09375
vt 0.59375 0.03125
vt 0 0.03125
vt 0.59375 0
vt 0 0
vt 0 0.0625
vt 0.59375 0.0625
vt 0.625 0.21875
vt 0.9375 0.21875
vt 0.9375 0.28125
vt 0.625 0.28125
vt 0.09375 0.3125
vt 0.15625 0.3125
vt 0.15625 0.40625
vt 0.09375 0.40625
vt 0.15625 0.3125
vt 0.09375 0.3125
vt 0.09375 0.40625
vt 0.15625 0.40625
vt 0.34375 0.21875
vt 0.34375 0.53125
vt 0.25 0.53125
vt 0.25 0.21875
vt 0.25 0.21875
vt 0.25 0.53125
vt 0.34375 0.53125
vt 0.34375 0.21875
vt 0.1875 0.5625
vt 0.1875 0.5
vt 0 0.5
vt 0 0.5625
vt 0.0625 0.6875
vt 0.0625 0.875
vt 0.125 0.875
vt 0.125 0.6875
vt 0.125 0.6875
vt 0.125 0.875
vt 0.0625 0.875
vt 0.0625 0.6875
vt 0.1875 0.5
vt 0.1875 0.5625
vt 0.25 0.5625
vt 0.25 0.5
vt 0.25 0.5
vt 0.25 0.5625
vt 0.1875 0.5625
vt 0.1875 0.5
vt 0.0625 0.1875
vt 0.0625 0.625
vt 0 0.625
vt 0 0.1875
vt 0.1875 0.25
vt 0.1875 0.6875
vt 0.25 0.6875
vt 0.25 0.25
vt 0.1875 0.1875
vt 0.1875 0.625
vt 0.25 0.625
vt 0.25 0.1875
vt 0 0.1875
vt 0 0.625
vt 0.0625 0.625
vt 0.0625 0.1875
vt 0.25 0.1875
vt 0.25 0.625
vt 0.1875 0.625
vt 0.1875 0.1875
vt 0.25 0.25
vt 0.25 0.6875
vt 0.1875 0.6875
vt 0.1875 0.25
vt 0.625 0.28125
vt 0.9375 0.28125
vt 0.9375 0.21875
vt 0.625 0.21875
vt 0.15625 0.3125
vt 0.09375 0.3125
vt 0.09375 0.40625
vt 0.15625 0.40625
vt 0.09375 0.3125
vt 0.15625 0.3125
vt 0.15625 0.40625
vt 0.09375 0.40625
vt 0.34375 0.21875
vt 0.34375 0.53125
vt 0.25 0.53125
vt 0.25 0.21875
vt 0.25 0.21875
vt 0.25 0.53125
vt 0.34375 0.53125
vt 0.34375 0.21875
vt 0.1875 0.9375
vt 0.1875 0.875
vt 0 0.875
vt 0 0.9375
vt 0.125 0.6875
vt 0.125 0.875
vt 0.0625 0.875
vt 0.0625 0.6875
vt 0.0625 0.875
vt 0.0625 0.6875
vt 0.125 0.6875
vt 0.125 0.875
vt 0.1875 0.9375
vt 0.1875 0.875
vt 0.25 0.875
vt 0.25 0.9375
vt 0.25 0.9375
vt 0.25 0.875
vt 0.1875 0.875
vt 0.1875 0.9375
vn 1 0 0
vn -1 0 0
vn 0 1 0
vn 0 -1 0
vn 1 0 0
vn -1 0 0
vn 0 1 0
vn 0 -1 0
vn 1 0 0
vn -1 0 0
vn 0 1 0
vn 0 -1 0
vn 1 0 0
vn -1 0 0
vn 0 1 0
vn 0 -1 0
vn 1 0 0
vn 0 1 0
vn 0 -1 0
vn 0 0 1
vn 0 0 -1
vn 1 0 0
vn 0 1 0
vn 0 -1 0
vn 0 0 1
vn 0 0 -1
vn 1 0 0
vn 0 0 1
vn 0 0 -1
vn 1 0 0
vn 0 0 1
vn 0 0 -1
vn 1 0 0
vn 0 1 0
vn 0 -1 0
vn 0 0 1
vn 0 0 -1
vn 1 0 0
vn 0 1 0
vn 0 -1 0
vn 0 0 1
vn 0 0 -1
usemtl broad_piston
f 4/1/1 2/2/1 1/3/1 3/4/1
f 7/5/2 5/6/2 6/7/2 8/8/2
f 1/9/3 2/10/3 6/11/3 5/12/3
f 4/13/4 3/14/4 7/15/4 8/16/4
f 12/17/5 10/18/5 9/19/5 11/20/5
f 15/21/6 13/22/6 14/23/6 16/24/6
f 9/25/7 10/26/7 14/27/7 13/28/7
f 12/29/8 11/30/8 15/31/8 16/32/8
f 21/33/9 19/34/9 18/35/9 20/36/9
f 23/37/10 17/38/10 22/39/10 24/40/10
f 18/41/11 19/42/11 22/43/11 17/44/11
f 21/45/12 20/46/12 23/47/12 24/48/12
f 28/49/13 26/50/13 25/51/13 27/52/13
f 31/53/14 29/54/14 30/55/14 32/56/14
f 25/57/15 26/58/15 30/59/15 29/60/15
f 28/61/16 27/62/16 31/63/16 32/64/16
f 36/65/17 34/66/17 33/67/17 35/68/17
f 33/69/18 34/70/18 38/71/18 37/72/18
f 36/73/19 35/74/19 39/75/19 40/76/19
f 35/77/20 33/78/20 37/79/20 39/80/20
f 40/81/21 38/82/21 34/83/21 36/84/21
usemtl piston
f 44/85/22 42/86/22 41/87/22 43/88/22
f 41/89/23 42/90/23 46/91/23 45/92/23
f 44/93/24 43/94/24 47/95/24 48/96/24
f 43/97/25 41/98/25 45/99/25 47/100/25
f 48/101/26 46/102/26 42/103/26 44/104/26
usemtl broad_piston
f 52/105/27 50/106/27 49/107/27 51/108/27
f 51/109/28 49/110/28 53/111/28 55/112/28
f 56/113/29 54/114/29 50/115/29 52/116/29
f 60/117/30 58/118/30 57/119/30 59/120/30
f 59/121/31 57/122/31 61/123/31 63/124/31
f 64/125/32 62/126/32 58/127/32 60/128/32
f 68/129/33 66/130/33 65/131/33 67/132/33
f 65/133/34 66/134/34 70/135/34 69/136/34
f 68/137/35 67/138/35 71/139/35 72/140/35
f 67/141/36 65/142/36 69/143/36 71/144/36
f 72/145/37 70/146/37 66/147/37 68/148/37
usemtl piston
f 76/149/38 74/150/38 73/151/38 75/152/38
f 73/153/39 74/154/39 78/155/39 77/156/39
f 76/157/40 75/158/40 79/159/40 80/160/40
f 75/161/41 73/162/41 77/163/41 79/164/41
f 80/165/42 78/166/42 74/167/42 76/168/42