# Made in Blockbench 4.12.5
mtllib textures.mtl

o cube
v -1.1875 0.125 1.5
v -1.1875 0.125 0.125
v -1.1875 -0.125 1.5
v -1.1875 -0.125 0.125
v -1.3125 0.125 1.5
v -1.3125 0.125 0.125
v -1.3125 -0.125 1.5
v -1.3125 -0.125 0.125
v -1.1875 0.1875 1.875
v -1.1875 0.1875 1.5
v -1.1875 -0.1875 1.875
v -1.1875 -0.1875 1.5
v -1.3125 0.1875 1.875
v -1.3125 0.1875 1.5
v -1.3125 -0.1875 1.875
v -1.3125 -0.1875 1.5
vt 0.8035714285714286 0.375
vt 0.8035714285714286 0.4107142857142857
vt 1 0.4107142857142857
vt 1 0.375
vt 1 0.4107142857142857
vt 1 0.4464285714285714
vt 0.8035714285714286 0.4464285714285714
vt 0.8035714285714286 0.4107142857142857
vt 1 0.4285714285714286
vt 0.8035714285714286 0.4285714285714286
vt 0.8035714285714286 0.4464285714285714
vt 1 0.4464285714285714
vt 0.8035714285714286 0.4285714285714286
vt 1 0.4285714285714286
vt 1 0.4107142857142857
vt 0.8035714285714286 0.4107142857142857
vt 0.8392857142857143 0.008928571428571397
vt 0.8392857142857143 0.0625
vt 0.7857142857142857 0.0625
vt 0.7857142857142857 0.008928571428571397
vt 0.8392857142857143 0.0625
vt 0.7857142857142857 0.0625
vt 0.7857142857142857 0.008928571428571397
vt 0.8392857142857143 0.008928571428571397
vt 0.8571428571428571 0.008928571428571397
vt 0.8571428571428571 0.0625
vt 0.8392857142857143 0.0625
vt 0.8392857142857143 0.008928571428571397
vt 0.8571428571428571 0.008928571428571397
vt 0.8571428571428571 0.0625
vt 0.8392857142857143 0.0625
vt 0.8392857142857143 0.008928571428571397
vt 0.8571428571428571 0.008928571428571397
vt 0.8571428571428571 0.0625
vt 0.8392857142857143 0.0625
vt 0.8392857142857143 0.008928571428571397
vt 0.8392857142857143 0.0625
vt 0.8392857142857143 0.008928571428571397
vt 0.8571428571428571 0.008928571428571397
vt 0.8571428571428571 0.0625
vn 1 0 0
vn -1 0 0
vn 0 1 0
vn 0 -1 0
vn 1 0 0
vn -1 0 0
vn 0 1 0
vn 0 -1 0
vn 0 0 1
vn 0 0 -1
usemtl xl_textures
f 4/1/1 2/2/1 1/3/1 3/4/1
f 7/5/2 5/6/2 6/7/2 8/8/2
f 1/9/3 2/10/3 6/11/3 5/12/3
f 4/13/4 3/14/4 7/15/4 8/16/4
f 12/17/5 10/18/5 9/19/5 11/20/5
f 15/21/6 13/22/6 14/23/6 16/24/6
f 9/25/7 10/26/7 14/27/7 13/28/7
f 12/29/8 11/30/8 15/31/8 16/32/8
f 11/33/9 9/34/9 13/35/9 15/36/9
f 16/37/10 14/38/10 10/39/10 12/40/10