# Made in Blockbench 4.12.5
mtllib textures.mtl

o cube
v 1.375 0.0625 0.1875
v 1.375 0.0625 -0.4375
v 1.375 -0.0625 0.1875
v 1.375 -0.0625 -0.4375
v 1.4375 0.0625 0.1875
v 1.4375 0.0625 -0.4375
v 1.4375 -0.0625 0.1875
v 1.4375 -0.0625 -0.4375
v 1.375 0.0625 -0.4375
v 1.375 0.0625 -1.1875
v 1.375 -0.0625 -0.4375
v 1.375 -0.0625 -1.1875
v 1.4375 0.0625 -0.4375
v 1.4375 0.0625 -1.1875
v 1.4375 -0.0625 -0.4375
v 1.4375 -0.0625 -1.1875
vt 0.26785714285714285 0.7857142857142857
vt 0.17857142857142858 0.7857142857142857
vt 0.17857142857142858 0.7678571428571428
vt 0.26785714285714285 0.7678571428571428
vt 0.1875 0.7857142857142857
vt 0.2767857142857143 0.7857142857142857
vt 0.2767857142857143 0.7678571428571428
vt 0.1875 0.7678571428571428
vt 0.1875 0.7857142857142857
vt 0.1875 0.7767857142857143
vt 0.2767857142857143 0.7767857142857143
vt 0.2767857142857143 0.7857142857142857
vt 0.2767857142857143 0.7767857142857143
vt 0.2767857142857143 0.7678571428571428
vt 0.1875 0.7678571428571428
vt 0.1875 0.7767857142857143
vt 0.2767857142857143 0.7857142857142857
vt 0.26785714285714285 0.7857142857142857
vt 0.26785714285714285 0.7678571428571428
vt 0.2767857142857143 0.7678571428571428
vt 0.10714285714285714 0.7857142857142857
vt 0 0.7857142857142857
vt 0 0.7678571428571428
vt 0.10714285714285714 0.7678571428571428
vt 0 0.7857142857142857
vt 0.10714285714285714 0.7857142857142857
vt 0.10714285714285714 0.7678571428571428
vt 0 0.7678571428571428
vt 0 0.7857142857142857
vt 0 0.7767857142857143
vt 0.10714285714285714 0.7767857142857143
vt 0.10714285714285714 0.7857142857142857
vt 0.10714285714285714 0.7767857142857143
vt 0.10714285714285714 0.7678571428571428
vt 0 0.7678571428571428
vt 0 0.7767857142857143
vt 0.008928571428571428 0.7857142857142857
vt 0 0.7857142857142857
vt 0 0.7678571428571428
vt 0.008928571428571428 0.7678571428571428
vn -1 0 0
vn 1 0 0
vn 0 1 0
vn 0 -1 0
vn 0 0 1
vn -1 0 0
vn 1 0 0
vn 0 1 0
vn 0 -1 0
vn 0 0 -1
usemtl xl_textures
f 1/1/1 2/2/1 4/3/1 3/4/1
f 6/5/2 5/6/2 7/7/2 8/8/2
f 6/9/3 2/10/3 1/11/3 5/12/3
f 7/13/4 3/14/4 4/15/4 8/16/4
f 5/17/5 1/18/5 3/19/5 7/20/5
f 9/21/6 10/22/6 12/23/6 11/24/6
f 14/25/7 13/26/7 15/27/7 16/28/7
f 14/29/8 10/30/8 9/31/8 13/32/8
f 15/33/9 11/34/9 12/35/9 16/36/9
f 10/37/10 14/38/10 16/39/10 12/40/10