# Made in Blockbench 4.12.5
mtllib textures.mtl

o cube
v 1.375 0.125 1.5625
v 1.375 0.125 1.3125
v 1.375 -0.125 1.5625
v 1.375 -0.125 1.3125
v 1.4375 0.125 1.5625
v 1.4375 0.125 1.3125
v 1.4375 -0.125 1.5625
v 1.4375 -0.125 1.3125
v 1.375 0.0625 0.625
v 1.375 0.0625 -0.0625
v 1.375 -0.0625 0.625
v 1.375 -0.0625 -0.0625
v 1.4375 0.0625 0.625
v 1.4375 0.0625 -0.0625
v 1.4375 -0.0625 0.625
v 1.4375 -0.0625 -0.0625
v 1.375 0.0625 1.3125
v 1.375 0.0625 0.625
v 1.375 -0.0625 1.3125
v 1.375 -0.0625 0.625
v 1.4375 0.0625 1.3125
v 1.4375 0.0625 0.625
v 1.4375 -0.0625 1.3125
v 1.4375 -0.0625 0.625
vt 0.8571428571428571 0.0357142857142857
vt 0.8928571428571429 0.0357142857142857
vt 0.8928571428571429 0
vt 0.8571428571428571 0
vt 0.8928571428571429 0.0357142857142857
vt 0.8571428571428571 0.0357142857142857
vt 0.8571428571428571 0
vt 0.8928571428571429 0
vt 0.8928571428571429 0.0357142857142857
vt 0.8928571428571429 0.0267857142857143
vt 0.8571428571428571 0.0267857142857143
vt 0.8571428571428571 0.0357142857142857
vt 0.8571428571428571 0.008928571428571397
vt 0.8571428571428571 0
vt 0.8928571428571429 0
vt 0.8928571428571429 0.008928571428571397
vt 0.8660714285714286 0.0357142857142857
vt 0.8571428571428571 0.0357142857142857
vt 0.8571428571428571 0
vt 0.8660714285714286 0
vt 0.8928571428571429 0.0357142857142857
vt 0.8839285714285714 0.0357142857142857
vt 0.8839285714285714 0
vt 0.8928571428571429 0
vt 0.09821428571428571 0.7589285714285714
vt 0 0.7589285714285714
vt 0 0.7410714285714286
vt 0.09821428571428571 0.7410714285714286
vt 0 0.7589285714285714
vt 0.09821428571428571 0.7589285714285714
vt 0.09821428571428571 0.7410714285714286
vt 0 0.7410714285714286
vt 0 0.7589285714285714
vt 0 0.75
vt 0.09821428571428571 0.75
vt 0.09821428571428571 0.7589285714285714
vt 0.09821428571428571 0.75
vt 0.09821428571428571 0.7410714285714286
vt 0 0.7410714285714286
vt 0 0.75
vt 0 0.7589285714285714
vt 0.008928571428571428 0.7589285714285714
vt 0.008928571428571428 0.7410714285714286
vt 0 0.7410714285714286
vt 0.22321428571428573 0.7589285714285714
vt 0.125 0.7589285714285714
vt 0.125 0.7410714285714286
vt 0.22321428571428573 0.7410714285714286
vt 0.125 0.7589285714285714
vt 0.22321428571428573 0.7589285714285714
vt 0.22321428571428573 0.7410714285714286
vt 0.125 0.7410714285714286
vt 0.125 0.7589285714285714
vt 0.125 0.75
vt 0.22321428571428573 0.75
vt 0.22321428571428573 0.7589285714285714
vt 0.22321428571428573 0.75
vt 0.22321428571428573 0.7410714285714286
vt 0.125 0.7410714285714286
vt 0.125 0.75
vn -1 0 0
vn 1 0 0
vn 0 1 0
vn 0 -1 0
vn 0 0 1
vn 0 0 -1
vn -1 0 0
vn 1 0 0
vn 0 1 0
vn 0 -1 0
vn 0 0 -1
vn -1 0 0
vn 1 0 0
vn 0 1 0
vn 0 -1 0
usemtl xl_textures
f 1/1/1 2/2/1 4/3/1 3/4/1
f 6/5/2 5/6/2 7/7/2 8/8/2
f 6/9/3 2/10/3 1/11/3 5/12/3
f 7/13/4 3/14/4 4/15/4 8/16/4
f 5/17/5 1/18/5 3/19/5 7/20/5
f 2/21/6 6/22/6 8/23/6 4/24/6
f 9/25/7 10/26/7 12/27/7 11/28/7
f 14/29/8 13/30/8 15/31/8 16/32/8
f 14/33/9 10/34/9 9/35/9 13/36/9
f 15/37/10 11/38/10 12/39/10 16/40/10
f 10/41/11 14/42/11 16/43/11 12/44/11
f 17/45/12 18/46/12 20/47/12 19/48/12
f 22/49/13 21/50/13 23/51/13 24/52/13
f 22/53/14 18/54/14 17/55/14 21/56/14
f 23/57/15 19/58/15 20/59/15 24/60/15