# Made in Blockbench 4.12.5
mtllib textures.mtl

o cube
v 0.3125 1.0625 0.5
v 0.3125 1.0625 0
v 0.3125 0.4375 0.5
v 0.3125 0.4375 0
v -0.3125 1.0625 0.5
v -0.3125 1.0625 0
v -0.3125 0.4375 0.5
v -0.3125 0.4375 0
v 0.3125 1.0625 0
v 0.3125 1.0625 -0.5
v 0.3125 0.4375 0
v 0.3125 0.4375 -0.5
v -0.3125 1.0625 0
v -0.3125 1.0625 -0.5
v -0.3125 0.4375 0
v -0.3125 0.4375 -0.5
v 0 1.25 0.375
v 0 1.25 0
v 0 0.75 0.375
v 0 0.75 0
v -0.5 1.25 0.375
v -0.5 1.25 0
v -0.5 0.75 0.375
v -0.5 0.75 0
v 0.5 1.25 0.375
v 0.5 1.25 0
v 0.5 0.75 0.375
v 0.5 0.75 0
v 0 1.25 -0.375
v 0 0.75 -0.375
v -0.5 1.25 -0.375
v -0.5 0.75 -0.375
v 0.5 1.25 -0.375
v 0.5 0.75 -0.375
v 0.25 1.5 0.25
v 0.25 1.5 -0.25
v 0.25 1.25 0.25
v 0.25 1.25 -0.25
v -0.25 1.5 0.25
v -0.25 1.5 -0.25
v -0.25 1.25 0.25
v -0.25 1.25 -0.25
v -0.375 1 0.25
v -0.375 1 -0.25
v -0.375 0.5 0.25
v -0.375 0.5 -0.25
v -0.75 1 0.25
v -0.75 1 -0.25
v -0.75 0.5 0.25
v -0.75 0.5 -0.25
v 0.75 1 0.25
v 0.75 1 -0.25
v 0.75 0.5 0.25
v 0.75 0.5 -0.25
v 0.375 1 0.25
v 0.375 1 -0.25
v 0.375 0.5 0.25
v 0.375 0.5 -0.25
v 0.3125 1.0625 -0.5625
v 0.3125 1.0625 -1.1875
v 0.3125 0.4375 -0.5625
v 0.3125 0.4375 -1.1875
v -0.3125 1.0625 -0.5625
v -0.3125 1.0625 -1.1875
v -0.3125 0.4375 -0.5625
v -0.3125 0.4375 -1.1875
v 0.3125 1.0625 1.1875
v 0.3125 1.0625 0.5625
v 0.3125 0.4375 1.1875
v 0.3125 0.4375 0.5625
v -0.3125 1.0625 1.1875
v -0.3125 1.0625 0.5625
v -0.3125 0.4375 1.1875
v -0.3125 0.4375 0.5625
v 0.09375 1.25 -0.78125
v 0.09375 1.25 -0.96875
v 0.09375 1.0625 -0.78125
v 0.09375 1.0625 -0.96875
v -0.09375 1.25 -0.78125
v -0.09375 1.25 -0.96875
v -0.09375 1.0625 -0.78125
v -0.09375 1.0625 -0.96875
v 0.09375 1.25 0.96875
v 0.09375 1.25 0.78125
v 0.09375 1.0625 0.96875
v 0.09375 1.0625 0.78125
v -0.09375 1.25 0.96875
v -0.09375 1.25 0.78125
v -0.09375 1.0625 0.96875
v -0.09375 1.0625 0.78125
vt 0.3125 0.25
vt 0 0.25
vt 0 0
vt 0.3125 0
vt 0.3125 0
vt 0 0
vt 0 0.25
vt 0.3125 0.25
vt 0.3125 0
vt 0.3125 0.25
vt 0 0.25
vt 0 0
vt 0.3125 0.25
vt 0.3125 0
vt 0 0
vt 0 0.25
vt 0.5416666666666666 0.375
vt 0.5416666666666666 0.5833333333333333
vt 0.3333333333333333 0.5833333333333333
vt 0.3333333333333333 0.375
vt 0.3125 0.5625
vt 0 0.5625
vt 0 0.3125
vt 0.3125 0.3125
vt 0.3125 0.3125
vt 0 0.3125
vt 0 0.5625
vt 0.3125 0.5625
vt 0.3125 0.3125
vt 0.3125 0.5625
vt 0 0.5625
vt 0 0.3125
vt 0.3125 0.5625
vt 0.3125 0.3125
vt 0 0.3125
vt 0 0.5625
vt 1 0.6875
vt 1 1
vt 0.6875 1
vt 0.6875 0.6875
vt 0.6875 0.5625
vt 0.4375 0.5625
vt 0.4375 0.75
vt 0.6875 0.75
vt 0.25 0.5625
vt 0.25 0.75
vt 0 0.75
vt 0 0.5625
vt 0.25 0.75
vt 0.25 0.5625
vt 0 0.5625
vt 0 0.75
vt 0.5625 0.3125
vt 0.5625 0.5625
vt 0.3125 0.5625
vt 0.3125 0.3125
vt 0.6875 0.75
vt 0.4375 0.75
vt 0.4375 0.5625
vt 0.6875 0.5625
vt 0.4375 0.5625
vt 0.4375 0.75
vt 0.1875 0.75
vt 0.1875 0.5625
vt 0.4375 0.75
vt 0.4375 0.5625
vt 0.1875 0.5625
vt 0.1875 0.75
vt 0.75 0.3125
vt 0.75 0.5625
vt 0.5 0.5625
vt 0.5 0.3125
vt 0.6875 0.8125
vt 0.4375 0.8125
vt 0.4375 1
vt 0.6875 1
vt 0.25 0.8125
vt 0.25 1
vt 0 1
vt 0 0.8125
vt 0.25 1
vt 0.25 0.8125
vt 0 0.8125
vt 0 1
vt 0.3125 0.3125
vt 0.3125 0.5625
vt 0.5625 0.5625
vt 0.5625 0.3125
vt 0.6875 1
vt 0.4375 1
vt 0.4375 0.8125
vt 0.6875 0.8125
vt 0.4375 0.8125
vt 0.4375 1
vt 0.1875 1
vt 0.1875 0.8125
vt 0.4375 1
vt 0.4375 0.8125
vt 0.1875 0.8125
vt 0.1875 1
vt 0.5 0.3125
vt 0.5 0.5625
vt 0.75 0.5625
vt 0.75 0.3125
vt 0.2916666666666667 0.33333333333333337
vt 0.2916666666666667 0.41666666666666663
vt 0.125 0.41666666666666663
vt 0.125 0.33333333333333337
vt 0.2916666666666667 0.33333333333333337
vt 0.2916666666666667 0.41666666666666663
vt 0.125 0.41666666666666663
vt 0.125 0.33333333333333337
vt 0.2916666666666667 0.33333333333333337
vt 0.2916666666666667 0.41666666666666663
vt 0.125 0.41666666666666663
vt 0.125 0.33333333333333337
vt 0.2916666666666667 0.33333333333333337
vt 0.2916666666666667 0.41666666666666663
vt 0.125 0.41666666666666663
vt 0.125 0.33333333333333337
vt 0 0.25
vt 0 0.5
vt 0.25 0.5
vt 0.25 0.25
vt 0 0.25
vt 0 0.5
vt 0.25 0.5
vt 0.25 0.25
vt 0.21875 0.25
vt 0.21875 0
vt 0.03125 0
vt 0.03125 0.25
vt 0.21875 0.25
vt 0.21875 0
vt 0.03125 0
vt 0.03125 0.25
vt 0.21875 0.25
vt 0.21875 0
vt 0.03125 0
vt 0.03125 0.25
vt 0.21875 0.25
vt 0.21875 0
vt 0.03125 0
vt 0.03125 0.25
vt 0.25 0.25
vt 0.25 0.5
vt 0 0.5
vt 0 0.25
vt 0.25 0.25
vt 0.25 0.5
vt 0 0.5
vt 0 0.25
vt 0.03125 0.25
vt 0.03125 0
vt 0.21875 0
vt 0.21875 0.25
vt 0.03125 0.25
vt 0.03125 0
vt 0.21875 0
vt 0.21875 0.25
vt 0.03125 0.25
vt 0.03125 0
vt 0.21875 0
vt 0.21875 0.25
vt 0.03125 0.25
vt 0.03125 0
vt 0.21875 0
vt 0.21875 0.25
vt 0.9375 0
vt 0.9375 0.3125
vt 0.625 0.3125
vt 0.625 0
vt 0.9375 0
vt 0.9375 0.3125
vt 0.625 0.3125
vt 0.625 0
vt 0.9375 0.3125
vt 0.9375 0
vt 0.625 0
vt 0.625 0.3125
vt 0.9375 0.3125
vt 0.9375 0
vt 0.625 0
vt 0.625 0.3125
vt 0.625 0
vt 0.625 0.3125
vt 0.3125 0.3125
vt 0.3125 0
vt 0.9375 0
vt 0.9375 0.3125
vt 0.625 0.3125
vt 0.625 0
vt 0.9375 0
vt 0.9375 0.3125
vt 0.625 0.3125
vt 0.625 0
vt 0.9375 0
vt 0.9375 0.3125
vt 0.625 0.3125
vt 0.625 0
vt 0.9375 0.3125
vt 0.9375 0
vt 0.625 0
vt 0.625 0.3125
vt 0.9375 0.3125
vt 0.9375 0
vt 0.625 0
vt 0.625 0.3125
vt 0.9375 0
vt 0.9375 0.3125
vt 0.625 0.3125
vt 0.625 0
vt 0.625 0
vt 0.625 0.3125
vt 0.3125 0.3125
vt 0.3125 0
vt 0.625 0.375
vt 0.625 0.46875
vt 0.71875 0.46875
vt 0.71875 0.375
vt 0.625 0.375
vt 0.625 0.46875
vt 0.71875 0.46875
vt 0.71875 0.375
vt 0.8125 0.46875
vt 0.8125 0.375
vt 0.71875 0.375
vt 0.71875 0.46875
vt 0.625 0.375
vt 0.625 0.46875
vt 0.71875 0.46875
vt 0.71875 0.375
vt 0.625 0.375
vt 0.625 0.46875
vt 0.71875 0.46875
vt 0.71875 0.375
vt 0.625 0.375
vt 0.625 0.46875
vt 0.71875 0.46875
vt 0.71875 0.375
vt 0.625 0.375
vt 0.625 0.46875
vt 0.71875 0.46875
vt 0.71875 0.375
vt 0.8125 0.46875
vt 0.8125 0.375
vt 0.71875 0.375
vt 0.71875 0.46875
vt 0.625 0.375
vt 0.625 0.46875
vt 0.71875 0.46875
vt 0.71875 0.375
vt 0.625 0.375
vt 0.625 0.46875
vt 0.71875 0.46875
vt 0.71875 0.375
vn 1 0 0
vn -1 0 0
vn 0 1 0
vn 0 -1 0
vn 0 0 1
vn 1 0 0
vn -1 0 0
vn 0 1 0
vn 0 -1 0
vn 0 0 -1
vn -1 0 0
vn 0 1 0
vn 0 -1 0
vn 0 0 1
vn 1 0 0
vn 0 1 0
vn 0 -1 0
vn 0 0 1
vn -1 0 0
vn 0 1 0
vn 0 -1 0
vn 0 0 -1
vn 1 0 0
vn 0 1 0
vn 0 -1 0
vn 0 0 -1
vn 1 0 0
vn -1 0 0
vn 0 0 1
vn 0 0 -1
vn 1 0 0
vn -1 0 0
vn 0 1 0
vn 0 -1 0
vn 0 0 1
vn 0 0 -1
vn 1 0 0
vn -1 0 0
vn 0 1 0
vn 0 -1 0
vn 0 0 1
vn 0 0 -1
vn 1 0 0
vn -1 0 0
vn 0 1 0
vn 0 -1 0
vn 0 0 1
vn 0 0 -1
vn 1 0 0
vn -1 0 0
vn 0 1 0
vn 0 -1 0
vn 0 0 1
vn 0 0 -1
vn 1 0 0
vn -1 0 0
vn 0 1 0
vn 0 0 1
vn 0 0 -1
vn 1 0 0
vn -1 0 0
vn 0 1 0
vn 0 0 1
vn 0 0 -1
usemtl frame
f 4/1/1 2/2/1 1/3/1 3/4/1
f 7/5/2 5/6/2 6/7/2 8/8/2
f 1/9/3 2/10/3 6/11/3 5/12/3
f 4/13/4 3/14/4 7/15/4 8/16/4
usemtl trailing_bogey_base
f 3/17/5 1/18/5 5/19/5 7/20/5
usemtl frame
f 12/21/6 10/22/6 9/23/6 11/24/6
f 15/25/7 13/26/7 14/27/7 16/28/7
f 9/29/8 10/30/8 14/31/8 13/32/8
f 12/33/9 11/34/9 15/35/9 16/36/9
f 16/37/10 14/38/10 10/39/10 12/40/10
f 23/41/11 21/42/11 22/43/11 24/44/11
f 17/45/12 18/46/12 22/47/12 21/48/12
f 20/49/13 19/50/13 23/51/13 24/52/13
f 19/53/14 17/54/14 21/55/14 23/56/14
f 28/57/15 26/58/15 25/59/15 27/60/15
f 25/61/16 26/62/16 18/63/16 17/64/16
f 28/65/17 27/66/17 19/67/17 20/68/17
f 27/69/18 25/70/18 17/71/18 19/72/18
f 24/73/19 22/74/19 31/75/19 32/76/19
f 18/77/20 29/78/20 31/79/20 22/80/20
f 30/81/21 20/82/21 24/83/21 32/84/21
f 32/85/22 31/86/22 29/87/22 30/88/22
f 34/89/23 33/90/23 26/91/23 28/92/23
f 26/93/24 33/94/24 29/95/24 18/96/24
f 34/97/25 28/98/25 20/99/25 30/100/25
f 30/101/26 29/102/26 33/103/26 34/104/26
usemtl trailing_bogey_base
f 38/105/27 36/106/27 35/107/27 37/108/27
f 41/109/28 39/110/28 40/111/28 42/112/28
f 37/113/29 35/114/29 39/115/29 41/116/29
f 42/117/30 40/118/30 36/119/30 38/120/30
usemtl frame2
f 46/121/31 44/122/31 43/123/31 45/124/31
f 49/125/32 47/126/32 48/127/32 50/128/32
f 43/129/33 44/130/33 48/131/33 47/132/33
f 46/133/34 45/134/34 49/135/34 50/136/34
f 45/137/35 43/138/35 47/139/35 49/140/35
f 50/141/36 48/142/36 44/143/36 46/144/36
f 54/145/37 52/146/37 51/147/37 53/148/37
f 57/149/38 55/150/38 56/151/38 58/152/38
f 51/153/39 52/154/39 56/155/39 55/156/39
f 54/157/40 53/158/40 57/159/40 58/160/40
f 53/161/41 51/162/41 55/163/41 57/164/41
f 58/165/42 56/166/42 52/167/42 54/168/42
usemtl frame
f 62/169/43 60/170/43 59/171/43 61/172/43
f 65/173/44 63/174/44 64/175/44 66/176/44
f 59/177/45 60/178/45 64/179/45 63/180/45
f 62/181/46 61/182/46 65/183/46 66/184/46
f 61/185/47 59/186/47 63/187/47 65/188/47
f 66/189/48 64/190/48 60/191/48 62/192/48
f 70/193/49 68/194/49 67/195/49 69/196/49
f 73/197/50 71/198/50 72/199/50 74/200/50
f 67/201/51 68/202/51 72/203/51 71/204/51
f 70/205/52 69/206/52 73/207/52 74/208/52
f 69/209/53 67/210/53 71/211/53 73/212/53
f 74/213/54 72/214/54 68/215/54 70/216/54
usemtl wheels
f 78/217/55 76/218/55 75/219/55 77/220/55
f 81/221/56 79/222/56 80/223/56 82/224/56
f 75/225/57 76/226/57 80/227/57 79/228/57
f 77/229/58 75/230/58 79/231/58 81/232/58
f 82/233/59 80/234/59 76/235/59 78/236/59
f 86/237/60 84/238/60 83/239/60 85/240/60
f 89/241/61 87/242/61 88/243/61 90/244/61
f 83/245/62 84/246/62 88/247/62 87/248/62
f 85/249/63 83/250/63 87/251/63 89/252/63
f 90/253/64 88/254/64 84/255/64 86/256/64