# Made in Blockbench 4.12.5
mtllib textures.mtl

o cube
v 1.375 0.0625 0.25
v 1.375 0.0625 -0.9375
v 1.375 -0.0625 0.25
v 1.375 -0.0625 -0.9375
v 1.4375 0.0625 0.25
v 1.4375 0.0625 -0.9375
v 1.4375 -0.0625 0.25
v 1.4375 -0.0625 -0.9375
v 1.375 0.0625 -0.9375
v 1.375 0.0625 -2.125
v 1.375 -0.0625 -0.9375
v 1.375 -0.0625 -2.125
v 1.4375 0.0625 -0.9375
v 1.4375 0.0625 -2.125
v 1.4375 -0.0625 -0.9375
v 1.4375 -0.0625 -2.125
v 1.440625 0.0625 0.0625
v 1.440625 0.0625 -0.0625
v 1.440625 -0.0625 0.0625
v 1.440625 -0.0625 -0.0625
v 1.503125 0.0625 0.0625
v 1.503125 0.0625 -0.0625
v 1.503125 -0.0625 0.0625
v 1.503125 -0.0625 -0.0625
vt 0.2767857142857143 0.7857142857142857
vt 0.10714285714285714 0.7857142857142857
vt 0.10714285714285714 0.7678571428571428
vt 0.2767857142857143 0.7678571428571428
vt 0.10714285714285714 0.7857142857142857
vt 0.2767857142857143 0.7857142857142857
vt 0.2767857142857143 0.7678571428571428
vt 0.10714285714285714 0.7678571428571428
vt 0.10714285714285714 0.7857142857142857
vt 0.10714285714285714 0.7767857142857143
vt 0.2767857142857143 0.7767857142857143
vt 0.2767857142857143 0.7857142857142857
vt 0.2767857142857143 0.7767857142857143
vt 0.2767857142857143 0.7678571428571428
vt 0.10714285714285714 0.7678571428571428
vt 0.10714285714285714 0.7767857142857143
vt 0.2767857142857143 0.7857142857142857
vt 0.26785714285714285 0.7857142857142857
vt 0.26785714285714285 0.7678571428571428
vt 0.2767857142857143 0.7678571428571428
vt 0.16964285714285715 0.7857142857142857
vt 0 0.7857142857142857
vt 0 0.7678571428571428
vt 0.16964285714285715 0.7678571428571428
vt 0 0.7857142857142857
vt 0.16964285714285715 0.7857142857142857
vt 0.16964285714285715 0.7678571428571428
vt 0 0.7678571428571428
vt 0 0.7857142857142857
vt 0 0.7767857142857143
vt 0.16964285714285715 0.7767857142857143
vt 0.16964285714285715 0.7857142857142857
vt 0.16964285714285715 0.7767857142857143
vt 0.16964285714285715 0.7678571428571428
vt 0 0.7678571428571428
vt 0 0.7767857142857143
vt 0.008928571428571428 0.7857142857142857
vt 0 0.7857142857142857
vt 0 0.7678571428571428
vt 0.008928571428571428 0.7678571428571428
vt 0.8571428571428571 0.017857142857142905
vt 0.875 0.017857142857142905
vt 0.875 0.0357142857142857
vt 0.8571428571428571 0.0357142857142857
vt 0.8660714285714286 0.0357142857142857
vt 0.875 0.0357142857142857
vt 0.875 0.017857142857142905
vt 0.8660714285714286 0.017857142857142905
vt 0.8571428571428571 0.017857142857142905
vt 0.8660714285714286 0.017857142857142905
vt 0.8660714285714286 0.0357142857142857
vt 0.8571428571428571 0.0357142857142857
vt 0.8660714285714286 0.017857142857142905
vt 0.875 0.017857142857142905
vt 0.875 0.0357142857142857
vt 0.8660714285714286 0.0357142857142857
vt 0.8660714285714286 0.017857142857142905
vt 0.8571428571428571 0.017857142857142905
vt 0.8571428571428571 0.0357142857142857
vt 0.8660714285714286 0.0357142857142857
vn -1 0 0
vn 1 0 0
vn 0 1 0
vn 0 -1 0
vn 0 0 1
vn -1 0 0
vn 1 0 0
vn 0 1 0
vn 0 -1 0
vn 0 0 -1
vn 1 0 0
vn 0 1 0
vn 0 -1 0
vn 0 0 1
vn 0 0 -1
usemtl xl_textures
f 1/1/1 2/2/1 4/3/1 3/4/1
f 6/5/2 5/6/2 7/7/2 8/8/2
f 6/9/3 2/10/3 1/11/3 5/12/3
f 7/13/4 3/14/4 4/15/4 8/16/4
f 5/17/5 1/18/5 3/19/5 7/20/5
f 9/21/6 10/22/6 12/23/6 11/24/6
f 14/25/7 13/26/7 15/27/7 16/28/7
f 14/29/8 10/30/8 9/31/8 13/32/8
f 15/33/9 11/34/9 12/35/9 16/36/9
f 10/37/10 14/38/10 16/39/10 12/40/10
f 22/41/11 21/42/11 23/43/11 24/44/11
f 22/45/12 18/46/12 17/47/12 21/48/12
f 23/49/13 19/50/13 20/51/13 24/52/13
f 21/53/14 17/54/14 19/55/14 23/56/14
f 18/57/15 22/58/15 24/59/15 20/60/15