# Blender 4.4.3
# www.blender.org
mtllib textures.mtl

o cube.044
v 1.250000 1.187500 -0.562500
v 1.250000 1.187500 -1.500000
v 1.250000 1.000000 -0.562500
v 1.250000 1.000000 -1.500000
v 1.062500 1.187500 -1.500000
v 1.062500 1.187500 -0.562500
v 1.062500 1.000000 -1.500000
v 1.062500 1.000000 -0.562500
v 0.312500 1.062500 0.562500
v 0.312500 1.062500 -0.562500
v 0.312500 0.437500 0.562500
v 0.312500 0.437500 -0.562500
v -0.312500 1.062500 -0.562500
v -0.312500 1.062500 0.562500
v -0.312500 0.437500 -0.562500
v -0.312500 0.437500 0.562500
v 0.437500 1.250000 0.437500
v 0.437500 1.250000 -0.437500
v 0.437500 0.750000 0.437500
v 0.437500 0.750000 -0.437500
v -0.437500 1.250000 -0.437500
v -0.437500 1.250000 0.437500
v -0.437500 0.750000 -0.437500
v -0.437500 0.750000 0.437500
v 0.312500 1.062500 1.312500
v 0.312500 1.062500 0.687500
v 0.312500 0.437500 1.312500
v 0.312500 0.437500 0.687500
v -0.312500 1.062500 0.687500
v -0.312500 1.062500 1.312500
v -0.312500 0.437500 0.687500
v -0.312500 0.437500 1.312500
v 0.093750 1.250000 1.093750
v 0.093750 1.250000 0.906250
v 0.093750 1.062500 1.093750
v 0.093750 1.062500 0.906250
v -0.093750 1.250000 0.906250
v -0.093750 1.250000 1.093750
v -0.093750 1.062500 0.906250
v -0.093750 1.062500 1.093750
v 0.093750 1.250000 -0.906250
v 0.093750 1.250000 -1.093750
v 0.093750 1.062500 -0.906250
v 0.093750 1.062500 -1.093750
v -0.093750 1.250000 -1.093750
v -0.093750 1.250000 -0.906250
v -0.093750 1.062500 -1.093750
v -0.093750 1.062500 -0.906250
v 0.250000 1.500000 0.250000
v 0.250000 1.500000 -0.250000
v 0.250000 1.250000 0.250000
v 0.250000 1.250000 -0.250000
v -0.250000 1.500000 -0.250000
v -0.250000 1.500000 0.250000
v -0.250000 1.250000 -0.250000
v -0.250000 1.250000 0.250000
v 0.312500 1.062500 -0.687500
v 0.312500 1.062500 -1.312500
v 0.312500 0.437500 -0.687500
v 0.312500 0.437500 -1.312500
v -0.312500 1.062500 -1.312500
v -0.312500 1.062500 -0.687500
v -0.312500 0.437500 -1.312500
v -0.312500 0.437500 -0.687500
v -0.375000 0.750000 -0.646447
v -0.375000 1.103553 -1.000000
v -0.375000 0.396447 -1.000000
v -0.375000 0.750000 -1.353553
v -0.750000 1.103553 -1.000000
v -0.750000 0.750000 -0.646447
v -0.750000 0.750000 -1.353553
v -0.750000 0.396447 -1.000000
v -0.375000 1.103554 1.000000
v -0.375000 0.750000 0.646447
v -0.375000 0.750000 1.353553
v -0.375000 0.396447 1.000000
v -0.750000 0.750000 0.646447
v -0.750000 1.103554 1.000000
v -0.750000 0.396447 1.000000
v -0.750000 0.750000 1.353553
v -0.437500 1.280330 -0.292893
v -0.437500 1.457107 -0.469670
v -0.437500 0.838388 -0.734835
v -0.437500 1.015165 -0.911612
v -0.687500 1.457107 -0.469670
v -0.687500 1.280330 -0.292893
v -0.687500 1.015165 -0.911612
v -0.687500 0.838388 -0.734835
v -0.224112 0.588388 0.312500
v -0.224112 0.588388 0.125000
v -0.312500 0.500000 0.312500
v -0.312500 0.500000 0.125000
v -0.445083 0.809359 0.125000
v -0.445083 0.809359 0.312500
v -0.533471 0.720971 0.125000
v -0.533471 0.720971 0.312500
v -0.224112 0.588388 -0.125000
v -0.224112 0.588388 -0.312500
v -0.312500 0.500000 -0.125000
v -0.312500 0.500000 -0.312500
v -0.445083 0.809359 -0.312500
v -0.445083 0.809359 -0.125000
v -0.533471 0.720971 -0.312500
v -0.533471 0.720971 -0.125000
v -0.312500 1.312500 0.500000
v -0.312500 1.312500 -0.500000
v -0.312500 0.687500 0.500000
v -0.312500 0.687500 -0.500000
v -0.937500 1.312500 -0.500000
v -0.937500 1.312500 0.500000
v -0.937500 0.687500 -0.500000
v -0.937500 0.687500 0.500000
v -0.437500 1.457107 0.469670
v -0.437500 1.280330 0.292893
v -0.437500 1.015165 0.911612
v -0.437500 0.838388 0.734835
v -0.687500 1.280330 0.292893
v -0.687500 1.457107 0.469670
v -0.687500 0.838388 0.734835
v -0.687500 1.015165 0.911612
v 0.687500 1.457107 0.469670
v 0.687500 1.280330 0.292893
v 0.687500 1.015165 0.911612
v 0.687500 0.838388 0.734835
v 0.437500 1.280330 0.292893
v 0.437500 1.457107 0.469670
v 0.437500 0.838388 0.734835
v 0.437500 1.015165 0.911612
v 0.750000 1.103554 1.000000
v 0.750000 0.750000 0.646447
v 0.750000 0.750000 1.353553
v 0.750000 0.396447 1.000000
v 0.375000 0.750000 0.646447
v 0.375000 1.103554 1.000000
v 0.375000 0.396447 1.000000
v 0.375000 0.750000 1.353553
v 0.750000 0.750000 -0.646447
v 0.750000 1.103553 -1.000000
v 0.750000 0.396447 -1.000000
v 0.750000 0.750000 -1.353553
v 0.375000 1.103553 -1.000000
v 0.375000 0.750000 -0.646447
v 0.375000 0.750000 -1.353553
v 0.375000 0.396447 -1.000000
v 0.687500 1.280330 -0.292893
v 0.687500 1.457107 -0.469670
v 0.687500 0.838388 -0.734835
v 0.687500 1.015165 -0.911612
v 0.437500 1.457107 -0.469670
v 0.437500 1.280330 -0.292893
v 0.437500 1.015165 -0.911612
v 0.437500 0.838388 -0.734835
v 0.445083 0.809359 -0.125000
v 0.445083 0.809359 -0.312500
v 0.533471 0.720971 -0.125000
v 0.533471 0.720971 -0.312500
v 0.224112 0.588388 -0.312500
v 0.224112 0.588388 -0.125000
v 0.312500 0.500000 -0.312500
v 0.312500 0.500000 -0.125000
v 0.445083 0.809359 0.312500
v 0.445083 0.809359 0.125000
v 0.533471 0.720971 0.312500
v 0.533471 0.720971 0.125000
v 0.224112 0.588388 0.125000
v 0.224112 0.588388 0.312500
v 0.312500 0.500000 0.125000
v 0.312500 0.500000 0.312500
v 0.937500 1.312500 0.500000
v 0.937500 1.312500 -0.500000
v 0.937500 0.687500 0.500000
v 0.937500 0.687500 -0.500000
v 0.312500 1.312500 -0.500000
v 0.312500 1.312500 0.500000
v 0.312500 0.687500 -0.500000
v 0.312500 0.687500 0.500000
v -0.996875 1.315625 0.565625
v -0.996875 1.315625 -0.565625
v -0.996875 0.496875 0.565625
v -0.996875 0.496875 -0.565625
v -1.315625 1.315625 -0.565625
v -1.315625 1.315625 0.565625
v -1.315625 0.496875 -0.565625
v -1.315625 0.496875 0.565625
v -1.250000 0.875000 1.125000
v -1.250000 0.875000 0.875000
v -1.250000 0.625000 1.125000
v -1.250000 0.625000 0.875000
v -1.375000 0.875000 0.875000
v -1.375000 0.875000 1.125000
v -1.375000 0.625000 0.875000
v -1.375000 0.625000 1.125000
v 1.250000 0.875000 1.687500
v 1.250000 0.875000 1.500000
v 1.250000 0.562500 1.687500
v 1.250000 0.562500 1.500000
v -1.250000 0.875000 1.500000
v -1.250000 0.875000 1.687500
v -1.250000 0.562500 1.500000
v -1.250000 0.562500 1.687500
v 1.250000 0.875000 -1.500000
v 1.250000 0.875000 -1.687500
v 1.250000 0.562500 -1.500000
v 1.250000 0.562500 -1.687500
v -1.250000 0.875000 -1.687500
v -1.250000 0.875000 -1.500000
v -1.250000 0.562500 -1.687500
v -1.250000 0.562500 -1.500000
v -1.062500 1.187500 1.500000
v -1.062500 1.187500 0.562500
v -1.062500 1.000000 1.500000
v -1.062500 1.000000 0.562500
v -1.250000 1.187500 0.562500
v -1.250000 1.187500 1.500000
v -1.250000 1.000000 0.562500
v -1.250000 1.000000 1.500000
v -1.062500 0.875000 1.500000
v -1.062500 0.875000 0.562500
v -1.062500 0.375000 1.500000
v -1.062500 0.375000 0.562500
v -1.250000 0.875000 0.562500
v -1.250000 0.875000 1.500000
v -1.250000 0.375000 0.562500
v -1.250000 0.375000 1.500000
v -1.062500 1.000000 0.812500
v -1.062500 1.000000 0.562500
v -1.062500 0.875000 0.812500
v -1.062500 0.875000 0.562500
v -1.250000 1.000000 0.562500
v -1.250000 1.000000 0.812500
v -1.250000 0.875000 0.562500
v -1.250000 0.875000 0.812500
v -1.062500 1.000000 1.500000
v -1.062500 1.000000 1.187500
v -1.062500 0.875000 1.500000
v -1.062500 0.875000 1.187500
v -1.250000 1.000000 1.187500
v -1.250000 1.000000 1.500000
v -1.250000 0.875000 1.187500
v -1.250000 0.875000 1.500000
v -1.062500 1.000000 -0.562500
v -1.062500 1.000000 -0.812500
v -1.062500 0.875000 -0.562500
v -1.062500 0.875000 -0.812500
v -1.250000 1.000000 -0.812500
v -1.250000 1.000000 -0.562500
v -1.250000 0.875000 -0.812500
v -1.250000 0.875000 -0.562500
v -1.062500 1.000000 -1.187500
v -1.062500 1.000000 -1.500000
v -1.062500 0.875000 -1.187500
v -1.062500 0.875000 -1.500000
v -1.250000 1.000000 -1.500000
v -1.250000 1.000000 -1.187500
v -1.250000 0.875000 -1.500000
v -1.250000 0.875000 -1.187500
v -1.250000 0.875000 -0.875000
v -1.250000 0.875000 -1.125000
v -1.250000 0.625000 -0.875000
v -1.250000 0.625000 -1.125000
v -1.375000 0.875000 -1.125000
v -1.375000 0.875000 -0.875000
v -1.375000 0.625000 -1.125000
v -1.375000 0.625000 -0.875000
v -1.062500 0.875000 -0.562500
v -1.062500 0.875000 -1.500000
v -1.062500 0.375000 -0.562500
v -1.062500 0.375000 -1.500000
v -1.250000 0.875000 -1.500000
v -1.250000 0.875000 -0.562500
v -1.250000 0.375000 -1.500000
v -1.250000 0.375000 -0.562500
v -1.062500 1.187500 -0.562500
v -1.062500 1.187500 -1.500000
v -1.062500 1.000000 -0.562500
v -1.062500 1.000000 -1.500000
v -1.250000 1.187500 -1.500000
v -1.250000 1.187500 -0.562500
v -1.250000 1.000000 -1.500000
v -1.250000 1.000000 -0.562500
v 1.250000 1.000000 -1.187500
v 1.250000 1.000000 -1.500000
v 1.250000 0.875000 -1.187500
v 1.250000 0.875000 -1.500000
v 1.062500 1.000000 -1.500000
v 1.062500 1.000000 -1.187500
v 1.062500 0.875000 -1.500000
v 1.062500 0.875000 -1.187500
v 1.250000 1.000000 1.500000
v 1.250000 1.000000 1.187500
v 1.250000 0.875000 1.500000
v 1.250000 0.875000 1.187500
v 1.062500 1.000000 1.187500
v 1.062500 1.000000 1.500000
v 1.062500 0.875000 1.187500
v 1.062500 0.875000 1.500000
v 1.375000 0.875000 -0.875000
v 1.375000 0.875000 -1.125000
v 1.375000 0.625000 -0.875000
v 1.375000 0.625000 -1.125000
v 1.250000 0.875000 -1.125000
v 1.250000 0.875000 -0.875000
v 1.250000 0.625000 -1.125000
v 1.250000 0.625000 -0.875000
v 1.375000 0.875000 1.125000
v 1.375000 0.875000 0.875000
v 1.375000 0.625000 1.125000
v 1.375000 0.625000 0.875000
v 1.250000 0.875000 0.875000
v 1.250000 0.875000 1.125000
v 1.250000 0.625000 0.875000
v 1.250000 0.625000 1.125000
v 1.315625 1.315625 0.565625
v 1.315625 1.315625 -0.565625
v 1.315625 0.496875 0.565625
v 1.315625 0.496875 -0.565625
v 0.996875 1.315625 -0.565625
v 0.996875 1.315625 0.565625
v 0.996875 0.496875 -0.565625
v 0.996875 0.496875 0.565625
v 1.250000 0.875000 1.500000
v 1.250000 0.875000 0.562500
v 1.250000 0.375000 1.500000
v 1.250000 0.375000 0.562500
v 1.062500 0.875000 0.562500
v 1.062500 0.875000 1.500000
v 1.062500 0.375000 0.562500
v 1.062500 0.375000 1.500000
v 1.250000 1.000000 0.812500
v 1.250000 1.000000 0.562500
v 1.250000 0.875000 0.812500
v 1.250000 0.875000 0.562500
v 1.062500 1.000000 0.562500
v 1.062500 1.000000 0.812500
v 1.062500 0.875000 0.562500
v 1.062500 0.875000 0.812500
v 1.250000 1.187500 1.500000
v 1.250000 1.187500 0.562500
v 1.250000 1.000000 1.500000
v 1.250000 1.000000 0.562500
v 1.062500 1.187500 0.562500
v 1.062500 1.187500 1.500000
v 1.062500 1.000000 0.562500
v 1.062500 1.000000 1.500000
v 1.250000 0.875000 -0.562500
v 1.250000 0.875000 -1.500000
v 1.250000 0.375000 -0.562500
v 1.250000 0.375000 -1.500000
v 1.062500 0.875000 -1.500000
v 1.062500 0.875000 -0.562500
v 1.062500 0.375000 -1.500000
v 1.062500 0.375000 -0.562500
v 1.250000 1.000000 -0.562500
v 1.250000 1.000000 -0.812500
v 1.250000 0.875000 -0.562500
v 1.250000 0.875000 -0.812500
v 1.062500 1.000000 -0.812500
v 1.062500 1.000000 -0.562500
v 1.062500 0.875000 -0.812500
v 1.062500 0.875000 -0.562500
vn -0.0000 -0.0000 -1.0000
vn 1.0000 -0.0000 -0.0000
vn -0.0000 -0.0000 1.0000
vn -1.0000 -0.0000 -0.0000
vn -0.0000 1.0000 -0.0000
vn -0.0000 -1.0000 -0.0000
vn -0.0000 0.7071 -0.7071
vn -0.0000 -0.7071 0.7071
vn -0.0000 0.7071 0.7071
vn -0.0000 -0.7071 -0.7071
vn 0.7071 -0.7071 -0.0000
vn -0.7071 0.7071 -0.0000
vn 0.7071 0.7071 -0.0000
vn -0.7071 -0.7071 -0.0000
vt 0.046875 0.953125
vt 0.093750 0.953125
vt 0.093750 1.000000
vt 0.046875 1.000000
vt 0.140625 0.937500
vt 0.375000 0.937500
vt 0.375000 0.984375
vt 0.140625 0.984375
vt 0.000000 0.953125
vt 0.000000 1.000000
vt 0.156250 0.937500
vt 0.156250 0.984375
vt 0.109375 0.781250
vt 0.109375 0.734375
vt 0.343750 0.734375
vt 0.343750 0.781250
vt 0.000000 0.781250
vt 0.046875 0.781250
vt 0.687500 0.687500
vt 1.000000 0.687500
vt 1.000000 1.000000
vt 0.687500 1.000000
vt 0.312500 0.000000
vt 0.312500 0.562500
vt 0.000000 0.562500
vt 0.000000 0.000000
vt 0.312500 0.312500
vt 0.750000 0.312500
vt 0.750000 0.562500
vt 0.687500 0.562500
vt 0.437500 1.000000
vt 0.437500 0.562500
vt 0.625000 0.000000
vt 0.625000 0.312500
vt 0.937500 0.000000
vt 0.937500 0.312500
vt 0.718750 0.375000
vt 0.625000 0.375000
vt 0.625000 0.468750
vt 0.718750 0.468750
vt 0.812500 0.468750
vt 0.812500 0.375000
vt 0.125000 0.333333
vt 0.291667 0.333333
vt 0.291667 0.416667
vt 0.125000 0.416667
vt 0.770833 0.000000
vt 1.000000 0.000000
vt 1.000000 0.166667
vt 0.770833 0.166667
vt 0.031250 0.000000
vt 0.218750 0.000000
vt 0.218750 0.250000
vt 0.031250 0.250000
vt 0.000000 0.250000
vt 0.250000 0.250000
vt 0.250000 0.500000
vt 0.000000 0.500000
vt 0.250000 0.187500
vt 0.375000 0.187500
vt 0.375000 0.500000
vt 0.500000 0.187500
vt 0.500000 0.500000
vt 0.250000 0.375000
vt 0.375000 0.375000
vt 0.718750 0.000000
vt 0.875000 0.000000
vt 0.875000 0.156250
vt 0.718750 0.156250
vt 0.812500 0.531250
vt 0.750000 0.375000
vt 0.750000 0.531250
vt 5.031250 -1.625000
vt 4.812500 -1.625000
vt 4.812500 -1.187500
vt 5.031250 -1.187500
vt 6.343750 -2.281250
vt 6.343750 -3.375000
vt 5.687500 -3.375000
vt 5.687500 -2.281250
vt 0.906250 0.531250
vt 0.906250 0.375000
vt 0.812500 0.187500
vt 0.812500 0.500000
vt 0.343750 1.000000
vt 0.343750 0.500000
vt 0.656250 0.500000
vt 0.656250 1.000000
vt 0.625000 1.000000
vt 0.625000 0.500000
vt 0.312500 0.500000
vt 0.312500 1.000000
vt 0.968750 0.500000
vt 0.968750 1.000000
vt 0.250000 0.296875
vt 0.328125 0.296875
vt 0.328125 0.500000
vt 0.000000 0.015625
vt 0.109375 0.015625
vt 0.109375 0.218750
vt 0.000000 0.218750
vt 0.000000 0.296875
vt 0.250000 0.218750
vt 0.250000 0.578125
vt 0.000000 0.578125
vt 0.093750 0.734375
vt 0.062500 0.734375
vt 0.062500 0.796875
vt 0.093750 0.796875
vt 0.125000 0.937500
vt 0.062500 0.937500
vt 0.062500 1.000000
vt 0.125000 1.000000
vt 0.000000 0.734375
vt 0.000000 0.796875
vt 0.000000 0.593750
vt 0.625000 0.593750
vt 0.625000 0.671875
vt 0.000000 0.671875
vt 0.625000 0.578125
vt 0.671875 0.578125
vt 0.671875 0.656250
vt 0.625000 0.656250
vt 0.000000 0.718750
vt 0.625000 0.718750
vt 0.125000 0.781250
vt 0.125000 0.734375
vt 0.000000 0.812500
vt 0.046875 0.812500
vt 0.046875 0.937500
vt 0.000000 0.937500
vt 0.312500 0.796875
vt 0.312500 0.921875
vt 0.093750 0.921875
vt 0.093750 0.812500
vt 0.093750 0.937500
vt 0.328125 0.796875
vt 0.328125 0.921875
vt 0.359375 0.906250
vt 0.359375 0.921875
vt 0.140625 0.921875
vt 0.140625 0.906250
vt 0.000000 0.968750
vt 0.046875 0.968750
vt 0.343750 0.906250
vt 0.296875 0.906250
vt 0.296875 0.937500
vt 0.343750 0.937500
vt 0.375000 0.875000
vt 0.421875 0.875000
vt 0.421875 0.906250
vt 0.375000 0.906250
vt 0.359375 0.937500
vt 0.093750 0.906250
vt 0.171875 0.906250
vt 0.171875 0.937500
vt 0.046875 0.921875
vt 0.000000 0.921875
s 1
usemtl small_trailing_bogey_outer
f 4/1/1 7/2/1 5/3/1 2/4/1
f 3/5/2 4/6/2 2/7/2 1/8/2
f 8/9/3 3/1/3 1/4/3 6/10/3
f 7/6/4 8/11/4 6/12/4 5/7/4
f 6/13/5 1/14/5 2/15/5 5/16/5
f 7/4/6 4/10/6 3/17/6 8/18/6
f 180/95/1 183/96/1 181/97/1 178/57/1
f 179/98/2 180/99/2 178/100/2 177/101/2
f 184/95/3 179/96/3 177/97/3 182/57/3
f 183/102/4 184/95/4 182/57/4 181/58/4
f 182/103/5 177/95/5 178/102/5 181/101/5
f 183/57/6 180/104/6 179/105/6 184/58/6
f 188/106/1 191/107/1 189/108/1 186/109/1
f 187/110/2 188/111/2 186/112/2 185/113/2
f 192/107/3 187/106/3 185/109/3 190/108/3
f 191/107/4 192/114/4 190/115/4 189/108/4
f 190/108/5 185/109/5 186/106/5 189/107/5
f 191/108/6 188/109/6 187/106/6 192/107/6
f 196/116/1 199/117/1 197/118/1 194/119/1
f 195/120/2 196/121/2 194/122/2 193/123/2
f 200/116/3 195/117/3 193/118/3 198/119/3
f 199/120/4 200/121/4 198/122/4 197/123/4
f 198/124/5 193/125/5 194/118/5 197/119/5
f 199/124/6 196/125/6 195/118/6 200/119/6
f 204/116/1 207/117/1 205/118/1 202/119/1
f 203/120/2 204/121/2 202/122/2 201/123/2
f 208/116/3 203/117/3 201/118/3 206/119/3
f 207/120/4 208/121/4 206/122/4 205/123/4
f 206/119/5 201/118/5 202/125/5 205/124/5
f 207/119/6 204/118/6 203/125/6 208/124/6
f 212/9/1 215/1/1 213/4/1 210/10/1
f 211/6/2 212/11/2 210/12/2 209/7/2
f 216/1/3 211/2/3 209/3/3 214/4/3
f 215/5/4 216/6/4 214/7/4 213/8/4
f 214/15/5 209/16/5 210/126/5 213/127/5
f 215/17/6 212/18/6 211/4/6 216/10/6
f 220/128/1 223/129/1 221/130/1 218/131/1
f 219/109/2 220/132/2 218/133/2 217/134/2
f 224/129/3 219/135/3 217/136/3 222/130/3
f 223/109/4 224/137/4 222/138/4 221/134/4
f 222/139/5 217/140/5 218/141/5 221/142/5
f 223/14/6 220/13/6 219/16/6 224/15/6
f 228/143/1 231/144/1 229/4/1 226/10/1
f 227/145/2 228/146/2 226/147/2 225/148/2
f 232/149/3 227/150/3 225/151/3 230/152/3
f 231/139/4 232/146/4 230/147/4 229/153/4
f 230/9/5 225/1/5 226/4/5 229/10/5
f 231/9/6 228/1/6 227/4/6 232/10/6
f 236/150/1 239/149/1 237/152/1 234/151/1
f 235/154/2 236/155/2 234/156/2 233/136/2
f 240/157/3 235/134/3 233/2/3 238/1/3
f 239/154/4 240/155/4 238/156/4 237/136/4
f 238/158/5 233/157/5 234/4/5 237/10/5
f 239/158/6 236/157/6 235/4/6 240/10/6
f 244/150/1 247/149/1 245/152/1 242/151/1
f 243/146/2 244/145/2 242/148/2 241/147/2
f 248/144/3 243/143/3 241/10/3 246/4/3
f 247/146/4 248/139/4 246/153/4 245/147/4
f 246/10/5 241/4/5 242/1/5 245/9/5
f 247/10/6 244/4/6 243/1/6 248/9/6
f 252/134/1 255/157/1 253/1/1 250/2/1
f 251/155/2 252/154/2 250/136/2 249/156/2
f 256/149/3 251/150/3 249/151/3 254/152/3
f 255/155/4 256/154/4 254/136/4 253/156/4
f 254/10/5 249/4/5 250/157/5 253/158/5
f 255/10/6 252/4/6 251/157/6 256/158/6
f 260/106/1 263/107/1 261/108/1 258/109/1
f 259/111/2 260/110/2 258/113/2 257/112/2
f 264/107/3 259/106/3 257/109/3 262/108/3
f 263/114/4 264/107/4 262/108/4 261/115/4
f 262/107/5 257/106/5 258/109/5 261/108/5
f 263/107/6 260/106/6 259/109/6 264/108/6
f 268/135/1 271/129/1 269/130/1 266/136/1
f 267/132/2 268/109/2 266/134/2 265/133/2
f 272/129/3 267/128/3 265/131/3 270/130/3
f 271/137/4 272/109/4 270/134/4 269/138/4
f 270/142/5 265/141/5 266/140/5 269/139/5
f 271/15/6 268/16/6 267/13/6 272/14/6
f 276/2/1 279/1/1 277/4/1 274/3/1
f 275/11/2 276/6/2 274/7/2 273/12/2
f 280/1/3 275/9/3 273/10/3 278/4/3
f 279/6/4 280/5/4 278/8/4 277/7/4
f 278/14/5 273/13/5 274/16/5 277/15/5
f 279/10/6 276/4/6 275/18/6 280/17/6
f 284/157/1 287/134/1 285/2/1 282/1/1
f 283/154/2 284/155/2 282/156/2 281/136/2
f 288/150/3 283/149/3 281/152/3 286/151/3
f 287/154/4 288/155/4 286/156/4 285/136/4
f 286/4/5 281/10/5 282/158/5 285/157/5
f 287/4/6 284/10/6 283/158/6 288/157/6
f 292/149/1 295/150/1 293/151/1 290/152/1
f 291/155/2 292/154/2 290/136/2 289/156/2
f 296/134/3 291/157/3 289/1/3 294/2/3
f 295/155/4 296/154/4 294/136/4 293/156/4
f 294/157/5 289/158/5 290/10/5 293/4/5
f 295/157/6 292/158/6 291/10/6 296/4/6
f 300/107/1 303/106/1 301/109/1 298/108/1
f 299/107/2 300/114/2 298/115/2 297/108/2
f 304/106/3 299/107/3 297/108/3 302/109/3
f 303/110/4 304/111/4 302/112/4 301/113/4
f 302/106/5 297/107/5 298/108/5 301/109/5
f 303/106/6 300/107/6 299/108/6 304/109/6
f 308/107/1 311/106/1 309/109/1 306/108/1
f 307/114/2 308/107/2 306/108/2 305/115/2
f 312/106/3 307/107/3 305/108/3 310/109/3
f 311/111/4 312/110/4 310/113/4 309/112/4
f 310/109/5 305/108/5 306/107/5 309/106/5
f 311/109/6 308/108/6 307/107/6 312/106/6
f 316/96/1 319/95/1 317/57/1 314/97/1
f 315/95/2 316/102/2 314/58/2 313/57/2
f 320/96/3 315/95/3 313/57/3 318/97/3
f 319/99/4 320/98/4 318/101/4 317/100/4
f 318/95/5 313/103/5 314/101/5 317/102/5
f 319/104/6 316/57/6 315/58/6 320/105/6
f 324/129/1 327/128/1 325/131/1 322/130/1
f 323/137/2 324/109/2 322/134/2 321/138/2
f 328/135/3 323/129/3 321/130/3 326/136/3
f 327/132/4 328/109/4 326/134/4 325/133/4
f 326/140/5 321/139/5 322/142/5 325/141/5
f 327/13/6 324/14/6 323/15/6 328/16/6
f 332/144/1 335/143/1 333/10/1 330/4/1
f 331/146/2 332/139/2 330/153/2 329/147/2
f 336/150/3 331/149/3 329/152/3 334/151/3
f 335/146/4 336/145/4 334/148/4 333/147/4
f 334/1/5 329/9/5 330/10/5 333/4/5
f 335/1/6 332/9/6 331/10/6 336/4/6
f 340/1/1 343/9/1 341/10/1 338/4/1
f 339/6/2 340/5/2 338/8/2 337/7/2
f 344/2/3 339/1/3 337/4/3 342/3/3
f 343/11/4 344/6/4 342/7/4 341/12/4
f 342/16/5 337/15/5 338/127/5 341/126/5
f 343/18/6 340/17/6 339/10/6 344/4/6
f 348/129/1 351/135/1 349/136/1 346/130/1
f 347/109/2 348/137/2 346/138/2 345/134/2
f 352/128/3 347/129/3 345/130/3 350/131/3
f 351/109/4 352/132/4 350/133/4 349/134/4
f 350/141/5 345/142/5 346/139/5 349/140/5
f 351/16/6 348/15/6 347/14/6 352/13/6
f 356/149/1 359/150/1 357/151/1 354/152/1
f 355/139/2 356/146/2 354/147/2 353/153/2
f 360/143/3 355/144/3 353/4/3 358/10/3
f 359/145/4 360/146/4 358/147/4 357/148/4
f 358/4/5 353/10/5 354/9/5 357/1/5
f 359/4/6 356/10/6 355/9/6 360/1/6
usemtl frame
f 12/19/1 15/20/1 13/21/1 10/22/1
f 11/23/2 12/24/2 10/25/2 9/26/2
f 16/19/3 11/20/3 9/21/3 14/22/3
f 15/23/4 16/24/4 14/25/4 13/26/4
f 14/26/5 9/23/5 10/24/5 13/25/5
f 15/26/6 12/23/6 11/24/6 16/25/6
f 20/27/1 23/28/1 21/29/1 18/24/1
f 19/30/2 20/22/2 18/31/2 17/32/2
f 24/27/3 19/28/3 17/29/3 22/24/3
f 23/30/4 24/22/4 22/31/4 21/32/4
f 22/25/5 17/32/5 18/31/5 21/10/5
f 23/25/6 20/32/6 19/31/6 24/10/6
f 28/33/1 31/23/1 29/27/1 26/34/1
f 27/33/2 28/23/2 26/27/2 25/34/2
f 32/33/3 27/35/3 25/36/3 30/34/3
f 31/33/4 32/23/4 30/27/4 29/34/4
f 30/33/5 25/35/5 26/36/5 29/34/5
f 31/33/6 28/35/6 27/36/6 32/34/6
f 60/35/1 63/33/1 61/34/1 58/36/1
f 59/23/2 60/33/2 58/34/2 57/27/2
f 64/23/3 59/33/3 57/34/3 62/27/3
f 63/23/4 64/33/4 62/34/4 61/27/4
f 62/34/5 57/36/5 58/35/5 61/33/5
f 63/34/6 60/36/6 59/35/6 64/33/6
f 92/70/1 95/42/1 93/71/1 90/72/1
f 91/73/11 92/74/11 90/75/11 89/76/11
f 96/70/3 91/42/3 89/71/3 94/72/3
f 95/73/12 96/74/12 94/75/12 93/76/12
f 94/77/13 89/78/13 90/79/13 93/80/13
f 95/81/14 92/82/14 91/42/14 96/70/14
f 100/70/1 103/42/1 101/71/1 98/72/1
f 99/73/11 100/74/11 98/75/11 97/76/11
f 104/70/3 99/42/3 97/71/3 102/72/3
f 103/73/12 104/74/12 102/75/12 101/76/12
f 102/77/13 97/78/13 98/79/13 101/80/13
f 103/81/14 100/82/14 99/42/14 104/70/14
f 156/42/1 159/70/1 157/72/1 154/71/1
f 155/74/13 156/73/13 154/76/13 153/75/13
f 160/42/3 155/70/3 153/72/3 158/71/3
f 159/74/14 160/73/14 158/76/14 157/75/14
f 158/78/12 153/77/12 154/80/12 157/79/12
f 159/82/11 156/81/11 155/70/11 160/42/11
f 164/42/1 167/70/1 165/72/1 162/71/1
f 163/74/13 164/73/13 162/76/13 161/75/13
f 168/42/3 163/70/3 161/72/3 166/71/3
f 167/74/14 168/73/14 166/76/14 165/75/14
f 166/78/12 161/77/12 162/80/12 165/79/12
f 167/82/11 164/81/11 163/70/11 168/42/11
usemtl wheels
f 36/37/1 39/38/1 37/39/1 34/40/1
f 35/37/2 36/38/2 34/39/2 33/40/2
f 40/37/3 35/38/3 33/39/3 38/40/3
f 39/37/4 40/38/4 38/39/4 37/40/4
f 38/40/5 33/41/5 34/42/5 37/37/5
f 44/37/1 47/38/1 45/39/1 42/40/1
f 43/37/2 44/38/2 42/39/2 41/40/2
f 48/37/3 43/38/3 41/39/3 46/40/3
f 47/37/4 48/38/4 46/39/4 45/40/4
f 46/40/5 41/41/5 42/42/5 45/37/5
usemtl trailing_bogey_base
f 52/43/1 55/44/1 53/45/1 50/46/1
f 51/43/2 52/44/2 50/45/2 49/46/2
f 56/43/3 51/44/3 49/45/3 54/46/3
f 55/43/4 56/44/4 54/45/4 53/46/4
f 54/47/5 49/48/5 50/49/5 53/50/5
f 55/47/6 52/48/6 51/49/6 56/50/6
usemtl frame2
f 68/51/7 71/52/7 69/53/7 66/54/7
f 67/55/2 68/56/2 66/57/2 65/58/2
f 72/51/8 67/52/8 65/53/8 70/54/8
f 71/55/4 72/56/4 70/57/4 69/58/4
f 70/51/9 65/52/9 66/53/9 69/54/9
f 71/51/10 68/52/10 67/53/10 72/54/10
f 76/52/10 79/51/10 77/54/10 74/53/10
f 75/56/2 76/55/2 74/58/2 73/57/2
f 80/52/9 75/51/9 73/54/9 78/53/9
f 79/56/4 80/55/4 78/58/4 77/57/4
f 78/54/7 73/53/7 74/52/7 77/51/7
f 79/54/8 76/53/8 75/52/8 80/51/8
f 84/59/7 87/60/7 85/61/7 82/57/7
f 83/60/2 84/62/2 82/63/2 81/61/2
f 88/59/8 83/60/8 81/61/8 86/57/8
f 87/60/4 88/62/4 86/63/4 85/61/4
f 86/64/9 81/65/9 82/61/9 85/57/9
f 87/66/10 84/67/10 83/68/10 88/69/10
f 108/62/1 111/83/1 109/84/1 106/63/1
f 107/85/2 108/86/2 106/87/2 105/88/2
f 112/83/3 107/62/3 105/63/3 110/84/3
f 111/89/4 112/90/4 110/91/4 109/92/4
f 110/92/5 105/10/5 106/58/5 109/91/5
f 111/93/6 108/87/6 107/88/6 112/94/6
f 116/60/10 119/59/10 117/57/10 114/61/10
f 115/62/2 116/60/2 114/61/2 113/63/2
f 120/60/9 115/59/9 113/57/9 118/61/9
f 119/62/4 120/60/4 118/61/4 117/63/4
f 118/57/7 113/61/7 114/65/7 117/64/7
f 119/69/8 116/68/8 115/67/8 120/66/8
f 124/60/10 127/59/10 125/57/10 122/61/10
f 123/62/2 124/60/2 122/61/2 121/63/2
f 128/60/9 123/59/9 121/57/9 126/61/9
f 127/62/4 128/60/4 126/61/4 125/63/4
f 126/57/7 121/61/7 122/65/7 125/64/7
f 127/69/8 124/68/8 123/67/8 128/66/8
f 132/52/10 135/51/10 133/54/10 130/53/10
f 131/56/2 132/55/2 130/58/2 129/57/2
f 136/52/9 131/51/9 129/54/9 134/53/9
f 135/56/4 136/55/4 134/58/4 133/57/4
f 134/54/7 129/53/7 130/52/7 133/51/7
f 135/54/8 132/53/8 131/52/8 136/51/8
f 140/51/7 143/52/7 141/53/7 138/54/7
f 139/55/2 140/56/2 138/57/2 137/58/2
f 144/51/8 139/52/8 137/53/8 142/54/8
f 143/55/4 144/56/4 142/57/4 141/58/4
f 142/51/9 137/52/9 138/53/9 141/54/9
f 143/51/10 140/52/10 139/53/10 144/54/10
f 148/59/7 151/60/7 149/61/7 146/57/7
f 147/60/2 148/62/2 146/63/2 145/61/2
f 152/59/8 147/60/8 145/61/8 150/57/8
f 151/60/4 152/62/4 150/63/4 149/61/4
f 150/64/9 145/65/9 146/61/9 149/57/9
f 151/66/10 148/67/10 147/68/10 152/69/10
f 172/83/1 175/62/1 173/63/1 170/84/1
f 171/90/2 172/89/2 170/92/2 169/91/2
f 176/62/3 171/83/3 169/84/3 174/63/3
f 175/86/4 176/85/4 174/88/4 173/87/4
f 174/10/5 169/92/5 170/91/5 173/58/5
f 175/87/6 172/93/6 171/94/6 176/88/6
