# Blender 4.4.3
# www.blender.org
mtllib textures.mtl
o cube.023
v 0.500000 1.375000 -1.312500
v 0.500000 1.375000 -0.312500
v 0.500000 1.312500 -1.312500
v 0.500000 1.312500 -0.312500
v 0.687500 1.375000 -0.312500
v 0.687500 1.375000 -1.312500
v 0.687500 1.312500 -0.312500
v 0.687500 1.312500 -1.312500
v -0.687500 0.953734 -3.428637
v -0.687500 1.312500 -2.562500
v -0.687500 0.895992 -3.404719
v -0.687500 1.254757 -2.538582
v -0.500000 1.312500 -2.562500
v -0.500000 0.953734 -3.428637
v -0.500000 1.254757 -2.538582
v -0.500000 0.895992 -3.404719
v -0.687500 1.375000 -1.312500
v -0.687500 1.375000 -0.312500
v -0.687500 1.312500 -1.312500
v -0.687500 1.312500 -0.312500
v -0.500000 1.375000 -0.312500
v -0.500000 1.375000 -1.312500
v -0.500000 1.312500 -0.312500
v -0.500000 1.312500 -1.312500
v -0.687500 1.375000 -1.937500
v -0.687500 1.375000 -1.312500
v -0.687500 1.312500 -1.937500
v -0.687500 1.312500 -1.312500
v -0.500000 1.375000 -1.312500
v -0.500000 1.375000 -1.937500
v -0.500000 1.312500 -1.312500
v -0.500000 1.312500 -1.937500
v -0.687500 1.375000 0.937500
v -0.687500 1.375000 1.937500
v -0.687500 1.312500 0.937500
v -0.687500 1.312500 1.937500
v -0.500000 1.375000 1.937500
v -0.500000 1.375000 0.937500
v -0.500000 1.312500 1.937500
v -0.500000 1.312500 0.937500
v -0.687500 0.625000 -3.000000
v -0.687500 0.625000 -2.000000
v -0.687500 0.562500 -3.000000
v -0.687500 0.562500 -2.000000
v -0.500000 0.625000 -2.000000
v -0.500000 0.625000 -3.000000
v -0.500000 0.562500 -2.000000
v -0.500000 0.562500 -3.000000
v -0.687500 0.625000 -2.000000
v -0.687500 0.625000 -1.000000
v -0.687500 0.562500 -2.000000
v -0.687500 0.562500 -1.000000
v -0.500000 0.625000 -1.000000
v -0.500000 0.625000 -2.000000
v -0.500000 0.562500 -1.000000
v -0.500000 0.562500 -2.000000
v -0.687500 0.625000 -1.000000
v -0.687500 0.625000 -0.000000
v -0.687500 0.562500 -1.000000
v -0.687500 0.562500 -0.000000
v -0.500000 0.625000 -0.000000
v -0.500000 0.625000 -1.000000
v -0.500000 0.562500 -0.000000
v -0.500000 0.562500 -1.000000
v -0.687500 0.625000 -0.000000
v -0.687500 0.625000 1.000000
v -0.687500 0.562500 -0.000000
v -0.687500 0.562500 1.000000
v -0.500000 0.625000 1.000000
v -0.500000 0.625000 -0.000000
v -0.500000 0.562500 1.000000
v -0.500000 0.562500 -0.000000
v -0.687500 0.625000 2.000000
v -0.687500 0.625000 3.000000
v -0.687500 0.562500 2.000000
v -0.687500 0.562500 3.000000
v -0.500000 0.625000 3.000000
v -0.500000 0.625000 2.000000
v -0.500000 0.562500 3.000000
v -0.500000 0.562500 2.000000
v -0.687500 0.625000 1.000000
v -0.687500 0.625000 2.000000
v -0.687500 0.562500 1.000000
v -0.687500 0.562500 2.000000
v -0.500000 0.625000 2.000000
v -0.500000 0.625000 1.000000
v -0.500000 0.562500 2.000000
v -0.500000 0.562500 1.000000
v -0.687500 1.375000 0.312500
v -0.687500 1.375000 0.937500
v -0.687500 1.312500 0.312500
v -0.687500 1.312500 0.937500
v -0.500000 1.375000 0.937500
v -0.500000 1.375000 0.312500
v -0.500000 1.312500 0.937500
v -0.500000 1.312500 0.312500
v -0.687500 1.312500 2.562500
v -0.687500 0.953735 3.428637
v -0.687500 1.254758 2.538582
v -0.687500 0.895992 3.404719
v -0.500000 0.953735 3.428637
v -0.500000 1.312500 2.562500
v -0.500000 0.895992 3.404719
v -0.500000 1.254758 2.538582
v 0.500000 0.953734 -3.428637
v 0.500000 1.312500 -2.562500
v 0.500000 0.895992 -3.404719
v 0.500000 1.254757 -2.538582
v 0.687500 1.312500 -2.562500
v 0.687500 0.953734 -3.428637
v 0.687500 1.254757 -2.538582
v 0.687500 0.895992 -3.404719
v 0.500000 1.312500 2.562500
v 0.500000 0.953735 3.428637
v 0.500000 1.254758 2.538582
v 0.500000 0.895992 3.404719
v 0.687500 0.953735 3.428637
v 0.687500 1.312500 2.562500
v 0.687500 0.895992 3.404719
v 0.687500 1.254758 2.538582
v 0.500000 1.375000 -1.937500
v 0.500000 1.375000 -1.312500
v 0.500000 1.312500 -1.937500
v 0.500000 1.312500 -1.312500
v 0.687500 1.375000 -1.312500
v 0.687500 1.375000 -1.937500
v 0.687500 1.312500 -1.312500
v 0.687500 1.312500 -1.937500
v 0.500000 1.375000 0.312500
v 0.500000 1.375000 0.937500
v 0.500000 1.312500 0.312500
v 0.500000 1.312500 0.937500
v 0.687500 1.375000 0.937500
v 0.687500 1.375000 0.312500
v 0.687500 1.312500 0.937500
v 0.687500 1.312500 0.312500
v 0.500000 1.375000 0.937500
v 0.500000 1.375000 1.937500
v 0.500000 1.312500 0.937500
v 0.500000 1.312500 1.937500
v 0.687500 1.375000 1.937500
v 0.687500 1.375000 0.937500
v 0.687500 1.312500 1.937500
v 0.687500 1.312500 0.937500
v 0.500000 0.625000 -3.000000
v 0.500000 0.625000 -2.000000
v 0.500000 0.562500 -3.000000
v 0.500000 0.562500 -2.000000
v 0.687500 0.625000 -2.000000
v 0.687500 0.625000 -3.000000
v 0.687500 0.562500 -2.000000
v 0.687500 0.562500 -3.000000
v 0.500000 0.625000 -2.000000
v 0.500000 0.625000 -1.000000
v 0.500000 0.562500 -2.000000
v 0.500000 0.562500 -1.000000
v 0.687500 0.625000 -1.000000
v 0.687500 0.625000 -2.000000
v 0.687500 0.562500 -1.000000
v 0.687500 0.562500 -2.000000
v 0.500000 0.625000 -1.000000
v 0.500000 0.625000 -0.000000
v 0.500000 0.562500 -1.000000
v 0.500000 0.562500 -0.000000
v 0.687500 0.625000 -0.000000
v 0.687500 0.625000 -1.000000
v 0.687500 0.562500 -0.000000
v 0.687500 0.562500 -1.000000
v 0.500000 0.625000 -0.000000
v 0.500000 0.625000 1.000000
v 0.500000 0.562500 -0.000000
v 0.500000 0.562500 1.000000
v 0.687500 0.625000 1.000000
v 0.687500 0.625000 -0.000000
v 0.687500 0.562500 1.000000
v 0.687500 0.562500 -0.000000
v 0.500000 0.625000 2.000000
v 0.500000 0.625000 3.000000
v 0.500000 0.562500 2.000000
v 0.500000 0.562500 3.000000
v 0.687500 0.625000 3.000000
v 0.687500 0.625000 2.000000
v 0.687500 0.562500 3.000000
v 0.687500 0.562500 2.000000
v 0.500000 0.625000 1.000000
v 0.500000 0.625000 2.000000
v 0.500000 0.562500 1.000000
v 0.500000 0.562500 2.000000
v 0.687500 0.625000 2.000000
v 0.687500 0.625000 1.000000
v 0.687500 0.562500 2.000000
v 0.687500 0.562500 1.000000
vn -1.0000 -0.0000 -0.0000
vn 1.0000 -0.0000 -0.0000
vn -0.0000 1.0000 -0.0000
vn -0.0000 -1.0000 -0.0000
vn -0.0000 0.9239 -0.3827
vn -0.0000 -0.9239 0.3827
vn -0.0000 0.9239 0.3827
vn -0.0000 -0.9239 -0.3827
vt 0.312500 0.000000
vt 0.312500 1.000000
vt 0.250000 1.000000
vt 0.250000 0.000000
vt 0.187500 1.000000
vt 0.187500 0.000000
vt 0.125000 0.000000
vt 0.125000 1.000000
vt 0.187500 0.937500
vt 0.125000 0.937500
vt 0.312500 0.937500
vt 0.250000 0.937500
vt 0.187500 0.375000
vt 0.125000 0.375000
vt 0.312500 0.375000
vt 0.250000 0.375000
s 1
usemtl belts
f 3/1/1 4/2/1 2/3/1 1/4/1
f 7/5/2 8/6/2 6/7/2 5/8/2
f 6/7/3 1/1/3 2/2/3 5/8/3
f 7/8/4 4/2/4 3/1/4 8/7/4
f 11/6/1 12/9/1 10/10/1 9/7/1
f 15/11/2 16/1/2 14/4/2 13/12/2
f 14/1/5 9/7/5 10/10/5 13/11/5
f 15/11/6 12/10/6 11/7/6 16/1/6
f 19/6/1 20/5/1 18/8/1 17/7/1
f 23/2/2 24/1/2 22/4/2 21/3/2
f 22/1/3 17/7/3 18/8/3 21/2/3
f 23/2/4 20/8/4 19/7/4 24/1/4
f 27/13/1 28/5/1 26/8/1 25/14/1
f 31/2/2 32/15/2 30/16/2 29/3/2
f 30/15/3 25/14/3 26/8/3 29/2/3
f 31/2/4 28/8/4 27/14/4 32/15/4
f 35/6/1 36/5/1 34/8/1 33/7/1
f 39/2/2 40/1/2 38/4/2 37/3/2
f 38/1/3 33/7/3 34/8/3 37/2/3
f 39/2/4 36/8/4 35/7/4 40/1/4
f 43/5/1 44/6/1 42/7/1 41/8/1
f 47/1/2 48/2/2 46/3/2 45/4/2
f 46/2/3 41/8/3 42/7/3 45/1/3
f 47/1/4 44/7/4 43/8/4 48/2/4
f 51/5/1 52/6/1 50/7/1 49/8/1
f 55/1/2 56/2/2 54/3/2 53/4/2
f 54/2/3 49/8/3 50/7/3 53/1/3
f 55/1/4 52/7/4 51/8/4 56/2/4
f 59/5/1 60/6/1 58/7/1 57/8/1
f 63/1/2 64/2/2 62/3/2 61/4/2
f 62/2/3 57/8/3 58/7/3 61/1/3
f 63/1/4 60/7/4 59/8/4 64/2/4
f 67/5/1 68/6/1 66/7/1 65/8/1
f 71/1/2 72/2/2 70/3/2 69/4/2
f 70/2/3 65/8/3 66/7/3 69/1/3
f 71/1/4 68/7/4 67/8/4 72/2/4
f 75/5/1 76/6/1 74/7/1 73/8/1
f 79/1/2 80/2/2 78/3/2 77/4/2
f 78/2/3 73/8/3 74/7/3 77/1/3
f 79/1/4 76/7/4 75/8/4 80/2/4
f 83/5/1 84/6/1 82/7/1 81/8/1
f 87/1/2 88/2/2 86/3/2 85/4/2
f 86/2/3 81/8/3 82/7/3 85/1/3
f 87/1/4 84/7/4 83/8/4 88/2/4
f 91/13/1 92/5/1 90/8/1 89/14/1
f 95/2/2 96/15/2 94/16/2 93/3/2
f 94/15/3 89/14/3 90/8/3 93/2/3
f 95/2/4 92/8/4 91/14/4 96/15/4
f 99/6/1 100/9/1 98/10/1 97/7/1
f 103/11/2 104/1/2 102/4/2 101/12/2
f 102/1/7 97/7/7 98/10/7 101/11/7
f 103/11/8 100/10/8 99/7/8 104/1/8
f 107/1/1 108/11/1 106/12/1 105/4/1
f 111/9/2 112/6/2 110/7/2 109/10/2
f 110/7/5 105/1/5 106/11/5 109/10/5
f 111/10/6 108/11/6 107/1/6 112/7/6
f 115/1/1 116/11/1 114/12/1 113/4/1
f 119/9/2 120/6/2 118/7/2 117/10/2
f 118/7/7 113/1/7 114/11/7 117/10/7
f 119/10/8 116/11/8 115/1/8 120/7/8
f 123/15/1 124/2/1 122/3/1 121/16/1
f 127/5/2 128/13/2 126/14/2 125/8/2
f 126/14/3 121/15/3 122/2/3 125/8/3
f 127/8/4 124/2/4 123/15/4 128/14/4
f 131/15/1 132/2/1 130/3/1 129/16/1
f 135/5/2 136/13/2 134/14/2 133/8/2
f 134/14/3 129/15/3 130/2/3 133/8/3
f 135/8/4 132/2/4 131/15/4 136/14/4
f 139/1/1 140/2/1 138/3/1 137/4/1
f 143/5/2 144/6/2 142/7/2 141/8/2
f 142/7/3 137/1/3 138/2/3 141/8/3
f 143/8/4 140/2/4 139/1/4 144/7/4
f 147/2/1 148/1/1 146/4/1 145/3/1
f 151/6/2 152/5/2 150/8/2 149/7/2
f 150/8/3 145/2/3 146/1/3 149/7/3
f 151/7/4 148/1/4 147/2/4 152/8/4
f 155/2/1 156/1/1 154/4/1 153/3/1
f 159/6/2 160/5/2 158/8/2 157/7/2
f 158/8/3 153/2/3 154/1/3 157/7/3
f 159/7/4 156/1/4 155/2/4 160/8/4
f 163/2/1 164/1/1 162/4/1 161/3/1
f 167/6/2 168/5/2 166/8/2 165/7/2
f 166/8/3 161/2/3 162/1/3 165/7/3
f 167/7/4 164/1/4 163/2/4 168/8/4
f 171/2/1 172/1/1 170/4/1 169/3/1
f 175/6/2 176/5/2 174/8/2 173/7/2
f 174/8/3 169/2/3 170/1/3 173/7/3
f 175/7/4 172/1/4 171/2/4 176/8/4
f 179/2/1 180/1/1 178/4/1 177/3/1
f 183/6/2 184/5/2 182/8/2 181/7/2
f 182/8/3 177/2/3 178/1/3 181/7/3
f 183/7/4 180/1/4 179/2/4 184/8/4
f 187/2/1 188/1/1 186/4/1 185/3/1
f 191/6/2 192/5/2 190/8/2 189/7/2
f 190/8/3 185/2/3 186/1/3 189/7/3
f 191/7/4 188/1/4 187/2/4 192/8/4
