# Made in Blockbench 4.12.5
mtllib textures.mtl

o cube
v -1.375 0.0625 3.5
v -1.375 0.0625 1.6875
v -1.375 -0.0625 3.5
v -1.375 -0.0625 1.6875
v -1.4375 0.0625 3.5
v -1.4375 0.0625 1.6875
v -1.4375 -0.0625 3.5
v -1.4375 -0.0625 1.6875
v -1.375 0.0625 1.6875
v -1.375 0.0625 -0.0625
v -1.375 -0.0625 1.6875
v -1.375 -0.0625 -0.0625
v -1.4375 0.0625 1.6875
v -1.4375 0.0625 -0.0625
v -1.4375 -0.0625 1.6875
v -1.4375 -0.0625 -0.0625
v -1.375 0.125 3.75
v -1.375 0.125 3.5
v -1.375 -0.125 3.75
v -1.375 -0.125 3.5
v -1.4375 0.125 3.75
v -1.4375 0.125 3.5
v -1.4375 -0.125 3.75
v -1.4375 -0.125 3.5
vt 0.125 0.8214285714285714
vt 0.125 0.8392857142857143
vt 0.38392857142857145 0.8392857142857143
vt 0.38392857142857145 0.8214285714285714
vt 0.38392857142857145 0.8214285714285714
vt 0.38392857142857145 0.8392857142857143
vt 0.125 0.8392857142857143
vt 0.125 0.8214285714285714
vt 0.38392857142857145 0.8303571428571428
vt 0.125 0.8303571428571428
vt 0.125 0.8392857142857143
vt 0.38392857142857145 0.8392857142857143
vt 0.125 0.8214285714285714
vt 0.38392857142857145 0.8214285714285714
vt 0.38392857142857145 0.8303571428571428
vt 0.125 0.8303571428571428
vt 0 0.8214285714285714
vt 0 0.8392857142857143
vt 0.25 0.8392857142857143
vt 0.25 0.8214285714285714
vt 0.25 0.8214285714285714
vt 0.25 0.8392857142857143
vt 0 0.8392857142857143
vt 0 0.8214285714285714
vt 0.25 0.8303571428571428
vt 0 0.8303571428571428
vt 0 0.8392857142857143
vt 0.25 0.8392857142857143
vt 0 0.8214285714285714
vt 0.25 0.8214285714285714
vt 0.25 0.8303571428571428
vt 0 0.8303571428571428
vt 0.008928571428571428 0.8214285714285714
vt 0.008928571428571428 0.8392857142857143
vt 0 0.8392857142857143
vt 0 0.8214285714285714
vt 0.8928571428571429 0
vt 0.8928571428571429 0.0357142857142857
vt 0.8571428571428571 0.0357142857142857
vt 0.8571428571428571 0
vt 0.8571428571428571 0
vt 0.8571428571428571 0.0357142857142857
vt 0.8928571428571429 0.0357142857142857
vt 0.8928571428571429 0
vt 0.8571428571428571 0.0267857142857143
vt 0.8928571428571429 0.0267857142857143
vt 0.8928571428571429 0.0357142857142857
vt 0.8571428571428571 0.0357142857142857
vt 0.8928571428571429 0
vt 0.8571428571428571 0
vt 0.8571428571428571 0.008928571428571397
vt 0.8928571428571429 0.008928571428571397
vt 0.8571428571428571 0
vt 0.8571428571428571 0.0357142857142857
vt 0.8660714285714286 0.0357142857142857
vt 0.8660714285714286 0
vt 0.8839285714285714 0
vt 0.8839285714285714 0.0357142857142857
vt 0.8928571428571429 0.0357142857142857
vt 0.8928571428571429 0
vn 1 0 0
vn -1 0 0
vn 0 1 0
vn 0 -1 0
vn 1 0 0
vn -1 0 0
vn 0 1 0
vn 0 -1 0
vn 0 0 -1
vn 1 0 0
vn -1 0 0
vn 0 1 0
vn 0 -1 0
vn 0 0 1
vn 0 0 -1
usemtl xl_textures
f 4/1/1 2/2/1 1/3/1 3/4/1
f 7/5/2 5/6/2 6/7/2 8/8/2
f 1/9/3 2/10/3 6/11/3 5/12/3
f 4/13/4 3/14/4 7/15/4 8/16/4
f 12/17/5 10/18/5 9/19/5 11/20/5
f 15/21/6 13/22/6 14/23/6 16/24/6
f 9/25/7 10/26/7 14/27/7 13/28/7
f 12/29/8 11/30/8 15/31/8 16/32/8
f 16/33/9 14/34/9 10/35/9 12/36/9
f 20/37/10 18/38/10 17/39/10 19/40/10
f 23/41/11 21/42/11 22/43/11 24/44/11
f 17/45/12 18/46/12 22/47/12 21/48/12
f 20/49/13 19/50/13 23/51/13 24/52/13
f 19/53/14 17/54/14 21/55/14 23/56/14
f 24/57/15 22/58/15 18/59/15 20/60/15