# Made in Blockbench 4.12.5
mtllib textures.mtl

o cube
v -1.1875000000000002 0.125 0.12500000000000022
v -1.3125000000000002 0.125 0.125
v -1.1875000000000002 -0.125 0.12500000000000022
v -1.3125000000000002 -0.125 0.125
v -1.1875000000000009 0.125 2.625
v -1.3125000000000009 0.125 2.625
v -1.1875000000000009 -0.125 2.625
v -1.3125000000000009 -0.125 2.625
v -1.1875000000000009 0.125 2.6250000000000004
v -1.3125000000000009 0.125 2.6250000000000004
v -1.1875000000000009 -0.125 2.6250000000000004
v -1.3125000000000009 -0.125 2.6250000000000004
v -1.1875000000000013 0.125 5.25
v -1.3125000000000013 0.125 5.25
v -1.1875000000000013 -0.125 5.25
v -1.3125000000000013 -0.125 5.25
v -1.1875 0.1875 5.625
v -1.1875 0.1875 5.25
v -1.1875 -0.1875 5.625
v -1.1875 -0.1875 5.25
v -1.3125 0.1875 5.625
v -1.3125 0.1875 5.25
v -1.3125 -0.1875 5.625
v -1.3125 -0.1875 5.25
vt 0.38392857142857145 0.8303571428571428
vt 0.38392857142857145 0.8482142857142857
vt 0.7410714285714286 0.8482142857142857
vt 0.7410714285714286 0.8303571428571428
vt 0.38392857142857145 0.8125
vt 0.38392857142857145 0.8303571428571428
vt 0.7410714285714286 0.8303571428571428
vt 0.7410714285714286 0.8125
vt 0.38392857142857145 0.7767857142857143
vt 0.38392857142857145 0.8125
vt 0.7410714285714286 0.8125
vt 0.7410714285714286 0.7767857142857143
vt 0.7410714285714286 0.8125
vt 0.7410714285714286 0.8482142857142857
vt 0.38392857142857145 0.8482142857142857
vt 0.38392857142857145 0.8125
vt 0.7678571428571429 0.8303571428571428
vt 0.7678571428571429 0.8482142857142857
vt 0.39285714285714285 0.8482142857142857
vt 0.39285714285714285 0.8303571428571428
vt 0.7678571428571429 0.8125
vt 0.7678571428571429 0.8303571428571428
vt 0.39285714285714285 0.8303571428571428
vt 0.39285714285714285 0.8125
vt 0.7678571428571429 0.7767857142857143
vt 0.7678571428571429 0.8125
vt 0.39285714285714285 0.8125
vt 0.39285714285714285 0.7767857142857143
vt 0.39285714285714285 0.8125
vt 0.39285714285714285 0.8482142857142857
vt 0.7678571428571429 0.8482142857142857
vt 0.7678571428571429 0.8125
vt 0.8392857142857143 0.008928571428571397
vt 0.8392857142857143 0.0625
vt 0.7857142857142857 0.0625
vt 0.7857142857142857 0.008928571428571397
vt 0.8392857142857143 0.008928571428571397
vt 0.8392857142857143 0.0625
vt 0.7857142857142857 0.0625
vt 0.7857142857142857 0.008928571428571397
vt 0.8571428571428571 0.0625
vt 0.8571428571428571 0.008928571428571397
vt 0.8392857142857143 0.008928571428571397
vt 0.8392857142857143 0.0625
vt 0.8571428571428571 0.0625
vt 0.8571428571428571 0.008928571428571397
vt 0.8392857142857143 0.008928571428571397
vt 0.8392857142857143 0.0625
vt 0.8571428571428571 0.008928571428571397
vt 0.8571428571428571 0.0625
vt 0.8392857142857143 0.0625
vt 0.8392857142857143 0.008928571428571397
vt 0.8392857142857143 0.008928571428571397
vt 0.8392857142857143 0.0625
vt 0.8571428571428571 0.0625
vt 0.8571428571428571 0.008928571428571397
vn 0 1 0
vn 0 -1 0
vn 1 0 2.220446049250313e-16
vn -1 0 -2.220446049250313e-16
vn 0 1 0
vn 0 -1 0
vn 1 0 2.220446049250313e-16
vn -1 0 -2.220446049250313e-16
vn 1 0 -3.700743415417188e-16
vn -1 0 3.700743415417188e-16
vn 0 1 0
vn 0 -1 0
vn -2.220446049250313e-16 0 1
vn 2.220446049250313e-16 0 -1
usemtl xl_textures
f 1/1/1 2/2/1 6/3/1 5/4/1
f 4/5/2 3/6/2 7/7/2 8/8/2
f 3/9/3 1/10/3 5/11/3 7/12/3
f 8/13/4 6/14/4 2/15/4 4/16/4
f 9/17/5 10/18/5 14/19/5 13/20/5
f 12/21/6 11/22/6 15/23/6 16/24/6
f 11/25/7 9/26/7 13/27/7 15/28/7
f 16/29/8 14/30/8 10/31/8 12/32/8
f 20/33/9 18/34/9 17/35/9 19/36/9
f 23/37/10 21/38/10 22/39/10 24/40/10
f 17/41/11 18/42/11 22/43/11 21/44/11
f 20/45/12 19/46/12 23/47/12 24/48/12
f 19/49/13 17/50/13 21/51/13 23/52/13
f 24/53/14 22/54/14 18/55/14 20/56/14