# Blender 4.3.2
# www.blender.org
mtllib textures.mtl

o cube.021
v -0.500000 1.312500 0.375000
v -0.500000 1.312500 0.312500
v -0.500000 1.250000 0.375000
v -0.500000 1.250000 0.312500
v -0.687500 1.312500 0.312500
v -0.687500 1.312500 0.375000
v -0.687500 1.250000 0.312500
v -0.687500 1.250000 0.375000
v 0.687500 0.625000 2.500000
v 0.687500 0.625000 1.500000
v 0.687500 0.562500 2.500000
v 0.687500 0.562500 1.500000
v 0.500000 0.625000 1.500000
v 0.500000 0.625000 2.500000
v 0.500000 0.562500 1.500000
v 0.500000 0.562500 2.500000
v 0.687500 0.977652 2.808395
v 0.687500 1.312500 2.000000
v 0.687500 0.919910 2.784477
v 0.687500 1.254758 1.976082
v 0.500000 1.312500 2.000000
v 0.500000 0.977652 2.808395
v 0.500000 1.254758 1.976082
v 0.500000 0.919910 2.784477
v 0.687500 1.312500 -2.000000
v 0.687500 0.977652 -2.808395
v 0.687500 1.254757 -1.976082
v 0.687500 0.919909 -2.784477
v 0.500000 0.977652 -2.808395
v 0.500000 1.312500 -2.000000
v 0.500000 0.919909 -2.784477
v 0.500000 1.254757 -1.976082
v 0.687500 1.312500 0.375000
v 0.687500 1.312500 0.312500
v 0.687500 1.250000 0.375000
v 0.687500 1.250000 0.312500
v 0.500000 1.312500 0.312500
v 0.500000 1.312500 0.375000
v 0.500000 1.250000 0.312500
v 0.500000 1.250000 0.375000
v 0.687500 1.312500 -0.312500
v 0.687500 1.312500 -1.312500
v 0.687500 1.250000 -0.312500
v 0.687500 1.250000 -1.312500
v 0.500000 1.312500 -1.312500
v 0.500000 1.312500 -0.312500
v 0.500000 1.250000 -1.312500
v 0.500000 1.250000 -0.312500
v 0.687500 1.312500 -1.312500
v 0.687500 1.312500 -1.375000
v 0.687500 1.250000 -1.312500
v 0.687500 1.250000 -1.375000
v 0.500000 1.312500 -1.375000
v 0.500000 1.312500 -1.312500
v 0.500000 1.250000 -1.375000
v 0.500000 1.250000 -1.312500
v 0.687500 0.625000 1.500000
v 0.687500 0.625000 0.500000
v 0.687500 0.562500 1.500000
v 0.687500 0.562500 0.500000
v 0.500000 0.625000 0.500000
v 0.500000 0.625000 1.500000
v 0.500000 0.562500 0.500000
v 0.500000 0.562500 1.500000
v 0.687500 0.625000 0.500000
v 0.687500 0.625000 -0.500000
v 0.687500 0.562500 0.500000
v 0.687500 0.562500 -0.500000
v 0.500000 0.625000 -0.500000
v 0.500000 0.625000 0.500000
v 0.500000 0.562500 -0.500000
v 0.500000 0.562500 0.500000
v 0.687500 0.625000 -0.500000
v 0.687500 0.625000 -1.500000
v 0.687500 0.562500 -0.500000
v 0.687500 0.562500 -1.500000
v 0.500000 0.625000 -1.500000
v 0.500000 0.625000 -0.500000
v 0.500000 0.562500 -1.500000
v 0.500000 0.562500 -0.500000
v 0.687500 0.625000 -1.500000
v 0.687500 0.625000 -2.500000
v 0.687500 0.562500 -1.500000
v 0.687500 0.562500 -2.500000
v 0.500000 0.625000 -2.500000
v 0.500000 0.625000 -1.500000
v 0.500000 0.562500 -2.500000
v 0.500000 0.562500 -1.500000
v 0.687500 1.312500 1.375000
v 0.687500 1.312500 0.375000
v 0.687500 1.250000 1.375000
v 0.687500 1.250000 0.375000
v 0.500000 1.312500 0.375000
v 0.500000 1.312500 1.375000
v 0.500000 1.250000 0.375000
v 0.500000 1.250000 1.375000
v -0.500000 0.977652 2.808395
v -0.500000 1.312500 2.000000
v -0.500000 0.919910 2.784477
v -0.500000 1.254758 1.976082
v -0.687500 1.312500 2.000000
v -0.687500 0.977652 2.808395
v -0.687500 1.254758 1.976082
v -0.687500 0.919910 2.784477
v -0.500000 1.312500 1.375000
v -0.500000 1.312500 0.375000
v -0.500000 1.250000 1.375000
v -0.500000 1.250000 0.375000
v -0.687500 1.312500 0.375000
v -0.687500 1.312500 1.375000
v -0.687500 1.250000 0.375000
v -0.687500 1.250000 1.375000
v -0.500000 1.312500 -0.312500
v -0.500000 1.312500 -1.312500
v -0.500000 1.250000 -0.312500
v -0.500000 1.250000 -1.312500
v -0.687500 1.312500 -1.312500
v -0.687500 1.312500 -0.312500
v -0.687500 1.250000 -1.312500
v -0.687500 1.250000 -0.312500
v -0.500000 1.312500 -2.000000
v -0.500000 0.977652 -2.808395
v -0.500000 1.254757 -1.976082
v -0.500000 0.919909 -2.784477
v -0.687500 0.977652 -2.808395
v -0.687500 1.312500 -2.000000
v -0.687500 0.919909 -2.784477
v -0.687500 1.254757 -1.976082
v -0.500000 0.625000 -1.500000
v -0.500000 0.625000 -2.500000
v -0.500000 0.562500 -1.500000
v -0.500000 0.562500 -2.500000
v -0.687500 0.625000 -2.500000
v -0.687500 0.625000 -1.500000
v -0.687500 0.562500 -2.500000
v -0.687500 0.562500 -1.500000
v -0.500000 0.625000 -0.500000
v -0.500000 0.625000 -1.500000
v -0.500000 0.562500 -0.500000
v -0.500000 0.562500 -1.500000
v -0.687500 0.625000 -1.500000
v -0.687500 0.625000 -0.500000
v -0.687500 0.562500 -1.500000
v -0.687500 0.562500 -0.500000
v -0.500000 0.625000 0.500000
v -0.500000 0.625000 -0.500000
v -0.500000 0.562500 0.500000
v -0.500000 0.562500 -0.500000
v -0.687500 0.625000 -0.500000
v -0.687500 0.625000 0.500000
v -0.687500 0.562500 -0.500000
v -0.687500 0.562500 0.500000
v -0.500000 0.625000 2.500000
v -0.500000 0.625000 1.500000
v -0.500000 0.562500 2.500000
v -0.500000 0.562500 1.500000
v -0.687500 0.625000 1.500000
v -0.687500 0.625000 2.500000
v -0.687500 0.562500 1.500000
v -0.687500 0.562500 2.500000
v -0.500000 0.625000 1.500000
v -0.500000 0.625000 0.500000
v -0.500000 0.562500 1.500000
v -0.500000 0.562500 0.500000
v -0.687500 0.625000 0.500000
v -0.687500 0.625000 1.500000
v -0.687500 0.562500 0.500000
v -0.687500 0.562500 1.500000
v -0.500000 1.312500 -1.312500
v -0.500000 1.312500 -1.375000
v -0.500000 1.250000 -1.312500
v -0.500000 1.250000 -1.375000
v -0.687500 1.312500 -1.375000
v -0.687500 1.312500 -1.312500
v -0.687500 1.250000 -1.375000
v -0.687500 1.250000 -1.312500
vn 1.0000 -0.0000 -0.0000
vn -1.0000 -0.0000 -0.0000
vn -0.0000 1.0000 -0.0000
vn -0.0000 -1.0000 -0.0000
vn -0.0000 0.9239 0.3827
vn -0.0000 -0.9239 -0.3827
vn -0.0000 0.9239 -0.3827
vn -0.0000 -0.9239 0.3827
vt 0.250000 1.000000
vt 0.250000 0.937500
vt 0.312500 0.937500
vt 0.312500 1.000000
vt 0.187500 0.937500
vt 0.187500 1.000000
vt 0.125000 1.000000
vt 0.125000 0.937500
vt 0.187500 0.000000
vt 0.125000 0.000000
vt 0.250000 0.000000
vt 0.312500 0.000000
vt 0.125000 0.062500
vt 0.187500 0.062500
vt 0.375000 0.062500
vt 0.375000 0.937500
vt 0.312500 0.062500
s 1
usemtl belts
f 3/1/1 4/2/1 2/3/1 1/4/1
f 7/5/2 8/6/2 6/7/2 5/8/2
f 6/7/3 1/4/3 2/3/3 5/8/3
f 7/8/4 4/3/4 3/4/4 8/7/4
f 11/9/1 12/6/1 10/7/1 9/10/1
f 15/1/2 16/11/2 14/12/2 13/4/2
f 14/12/3 9/10/3 10/7/3 13/4/3
f 15/4/4 12/7/4 11/10/4 16/12/4
f 19/8/1 20/13/1 18/14/1 17/5/1
f 23/15/2 24/16/2 22/3/2 21/17/2
f 22/3/5 17/8/5 18/13/5 21/17/5
f 23/17/6 20/13/6 19/8/6 24/3/6
f 27/8/1 28/13/1 26/14/1 25/5/1
f 31/15/2 32/16/2 30/3/2 29/17/2
f 30/3/7 25/8/7 26/13/7 29/17/7
f 31/17/8 28/13/8 27/8/8 32/3/8
f 35/6/1 36/5/1 34/8/1 33/7/1
f 39/2/2 40/1/2 38/4/2 37/3/2
f 38/4/3 33/7/3 34/8/3 37/3/3
f 39/3/4 36/8/4 35/7/4 40/4/4
f 43/6/1 44/9/1 42/10/1 41/7/1
f 47/11/2 48/1/2 46/4/2 45/12/2
f 46/4/3 41/7/3 42/10/3 45/12/3
f 47/12/4 44/10/4 43/7/4 48/4/4
f 51/6/1 52/5/1 50/8/1 49/7/1
f 55/2/2 56/1/2 54/4/2 53/3/2
f 54/4/3 49/7/3 50/8/3 53/3/3
f 55/3/4 52/8/4 51/7/4 56/4/4
f 59/9/1 60/6/1 58/7/1 57/10/1
f 63/1/2 64/11/2 62/12/2 61/4/2
f 62/12/3 57/10/3 58/7/3 61/4/3
f 63/4/4 60/7/4 59/10/4 64/12/4
f 67/9/1 68/6/1 66/7/1 65/10/1
f 71/1/2 72/11/2 70/12/2 69/4/2
f 70/12/3 65/10/3 66/7/3 69/4/3
f 71/4/4 68/7/4 67/10/4 72/12/4
f 75/9/1 76/6/1 74/7/1 73/10/1
f 79/1/2 80/11/2 78/12/2 77/4/2
f 78/12/3 73/10/3 74/7/3 77/4/3
f 79/4/4 76/7/4 75/10/4 80/12/4
f 83/9/1 84/6/1 82/7/1 81/10/1
f 87/1/2 88/11/2 86/12/2 85/4/2
f 86/12/3 81/10/3 82/7/3 85/4/3
f 87/4/4 84/7/4 83/10/4 88/12/4
f 91/6/1 92/9/1 90/10/1 89/7/1
f 95/11/2 96/1/2 94/4/2 93/12/2
f 94/4/3 89/7/3 90/10/3 93/12/3
f 95/12/4 92/10/4 91/7/4 96/4/4
f 99/16/1 100/15/1 98/17/1 97/3/1
f 103/13/2 104/8/2 102/5/2 101/14/2
f 102/8/5 97/3/5 98/17/5 101/13/5
f 103/13/6 100/17/6 99/3/6 104/8/6
f 107/1/1 108/11/1 106/12/1 105/4/1
f 111/9/2 112/6/2 110/7/2 109/10/2
f 110/7/3 105/4/3 106/12/3 109/10/3
f 111/10/4 108/12/4 107/4/4 112/7/4
f 115/1/1 116/11/1 114/12/1 113/4/1
f 119/9/2 120/6/2 118/7/2 117/10/2
f 118/7/3 113/4/3 114/12/3 117/10/3
f 119/10/4 116/12/4 115/4/4 120/7/4
f 123/16/1 124/15/1 122/17/1 121/3/1
f 127/13/2 128/8/2 126/5/2 125/14/2
f 126/8/7 121/3/7 122/17/7 125/13/7
f 127/13/8 124/17/8 123/3/8 128/8/8
f 131/11/1 132/1/1 130/4/1 129/12/1
f 135/6/2 136/9/2 134/10/2 133/7/2
f 134/10/3 129/12/3 130/4/3 133/7/3
f 135/7/4 132/4/4 131/12/4 136/10/4
f 139/11/1 140/1/1 138/4/1 137/12/1
f 143/6/2 144/9/2 142/10/2 141/7/2
f 142/10/3 137/12/3 138/4/3 141/7/3
f 143/7/4 140/4/4 139/12/4 144/10/4
f 147/11/1 148/1/1 146/4/1 145/12/1
f 151/6/2 152/9/2 150/10/2 149/7/2
f 150/10/3 145/12/3 146/4/3 149/7/3
f 151/7/4 148/4/4 147/12/4 152/10/4
f 155/11/1 156/1/1 154/4/1 153/12/1
f 159/6/2 160/9/2 158/10/2 157/7/2
f 158/10/3 153/12/3 154/4/3 157/7/3
f 159/7/4 156/4/4 155/12/4 160/10/4
f 163/11/1 164/1/1 162/4/1 161/12/1
f 167/6/2 168/9/2 166/10/2 165/7/2
f 166/10/3 161/12/3 162/4/3 165/7/3
f 167/7/4 164/4/4 163/12/4 168/10/4
f 171/1/1 172/2/1 170/3/1 169/4/1
f 175/5/2 176/6/2 174/7/2 173/8/2
f 174/7/3 169/4/3 170/3/3 173/8/3
f 175/8/4 172/3/4 171/4/4 176/7/4
