# Blender 4.3.2
# www.blender.org
mtllib textures.mtl

o cube.017
v 0.250000 1.500000 0.250000
v 0.250000 1.500000 -0.250000
v 0.250000 1.250000 0.250000
v 0.250000 1.250000 -0.250000
v -0.250000 1.500000 -0.250000
v -0.250000 1.500000 0.250000
v -0.250000 1.250000 -0.250000
v -0.250000 1.250000 0.250000
v -0.224112 0.588388 -1.375000
v -0.224112 0.588388 -1.562500
v -0.312500 0.500000 -1.375000
v -0.312500 0.500000 -1.562500
v -0.445083 0.809359 -1.562500
v -0.445083 0.809359 -1.375000
v -0.533471 0.720971 -1.562500
v -0.533471 0.720971 -1.375000
v -0.224112 0.588389 2.000000
v -0.224112 0.588388 1.812500
v -0.312500 0.500000 2.000000
v -0.312500 0.500000 1.812500
v -0.445083 0.809359 1.812500
v -0.445083 0.809359 2.000000
v -0.533471 0.720971 1.812500
v -0.533471 0.720971 2.000000
v 0.750000 1.000000 -2.437500
v 0.750000 1.000000 -2.937500
v 0.750000 0.500000 -2.437500
v 0.750000 0.500000 -2.937500
v 0.437500 1.000000 -2.937500
v 0.437500 1.000000 -2.437500
v 0.437500 0.500000 -2.937500
v 0.437500 0.500000 -2.437500
v 0.312500 1.062500 -2.375000
v 0.312500 1.062500 -3.000000
v 0.312500 0.437500 -2.375000
v 0.312500 0.437500 -3.000000
v -0.312500 1.062500 -3.000000
v -0.312500 1.062500 -2.375000
v -0.312500 0.437500 -3.000000
v -0.312500 0.437500 -2.375000
v 0.093750 1.250000 -2.593750
v 0.093750 1.250000 -2.781250
v 0.093750 1.062500 -2.593750
v 0.093750 1.062500 -2.781250
v -0.093750 1.250000 -2.781250
v -0.093750 1.250000 -2.593750
v -0.093750 1.062500 -2.781250
v -0.093750 1.062500 -2.593750
v -0.437500 1.000000 -2.437500
v -0.437500 1.000000 -2.937500
v -0.437500 0.500000 -2.437500
v -0.437500 0.500000 -2.937500
v -0.750000 1.000000 -2.937500
v -0.750000 1.000000 -2.437500
v -0.750000 0.500000 -2.937500
v -0.750000 0.500000 -2.437500
v -0.437500 1.000000 2.937500
v -0.437500 1.000000 2.437500
v -0.437500 0.500000 2.937500
v -0.437500 0.500000 2.437500
v -0.750000 1.000000 2.437500
v -0.750000 1.000000 2.937500
v -0.750000 0.500000 2.437500
v -0.750000 0.500000 2.937500
v 0.312500 1.062500 3.000000
v 0.312500 1.062500 2.375000
v 0.312500 0.437500 3.000000
v 0.312500 0.437500 2.375000
v -0.312500 1.062500 2.375000
v -0.312500 1.062500 3.000000
v -0.312500 0.437500 2.375000
v -0.312500 0.437500 3.000000
v 0.750000 1.000000 2.937500
v 0.750000 1.000000 2.437500
v 0.750000 0.500000 2.937500
v 0.750000 0.500000 2.437500
v 0.437500 1.000000 2.437500
v 0.437500 1.000000 2.937500
v 0.437500 0.500000 2.437500
v 0.437500 0.500000 2.937500
v 0.093750 1.250000 2.781250
v 0.093750 1.250000 2.593750
v 0.093750 1.062500 2.781250
v 0.093750 1.062500 2.593750
v -0.093750 1.250000 2.593750
v -0.093750 1.250000 2.781250
v -0.093750 1.062500 2.593750
v -0.093750 1.062500 2.781250
v 0.312500 1.062500 -1.125000
v 0.312500 1.062500 -2.250000
v 0.312500 0.437500 -1.125000
v 0.312500 0.437500 -2.250000
v -0.312500 1.062500 -2.250000
v -0.312500 1.062500 -1.125000
v -0.312500 0.437500 -2.250000
v -0.312500 0.437500 -1.125000
v 0.437500 1.250000 -1.250000
v 0.437500 1.250000 -2.125000
v 0.437500 0.750000 -1.250000
v 0.437500 0.750000 -2.125000
v -0.437500 1.250000 -2.125000
v -0.437500 1.250000 -1.250000
v -0.437500 0.750000 -2.125000
v -0.437500 0.750000 -1.250000
v 0.756250 1.381250 -1.368750
v 0.756250 1.381250 -2.006250
v 0.756250 0.681250 -1.368750
v 0.756250 0.681250 -2.006250
v 0.431250 1.381250 -2.006250
v 0.431250 1.381250 -1.368750
v 0.431250 0.681250 -2.006250
v 0.431250 0.681250 -1.368750
v -0.431250 1.381250 -1.368750
v -0.431250 1.381250 -2.006250
v -0.431250 0.681250 -1.368750
v -0.431250 0.681250 -2.006250
v -0.756250 1.381250 -2.006250
v -0.756250 1.381250 -1.368750
v -0.756250 0.681250 -2.006250
v -0.756250 0.681250 -1.368750
v 0.445083 0.809359 -1.812500
v 0.445083 0.809359 -2.000000
v 0.533471 0.720971 -1.812500
v 0.533471 0.720971 -2.000000
v 0.224112 0.588388 -2.000000
v 0.224112 0.588388 -1.812500
v 0.312500 0.500000 -2.000000
v 0.312500 0.500000 -1.812500
v 0.445083 0.809359 -1.375000
v 0.445083 0.809359 -1.562500
v 0.533471 0.720971 -1.375000
v 0.533471 0.720971 -1.562500
v 0.224112 0.588388 -1.562500
v 0.224112 0.588388 -1.375000
v 0.312500 0.500000 -1.562500
v 0.312500 0.500000 -1.375000
v -0.224112 0.588388 -1.812500
v -0.224112 0.588388 -2.000000
v -0.312500 0.500000 -1.812500
v -0.312500 0.500000 -2.000000
v -0.445083 0.809359 -2.000000
v -0.445083 0.809359 -1.812500
v -0.533471 0.720971 -2.000000
v -0.533471 0.720971 -1.812500
v 0.312500 1.062500 0.562500
v 0.312500 1.062500 -0.562500
v 0.312500 0.437500 0.562500
v 0.312500 0.437500 -0.562500
v -0.312500 1.062500 -0.562500
v -0.312500 1.062500 0.562500
v -0.312500 0.437500 -0.562500
v -0.312500 0.437500 0.562500
v 0.437500 1.250000 0.437500
v 0.437500 1.250000 -0.437500
v 0.437500 0.750000 0.437500
v 0.437500 0.750000 -0.437500
v -0.437500 1.250000 -0.437500
v -0.437500 1.250000 0.437500
v -0.437500 0.750000 -0.437500
v -0.437500 0.750000 0.437500
v -0.431250 1.381250 0.318750
v -0.431250 1.381250 -0.318750
v -0.431250 0.681250 0.318750
v -0.431250 0.681250 -0.318750
v -0.756250 1.381250 -0.318750
v -0.756250 1.381250 0.318750
v -0.756250 0.681250 -0.318750
v -0.756250 0.681250 0.318750
v 0.756250 1.381250 0.318750
v 0.756250 1.381250 -0.318750
v 0.756250 0.681250 0.318750
v 0.756250 0.681250 -0.318750
v 0.431250 1.381250 -0.318750
v 0.431250 1.381250 0.318750
v 0.431250 0.681250 -0.318750
v 0.431250 0.681250 0.318750
v 0.445083 0.809359 0.312500
v 0.445083 0.809359 0.125000
v 0.533471 0.720971 0.312500
v 0.533471 0.720971 0.125000
v 0.224112 0.588388 0.125000
v 0.224112 0.588388 0.312500
v 0.312500 0.500000 0.125000
v 0.312500 0.500000 0.312500
v 0.445083 0.809359 -0.125000
v 0.445083 0.809359 -0.312500
v 0.533471 0.720971 -0.125000
v 0.533471 0.720971 -0.312500
v 0.224112 0.588388 -0.312500
v 0.224112 0.588388 -0.125000
v 0.312500 0.500000 -0.312500
v 0.312500 0.500000 -0.125000
v -0.224112 0.588388 -0.125000
v -0.224112 0.588388 -0.312500
v -0.312500 0.500000 -0.125000
v -0.312500 0.500000 -0.312500
v -0.445083 0.809359 -0.312500
v -0.445083 0.809359 -0.125000
v -0.533471 0.720971 -0.312500
v -0.533471 0.720971 -0.125000
v -0.224112 0.588388 0.312500
v -0.224112 0.588388 0.125000
v -0.312500 0.500000 0.312500
v -0.312500 0.500000 0.125000
v -0.445083 0.809359 0.125000
v -0.445083 0.809359 0.312500
v -0.533471 0.720971 0.125000
v -0.533471 0.720971 0.312500
v 0.312500 1.062500 2.250000
v 0.312500 1.062500 1.125000
v 0.312500 0.437500 2.250000
v 0.312500 0.437500 1.125000
v -0.312500 1.062500 1.125000
v -0.312500 1.062500 2.250000
v -0.312500 0.437500 1.125000
v -0.312500 0.437500 2.250000
v 0.437500 1.250000 2.125000
v 0.437500 1.250000 1.250000
v 0.437500 0.750000 2.125000
v 0.437500 0.750000 1.250000
v -0.437500 1.250000 1.250000
v -0.437500 1.250000 2.125000
v -0.437500 0.750000 1.250000
v -0.437500 0.750000 2.125000
v -0.431250 1.381250 2.006250
v -0.431250 1.381250 1.368750
v -0.431250 0.681250 2.006250
v -0.431250 0.681250 1.368750
v -0.756250 1.381250 1.368750
v -0.756250 1.381250 2.006250
v -0.756250 0.681250 1.368750
v -0.756250 0.681250 2.006250
v 0.756250 1.381250 2.006250
v 0.756250 1.381250 1.368750
v 0.756250 0.681250 2.006250
v 0.756250 0.681250 1.368750
v 0.431250 1.381250 1.368750
v 0.431250 1.381250 2.006250
v 0.431250 0.681250 1.368750
v 0.431250 0.681250 2.006250
v 0.445083 0.809359 2.000000
v 0.445083 0.809359 1.812500
v 0.533471 0.720971 2.000000
v 0.533471 0.720971 1.812500
v 0.224112 0.588388 1.812500
v 0.224112 0.588389 2.000000
v 0.312500 0.500000 1.812500
v 0.312500 0.500000 2.000000
v 0.445083 0.809359 1.562500
v 0.445083 0.809359 1.375000
v 0.533471 0.720971 1.562500
v 0.533471 0.720971 1.375000
v 0.224112 0.588388 1.375000
v 0.224112 0.588388 1.562500
v 0.312500 0.500000 1.375000
v 0.312500 0.500000 1.562500
v -0.224112 0.588388 1.562500
v -0.224112 0.588388 1.375000
v -0.312500 0.500000 1.562500
v -0.312500 0.500000 1.375000
v -0.445083 0.809359 1.375000
v -0.445083 0.809359 1.562500
v -0.533471 0.720971 1.375000
v -0.533471 0.720971 1.562500
vn -0.0000 -0.0000 -1.0000
vn 1.0000 -0.0000 -0.0000
vn -0.0000 -0.0000 1.0000
vn -1.0000 -0.0000 -0.0000
vn 0.7071 -0.7071 -0.0000
vn -0.7071 0.7071 -0.0000
vn 0.7071 0.7071 -0.0000
vn -0.7071 -0.7071 -0.0000
vn -0.0000 1.0000 -0.0000
vn -0.0000 -1.0000 -0.0000
vt 0.125000 0.333333
vt 0.291667 0.333333
vt 0.291667 0.416667
vt 0.125000 0.416667
vt 0.812500 0.531250
vt 0.812500 0.375000
vt 0.750000 0.375000
vt 0.750000 0.531250
vt 0.718750 0.625000
vt 0.687500 0.625000
vt 0.687500 0.687500
vt 0.718750 0.687500
vt 0.906250 0.531250
vt 0.906250 0.375000
vt 0.500000 0.000000
vt 0.656250 0.000000
vt 0.656250 0.250000
vt 0.500000 0.250000
vt 0.750000 0.250000
vt 0.500000 0.500000
vt 0.750000 0.500000
vt 0.812500 0.000000
vt 0.812500 0.250000
vt 0.593750 0.031250
vt 0.343750 0.031250
vt 0.343750 0.281250
vt 0.593750 0.281250
vt 0.937500 0.000000
vt 0.625000 0.000000
vt 0.625000 0.312500
vt 0.937500 0.312500
vt 0.312500 0.000000
vt 0.312500 0.312500
vt 0.625000 0.375000
vt 0.718750 0.375000
vt 0.718750 0.468750
vt 0.625000 0.468750
vt 0.812500 0.468750
vt 0.000000 0.625000
vt 0.187500 0.625000
vt 0.187500 0.812500
vt 0.000000 0.812500
vt 1.000000 0.687500
vt 1.000000 1.000000
vt 0.687500 1.000000
vt 0.312500 0.562500
vt 0.000000 0.562500
vt 0.000000 0.000000
vt 0.750000 0.312500
vt 0.750000 0.562500
vt 0.687500 0.562500
vt 0.437500 1.000000
vt 0.437500 0.562500
vt 0.000000 1.000000
vt 0.968750 0.656250
vt 0.812500 0.656250
vt 0.812500 1.000000
vt 0.968750 1.000000
vt 0.500000 0.656250
vt 0.500000 1.000000
vt 0.812500 0.500000
s 1
usemtl trailing_bogey_base
f 4/1/1 7/2/1 5/3/1 2/4/1
f 3/1/2 4/2/2 2/3/2 1/4/2
f 8/1/3 3/2/3 1/3/3 6/4/3
f 7/1/4 8/2/4 6/3/4 5/4/4
usemtl frame
f 12/5/1 15/6/1 13/7/1 10/8/1
f 11/9/5 12/10/5 10/11/5 9/12/5
f 16/5/3 11/6/3 9/7/3 14/8/3
f 15/9/6 16/10/6 14/11/6 13/12/6
f 14/13/7 9/14/7 10/6/7 13/5/7
f 15/13/8 12/14/8 11/6/8 16/5/8
f 20/5/1 23/6/1 21/7/1 18/8/1
f 19/9/5 20/10/5 18/11/5 17/12/5
f 24/5/3 19/6/3 17/7/3 22/8/3
f 23/9/6 24/10/6 22/11/6 21/12/6
f 22/13/7 17/14/7 18/6/7 21/5/7
f 23/13/8 20/14/8 19/6/8 24/5/8
f 31/24/4 32/25/4 30/26/4 29/27/4
f 36/28/1 39/29/1 37/30/1 34/31/1
f 35/32/2 36/29/2 34/30/2 33/33/2
f 40/32/3 35/29/3 33/30/3 38/33/3
f 39/32/4 40/29/4 38/30/4 37/33/4
f 38/30/9 33/31/9 34/28/9 37/29/9
f 39/30/10 36/31/10 35/28/10 40/29/10
f 51/25/2 52/24/2 50/27/2 49/26/2
f 59/25/2 60/24/2 58/27/2 57/26/2
f 68/29/1 71/32/1 69/33/1 66/30/1
f 67/32/2 68/29/2 66/30/2 65/33/2
f 72/29/3 67/28/3 65/31/3 70/30/3
f 71/32/4 72/29/4 70/30/4 69/33/4
f 70/30/9 65/31/9 66/28/9 69/29/9
f 71/30/10 68/31/10 67/28/10 72/29/10
f 79/24/4 80/25/4 78/26/4 77/27/4
f 92/11/1 95/43/1 93/44/1 90/45/1
f 91/32/2 92/46/2 90/47/2 89/48/2
f 96/11/3 91/43/3 89/44/3 94/45/3
f 95/32/4 96/46/4 94/47/4 93/48/4
f 94/48/9 89/32/9 90/46/9 93/47/9
f 95/48/10 92/32/10 91/46/10 96/47/10
f 100/33/1 103/49/1 101/50/1 98/46/1
f 99/51/2 100/45/2 98/52/2 97/53/2
f 104/33/3 99/49/3 97/50/3 102/46/3
f 103/51/4 104/45/4 102/52/4 101/53/4
f 102/53/9 97/47/9 98/54/9 101/52/9
f 103/53/10 100/47/10 99/54/10 104/52/10
f 124/6/1 127/5/1 125/8/1 122/7/1
f 123/10/7 124/9/7 122/12/7 121/11/7
f 128/6/3 123/5/3 121/8/3 126/7/3
f 127/10/8 128/9/8 126/12/8 125/11/8
f 126/14/6 121/13/6 122/5/6 125/6/6
f 127/14/5 124/13/5 123/5/5 128/6/5
f 132/6/1 135/5/1 133/8/1 130/7/1
f 131/10/7 132/9/7 130/12/7 129/11/7
f 136/6/3 131/5/3 129/8/3 134/7/3
f 135/10/8 136/9/8 134/12/8 133/11/8
f 134/14/6 129/13/6 130/5/6 133/6/6
f 135/14/5 132/13/5 131/5/5 136/6/5
f 140/5/1 143/6/1 141/7/1 138/8/1
f 139/9/5 140/10/5 138/11/5 137/12/5
f 144/5/3 139/6/3 137/7/3 142/8/3
f 143/9/6 144/10/6 142/11/6 141/12/6
f 142/13/7 137/14/7 138/6/7 141/5/7
f 143/13/8 140/14/8 139/6/8 144/5/8
f 148/11/1 151/43/1 149/44/1 146/45/1
f 147/32/2 148/46/2 146/47/2 145/48/2
f 152/11/3 147/43/3 145/44/3 150/45/3
f 151/32/4 152/46/4 150/47/4 149/48/4
f 150/48/9 145/32/9 146/46/9 149/47/9
f 151/48/10 148/32/10 147/46/10 152/47/10
f 156/33/1 159/49/1 157/50/1 154/46/1
f 155/51/2 156/45/2 154/52/2 153/53/2
f 160/33/3 155/49/3 153/50/3 158/46/3
f 159/51/4 160/45/4 158/52/4 157/53/4
f 158/53/9 153/47/9 154/54/9 157/52/9
f 159/53/10 156/47/10 155/54/10 160/52/10
f 180/6/1 183/5/1 181/8/1 178/7/1
f 179/10/7 180/9/7 178/12/7 177/11/7
f 184/6/3 179/5/3 177/8/3 182/7/3
f 183/10/8 184/9/8 182/12/8 181/11/8
f 182/14/6 177/13/6 178/5/6 181/6/6
f 183/14/5 180/13/5 179/5/5 184/6/5
f 188/6/1 191/5/1 189/8/1 186/7/1
f 187/10/7 188/9/7 186/12/7 185/11/7
f 192/6/3 187/5/3 185/8/3 190/7/3
f 191/10/8 192/9/8 190/12/8 189/11/8
f 190/14/6 185/13/6 186/5/6 189/6/6
f 191/14/5 188/13/5 187/5/5 192/6/5
f 196/5/1 199/6/1 197/7/1 194/8/1
f 195/9/5 196/10/5 194/11/5 193/12/5
f 200/5/3 195/6/3 193/7/3 198/8/3
f 199/9/6 200/10/6 198/11/6 197/12/6
f 198/13/7 193/14/7 194/6/7 197/5/7
f 199/13/8 196/14/8 195/6/8 200/5/8
f 204/5/1 207/6/1 205/7/1 202/8/1
f 203/9/5 204/10/5 202/11/5 201/12/5
f 208/5/3 203/6/3 201/7/3 206/8/3
f 207/9/6 208/10/6 206/11/6 205/12/6
f 206/13/7 201/14/7 202/6/7 205/5/7
f 207/13/8 204/14/8 203/6/8 208/5/8
f 212/11/1 215/43/1 213/44/1 210/45/1
f 211/32/2 212/46/2 210/47/2 209/48/2
f 216/11/3 211/43/3 209/44/3 214/45/3
f 215/32/4 216/46/4 214/47/4 213/48/4
f 214/48/9 209/32/9 210/46/9 213/47/9
f 215/48/10 212/32/10 211/46/10 216/47/10
f 220/33/1 223/49/1 221/50/1 218/46/1
f 219/51/2 220/45/2 218/52/2 217/53/2
f 224/33/3 219/49/3 217/50/3 222/46/3
f 223/51/4 224/45/4 222/52/4 221/53/4
f 222/53/9 217/47/9 218/54/9 221/52/9
f 223/53/10 220/47/10 219/54/10 224/52/10
f 244/6/1 247/5/1 245/8/1 242/7/1
f 243/10/7 244/9/7 242/12/7 241/11/7
f 248/6/3 243/5/3 241/8/3 246/7/3
f 247/10/8 248/9/8 246/12/8 245/11/8
f 246/14/6 241/13/6 242/5/6 245/6/6
f 247/14/5 244/13/5 243/5/5 248/6/5
f 252/6/1 255/5/1 253/8/1 250/7/1
f 251/10/7 252/9/7 250/12/7 249/11/7
f 256/6/3 251/5/3 249/8/3 254/7/3
f 255/10/8 256/9/8 254/12/8 253/11/8
f 254/14/6 249/13/6 250/5/6 253/6/6
f 255/14/5 252/13/5 251/5/5 256/6/5
f 260/5/1 263/6/1 261/7/1 258/8/1
f 259/9/5 260/10/5 258/11/5 257/12/5
f 264/5/3 259/6/3 257/7/3 262/8/3
f 263/9/6 264/10/6 262/11/6 261/12/6
f 262/13/7 257/14/7 258/6/7 261/5/7
f 263/13/8 260/14/8 259/6/8 264/5/8
usemtl piston
f 28/15/1 31/16/1 29/17/1 26/18/1
f 27/19/2 28/18/2 26/20/2 25/21/2
f 32/22/3 27/16/3 25/17/3 30/23/3
f 30/23/9 25/17/9 26/16/9 29/22/9
f 31/16/10 28/15/10 27/18/10 32/17/10
f 52/16/1 55/15/1 53/18/1 50/17/1
f 56/16/3 51/22/3 49/23/3 54/17/3
f 55/18/4 56/19/4 54/21/4 53/20/4
f 54/17/9 49/23/9 50/22/9 53/16/9
f 55/15/10 52/16/10 51/17/10 56/18/10
f 60/22/1 63/16/1 61/17/1 58/23/1
f 64/15/3 59/16/3 57/17/3 62/18/3
f 63/18/4 64/19/4 62/21/4 61/20/4
f 62/16/9 57/22/9 58/23/9 61/17/9
f 63/15/10 60/16/10 59/17/10 64/18/10
f 76/16/1 79/22/1 77/23/1 74/17/1
f 75/19/2 76/18/2 74/20/2 73/21/2
f 80/16/3 75/15/3 73/18/3 78/17/3
f 78/22/9 73/16/9 74/17/9 77/23/9
f 79/16/10 76/15/10 75/18/10 80/17/10
f 108/55/1 111/56/1 109/57/1 106/58/1
f 107/56/2 108/59/2 106/60/2 105/57/2
f 112/55/3 107/56/3 105/57/3 110/58/3
f 111/56/4 112/59/4 110/60/4 109/57/4
f 110/56/9 105/61/9 106/20/9 109/59/9
f 111/56/10 108/61/10 107/20/10 112/59/10
f 116/56/1 119/55/1 117/58/1 114/57/1
f 115/59/2 116/56/2 114/57/2 113/60/2
f 120/56/3 115/55/3 113/58/3 118/57/3
f 119/59/4 120/56/4 118/57/4 117/60/4
f 118/61/9 113/56/9 114/59/9 117/20/9
f 119/61/10 116/56/10 115/59/10 120/20/10
f 164/56/1 167/55/1 165/58/1 162/57/1
f 163/59/2 164/56/2 162/57/2 161/60/2
f 168/56/3 163/55/3 161/58/3 166/57/3
f 167/59/4 168/56/4 166/57/4 165/60/4
f 166/61/9 161/56/9 162/59/9 165/20/9
f 167/61/10 164/56/10 163/59/10 168/20/10
f 172/55/1 175/56/1 173/57/1 170/58/1
f 171/56/2 172/59/2 170/60/2 169/57/2
f 176/55/3 171/56/3 169/57/3 174/58/3
f 175/56/4 176/59/4 174/60/4 173/57/4
f 174/56/9 169/61/9 170/20/9 173/59/9
f 175/56/10 172/61/10 171/20/10 176/59/10
f 228/56/1 231/55/1 229/58/1 226/57/1
f 227/59/2 228/56/2 226/57/2 225/60/2
f 232/56/3 227/55/3 225/58/3 230/57/3
f 231/59/4 232/56/4 230/57/4 229/60/4
f 230/61/9 225/56/9 226/59/9 229/20/9
f 231/61/10 228/56/10 227/59/10 232/20/10
f 236/55/1 239/56/1 237/57/1 234/58/1
f 235/56/2 236/59/2 234/60/2 233/57/2
f 240/55/3 235/56/3 233/57/3 238/58/3
f 239/56/4 240/59/4 238/60/4 237/57/4
f 238/56/9 233/61/9 234/20/9 237/59/9
f 239/56/10 236/61/10 235/20/10 240/59/10
usemtl wheels
f 44/34/1 47/35/1 45/36/1 42/37/1
f 43/34/2 44/35/2 42/36/2 41/37/2
f 48/34/3 43/35/3 41/36/3 46/37/3
f 47/34/4 48/35/4 46/36/4 45/37/4
f 46/35/9 41/6/9 42/38/9 45/36/9
f 84/34/1 87/35/1 85/36/1 82/37/1
f 83/34/2 84/35/2 82/36/2 81/37/2
f 88/34/3 83/35/3 81/36/3 86/37/3
f 87/34/4 88/35/4 86/36/4 85/37/4
f 86/35/9 81/6/9 82/38/9 85/36/9
usemtl none
f 47/39/10 44/40/10 43/41/10 48/42/10
f 87/39/10 84/40/10 83/41/10 88/42/10
