# Made in Blockbench 4.12.5
mtllib textures.mtl

o cube
v -1.1875 0.125 1.6875
v -1.1875 0.125 0.125
v -1.1875 -0.125 1.6875
v -1.1875 -0.125 0.125
v -1.3125 0.125 1.6875
v -1.3125 0.125 0.125
v -1.3125 -0.125 1.6875
v -1.3125 -0.125 0.125
v -1.1875 0.125 3.375
v -1.1875 0.125 1.6875
v -1.1875 -0.125 3.375
v -1.1875 -0.125 1.6875
v -1.3125 0.125 3.375
v -1.3125 0.125 1.6875
v -1.3125 -0.125 3.375
v -1.3125 -0.125 1.6875
v -1.3125 -0.1875 3.375
v -1.1875 0.1875 3.75
v -1.1875 0.1875 3.375
v -1.1875 -0.1875 3.75
v -1.1875 -0.1875 3.375
v -1.3125 0.1875 3.75
v -1.3125 0.1875 3.375
v -1.3125 -0.1875 3.75
vt 1 0.6964285714285714
vt 1 0.7321428571428572
vt 0.7767857142857143 0.7321428571428572
vt 0.7767857142857143 0.6964285714285714
vt 0.7767857142857143 0.7321428571428572
vt 0.7767857142857143 0.7678571428571428
vt 1 0.7678571428571428
vt 1 0.7321428571428572
vt 0.7767857142857143 0.75
vt 1 0.75
vt 1 0.7678571428571428
vt 0.7767857142857143 0.7678571428571428
vt 1 0.75
vt 0.7767857142857143 0.75
vt 0.7767857142857143 0.7321428571428572
vt 1 0.7321428571428572
vt 0.6785714285714286 0.6964285714285714
vt 0.6785714285714286 0.7321428571428572
vt 0.4375 0.7321428571428572
vt 0.4375 0.6964285714285714
vt 0.4375 0.7321428571428572
vt 0.4375 0.7678571428571428
vt 0.6785714285714286 0.7678571428571428
vt 0.6785714285714286 0.7321428571428572
vt 0.4375 0.75
vt 0.6785714285714286 0.75
vt 0.6785714285714286 0.7678571428571428
vt 0.4375 0.7678571428571428
vt 0.6785714285714286 0.75
vt 0.4375 0.75
vt 0.4375 0.7321428571428572
vt 0.6785714285714286 0.7321428571428572
vt 0.8392857142857143 0.008928571428571397
vt 0.8392857142857143 0.0625
vt 0.7857142857142857 0.0625
vt 0.7857142857142857 0.008928571428571397
vt 0.8392857142857143 0.0625
vt 0.7857142857142857 0.0625
vt 0.7857142857142857 0.008928571428571397
vt 0.8392857142857143 0.008928571428571397
vt 0.8571428571428571 0.008928571428571397
vt 0.8571428571428571 0.0625
vt 0.8392857142857143 0.0625
vt 0.8392857142857143 0.008928571428571397
vt 0.8571428571428571 0.008928571428571397
vt 0.8571428571428571 0.0625
vt 0.8392857142857143 0.0625
vt 0.8392857142857143 0.008928571428571397
vt 0.8571428571428571 0.008928571428571397
vt 0.8571428571428571 0.0625
vt 0.8392857142857143 0.0625
vt 0.8392857142857143 0.008928571428571397
vt 0.8392857142857143 0.0625
vt 0.8392857142857143 0.008928571428571397
vt 0.8571428571428571 0.008928571428571397
vt 0.8571428571428571 0.0625
vn 1 0 0
vn -1 0 0
vn 0 1 0
vn 0 -1 0
vn 1 0 0
vn -1 0 0
vn 0 1 0
vn 0 -1 0
vn 1 0 0
vn -1 0 0
vn 0 1 0
vn 0 -1 0
vn 0 0 1
vn 0 0 -1
usemtl xl_textures
f 4/1/1 2/2/1 1/3/1 3/4/1
f 7/5/2 5/6/2 6/7/2 8/8/2
f 1/9/3 2/10/3 6/11/3 5/12/3
f 4/13/4 3/14/4 7/15/4 8/16/4
f 12/17/5 10/18/5 9/19/5 11/20/5
f 15/21/6 13/22/6 14/23/6 16/24/6
f 9/25/7 10/26/7 14/27/7 13/28/7
f 12/29/8 11/30/8 15/31/8 16/32/8
f 21/33/9 19/34/9 18/35/9 20/36/9
f 24/37/10 22/38/10 23/39/10 17/40/10
f 18/41/11 19/42/11 23/43/11 22/44/11
f 21/45/12 20/46/12 24/47/12 17/48/12
f 20/49/13 18/50/13 22/51/13 24/52/13
f 17/53/14 23/54/14 19/55/14 21/56/14