# Made in Blockbench 4.12.5
mtllib textures.mtl

o cube
v 1.1875 0.1875 0.1875
v 1.1875 0.1875 -0.1875
v 1.1875 -0.1875 0.1875
v 1.1875 -0.1875 -0.1875
v 1.0625 0.1875 -0.1875
v 1.0625 0.1875 0.1875
v 1.0625 -0.1875 -0.1875
v 1.0625 -0.1875 0.1875
vt 0.8392857142857143 0.0625
vt 0.8571428571428571 0.0625
vt 0.8571428571428571 0.008928571428571397
vt 0.8392857142857143 0.008928571428571397
vt 0.7857142857142857 0.0625
vt 0.8392857142857143 0.0625
vt 0.8392857142857143 0.008928571428571397
vt 0.7857142857142857 0.008928571428571397
vt 0.8571428571428571 0.008928571428571397
vt 0.8392857142857143 0.008928571428571397
vt 0.8392857142857143 0.0625
vt 0.8571428571428571 0.0625
vt 0.8571428571428571 0.008928571428571397
vt 0.8392857142857143 0.008928571428571397
vt 0.8392857142857143 0.0625
vt 0.8571428571428571 0.0625
vt 0.8571428571428571 0.008928571428571397
vt 0.8392857142857143 0.008928571428571397
vt 0.8392857142857143 0.0625
vt 0.8571428571428571 0.0625
vn 0 0 -1
vn 1 0 0
vn 0 0 1
vn 0 1 0
vn 0 -1 0
usemtl xl_textures
f 4/4/1 7/3/1 5/2/1 2/1/1
f 3/8/2 4/7/2 2/6/2 1/5/2
f 8/12/3 3/11/3 1/10/3 6/9/3
f 6/16/4 1/15/4 2/14/4 5/13/4
f 7/20/5 4/19/5 3/18/5 8/17/5