# Made in Blockbench 4.12.5
mtllib textures.mtl

o cube
v -1.1875 1.875 0.0625
v -1.1875 1.875 -0.75
v -1.1875 1.75 0.0625
v -1.1875 1.75 -0.75
v -1.3125 1.875 -0.75
v -1.3125 1.875 0.0625
v -1.3125 1.75 -0.75
v -1.3125 1.75 0.0625
vt 0.11607142857142858 0.4732142857142857
vt 0 0.4732142857142857
vt 0 0.4910714285714286
vt 0.11607142857142858 0.4910714285714286
vt 0.07142857142857142 0.3928571428571429
vt 0.05357142857142857 0.3928571428571429
vt 0.05357142857142857 0.375
vt 0.07142857142857142 0.375
vt 0 0.4910714285714286
vt 0.11607142857142858 0.4910714285714286
vt 0.11607142857142858 0.4732142857142857
vt 0 0.4732142857142857
vt 0 0.4910714285714286
vt 0 0.4732142857142857
vt 0.11607142857142858 0.4732142857142857
vt 0.11607142857142858 0.4910714285714286
vt 0.11607142857142858 0.4732142857142857
vt 0.11607142857142858 0.4910714285714286
vt 0 0.4910714285714286
vt 0 0.4732142857142857
vn 1 0 0
vn 0 0 1
vn -1 0 0
vn 0 1 0
vn 0 -1 0
usemtl xl_textures
f 3/4/1 4/3/1 2/2/1 1/1/1
f 8/8/2 3/7/2 1/6/2 6/5/2
f 7/12/3 8/11/3 6/10/3 5/9/3
f 6/16/4 1/15/4 2/14/4 5/13/4
f 7/20/5 4/19/5 3/18/5 8/17/5