# Made in Blockbench 4.12.5
mtllib textures.mtl

o cube
v -1.3125 -0.375 0.0625
v -1.3125 -0.375 -0.0625
v -1.3125 -0.75 0.0625
v -1.3125 -0.75 -0.0625
v -1.375 -0.375 0.0625
v -1.375 -0.375 -0.0625
v -1.375 -0.75 0.0625
v -1.375 -0.75 -0.0625
v -1.3125 0.3125 0.125
v -1.3125 0.3125 -0.125
v -1.3125 -0.375 0.125
v -1.3125 -0.375 -0.125
v -1.5 0.3125 0.125
v -1.5 0.3125 -0.125
v -1.5 -0.375 0.125
v -1.5 -0.375 -0.125
vt 0.25 0.46875
vt 0.25 0.65625
vt 0.1875 0.65625
vt 0.1875 0.46875
vt 0.1875 0.46875
vt 0.1875 0.65625
vt 0.25 0.65625
vt 0.25 0.46875
vt 0.21875 0.5
vt 0.21875 0.5625
vt 0.25 0.5625
vt 0.25 0.5
vt 0.21875 0.46875
vt 0.21875 0.65625
vt 0.1875 0.65625
vt 0.1875 0.46875
vt 0.25 0.46875
vt 0.25 0.65625
vt 0.21875 0.65625
vt 0.21875 0.46875
vt 0 0.65625
vt 0 1
vt 0.125 1
vt 0.125 0.65625
vt 0.34375 0.53125
vt 0.34375 0.875
vt 0.46875 0.875
vt 0.46875 0.53125
vt 0.34375 1
vt 0.34375 0.875
vt 0.4375 0.875
vt 0.4375 1
vt 0.09375 0.53125
vt 0.09375 0.65625
vt 0.1875 0.65625
vt 0.1875 0.53125
vt 1 0.0625
vt 1 0.40625
vt 0.90625 0.40625
vt 0.90625 0.0625
vt 1 0.0625
vt 1 0.40625
vt 0.90625 0.40625
vt 0.90625 0.0625
vn 1 0 0
vn -1 0 0
vn 0 -1 0
vn 0 0 1
vn 0 0 -1
vn 1 0 0
vn -1 0 0
vn 0 1 0
vn 0 -1 0
vn 0 0 1
vn 0 0 -1
usemtl extras
f 4/1/1 2/2/1 1/3/1 3/4/1
f 7/5/2 5/6/2 6/7/2 8/8/2
f 4/9/3 3/10/3 7/11/3 8/12/3
f 3/13/4 1/14/4 5/15/4 7/16/4
f 8/17/5 6/18/5 2/19/5 4/20/5
f 12/21/6 10/22/6 9/23/6 11/24/6
f 15/25/7 13/26/7 14/27/7 16/28/7
f 9/29/8 10/30/8 14/31/8 13/32/8
f 12/33/9 11/34/9 15/35/9 16/36/9
f 11/37/10 9/38/10 13/39/10 15/40/10
f 16/41/11 14/42/11 10/43/11 12/44/11