# Made in Blockbench 4.12.5
mtllib pins_right.mtl

o cube
v 1.0625 0.125 -4.25
v 1.0625 0.125 -4.5
v 1.0625 -0.125 -4.25
v 1.0625 -0.125 -4.5
v 1.3125 0.125 -4.25
v 1.3125 0.125 -4.5
v 1.3125 -0.125 -4.25
v 1.3125 -0.125 -4.5
v 1.0625 0.125 -2.5
v 1.0625 0.125 -2.75
v 1.0625 -0.125 -2.5
v 1.0625 -0.125 -2.75
v 1.3125 0.125 -2.5
v 1.3125 0.125 -2.75
v 1.3125 -0.125 -2.5
v 1.3125 -0.125 -2.75
v 1.0625 0.125 -0.75
v 1.0625 0.125 -1
v 1.0625 -0.125 -0.75
v 1.0625 -0.125 -1
v 1.3125 0.125 -0.75
v 1.3125 0.125 -1
v 1.3125 -0.125 -0.75
v 1.3125 -0.125 -1
v 1.0625 0.125 1
v 1.0625 0.125 0.75
v 1.0625 -0.125 1
v 1.0625 -0.125 0.75
v 1.3125 0.125 1
v 1.3125 0.125 0.75
v 1.3125 -0.125 1
v 1.3125 -0.125 0.75
v 1.0625 0.125 2.75
v 1.0625 0.125 2.5
v 1.0625 -0.125 2.75
v 1.0625 -0.125 2.5
v 1.3125 0.125 2.75
v 1.3125 0.125 2.5
v 1.3125 -0.125 2.75
v 1.3125 -0.125 2.5
v 1.3125 0.125 4.5
v 1.3125 0.125 4.25
v 1.3125 -0.125 4.5
v 1.3125 -0.125 4.25
v 1.0625 0.125 4.25
v 1.0625 0.125 4.5
v 1.0625 -0.125 4.25
v 1.0625 -0.125 4.5
vt 0.0625 0.125
vt 0.09375 0.125
vt 0.09375 0
vt 0.0625 0
vt 0.25 0.625
vt 0.375 0.625
vt 0.375 0.5
vt 0.25 0.5
vt 0.375 0.625
vt 0.5 0.625
vt 0.5 0.5
vt 0.375 0.5
vt 0.375 0.625
vt 0.5 0.625
vt 0.5 0.5
vt 0.375 0.5
vt 0.375 0.625
vt 0.5 0.625
vt 0.5 0.5
vt 0.375 0.5
vt 0.5 0.625
vt 0.375 0.625
vt 0.375 0.5
vt 0.5 0.5
vt 0.0625 0.125
vt 0.09375 0.125
vt 0.09375 0
vt 0.0625 0
vt 0.25 0.625
vt 0.375 0.625
vt 0.375 0.5
vt 0.25 0.5
vt 0.375 0.625
vt 0.5 0.625
vt 0.5 0.5
vt 0.375 0.5
vt 0.375 0.625
vt 0.5 0.625
vt 0.5 0.5
vt 0.375 0.5
vt 0.375 0.625
vt 0.5 0.625
vt 0.5 0.5
vt 0.375 0.5
vt 0.5 0.625
vt 0.375 0.625
vt 0.375 0.5
vt 0.5 0.5
vt 0.0625 0.125
vt 0.09375 0.125
vt 0.09375 0
vt 0.0625 0
vt 0.25 0.625
vt 0.375 0.625
vt 0.375 0.5
vt 0.25 0.5
vt 0.375 0.625
vt 0.5 0.625
vt 0.5 0.5
vt 0.375 0.5
vt 0.375 0.625
vt 0.5 0.625
vt 0.5 0.5
vt 0.375 0.5
vt 0.375 0.625
vt 0.5 0.625
vt 0.5 0.5
vt 0.375 0.5
vt 0.5 0.625
vt 0.375 0.625
vt 0.375 0.5
vt 0.5 0.5
vt 0.0625 0.125
vt 0.09375 0.125
vt 0.09375 0
vt 0.0625 0
vt 0.25 0.625
vt 0.375 0.625
vt 0.375 0.5
vt 0.25 0.5
vt 0.375 0.625
vt 0.5 0.625
vt 0.5 0.5
vt 0.375 0.5
vt 0.375 0.625
vt 0.5 0.625
vt 0.5 0.5
vt 0.375 0.5
vt 0.375 0.625
vt 0.5 0.625
vt 0.5 0.5
vt 0.375 0.5
vt 0.5 0.625
vt 0.375 0.625
vt 0.375 0.5
vt 0.5 0.5
vt 0.0625 0.125
vt 0.09375 0.125
vt 0.09375 0
vt 0.0625 0
vt 0.25 0.625
vt 0.375 0.625
vt 0.375 0.5
vt 0.25 0.5
vt 0.375 0.625
vt 0.5 0.625
vt 0.5 0.5
vt 0.375 0.5
vt 0.375 0.625
vt 0.5 0.625
vt 0.5 0.5
vt 0.375 0.5
vt 0.375 0.625
vt 0.5 0.625
vt 0.5 0.5
vt 0.375 0.5
vt 0.5 0.625
vt 0.375 0.625
vt 0.375 0.5
vt 0.5 0.5
vt 0.0625 0.125
vt 0.09375 0.125
vt 0.09375 0
vt 0.0625 0
vt 0.25 0.625
vt 0.375 0.625
vt 0.375 0.5
vt 0.25 0.5
vt 0.375 0.625
vt 0.5 0.625
vt 0.5 0.5
vt 0.375 0.5
vt 0.375 0.625
vt 0.5 0.625
vt 0.5 0.5
vt 0.375 0.5
vt 0.375 0.625
vt 0.5 0.625
vt 0.5 0.5
vt 0.375 0.5
vt 0.5 0.625
vt 0.375 0.625
vt 0.375 0.5
vt 0.5 0.5
vn -1 0 0
vn 1 0 0
vn 0 1 0
vn 0 -1 0
vn 0 0 1
vn 0 0 -1
vn -1 0 0
vn 1 0 0
vn 0 1 0
vn 0 -1 0
vn 0 0 1
vn 0 0 -1
vn -1 0 0
vn 1 0 0
vn 0 1 0
vn 0 -1 0
vn 0 0 1
vn 0 0 -1
vn -1 0 0
vn 1 0 0
vn 0 1 0
vn 0 -1 0
vn 0 0 1
vn 0 0 -1
vn -1 0 0
vn 1 0 0
vn 0 1 0
vn 0 -1 0
vn 0 0 1
vn 0 0 -1
vn -1 0 0
vn 1 0 0
vn 0 1 0
vn 0 -1 0
vn 0 0 1
vn 0 0 -1
usemtl piston
f 1/1/1 2/2/1 4/3/1 3/4/1
f 6/5/2 5/6/2 7/7/2 8/8/2
f 6/9/3 2/10/3 1/11/3 5/12/3
f 7/13/4 3/14/4 4/15/4 8/16/4
f 5/17/5 1/18/5 3/19/5 7/20/5
f 2/21/6 6/22/6 8/23/6 4/24/6
f 9/25/7 10/26/7 12/27/7 11/28/7
f 14/29/8 13/30/8 15/31/8 16/32/8
f 14/33/9 10/34/9 9/35/9 13/36/9
f 15/37/10 11/38/10 12/39/10 16/40/10
f 13/41/11 9/42/11 11/43/11 15/44/11
f 10/45/12 14/46/12 16/47/12 12/48/12
f 17/49/13 18/50/13 20/51/13 19/52/13
f 22/53/14 21/54/14 23/55/14 24/56/14
f 22/57/15 18/58/15 17/59/15 21/60/15
f 23/61/16 19/62/16 20/63/16 24/64/16
f 21/65/17 17/66/17 19/67/17 23/68/17
f 18/69/18 22/70/18 24/71/18 20/72/18
f 25/73/19 26/74/19 28/75/19 27/76/19
f 30/77/20 29/78/20 31/79/20 32/80/20
f 30/81/21 26/82/21 25/83/21 29/84/21
f 31/85/22 27/86/22 28/87/22 32/88/22
f 29/89/23 25/90/23 27/91/23 31/92/23
f 26/93/24 30/94/24 32/95/24 28/96/24
f 33/97/25 34/98/25 36/99/25 35/100/25
f 38/101/26 37/102/26 39/103/26 40/104/26
f 38/105/27 34/106/27 33/107/27 37/108/27
f 39/109/28 35/110/28 36/111/28 40/112/28
f 37/113/29 33/114/29 35/115/29 39/116/29
f 34/117/30 38/118/30 40/119/30 36/120/30
f 46/121/31 45/122/31 47/123/31 48/124/31
f 42/125/32 41/126/32 43/127/32 44/128/32
f 42/129/33 45/130/33 46/131/33 41/132/33
f 43/133/34 48/134/34 47/135/34 44/136/34
f 41/137/35 46/138/35 48/139/35 43/140/35
f 45/141/36 42/142/36 44/143/36 47/144/36