# Made in Blockbench 4.12.5
mtllib textures.mtl

o cube
v 1.1875 0.1875 2.6875
v 1.1875 0.1875 2.3125
v 1.1875 -0.1875 2.6875
v 1.1875 -0.1875 2.3125
v 1.3125 0.1875 2.6875
v 1.3125 0.1875 2.3125
v 1.3125 -0.1875 2.6875
v 1.3125 -0.1875 2.3125
v 1.1875 0.125 2.3125
v 1.1875 0.125 0.125
v 1.1875 -0.125 2.3125
v 1.1875 -0.125 0.125
v 1.3125 0.125 2.3125
v 1.3125 0.125 0.125
v 1.3125 -0.125 2.3125
v 1.3125 -0.125 0.125
vt 0.7857142857142857 0.0625
vt 0.7857142857142857 0.008928571428571397
vt 0.8392857142857143 0.008928571428571397
vt 0.8392857142857143 0.0625
vt 0.8392857142857143 0.0625
vt 0.7857142857142857 0.0625
vt 0.7857142857142857 0.008928571428571397
vt 0.8392857142857143 0.008928571428571397
vt 0.8392857142857143 0.008928571428571397
vt 0.8571428571428571 0.008928571428571397
vt 0.8571428571428571 0.0625
vt 0.8392857142857143 0.0625
vt 0.8392857142857143 0.008928571428571397
vt 0.8571428571428571 0.008928571428571397
vt 0.8571428571428571 0.0625
vt 0.8392857142857143 0.0625
vt 0.8392857142857143 0.008928571428571397
vt 0.8571428571428571 0.008928571428571397
vt 0.8571428571428571 0.0625
vt 0.8392857142857143 0.0625
vt 0.8571428571428571 0.0625
vt 0.8392857142857143 0.0625
vt 0.8392857142857143 0.008928571428571397
vt 0.8571428571428571 0.008928571428571397
vt 1 0.6517857142857143
vt 0.6875 0.6517857142857143
vt 0.6875 0.6160714285714286
vt 1 0.6160714285714286
vt 0.6875 0.6875
vt 1 0.6875
vt 1 0.6517857142857143
vt 0.6875 0.6517857142857143
vt 0.6875 0.6875
vt 0.6875 0.6696428571428572
vt 1 0.6696428571428572
vt 1 0.6875
vt 1 0.6517857142857143
vt 1 0.6696428571428572
vt 0.6875 0.6696428571428572
vt 0.6875 0.6517857142857143
vn -1 0 0
vn 1 0 0
vn 0 1 0
vn 0 -1 0
vn 0 0 1
vn 0 0 -1
vn -1 0 0
vn 1 0 0
vn 0 1 0
vn 0 -1 0
usemtl xl_textures
f 1/1/1 2/2/1 4/3/1 3/4/1
f 6/5/2 5/6/2 7/7/2 8/8/2
f 6/9/3 2/10/3 1/11/3 5/12/3
f 7/13/4 3/14/4 4/15/4 8/16/4
f 5/17/5 1/18/5 3/19/5 7/20/5
f 2/21/6 6/22/6 8/23/6 4/24/6
f 9/25/7 10/26/7 12/27/7 11/28/7
f 14/29/8 13/30/8 15/31/8 16/32/8
f 14/33/9 10/34/9 9/35/9 13/36/9
f 15/37/10 11/38/10 12/39/10 16/40/10