# Made in Blockbench 4.12.5
mtllib textures.mtl

o cube
v 1.4375 0.0625 -0.6875
v 1.4375 0.0625 -1.4375
v 1.4375 -0.0625 -0.6875
v 1.4375 -0.0625 -1.4375
v 1.375 0.0625 -0.6875
v 1.375 0.0625 -1.4375
v 1.375 -0.0625 -0.6875
v 1.375 -0.0625 -1.4375
v 1.4375 0.0625 0.18749999999999994
v 1.4375 0.0625 -0.6875
v 1.4375 -0.0625 0.18749999999999994
v 1.4375 -0.0625 -0.6875
v 1.375 0.0625 0.18749999999999994
v 1.375 0.0625 -0.6875
v 1.375 -0.0625 0.18749999999999994
v 1.375 -0.0625 -0.6875
vt 0 0.7678571428571428
vt 0 0.7857142857142857
vt 0.11607142857142858 0.7857142857142857
vt 0.11607142857142858 0.7678571428571428
vt 0.11607142857142858 0.7678571428571428
vt 0.11607142857142858 0.7857142857142857
vt 0 0.7857142857142857
vt 0 0.7678571428571428
vt 0.11607142857142858 0.7767857142857143
vt 0 0.7767857142857143
vt 0 0.7857142857142857
vt 0.11607142857142858 0.7857142857142857
vt 0 0.7678571428571428
vt 0.11607142857142858 0.7678571428571428
vt 0.11607142857142858 0.7767857142857143
vt 0 0.7767857142857143
vt 0 0.7946428571428572
vt 0 0.8125
vt 0.008928571428571428 0.8125
vt 0.008928571428571428 0.7946428571428572
vt 0.15178571428571427 0.7678571428571428
vt 0.15178571428571427 0.7857142857142857
vt 0.2767857142857143 0.7857142857142857
vt 0.2767857142857143 0.7678571428571428
vt 0.2767857142857143 0.7678571428571428
vt 0.2767857142857143 0.7857142857142857
vt 0.15178571428571427 0.7857142857142857
vt 0.15178571428571427 0.7678571428571428
vt 0.2767857142857143 0.7767857142857143
vt 0.15178571428571427 0.7767857142857143
vt 0.15178571428571427 0.7857142857142857
vt 0.2767857142857143 0.7857142857142857
vt 0.15178571428571427 0.7678571428571428
vt 0.2767857142857143 0.7678571428571428
vt 0.2767857142857143 0.7767857142857143
vt 0.15178571428571427 0.7767857142857143
vt 0.26785714285714285 0.7678571428571428
vt 0.26785714285714285 0.7857142857142857
vt 0.2767857142857143 0.7857142857142857
vt 0.2767857142857143 0.7678571428571428
vn 1 0 0
vn -1 0 0
vn 0 1 0
vn 0 -1 0
vn 0 0 -1
vn 1 0 0
vn -1 0 0
vn 0 1 0
vn 0 -1 0
vn 0 0 1
usemtl xl_textures
f 4/1/1 2/2/1 1/3/1 3/4/1
f 7/5/2 5/6/2 6/7/2 8/8/2
f 1/9/3 2/10/3 6/11/3 5/12/3
f 4/13/4 3/14/4 7/15/4 8/16/4
f 8/17/5 6/18/5 2/19/5 4/20/5
f 12/21/6 10/22/6 9/23/6 11/24/6
f 15/25/7 13/26/7 14/27/7 16/28/7
f 9/29/8 10/30/8 14/31/8 13/32/8
f 12/33/9 11/34/9 15/35/9 16/36/9
f 11/37/10 9/38/10 13/39/10 15/40/10