# Blender 4.4.3
# www.blender.org
mtllib textures.mtl

o cube.016
v 0.250000 1.500000 0.250000
v 0.250000 1.500000 -0.250000
v 0.250000 1.250000 0.250000
v 0.250000 1.250000 -0.250000
v -0.250000 1.500000 -0.250000
v -0.250000 1.500000 0.250000
v -0.250000 1.250000 -0.250000
v -0.250000 1.250000 0.250000
v 0.750000 1.000000 -0.750000
v 0.750000 1.000000 -1.250000
v 0.750000 0.500000 -0.750000
v 0.750000 0.500000 -1.250000
v 0.437500 1.000000 -1.250000
v 0.437500 1.000000 -0.750000
v 0.437500 0.500000 -1.250000
v 0.437500 0.500000 -0.750000
v 0.312500 1.062500 -0.687500
v 0.312500 1.062500 -1.312500
v 0.312500 0.437500 -0.687500
v 0.312500 0.437500 -1.312500
v -0.312500 1.062500 -1.312500
v -0.312500 1.062500 -0.687500
v -0.312500 0.437500 -1.312500
v -0.312500 0.437500 -0.687500
v 0.093750 1.250000 -0.906250
v 0.093750 1.250000 -1.093750
v 0.093750 1.062500 -0.906250
v 0.093750 1.062500 -1.093750
v -0.093750 1.250000 -1.093750
v -0.093750 1.250000 -0.906250
v -0.093750 1.062500 -1.093750
v -0.093750 1.062500 -0.906250
v -0.437500 1.000000 -0.750000
v -0.437500 1.000000 -1.250000
v -0.437500 0.500000 -0.750000
v -0.437500 0.500000 -1.250000
v -0.750000 1.000000 -1.250000
v -0.750000 1.000000 -0.750000
v -0.750000 0.500000 -1.250000
v -0.750000 0.500000 -0.750000
v -0.437500 1.000000 1.250000
v -0.437500 1.000000 0.750000
v -0.437500 0.500000 1.250000
v -0.437500 0.500000 0.750000
v -0.750000 1.000000 0.750000
v -0.750000 1.000000 1.250000
v -0.750000 0.500000 0.750000
v -0.750000 0.500000 1.250000
v 0.312500 1.062500 1.312500
v 0.312500 1.062500 0.687500
v 0.312500 0.437500 1.312500
v 0.312500 0.437500 0.687500
v -0.312500 1.062500 0.687500
v -0.312500 1.062500 1.312500
v -0.312500 0.437500 0.687500
v -0.312500 0.437500 1.312500
v 0.750000 1.000000 1.250000
v 0.750000 1.000000 0.750000
v 0.750000 0.500000 1.250000
v 0.750000 0.500000 0.750000
v 0.437500 1.000000 0.750000
v 0.437500 1.000000 1.250000
v 0.437500 0.500000 0.750000
v 0.437500 0.500000 1.250000
v 0.093750 1.250000 1.093750
v 0.093750 1.250000 0.906250
v 0.093750 1.062500 1.093750
v 0.093750 1.062500 0.906250
v -0.093750 1.250000 0.906250
v -0.093750 1.250000 1.093750
v -0.093750 1.062500 0.906250
v -0.093750 1.062500 1.093750
v 0.312500 1.062500 0.562500
v 0.312500 1.062500 -0.562500
v 0.312500 0.437500 0.562500
v 0.312500 0.437500 -0.562500
v -0.312500 1.062500 -0.562500
v -0.312500 1.062500 0.562500
v -0.312500 0.437500 -0.562500
v -0.312500 0.437500 0.562500
v 0.437500 1.250000 0.437500
v 0.437500 1.250000 -0.437500
v 0.437500 0.750000 0.437500
v 0.437500 0.750000 -0.437500
v -0.437500 1.250000 -0.437500
v -0.437500 1.250000 0.437500
v -0.437500 0.750000 -0.437500
v -0.437500 0.750000 0.437500
v -0.431250 1.381250 0.318750
v -0.431250 1.381250 -0.318750
v -0.431250 0.681250 0.318750
v -0.431250 0.681250 -0.318750
v -0.756250 1.381250 -0.318750
v -0.756250 1.381250 0.318750
v -0.756250 0.681250 -0.318750
v -0.756250 0.681250 0.318750
v 0.756250 1.381250 0.318750
v 0.756250 1.381250 -0.318750
v 0.756250 0.681250 0.318750
v 0.756250 0.681250 -0.318750
v 0.431250 1.381250 -0.318750
v 0.431250 1.381250 0.318750
v 0.431250 0.681250 -0.318750
v 0.431250 0.681250 0.318750
v 0.445083 0.809359 0.312500
v 0.445083 0.809359 0.125000
v 0.533471 0.720971 0.312500
v 0.533471 0.720971 0.125000
v 0.224112 0.588388 0.125000
v 0.224112 0.588388 0.312500
v 0.312500 0.500000 0.125000
v 0.312500 0.500000 0.312500
v 0.445083 0.809359 -0.125000
v 0.445083 0.809359 -0.312500
v 0.533471 0.720971 -0.125000
v 0.533471 0.720971 -0.312500
v 0.224112 0.588388 -0.312500
v 0.224112 0.588388 -0.125000
v 0.312500 0.500000 -0.312500
v 0.312500 0.500000 -0.125000
v -0.224112 0.588388 -0.125000
v -0.224112 0.588388 -0.312500
v -0.312500 0.500000 -0.125000
v -0.312500 0.500000 -0.312500
v -0.445083 0.809359 -0.312500
v -0.445083 0.809359 -0.125000
v -0.533471 0.720971 -0.312500
v -0.533471 0.720971 -0.125000
v -0.224112 0.588388 0.312500
v -0.224112 0.588388 0.125000
v -0.312500 0.500000 0.312500
v -0.312500 0.500000 0.125000
v -0.445083 0.809359 0.125000
v -0.445083 0.809359 0.312500
v -0.533471 0.720971 0.125000
v -0.533471 0.720971 0.312500
vn -0.0000 -0.0000 -1.0000
vn 1.0000 -0.0000 -0.0000
vn -0.0000 -0.0000 1.0000
vn -1.0000 -0.0000 -0.0000
vn -0.0000 1.0000 -0.0000
vn -0.0000 -1.0000 -0.0000
vn 0.7071 0.7071 -0.0000
vn -0.7071 -0.7071 -0.0000
vn -0.7071 0.7071 -0.0000
vn 0.7071 -0.7071 -0.0000
vt 0.125000 0.333333
vt 0.291667 0.333333
vt 0.291667 0.416667
vt 0.125000 0.416667
vt 0.500000 0.000000
vt 0.656250 0.000000
vt 0.656250 0.250000
vt 0.500000 0.250000
vt 0.750000 0.250000
vt 0.500000 0.500000
vt 0.750000 0.500000
vt 0.812500 0.000000
vt 0.812500 0.250000
vt 0.593750 0.031250
vt 0.343750 0.031250
vt 0.343750 0.281250
vt 0.593750 0.281250
vt 0.937500 0.000000
vt 0.625000 0.000000
vt 0.625000 0.312500
vt 0.937500 0.312500
vt 0.312500 0.000000
vt 0.312500 0.312500
vt 0.625000 0.375000
vt 0.718750 0.375000
vt 0.718750 0.468750
vt 0.625000 0.468750
vt 0.812500 0.375000
vt 0.812500 0.468750
vt 0.000000 0.625000
vt 0.187500 0.625000
vt 0.187500 0.812500
vt 0.000000 0.812500
vt 0.687500 0.687500
vt 1.000000 0.687500
vt 1.000000 1.000000
vt 0.687500 1.000000
vt 0.312500 0.562500
vt 0.000000 0.562500
vt 0.000000 0.000000
vt 0.750000 0.312500
vt 0.750000 0.562500
vt 0.687500 0.562500
vt 0.437500 1.000000
vt 0.437500 0.562500
vt 0.000000 1.000000
vt 0.812500 0.656250
vt 0.968750 0.656250
vt 0.968750 1.000000
vt 0.812500 1.000000
vt 0.500000 0.656250
vt 0.500000 1.000000
vt 0.812500 0.500000
vt 0.812500 0.531250
vt 0.750000 0.531250
vt 0.750000 0.375000
vt 0.687500 0.625000
vt 0.718750 0.625000
vt 0.718750 0.687500
vt 0.906250 0.375000
vt 0.906250 0.531250
s 1
usemtl trailing_bogey_base
f 4/1/1 7/2/1 5/3/1 2/4/1
f 3/1/2 4/2/2 2/3/2 1/4/2
f 8/1/3 3/2/3 1/3/3 6/4/3
f 7/1/4 8/2/4 6/3/4 5/4/4
usemtl piston
f 12/5/1 15/6/1 13/7/1 10/8/1
f 11/9/2 12/8/2 10/10/2 9/11/2
f 16/12/3 11/6/3 9/7/3 14/13/3
f 14/13/5 9/7/5 10/6/5 13/12/5
f 15/6/6 12/5/6 11/8/6 16/7/6
f 36/6/1 39/5/1 37/8/1 34/7/1
f 40/6/3 35/12/3 33/13/3 38/7/3
f 39/8/4 40/9/4 38/11/4 37/10/4
f 38/7/5 33/13/5 34/12/5 37/6/5
f 39/5/6 36/6/6 35/7/6 40/8/6
f 44/12/1 47/6/1 45/7/1 42/13/1
f 48/5/3 43/6/3 41/7/3 46/8/3
f 47/8/4 48/9/4 46/11/4 45/10/4
f 46/6/5 41/12/5 42/13/5 45/7/5
f 47/5/6 44/6/6 43/7/6 48/8/6
f 60/6/1 63/12/1 61/13/1 58/7/1
f 59/9/2 60/8/2 58/10/2 57/11/2
f 64/6/3 59/5/3 57/8/3 62/7/3
f 62/12/5 57/6/5 58/7/5 61/13/5
f 63/6/6 60/5/6 59/8/6 64/7/6
f 92/47/1 95/48/1 93/49/1 90/50/1
f 91/51/2 92/47/2 90/50/2 89/52/2
f 96/47/3 91/48/3 89/49/3 94/50/3
f 95/51/4 96/47/4 94/50/4 93/52/4
f 94/53/5 89/47/5 90/51/5 93/10/5
f 95/53/6 92/47/6 91/51/6 96/10/6
f 100/48/1 103/47/1 101/50/1 98/49/1
f 99/47/2 100/51/2 98/52/2 97/50/2
f 104/48/3 99/47/3 97/50/3 102/49/3
f 103/47/4 104/51/4 102/52/4 101/50/4
f 102/47/5 97/53/5 98/10/5 101/51/5
f 103/47/6 100/53/6 99/10/6 104/51/6
usemtl frame
f 15/14/4 16/15/4 14/16/4 13/17/4
f 20/18/1 23/19/1 21/20/1 18/21/1
f 19/22/2 20/19/2 18/20/2 17/23/2
f 24/22/3 19/19/3 17/20/3 22/23/3
f 23/22/4 24/19/4 22/20/4 21/23/4
f 22/20/5 17/21/5 18/18/5 21/19/5
f 23/20/6 20/21/6 19/18/6 24/19/6
f 35/15/2 36/14/2 34/17/2 33/16/2
f 43/15/2 44/14/2 42/17/2 41/16/2
f 52/19/1 55/22/1 53/23/1 50/20/1
f 51/22/2 52/19/2 50/20/2 49/23/2
f 56/19/3 51/18/3 49/21/3 54/20/3
f 55/22/4 56/19/4 54/20/4 53/23/4
f 54/20/5 49/21/5 50/18/5 53/19/5
f 55/20/6 52/21/6 51/18/6 56/19/6
f 63/14/4 64/15/4 62/16/4 61/17/4
f 76/34/1 79/35/1 77/36/1 74/37/1
f 75/22/2 76/38/2 74/39/2 73/40/2
f 80/34/3 75/35/3 73/36/3 78/37/3
f 79/22/4 80/38/4 78/39/4 77/40/4
f 78/40/5 73/22/5 74/38/5 77/39/5
f 79/40/6 76/22/6 75/38/6 80/39/6
f 84/23/1 87/41/1 85/42/1 82/38/1
f 83/43/2 84/37/2 82/44/2 81/45/2
f 88/23/3 83/41/3 81/42/3 86/38/3
f 87/43/4 88/37/4 86/44/4 85/45/4
f 86/45/5 81/39/5 82/46/5 85/44/5
f 87/45/6 84/39/6 83/46/6 88/44/6
f 108/28/1 111/54/1 109/55/1 106/56/1
f 107/57/7 108/58/7 106/59/7 105/34/7
f 112/28/3 107/54/3 105/55/3 110/56/3
f 111/57/8 112/58/8 110/59/8 109/34/8
f 110/60/9 105/61/9 106/54/9 109/28/9
f 111/60/10 108/61/10 107/54/10 112/28/10
f 116/28/1 119/54/1 117/55/1 114/56/1
f 115/57/7 116/58/7 114/59/7 113/34/7
f 120/28/3 115/54/3 113/55/3 118/56/3
f 119/57/8 120/58/8 118/59/8 117/34/8
f 118/60/9 113/61/9 114/54/9 117/28/9
f 119/60/10 116/61/10 115/54/10 120/28/10
f 124/54/1 127/28/1 125/56/1 122/55/1
f 123/58/10 124/57/10 122/34/10 121/59/10
f 128/54/3 123/28/3 121/56/3 126/55/3
f 127/58/9 128/57/9 126/34/9 125/59/9
f 126/61/7 121/60/7 122/28/7 125/54/7
f 127/61/8 124/60/8 123/28/8 128/54/8
f 132/54/1 135/28/1 133/56/1 130/55/1
f 131/58/10 132/57/10 130/34/10 129/59/10
f 136/54/3 131/28/3 129/56/3 134/55/3
f 135/58/9 136/57/9 134/34/9 133/59/9
f 134/61/7 129/60/7 130/28/7 133/54/7
f 135/61/8 132/60/8 131/28/8 136/54/8
usemtl wheels
f 28/24/1 31/25/1 29/26/1 26/27/1
f 27/24/2 28/25/2 26/26/2 25/27/2
f 32/24/3 27/25/3 25/26/3 30/27/3
f 31/24/4 32/25/4 30/26/4 29/27/4
f 30/25/5 25/28/5 26/29/5 29/26/5
f 68/24/1 71/25/1 69/26/1 66/27/1
f 67/24/2 68/25/2 66/26/2 65/27/2
f 72/24/3 67/25/3 65/26/3 70/27/3
f 71/24/4 72/25/4 70/26/4 69/27/4
f 70/25/5 65/28/5 66/29/5 69/26/5
usemtl none
f 31/30/6 28/31/6 27/32/6 32/33/6
f 71/30/6 68/31/6 67/32/6 72/33/6
