# Blender 4.4.3
# www.blender.org
mtllib textures.mtl

o cube.026
v -0.224112 0.588388 -1.250000
v -0.224112 0.588388 -1.437500
v -0.312500 0.500000 -1.250000
v -0.312500 0.500000 -1.437500
v -0.445083 0.809359 -1.437500
v -0.445083 0.809359 -1.250000
v -0.533471 0.720971 -1.437500
v -0.533471 0.720971 -1.250000
v 0.756250 1.443750 -0.806250
v 0.756250 1.443750 -1.443750
v 0.756250 0.681250 -0.806250
v 0.756250 0.681250 -1.443750
v 0.431250 1.443750 -1.443750
v 0.431250 1.443750 -0.806250
v 0.431250 0.681250 -1.443750
v 0.431250 0.681250 -0.806250
v -0.431250 1.443750 -0.806250
v -0.431250 1.443750 -1.443750
v -0.431250 0.681250 -0.806250
v -0.431250 0.681250 -1.443750
v -0.756250 1.443750 -1.443750
v -0.756250 1.443750 -0.806250
v -0.756250 0.681250 -1.443750
v -0.756250 0.681250 -0.806250
v 0.756250 1.443750 1.443750
v 0.756250 1.443750 0.806250
v 0.756250 0.681250 1.443750
v 0.756250 0.681250 0.806250
v 0.431250 1.443750 0.806250
v 0.431250 1.443750 1.443750
v 0.431250 0.681250 0.806250
v 0.431250 0.681250 1.443750
v -0.431250 1.443750 1.443750
v -0.431250 1.443750 0.806250
v -0.431250 0.681250 1.443750
v -0.431250 0.681250 0.806250
v -0.756250 1.443750 0.806250
v -0.756250 1.443750 1.443750
v -0.756250 0.681250 0.806250
v -0.756250 0.681250 1.443750
v 0.312500 1.062500 0.500000
v 0.312500 1.062500 -0.500000
v 0.312500 0.437500 0.500000
v 0.312500 0.437500 -0.500000
v -0.312500 1.062500 -0.500000
v -0.312500 1.062500 0.500000
v -0.312500 0.437500 -0.500000
v -0.312500 0.437500 0.500000
v 0.437500 1.250000 -0.687500
v 0.437500 1.250000 -1.562500
v 0.437500 0.750000 -0.687500
v 0.437500 0.750000 -1.562500
v -0.437500 1.250000 -1.562500
v -0.437500 1.250000 -0.687500
v -0.437500 0.750000 -1.562500
v -0.437500 0.750000 -0.687500
v 0.312500 1.062500 -0.562500
v 0.312500 1.062500 -1.687500
v 0.312500 0.437500 -0.562500
v 0.312500 0.437500 -1.687500
v -0.312500 1.062500 -1.687500
v -0.312500 1.062500 -0.562500
v -0.312500 0.437500 -1.687500
v -0.312500 0.437500 -0.562500
v 0.437500 1.250000 0.375000
v 0.437500 1.250000 -0.375000
v 0.437500 0.750000 0.375000
v 0.437500 0.750000 -0.375000
v -0.437500 1.250000 -0.375000
v -0.437500 1.250000 0.375000
v -0.437500 0.750000 -0.375000
v -0.437500 0.750000 0.375000
v 0.437500 1.250000 1.562500
v 0.437500 1.250000 0.687500
v 0.437500 0.750000 1.562500
v 0.437500 0.750000 0.687500
v -0.437500 1.250000 0.687500
v -0.437500 1.250000 1.562500
v -0.437500 0.750000 0.687500
v -0.437500 0.750000 1.562500
v 0.312500 1.062500 1.687500
v 0.312500 1.062500 0.562500
v 0.312500 0.437500 1.687500
v 0.312500 0.437500 0.562500
v -0.312500 1.062500 0.562500
v -0.312500 1.062500 1.687500
v -0.312500 0.437500 0.562500
v -0.312500 0.437500 1.687500
v 0.250000 1.500000 0.250000
v 0.250000 1.500000 -0.250000
v 0.250000 1.250000 0.250000
v 0.250000 1.250000 -0.250000
v -0.250000 1.500000 -0.250000
v -0.250000 1.500000 0.250000
v -0.250000 1.250000 -0.250000
v -0.250000 1.250000 0.250000
v 0.312500 1.062500 -1.812500
v 0.312500 1.062500 -2.437500
v 0.312500 0.437500 -1.812500
v 0.312500 0.437500 -2.437500
v -0.312500 1.062500 -2.437500
v -0.312500 1.062500 -1.812500
v -0.312500 0.437500 -2.437500
v -0.312500 0.437500 -1.812500
v 0.750000 1.000000 -1.875000
v 0.750000 1.000000 -2.375000
v 0.750000 0.500000 -1.875000
v 0.750000 0.500000 -2.375000
v 0.437500 1.000000 -2.375000
v 0.437500 1.000000 -1.875000
v 0.437500 0.500000 -2.375000
v 0.437500 0.500000 -1.875000
v 0.093750 1.250000 -2.031250
v 0.093750 1.250000 -2.218750
v 0.093750 1.062500 -2.031250
v 0.093750 1.062500 -2.218750
v -0.093750 1.250000 -2.218750
v -0.093750 1.250000 -2.031250
v -0.093750 1.062500 -2.218750
v -0.093750 1.062500 -2.031250
v 0.750000 1.000000 2.375000
v 0.750000 1.000000 1.875000
v 0.750000 0.500000 2.375000
v 0.750000 0.500000 1.875000
v 0.437500 1.000000 1.875000
v 0.437500 1.000000 2.375000
v 0.437500 0.500000 1.875000
v 0.437500 0.500000 2.375000
v -0.437500 1.000000 2.375000
v -0.437500 1.000000 1.875000
v -0.437500 0.500000 2.375000
v -0.437500 0.500000 1.875000
v -0.750000 1.000000 1.875000
v -0.750000 1.000000 2.375000
v -0.750000 0.500000 1.875000
v -0.750000 0.500000 2.375000
v 0.312500 1.062500 2.437500
v 0.312500 1.062500 1.812500
v 0.312500 0.437500 2.437500
v 0.312500 0.437500 1.812500
v -0.312500 1.062500 1.812500
v -0.312500 1.062500 2.437500
v -0.312500 0.437500 1.812500
v -0.312500 0.437500 2.437500
v 0.093750 1.250000 2.218750
v 0.093750 1.250000 2.031250
v 0.093750 1.062500 2.218750
v 0.093750 1.062500 2.031250
v -0.093750 1.250000 2.031250
v -0.093750 1.250000 2.218750
v -0.093750 1.062500 2.031250
v -0.093750 1.062500 2.218750
v -0.437500 1.000000 -1.875000
v -0.437500 1.000000 -2.375000
v -0.437500 0.500000 -1.875000
v -0.437500 0.500000 -2.375000
v -0.750000 1.000000 -2.375000
v -0.750000 1.000000 -1.875000
v -0.750000 0.500000 -2.375000
v -0.750000 0.500000 -1.875000
v -0.224112 0.588388 1.437500
v -0.224112 0.588388 1.250000
v -0.312500 0.500000 1.437500
v -0.312500 0.500000 1.250000
v -0.445083 0.809359 1.250000
v -0.445083 0.809359 1.437500
v -0.533471 0.720971 1.250000
v -0.533471 0.720971 1.437500
v -0.224112 0.588388 1.000000
v -0.224112 0.588388 0.812500
v -0.312500 0.500000 1.000000
v -0.312500 0.500000 0.812500
v -0.445083 0.809359 0.812500
v -0.445083 0.809359 1.000000
v -0.533471 0.720971 0.812500
v -0.533471 0.720971 1.000000
v -0.224112 0.588388 -0.812500
v -0.224112 0.588388 -1.000000
v -0.312500 0.500000 -0.812500
v -0.312500 0.500000 -1.000000
v -0.445083 0.809359 -1.000000
v -0.445083 0.809359 -0.812500
v -0.533471 0.720971 -1.000000
v -0.533471 0.720971 -0.812500
v 0.445083 0.809359 1.000000
v 0.445083 0.809359 0.812500
v 0.533471 0.720971 1.000000
v 0.533471 0.720971 0.812500
v 0.224112 0.588388 0.812500
v 0.224112 0.588388 1.000000
v 0.312500 0.500000 0.812500
v 0.312500 0.500000 1.000000
v 0.445083 0.809359 1.437500
v 0.445083 0.809359 1.250000
v 0.533471 0.720971 1.437500
v 0.533471 0.720971 1.250000
v 0.224112 0.588388 1.250000
v 0.224112 0.588388 1.437500
v 0.312500 0.500000 1.250000
v 0.312500 0.500000 1.437500
v 0.445083 0.809359 -0.812500
v 0.445083 0.809359 -1.000000
v 0.533471 0.720971 -0.812500
v 0.533471 0.720971 -1.000000
v 0.224112 0.588388 -1.000000
v 0.224112 0.588388 -0.812500
v 0.312500 0.500000 -1.000000
v 0.312500 0.500000 -0.812500
v 0.445083 0.809359 -1.250000
v 0.445083 0.809359 -1.437500
v 0.533471 0.720971 -1.250000
v 0.533471 0.720971 -1.437500
v 0.224112 0.588388 -1.437500
v 0.224112 0.588388 -1.250000
v 0.312500 0.500000 -1.437500
v 0.312500 0.500000 -1.250000
vn -0.0000 -0.0000 -1.0000
vn 0.7071 -0.7071 -0.0000
vn -0.0000 -0.0000 1.0000
vn -0.7071 0.7071 -0.0000
vn 0.7071 0.7071 -0.0000
vn -0.7071 -0.7071 -0.0000
vn 1.0000 -0.0000 -0.0000
vn -1.0000 -0.0000 -0.0000
vn -0.0000 1.0000 -0.0000
vn -0.0000 -1.0000 -0.0000
vt 0.812500 0.531250
vt 0.812500 0.375000
vt 0.750000 0.375000
vt 0.750000 0.531250
vt 0.718750 0.625000
vt 0.687500 0.625000
vt 0.687500 0.687500
vt 0.718750 0.687500
vt 0.906250 0.531250
vt 0.906250 0.375000
vt 0.812500 0.656250
vt 0.968750 0.656250
vt 0.968750 1.000000
vt 0.812500 1.000000
vt 0.500000 0.656250
vt 0.500000 1.000000
vt 0.812500 0.500000
vt 0.500000 0.500000
vt 0.000000 0.500000
vt 0.312500 0.500000
vt 0.312500 0.812500
vt 0.000000 0.812500
vt 0.312500 0.000000
vt 0.000000 0.000000
vt 0.312500 0.312500
vt 0.750000 0.312500
vt 0.750000 0.562500
vt 0.312500 0.562500
vt 0.687500 0.562500
vt 0.687500 1.000000
vt 0.437500 1.000000
vt 0.437500 0.562500
vt 0.000000 0.562500
vt 0.000000 1.000000
vt 1.000000 0.687500
vt 1.000000 1.000000
vt 0.562500 0.000000
vt 1.000000 0.000000
vt 1.000000 0.250000
vt 0.562500 0.250000
vt 0.562500 0.375000
vt 0.312500 0.375000
vt 1.000000 0.625000
vt 0.562500 0.625000
vt 0.125000 0.333333
vt 0.291667 0.333333
vt 0.291667 0.416667
vt 0.125000 0.416667
vt 0.625000 0.000000
vt 0.937500 0.000000
vt 0.937500 0.312500
vt 0.625000 0.312500
vt 0.500000 0.000000
vt 0.656250 0.000000
vt 0.656250 0.250000
vt 0.500000 0.250000
vt 0.750000 0.250000
vt 0.750000 0.500000
vt 0.812500 0.000000
vt 0.812500 0.250000
vt 0.593750 0.031250
vt 0.343750 0.031250
vt 0.343750 0.281250
vt 0.593750 0.281250
vt 0.625000 0.375000
vt 0.718750 0.375000
vt 0.718750 0.468750
vt 0.625000 0.468750
vt 0.812500 0.468750
vt 0.281250 0.156250
vt 0.468750 0.156250
vt 0.468750 0.343750
vt 0.281250 0.343750
s 1
usemtl frame
f 4/1/1 7/2/1 5/3/1 2/4/1
f 3/5/2 4/6/2 2/7/2 1/8/2
f 8/1/3 3/2/3 1/3/3 6/4/3
f 7/5/4 8/6/4 6/7/4 5/8/4
f 6/9/5 1/10/5 2/2/5 5/1/5
f 7/9/6 4/10/6 3/2/6 8/1/6
f 52/25/1 55/26/1 53/27/1 50/28/1
f 51/29/7 52/30/7 50/31/7 49/32/7
f 56/25/3 51/26/3 49/27/3 54/28/3
f 55/29/8 56/30/8 54/31/8 53/32/8
f 54/32/9 49/33/9 50/34/9 53/31/9
f 55/32/10 52/33/10 51/34/10 56/31/10
f 60/7/1 63/35/1 61/36/1 58/30/1
f 59/23/7 60/28/7 58/33/7 57/24/7
f 64/7/3 59/35/3 57/36/3 62/30/3
f 63/23/8 64/28/8 62/33/8 61/24/8
f 62/24/9 57/23/9 58/28/9 61/33/9
f 63/24/10 60/23/10 59/28/10 64/33/10
f 76/25/1 79/26/1 77/27/1 74/28/1
f 75/29/7 76/30/7 74/31/7 73/32/7
f 80/25/3 75/26/3 73/27/3 78/28/3
f 79/29/8 80/30/8 78/31/8 77/32/8
f 78/32/9 73/33/9 74/34/9 77/31/9
f 79/32/10 76/33/10 75/34/10 80/31/10
f 84/7/1 87/35/1 85/36/1 82/30/1
f 83/23/7 84/28/7 82/33/7 81/24/7
f 88/7/3 83/35/3 81/36/3 86/30/3
f 87/23/8 88/28/8 86/33/8 85/24/8
f 86/24/9 81/23/9 82/28/9 85/33/9
f 87/24/10 84/23/10 83/28/10 88/33/10
f 100/49/1 103/50/1 101/51/1 98/52/1
f 99/23/7 100/49/7 98/52/7 97/25/7
f 104/23/3 99/49/3 97/52/3 102/25/3
f 103/23/8 104/49/8 102/52/8 101/25/8
f 102/49/9 97/50/9 98/51/9 101/52/9
f 103/49/10 100/50/10 99/51/10 104/52/10
f 111/61/8 112/62/8 110/63/8 109/64/8
f 127/61/8 128/62/8 126/63/8 125/64/8
f 131/61/7 132/62/7 130/63/7 129/64/7
f 140/23/1 143/49/1 141/52/1 138/25/1
f 139/23/7 140/49/7 138/52/7 137/25/7
f 144/49/3 139/50/3 137/51/3 142/52/3
f 143/23/8 144/49/8 142/52/8 141/25/8
f 142/49/9 137/50/9 138/51/9 141/52/9
f 143/49/10 140/50/10 139/51/10 144/52/10
f 155/61/7 156/62/7 154/63/7 153/64/7
f 164/1/1 167/2/1 165/3/1 162/4/1
f 163/5/2 164/6/2 162/7/2 161/8/2
f 168/1/3 163/2/3 161/3/3 166/4/3
f 167/5/4 168/6/4 166/7/4 165/8/4
f 166/9/5 161/10/5 162/2/5 165/1/5
f 167/9/6 164/10/6 163/2/6 168/1/6
f 172/1/1 175/2/1 173/3/1 170/4/1
f 171/5/2 172/6/2 170/7/2 169/8/2
f 176/1/3 171/2/3 169/3/3 174/4/3
f 175/5/4 176/6/4 174/7/4 173/8/4
f 174/9/5 169/10/5 170/2/5 173/1/5
f 175/9/6 172/10/6 171/2/6 176/1/6
f 180/1/1 183/2/1 181/3/1 178/4/1
f 179/5/2 180/6/2 178/7/2 177/8/2
f 184/1/3 179/2/3 177/3/3 182/4/3
f 183/5/4 184/6/4 182/7/4 181/8/4
f 182/9/5 177/10/5 178/2/5 181/1/5
f 183/9/6 180/10/6 179/2/6 184/1/6
f 188/2/1 191/1/1 189/4/1 186/3/1
f 187/6/5 188/5/5 186/8/5 185/7/5
f 192/2/3 187/1/3 185/4/3 190/3/3
f 191/6/6 192/5/6 190/8/6 189/7/6
f 190/10/4 185/9/4 186/1/4 189/2/4
f 191/10/2 188/9/2 187/1/2 192/2/2
f 196/2/1 199/1/1 197/4/1 194/3/1
f 195/6/5 196/5/5 194/8/5 193/7/5
f 200/2/3 195/1/3 193/4/3 198/3/3
f 199/6/6 200/5/6 198/8/6 197/7/6
f 198/10/4 193/9/4 194/1/4 197/2/4
f 199/10/2 196/9/2 195/1/2 200/2/2
f 204/2/1 207/1/1 205/4/1 202/3/1
f 203/6/5 204/5/5 202/8/5 201/7/5
f 208/2/3 203/1/3 201/4/3 206/3/3
f 207/6/6 208/5/6 206/8/6 205/7/6
f 206/10/4 201/9/4 202/1/4 205/2/4
f 207/10/2 204/9/2 203/1/2 208/2/2
f 212/2/1 215/1/1 213/4/1 210/3/1
f 211/6/5 212/5/5 210/8/5 209/7/5
f 216/2/3 211/1/3 209/4/3 214/3/3
f 215/6/6 216/5/6 214/8/6 213/7/6
f 214/10/4 209/9/4 210/1/4 213/2/4
f 215/10/2 212/9/2 211/1/2 216/2/2
usemtl piston
f 12/11/1 15/12/1 13/13/1 10/14/1
f 11/15/7 12/11/7 10/14/7 9/16/7
f 16/11/3 11/12/3 9/13/3 14/14/3
f 15/15/8 16/11/8 14/14/8 13/16/8
f 14/17/9 9/11/9 10/15/9 13/18/9
f 15/17/10 12/11/10 11/15/10 16/18/10
f 20/11/1 23/12/1 21/13/1 18/14/1
f 19/15/7 20/11/7 18/14/7 17/16/7
f 24/11/3 19/12/3 17/13/3 22/14/3
f 23/15/8 24/11/8 22/14/8 21/16/8
f 22/17/9 17/11/9 18/15/9 21/18/9
f 23/17/10 20/11/10 19/15/10 24/18/10
f 28/11/1 31/12/1 29/13/1 26/14/1
f 27/15/7 28/11/7 26/14/7 25/16/7
f 32/11/3 27/12/3 25/13/3 30/14/3
f 31/15/8 32/11/8 30/14/8 29/16/8
f 30/17/9 25/11/9 26/15/9 29/18/9
f 31/17/10 28/11/10 27/15/10 32/18/10
f 36/11/1 39/12/1 37/13/1 34/14/1
f 35/15/7 36/11/7 34/14/7 33/16/7
f 40/11/3 35/12/3 33/13/3 38/14/3
f 39/15/8 40/11/8 38/14/8 37/16/8
f 38/17/9 33/11/9 34/15/9 37/18/9
f 39/17/10 36/11/10 35/15/10 40/18/10
f 108/53/1 111/54/1 109/55/1 106/56/1
f 107/57/7 108/56/7 106/18/7 105/58/7
f 112/59/3 107/54/3 105/55/3 110/60/3
f 110/60/9 105/55/9 106/54/9 109/59/9
f 111/54/10 108/53/10 107/56/10 112/55/10
f 124/59/1 127/54/1 125/55/1 122/60/1
f 123/57/7 124/56/7 122/18/7 121/58/7
f 128/53/3 123/54/3 121/55/3 126/56/3
f 126/59/9 121/54/9 122/55/9 125/60/9
f 127/54/10 124/53/10 123/56/10 128/55/10
f 132/59/1 135/54/1 133/55/1 130/60/1
f 136/53/3 131/54/3 129/55/3 134/56/3
f 135/57/8 136/56/8 134/18/8 133/58/8
f 134/59/9 129/54/9 130/55/9 133/60/9
f 135/54/10 132/53/10 131/56/10 136/55/10
f 156/53/1 159/54/1 157/55/1 154/56/1
f 160/59/3 155/54/3 153/55/3 158/60/3
f 159/57/8 160/56/8 158/18/8 157/58/8
f 158/60/9 153/55/9 154/54/9 157/59/9
f 159/54/10 156/53/10 155/56/10 160/55/10
usemtl small_frame
f 44/19/1 47/20/1 45/21/1 42/22/1
f 43/23/7 44/20/7 42/19/7 41/24/7
f 48/19/3 43/20/3 41/21/3 46/22/3
f 47/23/8 48/20/8 46/19/8 45/24/8
f 46/24/9 41/23/9 42/20/9 45/19/9
f 47/24/10 44/23/10 43/20/10 48/19/10
f 68/37/1 71/38/1 69/39/1 66/40/1
f 67/37/7 68/41/7 66/42/7 65/23/7
f 72/37/3 67/38/3 65/39/3 70/40/3
f 71/37/8 72/41/8 70/42/8 69/23/8
f 70/40/9 65/39/9 66/43/9 69/44/9
f 71/40/10 68/39/10 67/43/10 72/44/10
usemtl trailing_bogey_base
f 92/45/1 95/46/1 93/47/1 90/48/1
f 91/45/7 92/46/7 90/47/7 89/48/7
f 96/45/3 91/46/3 89/47/3 94/48/3
f 95/45/8 96/46/8 94/47/8 93/48/8
usemtl wheels
f 116/65/1 119/66/1 117/67/1 114/68/1
f 115/65/7 116/66/7 114/67/7 113/68/7
f 120/65/3 115/66/3 113/67/3 118/68/3
f 119/65/8 120/66/8 118/67/8 117/68/8
f 118/66/9 113/2/9 114/69/9 117/67/9
f 148/65/1 151/66/1 149/67/1 146/68/1
f 147/65/7 148/66/7 146/67/7 145/68/7
f 152/65/3 147/66/3 145/67/3 150/68/3
f 151/65/8 152/66/8 150/67/8 149/68/8
f 150/66/9 145/2/9 146/69/9 149/67/9
usemtl none
f 119/70/10 116/71/10 115/72/10 120/73/10
f 151/70/10 148/71/10 147/72/10 152/73/10
