# Made in Blockbench 4.12.5
mtllib textures.mtl

o cube
v -1.0625 1.6875 -0.9375
v -1.0625 1.6875 -1.0625
v -1.0625 0.8125 -0.9375
v -1.0625 0.8125 -1.0625
v -1.1875 1.6875 -0.9375
v -1.1875 1.6875 -1.0625
v -1.1875 0.8125 -0.9375
v -1.1875 0.8125 -1.0625
v -1.0625 1.6875 1.3125
v -1.0625 1.6875 1.1875
v -1.0625 0.8125 1.3125
v -1.0625 0.8125 1.1875
v -1.1875 1.6875 1.3125
v -1.1875 1.6875 1.1875
v -1.1875 0.8125 1.3125
v -1.1875 0.8125 1.1875
v -1.0625 1.8125 -0.9375
v -1.0625 1.8125 -1.3125
v -1.0625 1.6875 -0.9375
v -1.0625 1.6875 -1.3125
v -1.1875 1.8125 -0.9375
v -1.1875 1.8125 -1.3125
v -1.1875 1.6875 -0.9375
v -1.1875 1.6875 -1.3125
v -1.0625 1.6875 -1.1875
v -1.0625 1.6875 -1.3125
v -1.0625 0.8125 -1.1875
v -1.0625 0.8125 -1.3125
v -1.1875 1.6875 -1.1875
v -1.1875 1.6875 -1.3125
v -1.1875 0.8125 -1.1875
v -1.1875 0.8125 -1.3125
v -1.0625 1.5625 -1.25
v -1.0625 1.5625 -1.375
v -1.0625 0.9375 -1.25
v -1.0625 0.9375 -1.375
v -1.25 1.5625 -1.25
v -1.25 1.5625 -1.375
v -1.25 0.9375 -1.25
v -1.25 0.9375 -1.375
v -1.0625 0.8125 -0.9375
v -1.0625 0.8125 -1.3125
v -1.0625 0.6875 -0.9375
v -1.0625 0.6875 -1.3125
v -1.1875 0.8125 -0.9375
v -1.1875 0.8125 -1.3125
v -1.1875 0.6875 -0.9375
v -1.1875 0.6875 -1.3125
v -1.0625 1.5625 1
v -1.0625 1.5625 0.875
v -1.0625 0.9375 1
v -1.0625 0.9375 0.875
v -1.25 1.5625 1
v -1.25 1.5625 0.875
v -1.25 0.9375 1
v -1.25 0.9375 0.875
v -1.0625 1.6875 1.0625
v -1.0625 1.6875 0.9375
v -1.0625 0.8125 1.0625
v -1.0625 0.8125 0.9375
v -1.1875 1.6875 1.0625
v -1.1875 1.6875 0.9375
v -1.1875 0.8125 1.0625
v -1.1875 0.8125 0.9375
v -1.0625 1.8125 1.3125
v -1.0625 1.8125 0.9375
v -1.0625 1.6875 1.3125
v -1.0625 1.6875 0.9375
v -1.1875 1.8125 1.3125
v -1.1875 1.8125 0.9375
v -1.1875 1.6875 1.3125
v -1.1875 1.6875 0.9375
v -1.0625 0.8125 1.3125
v -1.0625 0.8125 0.9375
v -1.0625 0.6875 1.3125
v -1.0625 0.6875 0.9375
v -1.1875 0.8125 1.3125
v -1.1875 0.8125 0.9375
v -1.1875 0.6875 1.3125
v -1.1875 0.6875 0.9375
v -1.0625 1.5625 1.375
v -1.0625 1.5625 1.25
v -1.0625 0.9375 1.375
v -1.0625 0.9375 1.25
v -1.25 1.5625 1.375
v -1.25 1.5625 1.25
v -1.25 0.9375 1.375
v -1.25 0.9375 1.25
v -1.0625 1.5625 -0.875
v -1.0625 1.5625 -1
v -1.0625 0.9375 -0.875
v -1.0625 0.9375 -1
v -1.25 1.5625 -0.875
v -1.25 1.5625 -1
v -1.25 0.9375 -0.875
v -1.25 0.9375 -1
v -1.0625 1.5 0.875
v -1.0625 1.5 -0.875
v -1.0625 1.3125 0.875
v -1.0625 1.3125 -0.875
v -1.1875 1.5 0.875
v -1.1875 1.5 -0.875
v -1.1875 1.3125 0.875
v -1.1875 1.3125 -0.875
v -1.0625 1.1875 0.875
v -1.0625 1.1875 -0.875
v -1.0625 1 0.875
v -1.0625 1 -0.875
v -1.1875 1.1875 0.875
v -1.1875 1.1875 -0.875
v -1.1875 1 0.875
v -1.1875 1 -0.875
v -1.0625 1.5 -1.375
v -1.0625 1.5 -2.5
v -1.0625 1.3125 -1.375
v -1.0625 1.3125 -2.5
v -1.1875 1.5 -1.375
v -1.1875 1.5 -2.5
v -1.1875 1.3125 -1.375
v -1.1875 1.3125 -2.5
v -1.0625 1.1875 -1.375
v -1.0625 1.1875 -2.5
v -1.0625 1 -1.375
v -1.0625 1 -2.5
v -1.1875 1.1875 -1.375
v -1.1875 1.1875 -2.5
v -1.1875 1 -1.375
v -1.1875 1 -2.5
v -1.0625 1.5 2.5
v -1.0625 1.5 1.375
v -1.0625 1.3125 2.5
v -1.0625 1.3125 1.375
v -1.1875 1.5 2.5
v -1.1875 1.5 1.375
v -1.1875 1.3125 2.5
v -1.1875 1.3125 1.375
v -1.0625 1.1875 2.5
v -1.0625 1.1875 1.375
v -1.0625 1 2.5
v -1.0625 1 1.375
v -1.1875 1.1875 2.5
v -1.1875 1.1875 1.375
v -1.1875 1 2.5
v -1.1875 1 1.375
vt 0 0.1875
vt 0 0.625
vt 0.0625 0.625
vt 0.0625 0.1875
vt 0.25 0.25
vt 0.25 0.6875
vt 0.1875 0.6875
vt 0.1875 0.25
vt 0.1875 0.1875
vt 0.1875 0.625
vt 0.25 0.625
vt 0.25 0.1875
vt 0 0.1875
vt 0 0.625
vt 0.0625 0.625
vt 0.0625 0.1875
vt 0.25 0.25
vt 0.25 0.6875
vt 0.1875 0.6875
vt 0.1875 0.25
vt 0.1875 0.1875
vt 0.1875 0.625
vt 0.25 0.625
vt 0.25 0.1875
vt 0 0.875
vt 0 0.9375
vt 0.1875 0.9375
vt 0.1875 0.875
vt 0.125 0.6875
vt 0.125 0.875
vt 0.0625 0.875
vt 0.0625 0.6875
vt 0.125 0.6875
vt 0.125 0.875
vt 0.0625 0.875
vt 0.0625 0.6875
vt 0.25 0.5
vt 0.25 0.5625
vt 0.1875 0.5625
vt 0.1875 0.5
vt 0.1875 0.5
vt 0.1875 0.5625
vt 0.25 0.5625
vt 0.25 0.5
vt 0.0625 0.1875
vt 0.0625 0.625
vt 0 0.625
vt 0 0.1875
vt 0.1875 0.1875
vt 0.1875 0.625
vt 0.25 0.625
vt 0.25 0.1875
vt 0.1875 0.25
vt 0.1875 0.6875
vt 0.25 0.6875
vt 0.25 0.25
vt 0.625 0.21875
vt 0.9375 0.21875
vt 0.9375 0.28125
vt 0.625 0.28125
vt 0.15625 0.40625
vt 0.09375 0.40625
vt 0.09375 0.3125
vt 0.15625 0.3125
vt 0.09375 0.40625
vt 0.15625 0.40625
vt 0.15625 0.3125
vt 0.09375 0.3125
vt 0.25 0.21875
vt 0.25 0.53125
vt 0.34375 0.53125
vt 0.34375 0.21875
vt 0.34375 0.21875
vt 0.34375 0.53125
vt 0.25 0.53125
vt 0.25 0.21875
vt 0 0.9375
vt 0 0.875
vt 0.1875 0.875
vt 0.1875 0.9375
vt 0.0625 0.6875
vt 0.0625 0.875
vt 0.125 0.875
vt 0.125 0.6875
vt 0.125 0.6875
vt 0.125 0.875
vt 0.0625 0.875
vt 0.0625 0.6875
vt 0.25 0.9375
vt 0.25 0.875
vt 0.1875 0.875
vt 0.1875 0.9375
vt 0.1875 0.9375
vt 0.1875 0.875
vt 0.25 0.875
vt 0.25 0.9375
vt 0.625 0.21875
vt 0.9375 0.21875
vt 0.9375 0.28125
vt 0.625 0.28125
vt 0.15625 0.40625
vt 0.09375 0.40625
vt 0.09375 0.3125
vt 0.15625 0.3125
vt 0.09375 0.40625
vt 0.15625 0.40625
vt 0.15625 0.3125
vt 0.09375 0.3125
vt 0.25 0.21875
vt 0.25 0.53125
vt 0.34375 0.53125
vt 0.34375 0.21875
vt 0.34375 0.21875
vt 0.34375 0.53125
vt 0.25 0.53125
vt 0.25 0.21875
vt 0.0625 0.1875
vt 0.0625 0.625
vt 0 0.625
vt 0 0.1875
vt 0.1875 0.1875
vt 0.1875 0.625
vt 0.25 0.625
vt 0.25 0.1875
vt 0.1875 0.25
vt 0.1875 0.6875
vt 0.25 0.6875
vt 0.25 0.25
vt 0 0.875
vt 0 0.9375
vt 0.1875 0.9375
vt 0.1875 0.875
vt 0.125 0.6875
vt 0.125 0.875
vt 0.0625 0.875
vt 0.0625 0.6875
vt 0.125 0.6875
vt 0.125 0.875
vt 0.0625 0.875
vt 0.0625 0.6875
vt 0.25 0.5
vt 0.25 0.5625
vt 0.1875 0.5625
vt 0.1875 0.5
vt 0.1875 0.5
vt 0.1875 0.5625
vt 0.25 0.5625
vt 0.25 0.5
vt 0 0.9375
vt 0 0.875
vt 0.1875 0.875
vt 0.1875 0.9375
vt 0.0625 0.6875
vt 0.0625 0.875
vt 0.125 0.875
vt 0.125 0.6875
vt 0.125 0.6875
vt 0.125 0.875
vt 0.0625 0.875
vt 0.0625 0.6875
vt 0.25 0.9375
vt 0.25 0.875
vt 0.1875 0.875
vt 0.1875 0.9375
vt 0.1875 0.9375
vt 0.1875 0.875
vt 0.25 0.875
vt 0.25 0.9375
vt 0.625 0.28125
vt 0.9375 0.28125
vt 0.9375 0.21875
vt 0.625 0.21875
vt 0.09375 0.40625
vt 0.15625 0.40625
vt 0.15625 0.3125
vt 0.09375 0.3125
vt 0.15625 0.40625
vt 0.09375 0.40625
vt 0.09375 0.3125
vt 0.15625 0.3125
vt 0.25 0.21875
vt 0.25 0.53125
vt 0.34375 0.53125
vt 0.34375 0.21875
vt 0.34375 0.21875
vt 0.34375 0.53125
vt 0.25 0.53125
vt 0.25 0.21875
vt 0.625 0.28125
vt 0.9375 0.28125
vt 0.9375 0.21875
vt 0.625 0.21875
vt 0.09375 0.40625
vt 0.15625 0.40625
vt 0.15625 0.3125
vt 0.09375 0.3125
vt 0.15625 0.40625
vt 0.09375 0.40625
vt 0.09375 0.3125
vt 0.15625 0.3125
vt 0.25 0.21875
vt 0.25 0.53125
vt 0.34375 0.53125
vt 0.34375 0.21875
vt 0.34375 0.21875
vt 0.34375 0.53125
vt 0.25 0.53125
vt 0.25 0.21875
vt 0.875 0.09375
vt 0.875 0.1875
vt 0 0.1875
vt 0 0.09375
vt 0.875 0.09375
vt 0.875 0.1875
vt 0 0.1875
vt 0 0.09375
vt 0.875 0.125
vt 0 0.125
vt 0 0.1875
vt 0.875 0.1875
vt 0 0.15625
vt 0.875 0.15625
vt 0.875 0.09375
vt 0 0.09375
vt 0.875 0.09375
vt 0.875 0.1875
vt 0 0.1875
vt 0 0.09375
vt 0.875 0.09375
vt 0.875 0.1875
vt 0 0.1875
vt 0 0.09375
vt 0.875 0.125
vt 0 0.125
vt 0 0.1875
vt 0.875 0.1875
vt 0 0.15625
vt 0.875 0.15625
vt 0.875 0.09375
vt 0 0.09375
vt 0 0
vt 0 0.09375
vt 0.5625 0.09375
vt 0.5625 0
vt 0.5625 0
vt 0.5625 0.09375
vt 0 0.09375
vt 0 0
vt 0.5625 0.03125
vt 0 0.03125
vt 0 0.09375
vt 0.5625 0.09375
vt 0 0.0625
vt 0.5625 0.0625
vt 0.5625 0
vt 0 0
vt 0 0
vt 0 0.09375
vt 0.5625 0.09375
vt 0.5625 0
vt 0.5625 0
vt 0.5625 0.09375
vt 0 0.09375
vt 0 0
vt 0.5625 0.03125
vt 0 0.03125
vt 0 0.09375
vt 0.5625 0.09375
vt 0 0.0625
vt 0.5625 0.0625
vt 0.5625 0
vt 0 0
vt 0.5625 0
vt 0.5625 0.09375
vt 0 0.09375
vt 0 0
vt 0 0
vt 0 0.09375
vt 0.5625 0.09375
vt 0.5625 0
vt 0 0.03125
vt 0.5625 0.03125
vt 0.5625 0.09375
vt 0 0.09375
vt 0.5625 0.0625
vt 0 0.0625
vt 0 0
vt 0.5625 0
vt 0.5625 0
vt 0.5625 0.09375
vt 0 0.09375
vt 0 0
vt 0 0
vt 0 0.09375
vt 0.5625 0.09375
vt 0.5625 0
vt 0 0.03125
vt 0.5625 0.03125
vt 0.5625 0.09375
vt 0 0.09375
vt 0.5625 0.0625
vt 0 0.0625
vt 0 0
vt 0.5625 0
vn -1 0 0
vn 0 0 1
vn 0 0 -1
vn -1 0 0
vn 0 0 1
vn 0 0 -1
vn -1 0 0
vn 0 1 0
vn 0 -1 0
vn 0 0 1
vn 0 0 -1
vn -1 0 0
vn 0 0 1
vn 0 0 -1
vn -1 0 0
vn 0 1 0
vn 0 -1 0
vn 0 0 1
vn 0 0 -1
vn -1 0 0
vn 0 1 0
vn 0 -1 0
vn 0 0 1
vn 0 0 -1
vn -1 0 0
vn 0 1 0
vn 0 -1 0
vn 0 0 1
vn 0 0 -1
vn -1 0 0
vn 0 0 1
vn 0 0 -1
vn -1 0 0
vn 0 1 0
vn 0 -1 0
vn 0 0 1
vn 0 0 -1
vn -1 0 0
vn 0 1 0
vn 0 -1 0
vn 0 0 1
vn 0 0 -1
vn -1 0 0
vn 0 1 0
vn 0 -1 0
vn 0 0 1
vn 0 0 -1
vn -1 0 0
vn 0 1 0
vn 0 -1 0
vn 0 0 1
vn 0 0 -1
vn 1 0 0
vn -1 0 0
vn 0 1 0
vn 0 -1 0
vn 1 0 0
vn -1 0 0
vn 0 1 0
vn 0 -1 0
vn 1 0 0
vn -1 0 0
vn 0 1 0
vn 0 -1 0
vn 1 0 0
vn -1 0 0
vn 0 1 0
vn 0 -1 0
vn 1 0 0
vn -1 0 0
vn 0 1 0
vn 0 -1 0
vn 1 0 0
vn -1 0 0
vn 0 1 0
vn 0 -1 0
usemtl broad_piston
f 7/1/1 5/2/1 6/3/1 8/4/1
f 3/5/2 1/6/2 5/7/2 7/8/2
f 8/9/3 6/10/3 2/11/3 4/12/3
f 15/13/4 13/14/4 14/15/4 16/16/4
f 11/17/5 9/18/5 13/19/5 15/20/5
f 16/21/6 14/22/6 10/23/6 12/24/6
usemtl piston
f 23/25/7 21/26/7 22/27/7 24/28/7
f 17/29/8 18/30/8 22/31/8 21/32/8
f 20/33/9 19/34/9 23/35/9 24/36/9
f 19/37/10 17/38/10 21/39/10 23/40/10
f 24/41/11 22/42/11 18/43/11 20/44/11
usemtl broad_piston
f 31/45/12 29/46/12 30/47/12 32/48/12
f 27/49/13 25/50/13 29/51/13 31/52/13
f 32/53/14 30/54/14 26/55/14 28/56/14
f 39/57/15 37/58/15 38/59/15 40/60/15
f 33/61/16 34/62/16 38/63/16 37/64/16
f 36/65/17 35/66/17 39/67/17 40/68/17
f 35/69/18 33/70/18 37/71/18 39/72/18
f 40/73/19 38/74/19 34/75/19 36/76/19
usemtl piston
f 47/77/20 45/78/20 46/79/20 48/80/20
f 41/81/21 42/82/21 46/83/21 45/84/21
f 44/85/22 43/86/22 47/87/22 48/88/22
f 43/89/23 41/90/23 45/91/23 47/92/23
f 48/93/24 46/94/24 42/95/24 44/96/24
usemtl broad_piston
f 55/97/25 53/98/25 54/99/25 56/100/25
f 49/101/26 50/102/26 54/103/26 53/104/26
f 52/105/27 51/106/27 55/107/27 56/108/27
f 51/109/28 49/110/28 53/111/28 55/112/28
f 56/113/29 54/114/29 50/115/29 52/116/29
f 63/117/30 61/118/30 62/119/30 64/120/30
f 59/121/31 57/122/31 61/123/31 63/124/31
f 64/125/32 62/126/32 58/127/32 60/128/32
usemtl piston
f 71/129/33 69/130/33 70/131/33 72/132/33
f 65/133/34 66/134/34 70/135/34 69/136/34
f 68/137/35 67/138/35 71/139/35 72/140/35
f 67/141/36 65/142/36 69/143/36 71/144/36
f 72/145/37 70/146/37 66/147/37 68/148/37
f 79/149/38 77/150/38 78/151/38 80/152/38
f 73/153/39 74/154/39 78/155/39 77/156/39
f 76/157/40 75/158/40 79/159/40 80/160/40
f 75/161/41 73/162/41 77/163/41 79/164/41
f 80/165/42 78/166/42 74/167/42 76/168/42
usemtl broad_piston
f 87/169/43 85/170/43 86/171/43 88/172/43
f 81/173/44 82/174/44 86/175/44 85/176/44
f 84/177/45 83/178/45 87/179/45 88/180/45
f 83/181/46 81/182/46 85/183/46 87/184/46
f 88/185/47 86/186/47 82/187/47 84/188/47
f 95/189/48 93/190/48 94/191/48 96/192/48
f 89/193/49 90/194/49 94/195/49 93/196/49
f 92/197/50 91/198/50 95/199/50 96/200/50
f 91/201/51 89/202/51 93/203/51 95/204/51
f 96/205/52 94/206/52 90/207/52 92/208/52
f 100/209/53 98/210/53 97/211/53 99/212/53
f 103/213/54 101/214/54 102/215/54 104/216/54
f 97/217/55 98/218/55 102/219/55 101/220/55
f 100/221/56 99/222/56 103/223/56 104/224/56
f 108/225/57 106/226/57 105/227/57 107/228/57
f 111/229/58 109/230/58 110/231/58 112/232/58
f 105/233/59 106/234/59 110/235/59 109/236/59
f 108/237/60 107/238/60 111/239/60 112/240/60
f 116/241/61 114/242/61 113/243/61 115/244/61
f 119/245/62 117/246/62 118/247/62 120/248/62
f 113/249/63 114/250/63 118/251/63 117/252/63
f 116/253/64 115/254/64 119/255/64 120/256/64
f 124/257/65 122/258/65 121/259/65 123/260/65
f 127/261/66 125/262/66 126/263/66 128/264/66
f 121/265/67 122/266/67 126/267/67 125/268/67
f 124/269/68 123/270/68 127/271/68 128/272/68
f 132/273/69 130/274/69 129/275/69 131/276/69
f 135/277/70 133/278/70 134/279/70 136/280/70
f 129/281/71 130/282/71 134/283/71 133/284/71
f 132/285/72 131/286/72 135/287/72 136/288/72
f 140/289/73 138/290/73 137/291/73 139/292/73
f 143/293/74 141/294/74 142/295/74 144/296/74
f 137/297/75 138/298/75 142/299/75 141/300/75
f 140/301/76 139/302/76 143/303/76 144/304/76