# Made in Blockbench 4.12.5
mtllib right_r_rod.mtl

o cube
v 1.375 0.0625 -1.3125
v 1.375 0.0625 -2.625
v 1.375 -0.0625 -1.3125
v 1.375 -0.0625 -2.625
v 1.4375 0.0625 -1.3125
v 1.4375 0.0625 -2.625
v 1.4375 -0.0625 -1.3125
v 1.4375 -0.0625 -2.625
v 1.375 0.0625 0.1875
v 1.375 0.0625 -1.3125
v 1.375 -0.0625 0.1875
v 1.375 -0.0625 -1.3125
v 1.4375 0.0625 0.1875
v 1.4375 0.0625 -1.3125
v 1.4375 -0.0625 0.1875
v 1.4375 -0.0625 -1.3125
vt 0.1875 0.8392857142857143
vt 0 0.8392857142857143
vt 0 0.8214285714285714
vt 0.1875 0.8214285714285714
vt 0 0.8392857142857143
vt 0.1875 0.8392857142857143
vt 0.1875 0.8214285714285714
vt 0 0.8214285714285714
vt 0 0.8303571428571428
vt 0 0.8392857142857143
vt 0.1875 0.8392857142857143
vt 0.1875 0.8303571428571428
vt 0.1875 0.8214285714285714
vt 0.1875 0.8303571428571428
vt 0 0.8303571428571428
vt 0 0.8214285714285714
vt 0 0.8392857142857143
vt 0.008928571428571428 0.8392857142857143
vt 0.008928571428571428 0.8214285714285714
vt 0 0.8214285714285714
vt 0.38392857142857145 0.8392857142857143
vt 0.16964285714285715 0.8392857142857143
vt 0.16964285714285715 0.8214285714285714
vt 0.38392857142857145 0.8214285714285714
vt 0.16964285714285715 0.8392857142857143
vt 0.38392857142857145 0.8392857142857143
vt 0.38392857142857145 0.8214285714285714
vt 0.16964285714285715 0.8214285714285714
vt 0.16964285714285715 0.8303571428571428
vt 0.16964285714285715 0.8392857142857143
vt 0.38392857142857145 0.8392857142857143
vt 0.38392857142857145 0.8303571428571428
vt 0.38392857142857145 0.8214285714285714
vt 0.38392857142857145 0.8303571428571428
vt 0.16964285714285715 0.8303571428571428
vt 0.16964285714285715 0.8214285714285714
vt 0.375 0.8392857142857143
vt 0.38392857142857145 0.8392857142857143
vt 0.38392857142857145 0.8214285714285714
vt 0.375 0.8214285714285714
vn -1 0 0
vn 1 0 0
vn 0 1 0
vn 0 -1 0
vn 0 0 -1
vn -1 0 0
vn 1 0 0
vn 0 1 0
vn 0 -1 0
vn 0 0 1
usemtl xl_textures
f 1/1/1 2/2/1 4/3/1 3/4/1
f 6/5/2 5/6/2 7/7/2 8/8/2
f 6/9/3 2/10/3 1/11/3 5/12/3
f 7/13/4 3/14/4 4/15/4 8/16/4
f 2/17/5 6/18/5 8/19/5 4/20/5
f 9/21/6 10/22/6 12/23/6 11/24/6
f 14/25/7 13/26/7 15/27/7 16/28/7
f 14/29/8 10/30/8 9/31/8 13/32/8
f 15/33/9 11/34/9 12/35/9 16/36/9
f 13/37/10 9/38/10 11/39/10 15/40/10