# Blender 4.4.3
# www.blender.org
mtllib textures.mtl
o cube.042
v 0.756250 1.381250 1.193750
v 0.756250 1.381250 0.556250
v 0.756250 0.681250 1.193750
v 0.756250 0.681250 0.556250
v 0.431250 1.381250 0.556250
v 0.431250 1.381250 1.193750
v 0.431250 0.681250 0.556250
v 0.431250 0.681250 1.193750
v 0.750000 1.000000 3.875000
v 0.750000 1.000000 3.375000
v 0.750000 0.500000 3.875000
v 0.750000 0.500000 3.375000
v 0.437500 1.000000 3.375000
v 0.437500 1.000000 3.875000
v 0.437500 0.500000 3.375000
v 0.437500 0.500000 3.875000
v 0.312500 1.062500 3.937500
v 0.312500 1.062500 3.312500
v 0.312500 0.437500 3.937500
v 0.312500 0.437500 3.312500
v -0.312500 1.062500 3.312500
v -0.312500 1.062500 3.937500
v -0.312500 0.437500 3.312500
v -0.312500 0.437500 3.937500
v 0.093750 1.250000 3.718750
v 0.093750 1.250000 3.531250
v 0.093750 1.062500 3.718750
v 0.093750 1.062500 3.531250
v -0.093750 1.250000 3.531250
v -0.093750 1.250000 3.718750
v -0.093750 1.062500 3.531250
v -0.093750 1.062500 3.718750
v -0.437500 1.000000 3.875000
v -0.437500 1.000000 3.375000
v -0.437500 0.500000 3.875000
v -0.437500 0.500000 3.375000
v -0.750000 1.000000 3.375000
v -0.750000 1.000000 3.875000
v -0.750000 0.500000 3.375000
v -0.750000 0.500000 3.875000
v 0.750000 1.000000 -3.375000
v 0.750000 1.000000 -3.875000
v 0.750000 0.500000 -3.375000
v 0.750000 0.500000 -3.875000
v 0.437500 1.000000 -3.875000
v 0.437500 1.000000 -3.375000
v 0.437500 0.500000 -3.875000
v 0.437500 0.500000 -3.375000
v 0.312500 1.062500 -3.312500
v 0.312500 1.062500 -3.937500
v 0.312500 0.437500 -3.312500
v 0.312500 0.437500 -3.937500
v -0.312500 1.062500 -3.937500
v -0.312500 1.062500 -3.312500
v -0.312500 0.437500 -3.937500
v -0.312500 0.437500 -3.312500
v -0.437500 1.000000 -3.375000
v -0.437500 1.000000 -3.875000
v -0.437500 0.500000 -3.375000
v -0.437500 0.500000 -3.875000
v -0.750000 1.000000 -3.875000
v -0.750000 1.000000 -3.375000
v -0.750000 0.500000 -3.875000
v -0.750000 0.500000 -3.375000
v 0.093750 1.250000 -3.531250
v 0.093750 1.250000 -3.718750
v 0.093750 1.062500 -3.531250
v 0.093750 1.062500 -3.718750
v -0.093750 1.250000 -3.718750
v -0.093750 1.250000 -3.531250
v -0.093750 1.062500 -3.718750
v -0.093750 1.062500 -3.531250
v 0.437500 1.250000 -2.187500
v 0.437500 1.250000 -3.062500
v 0.437500 0.750000 -2.187500
v 0.437500 0.750000 -3.062500
v -0.437500 1.250000 -3.062500
v -0.437500 1.250000 -2.187500
v -0.437500 0.750000 -3.062500
v -0.437500 0.750000 -2.187500
v 0.312500 1.062500 -2.062500
v 0.312500 1.062500 -3.187500
v 0.312500 0.437500 -2.062500
v 0.312500 0.437500 -3.187500
v -0.312500 1.062500 -3.187500
v -0.312500 1.062500 -2.062500
v -0.312500 0.437500 -3.187500
v -0.312500 0.437500 -2.062500
v -0.431250 1.381250 -2.306250
v -0.431250 1.381250 -2.943750
v -0.431250 0.681250 -2.306250
v -0.431250 0.681250 -2.943750
v -0.756250 1.381250 -2.943750
v -0.756250 1.381250 -2.306250
v -0.756250 0.681250 -2.943750
v -0.756250 0.681250 -2.306250
v -0.224112 0.588388 -2.750000
v -0.224112 0.588388 -2.937500
v -0.312500 0.500000 -2.750000
v -0.312500 0.500000 -2.937500
v -0.445083 0.809359 -2.937500
v -0.445083 0.809359 -2.750000
v -0.533471 0.720971 -2.937500
v -0.533471 0.720971 -2.750000
v -0.224112 0.588388 -2.312500
v -0.224112 0.588388 -2.500000
v -0.312500 0.500000 -2.312500
v -0.312500 0.500000 -2.500000
v -0.445083 0.809359 -2.500000
v -0.445083 0.809359 -2.312500
v -0.533471 0.720971 -2.500000
v -0.533471 0.720971 -2.312500
v 0.445083 0.809359 -2.312500
v 0.445083 0.809359 -2.500000
v 0.533471 0.720971 -2.312500
v 0.533471 0.720971 -2.500000
v 0.224112 0.588388 -2.500000
v 0.224112 0.588388 -2.312500
v 0.312500 0.500000 -2.500000
v 0.312500 0.500000 -2.312500
v 0.445083 0.809359 -2.750000
v 0.445083 0.809359 -2.937500
v 0.533471 0.720971 -2.750000
v 0.533471 0.720971 -2.937500
v 0.224112 0.588388 -2.937500
v 0.224112 0.588388 -2.750000
v 0.312500 0.500000 -2.937500
v 0.312500 0.500000 -2.750000
v 0.437500 1.250000 -0.437500
v 0.437500 1.250000 -1.312500
v 0.437500 0.750000 -0.437500
v 0.437500 0.750000 -1.312500
v -0.437500 1.250000 -1.312500
v -0.437500 1.250000 -0.437500
v -0.437500 0.750000 -1.312500
v -0.437500 0.750000 -0.437500
v 0.312500 1.062500 -0.312500
v 0.312500 1.062500 -1.437500
v 0.312500 0.437500 -0.312500
v 0.312500 0.437500 -1.437500
v -0.312500 1.062500 -1.437500
v -0.312500 1.062500 -0.312500
v -0.312500 0.437500 -1.437500
v -0.312500 0.437500 -0.312500
v -0.431250 1.381250 -0.556250
v -0.431250 1.381250 -1.193750
v -0.431250 0.681250 -0.556250
v -0.431250 0.681250 -1.193750
v -0.756250 1.381250 -1.193750
v -0.756250 1.381250 -0.556250
v -0.756250 0.681250 -1.193750
v -0.756250 0.681250 -0.556250
v -0.224112 0.588388 -1.000000
v -0.224112 0.588388 -1.187500
v -0.312500 0.500000 -1.000000
v -0.312500 0.500000 -1.187500
v -0.445083 0.809359 -1.187500
v -0.445083 0.809359 -1.000000
v -0.533471 0.720971 -1.187500
v -0.533471 0.720971 -1.000000
v -0.224112 0.588388 -0.562500
v -0.224112 0.588388 -0.750000
v -0.312500 0.500000 -0.562500
v -0.312500 0.500000 -0.750000
v -0.445083 0.809359 -0.750000
v -0.445083 0.809359 -0.562500
v -0.533471 0.720971 -0.750000
v -0.533471 0.720971 -0.562500
v 0.445083 0.809359 -0.562500
v 0.445083 0.809359 -0.750000
v 0.533471 0.720971 -0.562500
v 0.533471 0.720971 -0.750000
v 0.224112 0.588388 -0.750000
v 0.224112 0.588388 -0.562500
v 0.312500 0.500000 -0.750000
v 0.312500 0.500000 -0.562500
v 0.445083 0.809359 -1.000000
v 0.445083 0.809359 -1.187500
v 0.533471 0.720971 -1.000000
v 0.533471 0.720971 -1.187500
v 0.224112 0.588388 -1.187500
v 0.224112 0.588388 -1.000000
v 0.312500 0.500000 -1.187500
v 0.312500 0.500000 -1.000000
v 0.437500 1.250000 1.312500
v 0.437500 1.250000 0.437500
v 0.437500 0.750000 1.312500
v 0.437500 0.750000 0.437500
v -0.437500 1.250000 0.437500
v -0.437500 1.250000 1.312500
v -0.437500 0.750000 0.437500
v -0.437500 0.750000 1.312500
v 0.312500 1.062500 1.437500
v 0.312500 1.062500 0.312500
v 0.312500 0.437500 1.437500
v 0.312500 0.437500 0.312500
v -0.312500 1.062500 0.312500
v -0.312500 1.062500 1.437500
v -0.312500 0.437500 0.312500
v -0.312500 0.437500 1.437500
v -0.431250 1.381250 1.193750
v -0.431250 1.381250 0.556250
v -0.431250 0.681250 1.193750
v -0.431250 0.681250 0.556250
v -0.756250 1.381250 0.556250
v -0.756250 1.381250 1.193750
v -0.756250 0.681250 0.556250
v -0.756250 0.681250 1.193750
v -0.224112 0.588388 0.750000
v -0.224112 0.588388 0.562500
v -0.312500 0.500000 0.750000
v -0.312500 0.500000 0.562500
v -0.445083 0.809359 0.562500
v -0.445083 0.809359 0.750000
v -0.533471 0.720971 0.562500
v -0.533471 0.720971 0.750000
v -0.224112 0.588388 1.187500
v -0.224112 0.588388 1.000000
v -0.312500 0.500000 1.187500
v -0.312500 0.500000 1.000000
v -0.445083 0.809359 1.000000
v -0.445083 0.809359 1.187500
v -0.533471 0.720971 1.000000
v -0.533471 0.720971 1.187500
v 0.445083 0.809359 1.187500
v 0.445083 0.809359 1.000000
v 0.533471 0.720971 1.187500
v 0.533471 0.720971 1.000000
v 0.224112 0.588388 1.000000
v 0.224112 0.588388 1.187500
v 0.312500 0.500000 1.000000
v 0.312500 0.500000 1.187500
v 0.445083 0.809359 0.750000
v 0.445083 0.809359 0.562500
v 0.533471 0.720971 0.750000
v 0.533471 0.720971 0.562500
v 0.224112 0.588388 0.562500
v 0.224112 0.588388 0.750000
v 0.312500 0.500000 0.562500
v 0.312500 0.500000 0.750000
v 0.437500 1.250000 3.062500
v 0.437500 1.250000 2.187500
v 0.437500 0.750000 3.062500
v 0.437500 0.750000 2.187500
v -0.437500 1.250000 2.187500
v -0.437500 1.250000 3.062500
v -0.437500 0.750000 2.187500
v -0.437500 0.750000 3.062500
v 0.312500 1.062500 3.187500
v 0.312500 1.062500 2.062500
v 0.312500 0.437500 3.187500
v 0.312500 0.437500 2.062500
v -0.312500 1.062500 2.062500
v -0.312500 1.062500 3.187500
v -0.312500 0.437500 2.062500
v -0.312500 0.437500 3.187500
v -0.431250 1.381250 2.943750
v -0.431250 1.381250 2.306250
v -0.431250 0.681250 2.943750
v -0.431250 0.681250 2.306250
v -0.756250 1.381250 2.306250
v -0.756250 1.381250 2.943750
v -0.756250 0.681250 2.306250
v -0.756250 0.681250 2.943750
v -0.224112 0.588389 2.500000
v -0.224112 0.588389 2.312500
v -0.312500 0.500000 2.500000
v -0.312500 0.500000 2.312500
v -0.445083 0.809359 2.312500
v -0.445083 0.809359 2.500000
v -0.533471 0.720971 2.312500
v -0.533471 0.720971 2.500000
v -0.224112 0.588389 2.937500
v -0.224112 0.588389 2.750000
v -0.312500 0.500000 2.937500
v -0.312500 0.500000 2.750000
v -0.445083 0.809359 2.750000
v -0.445083 0.809359 2.937500
v -0.533471 0.720971 2.750000
v -0.533471 0.720971 2.937500
v 0.445083 0.809359 2.937500
v 0.445083 0.809359 2.750000
v 0.533471 0.720971 2.937500
v 0.533471 0.720971 2.750000
v 0.224112 0.588389 2.750000
v 0.224112 0.588389 2.937500
v 0.312500 0.500000 2.750000
v 0.312500 0.500000 2.937500
v 0.445083 0.809359 2.500000
v 0.445083 0.809359 2.312500
v 0.533471 0.720971 2.500000
v 0.533471 0.720971 2.312500
v 0.224112 0.588389 2.312500
v 0.224112 0.588389 2.500000
v 0.312500 0.500000 2.312500
v 0.312500 0.500000 2.500000
v 0.312500 1.062500 0.312500
v 0.312500 1.062500 -0.312500
v 0.312500 0.437500 0.312500
v 0.312500 0.437500 -0.312500
v -0.312500 1.062500 -0.312500
v -0.312500 1.062500 0.312500
v -0.312500 0.437500 -0.312500
v -0.312500 0.437500 0.312500
v 0.437500 1.250000 0.250000
v 0.437500 1.250000 -0.250000
v 0.437500 0.750000 0.250000
v 0.437500 0.750000 -0.250000
v -0.437500 1.250000 -0.250000
v -0.437500 1.250000 0.250000
v -0.437500 0.750000 -0.250000
v -0.437500 0.750000 0.250000
v 0.250000 1.500000 0.250000
v 0.250000 1.500000 -0.250000
v 0.250000 1.250000 0.250000
v 0.250000 1.250000 -0.250000
v -0.250000 1.500000 -0.250000
v -0.250000 1.500000 0.250000
v -0.250000 1.250000 -0.250000
v -0.250000 1.250000 0.250000
v 0.756250 1.381250 2.943750
v 0.756250 1.381250 2.306250
v 0.756250 0.681250 2.943750
v 0.756250 0.681250 2.306250
v 0.431250 1.381250 2.306250
v 0.431250 1.381250 2.943750
v 0.431250 0.681250 2.306250
v 0.431250 0.681250 2.943750
v 0.756250 1.381250 -0.556250
v 0.756250 1.381250 -1.193750
v 0.756250 0.681250 -0.556250
v 0.756250 0.681250 -1.193750
v 0.431250 1.381250 -1.193750
v 0.431250 1.381250 -0.556250
v 0.431250 0.681250 -1.193750
v 0.431250 0.681250 -0.556250
v 0.756250 1.381250 -2.306250
v 0.756250 1.381250 -2.943750
v 0.756250 0.681250 -2.306250
v 0.756250 0.681250 -2.943750
v 0.431250 1.381250 -2.943750
v 0.431250 1.381250 -2.306250
v 0.431250 0.681250 -2.943750
v 0.431250 0.681250 -2.306250
vn -0.0000 -0.0000 -1.0000
vn 1.0000 -0.0000 -0.0000
vn -0.0000 -0.0000 1.0000
vn -1.0000 -0.0000 -0.0000
vn -0.0000 1.0000 -0.0000
vn -0.0000 -1.0000 -0.0000
vn 0.7071 -0.7071 -0.0000
vn -0.7071 0.7071 -0.0000
vn 0.7071 0.7071 -0.0000
vn -0.7071 -0.7071 -0.0000
vt 0.968750 0.656250
vt 0.812500 0.656250
vt 0.812500 1.000000
vt 0.968750 1.000000
vt 0.500000 0.656250
vt 0.500000 1.000000
vt 0.812500 0.500000
vt 0.500000 0.500000
vt 0.656250 0.000000
vt 0.812500 0.000000
vt 0.812500 0.250000
vt 0.656250 0.250000
vt 0.750000 0.250000
vt 0.500000 0.250000
vt 0.750000 0.500000
vt 0.500000 0.000000
vt 0.593750 0.031250
vt 0.343750 0.031250
vt 0.343750 0.281250
vt 0.593750 0.281250
vt 0.625000 0.000000
vt 0.312500 0.000000
vt 0.312500 0.312500
vt 0.625000 0.312500
vt 0.937500 0.000000
vt 0.937500 0.312500
vt 0.625000 0.375000
vt 0.718750 0.375000
vt 0.718750 0.468750
vt 0.625000 0.468750
vt 0.812500 0.375000
vt 0.812500 0.468750
vt 0.000000 0.625000
vt 0.187500 0.625000
vt 0.187500 0.812500
vt 0.000000 0.812500
vt 0.750000 0.312500
vt 0.750000 0.562500
vt 0.312500 0.562500
vt 0.687500 0.562500
vt 0.687500 1.000000
vt 0.437500 1.000000
vt 0.437500 0.562500
vt 0.000000 0.562500
vt 0.000000 1.000000
vt 0.687500 0.687500
vt 1.000000 0.687500
vt 1.000000 1.000000
vt 0.000000 0.000000
vt 0.812500 0.531250
vt 0.750000 0.375000
vt 0.750000 0.531250
vt 0.718750 0.625000
vt 0.687500 0.625000
vt 0.718750 0.687500
vt 0.906250 0.531250
vt 0.906250 0.375000
vt 0.093750 0.000000
vt 0.187500 0.000000
vt 0.187500 0.125000
vt 0.093750 0.125000
vt 0.125000 0.000000
vt 0.125000 0.093750
vt 0.093750 0.093750
vt 0.291667 0.000000
vt 0.291667 0.166667
vt 0.000000 0.166667
vt 0.458333 0.166667
vt 0.458333 0.333333
vt 0.291667 0.333333
vt 0.000000 0.333333
vt 0.125000 0.333333
vt 0.291667 0.416667
vt 0.125000 0.416667
s 1
usemtl piston
f 4/1/1 7/2/1 5/3/1 2/4/1
f 3/2/2 4/5/2 2/6/2 1/3/2
f 8/1/3 3/2/3 1/3/3 6/4/3
f 7/2/4 8/5/4 6/6/4 5/3/4
f 6/2/5 1/7/5 2/8/5 5/5/5
f 7/2/6 4/7/6 3/8/6 8/5/6
f 12/9/1 15/10/1 13/11/1 10/12/1
f 11/13/2 12/14/2 10/8/2 9/15/2
f 16/9/3 11/16/3 9/14/3 14/12/3
f 14/10/5 9/9/5 10/12/5 13/11/5
f 15/9/6 12/16/6 11/14/6 16/12/6
f 36/10/1 39/9/1 37/12/1 34/11/1
f 40/16/3 35/9/3 33/12/3 38/14/3
f 39/14/4 40/13/4 38/15/4 37/8/4
f 38/9/5 33/10/5 34/11/5 37/12/5
f 39/16/6 36/9/6 35/12/6 40/14/6
f 44/16/1 47/9/1 45/12/1 42/14/1
f 43/13/2 44/14/2 42/8/2 41/15/2
f 48/10/3 43/9/3 41/12/3 46/11/3
f 46/11/5 41/12/5 42/9/5 45/10/5
f 47/9/6 44/16/6 43/14/6 48/12/6
f 60/16/1 63/9/1 61/12/1 58/14/1
f 64/10/3 59/9/3 57/12/3 62/11/3
f 63/14/4 64/13/4 62/15/4 61/8/4
f 62/12/5 57/11/5 58/10/5 61/9/5
f 63/16/6 60/9/6 59/12/6 64/14/6
f 92/2/1 95/1/1 93/4/1 90/3/1
f 91/5/2 92/2/2 90/3/2 89/6/2
f 96/2/3 91/1/3 89/4/3 94/3/3
f 95/5/4 96/2/4 94/3/4 93/6/4
f 94/7/5 89/2/5 90/5/5 93/8/5
f 95/7/6 92/2/6 91/5/6 96/8/6
f 148/2/1 151/1/1 149/4/1 146/3/1
f 147/5/2 148/2/2 146/3/2 145/6/2
f 152/2/3 147/1/3 145/4/3 150/3/3
f 151/5/4 152/2/4 150/3/4 149/6/4
f 150/7/5 145/2/5 146/5/5 149/8/5
f 151/7/6 148/2/6 147/5/6 152/8/6
f 204/2/1 207/1/1 205/4/1 202/3/1
f 203/5/2 204/2/2 202/3/2 201/6/2
f 208/2/3 203/1/3 201/4/3 206/3/3
f 207/5/4 208/2/4 206/3/4 205/6/4
f 206/7/5 201/2/5 202/5/5 205/8/5
f 207/7/6 204/2/6 203/5/6 208/8/6
f 260/2/1 263/1/1 261/4/1 258/3/1
f 259/5/2 260/2/2 258/3/2 257/6/2
f 264/2/3 259/1/3 257/4/3 262/3/3
f 263/5/4 264/2/4 262/3/4 261/6/4
f 262/7/5 257/2/5 258/5/5 261/8/5
f 263/7/6 260/2/6 259/5/6 264/8/6
f 324/1/1 327/2/1 325/3/1 322/4/1
f 323/2/2 324/5/2 322/6/2 321/3/2
f 328/1/3 323/2/3 321/3/3 326/4/3
f 327/2/4 328/5/4 326/6/4 325/3/4
f 326/2/5 321/7/5 322/8/5 325/5/5
f 327/2/6 324/7/6 323/8/6 328/5/6
f 332/1/1 335/2/1 333/3/1 330/4/1
f 331/2/2 332/5/2 330/6/2 329/3/2
f 336/1/3 331/2/3 329/3/3 334/4/3
f 335/2/4 336/5/4 334/6/4 333/3/4
f 334/2/5 329/7/5 330/8/5 333/5/5
f 335/2/6 332/7/6 331/8/6 336/5/6
f 340/1/1 343/2/1 341/3/1 338/4/1
f 339/2/2 340/5/2 338/6/2 337/3/2
f 344/1/3 339/2/3 337/3/3 342/4/3
f 343/2/4 344/5/4 342/6/4 341/3/4
f 342/2/5 337/7/5 338/8/5 341/5/5
f 343/2/6 340/7/6 339/8/6 344/5/6
usemtl frame
f 15/17/4 16/18/4 14/19/4 13/20/4
f 20/21/1 23/22/1 21/23/1 18/24/1
f 19/22/2 20/21/2 18/24/2 17/23/2
f 24/21/3 19/25/3 17/26/3 22/24/3
f 23/22/4 24/21/4 22/24/4 21/23/4
f 22/24/5 17/26/5 18/25/5 21/21/5
f 23/24/6 20/26/6 19/25/6 24/21/6
f 35/18/2 36/17/2 34/20/2 33/19/2
f 47/17/4 48/18/4 46/19/4 45/20/4
f 52/25/1 55/21/1 53/24/1 50/26/1
f 51/22/2 52/21/2 50/24/2 49/23/2
f 56/22/3 51/21/3 49/24/3 54/23/3
f 55/22/4 56/21/4 54/24/4 53/23/4
f 54/24/5 49/26/5 50/25/5 53/21/5
f 55/24/6 52/26/6 51/25/6 56/21/6
f 59/18/2 60/17/2 58/20/2 57/19/2
f 76/23/1 79/37/1 77/38/1 74/39/1
f 75/40/2 76/41/2 74/42/2 73/43/2
f 80/23/3 75/37/3 73/38/3 78/39/3
f 79/40/4 80/41/4 78/42/4 77/43/4
f 78/43/5 73/44/5 74/45/5 77/42/5
f 79/43/6 76/44/6 75/45/6 80/42/6
f 84/46/1 87/47/1 85/48/1 82/41/1
f 83/22/2 84/39/2 82/44/2 81/49/2
f 88/46/3 83/47/3 81/48/3 86/41/3
f 87/22/4 88/39/4 86/44/4 85/49/4
f 86/49/5 81/22/5 82/39/5 85/44/5
f 87/49/6 84/22/6 83/39/6 88/44/6
f 100/50/1 103/31/1 101/51/1 98/52/1
f 99/53/7 100/54/7 98/46/7 97/55/7
f 104/50/3 99/31/3 97/51/3 102/52/3
f 103/53/8 104/54/8 102/46/8 101/55/8
f 102/56/9 97/57/9 98/31/9 101/50/9
f 103/56/10 100/57/10 99/31/10 104/50/10
f 108/50/1 111/31/1 109/51/1 106/52/1
f 107/53/7 108/54/7 106/46/7 105/55/7
f 112/50/3 107/31/3 105/51/3 110/52/3
f 111/53/8 112/54/8 110/46/8 109/55/8
f 110/56/9 105/57/9 106/31/9 109/50/9
f 111/56/10 108/57/10 107/31/10 112/50/10
f 116/31/1 119/50/1 117/52/1 114/51/1
f 115/54/9 116/53/9 114/55/9 113/46/9
f 120/31/3 115/50/3 113/52/3 118/51/3
f 119/54/10 120/53/10 118/55/10 117/46/10
f 118/57/8 113/56/8 114/50/8 117/31/8
f 119/57/7 116/56/7 115/50/7 120/31/7
f 124/31/1 127/50/1 125/52/1 122/51/1
f 123/54/9 124/53/9 122/55/9 121/46/9
f 128/31/3 123/50/3 121/52/3 126/51/3
f 127/54/10 128/53/10 126/55/10 125/46/10
f 126/57/8 121/56/8 122/50/8 125/31/8
f 127/57/7 124/56/7 123/50/7 128/31/7
f 132/23/1 135/37/1 133/38/1 130/39/1
f 131/40/2 132/41/2 130/42/2 129/43/2
f 136/23/3 131/37/3 129/38/3 134/39/3
f 135/40/4 136/41/4 134/42/4 133/43/4
f 134/43/5 129/44/5 130/45/5 133/42/5
f 135/43/6 132/44/6 131/45/6 136/42/6
f 140/46/1 143/47/1 141/48/1 138/41/1
f 139/22/2 140/39/2 138/44/2 137/49/2
f 144/46/3 139/47/3 137/48/3 142/41/3
f 143/22/4 144/39/4 142/44/4 141/49/4
f 142/49/5 137/22/5 138/39/5 141/44/5
f 143/49/6 140/22/6 139/39/6 144/44/6
f 156/50/1 159/31/1 157/51/1 154/52/1
f 155/53/7 156/54/7 154/46/7 153/55/7
f 160/50/3 155/31/3 153/51/3 158/52/3
f 159/53/8 160/54/8 158/46/8 157/55/8
f 158/56/9 153/57/9 154/31/9 157/50/9
f 159/56/10 156/57/10 155/31/10 160/50/10
f 164/50/1 167/31/1 165/51/1 162/52/1
f 163/53/7 164/54/7 162/46/7 161/55/7
f 168/50/3 163/31/3 161/51/3 166/52/3
f 167/53/8 168/54/8 166/46/8 165/55/8
f 166/56/9 161/57/9 162/31/9 165/50/9
f 167/56/10 164/57/10 163/31/10 168/50/10
f 172/31/1 175/50/1 173/52/1 170/51/1
f 171/54/9 172/53/9 170/55/9 169/46/9
f 176/31/3 171/50/3 169/52/3 174/51/3
f 175/54/10 176/53/10 174/55/10 173/46/10
f 174/57/8 169/56/8 170/50/8 173/31/8
f 175/57/7 172/56/7 171/50/7 176/31/7
f 180/31/1 183/50/1 181/52/1 178/51/1
f 179/54/9 180/53/9 178/55/9 177/46/9
f 184/31/3 179/50/3 177/52/3 182/51/3
f 183/54/10 184/53/10 182/55/10 181/46/10
f 182/57/8 177/56/8 178/50/8 181/31/8
f 183/57/7 180/56/7 179/50/7 184/31/7
f 188/23/1 191/37/1 189/38/1 186/39/1
f 187/40/2 188/41/2 186/42/2 185/43/2
f 192/23/3 187/37/3 185/38/3 190/39/3
f 191/40/4 192/41/4 190/42/4 189/43/4
f 190/43/5 185/44/5 186/45/5 189/42/5
f 191/43/6 188/44/6 187/45/6 192/42/6
f 196/46/1 199/47/1 197/48/1 194/41/1
f 195/22/2 196/39/2 194/44/2 193/49/2
f 200/46/3 195/47/3 193/48/3 198/41/3
f 199/22/4 200/39/4 198/44/4 197/49/4
f 198/49/5 193/22/5 194/39/5 197/44/5
f 199/49/6 196/22/6 195/39/6 200/44/6
f 212/50/1 215/31/1 213/51/1 210/52/1
f 211/53/7 212/54/7 210/46/7 209/55/7
f 216/50/3 211/31/3 209/51/3 214/52/3
f 215/53/8 216/54/8 214/46/8 213/55/8
f 214/56/9 209/57/9 210/31/9 213/50/9
f 215/56/10 212/57/10 211/31/10 216/50/10
f 220/50/1 223/31/1 221/51/1 218/52/1
f 219/53/7 220/54/7 218/46/7 217/55/7
f 224/50/3 219/31/3 217/51/3 222/52/3
f 223/53/8 224/54/8 222/46/8 221/55/8
f 222/56/9 217/57/9 218/31/9 221/50/9
f 223/56/10 220/57/10 219/31/10 224/50/10
f 228/31/1 231/50/1 229/52/1 226/51/1
f 227/54/9 228/53/9 226/55/9 225/46/9
f 232/31/3 227/50/3 225/52/3 230/51/3
f 231/54/10 232/53/10 230/55/10 229/46/10
f 230/57/8 225/56/8 226/50/8 229/31/8
f 231/57/7 228/56/7 227/50/7 232/31/7
f 236/31/1 239/50/1 237/52/1 234/51/1
f 235/54/9 236/53/9 234/55/9 233/46/9
f 240/31/3 235/50/3 233/52/3 238/51/3
f 239/54/10 240/53/10 238/55/10 237/46/10
f 238/57/8 233/56/8 234/50/8 237/31/8
f 239/57/7 236/56/7 235/50/7 240/31/7
f 244/23/1 247/37/1 245/38/1 242/39/1
f 243/40/2 244/41/2 242/42/2 241/43/2
f 248/23/3 243/37/3 241/38/3 246/39/3
f 247/40/4 248/41/4 246/42/4 245/43/4
f 246/43/5 241/44/5 242/45/5 245/42/5
f 247/43/6 244/44/6 243/45/6 248/42/6
f 252/46/1 255/47/1 253/48/1 250/41/1
f 251/22/2 252/39/2 250/44/2 249/49/2
f 256/46/3 251/47/3 249/48/3 254/41/3
f 255/22/4 256/39/4 254/44/4 253/49/4
f 254/49/5 249/22/5 250/39/5 253/44/5
f 255/49/6 252/22/6 251/39/6 256/44/6
f 268/50/1 271/31/1 269/51/1 266/52/1
f 267/53/7 268/54/7 266/46/7 265/55/7
f 272/50/3 267/31/3 265/51/3 270/52/3
f 271/53/8 272/54/8 270/46/8 269/55/8
f 270/56/9 265/57/9 266/31/9 269/50/9
f 271/56/10 268/57/10 267/31/10 272/50/10
f 276/50/1 279/31/1 277/51/1 274/52/1
f 275/53/7 276/54/7 274/46/7 273/55/7
f 280/50/3 275/31/3 273/51/3 278/52/3
f 279/53/8 280/54/8 278/46/8 277/55/8
f 278/56/9 273/57/9 274/31/9 277/50/9
f 279/56/10 276/57/10 275/31/10 280/50/10
f 284/31/1 287/50/1 285/52/1 282/51/1
f 283/54/9 284/53/9 282/55/9 281/46/9
f 288/31/3 283/50/3 281/52/3 286/51/3
f 287/54/10 288/53/10 286/55/10 285/46/10
f 286/57/8 281/56/8 282/50/8 285/31/8
f 287/57/7 284/56/7 283/50/7 288/31/7
f 292/31/1 295/50/1 293/52/1 290/51/1
f 291/54/9 292/53/9 290/55/9 289/46/9
f 296/31/3 291/50/3 289/52/3 294/51/3
f 295/54/10 296/53/10 294/55/10 293/46/10
f 294/57/8 289/56/8 290/50/8 293/31/8
f 295/57/7 292/56/7 291/50/7 296/31/7
f 300/58/1 303/59/1 301/60/1 298/61/1
f 299/21/2 300/25/2 298/26/2 297/24/2
f 304/58/3 299/62/3 297/63/3 302/64/3
f 303/21/4 304/25/4 302/26/4 301/24/4
f 302/24/5 297/26/5 298/25/5 301/21/5
f 303/21/6 300/25/6 299/26/6 304/24/6
usemtl wheels
f 28/27/1 31/28/1 29/29/1 26/30/1
f 27/27/2 28/28/2 26/29/2 25/30/2
f 32/27/3 27/28/3 25/29/3 30/30/3
f 31/27/4 32/28/4 30/29/4 29/30/4
f 30/28/5 25/31/5 26/32/5 29/29/5
f 31/33/6 28/34/6 27/35/6 32/36/6
f 68/27/1 71/28/1 69/29/1 66/30/1
f 67/27/2 68/28/2 66/29/2 65/30/2
f 72/27/3 67/28/3 65/29/3 70/30/3
f 71/27/4 72/28/4 70/29/4 69/30/4
f 70/28/5 65/31/5 66/32/5 69/29/5
f 71/33/6 68/34/6 67/35/6 72/36/6
usemtl trailing_bogey_base
f 308/49/1 311/65/1 309/66/1 306/67/1
f 307/68/2 308/69/2 306/70/2 305/66/2
f 312/49/3 307/65/3 305/66/3 310/67/3
f 311/68/4 312/69/4 310/70/4 309/66/4
f 310/67/5 305/66/5 306/70/5 309/71/5
f 311/67/6 308/66/6 307/70/6 312/71/6
f 316/72/1 319/70/1 317/73/1 314/74/1
f 315/72/2 316/70/2 314/73/2 313/74/2
f 320/72/3 315/70/3 313/73/3 318/74/3
f 319/72/4 320/70/4 318/73/4 317/74/4
