# Made in Blockbench 4.12.5
mtllib left_e_rod.mtl

o cube
v -1.375 0.125 1.5625
v -1.375 0.125 1.3125
v -1.375 -0.125 1.5625
v -1.375 -0.125 1.3125
v -1.4375 0.125 1.5625
v -1.4375 0.125 1.3125
v -1.4375 -0.125 1.5625
v -1.4375 -0.125 1.3125
v -1.375 0.0625 1.3125
v -1.375 0.0625 -0.0625
v -1.375 -0.0625 1.3125
v -1.375 -0.0625 -0.0625
v -1.4375 0.0625 1.3125
v -1.4375 0.0625 -0.0625
v -1.4375 -0.0625 1.3125
v -1.4375 -0.0625 -0.0625
vt 0.8928571428571429 0
vt 0.8928571428571429 0.0357142857142857
vt 0.8571428571428571 0.0357142857142857
vt 0.8571428571428571 0
vt 0.8571428571428571 0
vt 0.8571428571428571 0.0357142857142857
vt 0.8928571428571429 0.0357142857142857
vt 0.8928571428571429 0
vt 0.8571428571428571 0.0267857142857143
vt 0.8928571428571429 0.0267857142857143
vt 0.8928571428571429 0.0357142857142857
vt 0.8571428571428571 0.0357142857142857
vt 0.8928571428571429 0
vt 0.8571428571428571 0
vt 0.8571428571428571 0.008928571428571397
vt 0.8928571428571429 0.008928571428571397
vt 0.8571428571428571 0
vt 0.8571428571428571 0.0357142857142857
vt 0.8660714285714286 0.0357142857142857
vt 0.8660714285714286 0
vt 0.8839285714285714 0
vt 0.8839285714285714 0.0357142857142857
vt 0.8928571428571429 0.0357142857142857
vt 0.8928571428571429 0
vt 0.20535714285714285 0.6875
vt 0.20535714285714285 0.7053571428571428
vt 0.008928571428571428 0.7053571428571428
vt 0.008928571428571428 0.6875
vt 0.008928571428571428 0.6875
vt 0.008928571428571428 0.7053571428571428
vt 0.20535714285714285 0.7053571428571428
vt 0.20535714285714285 0.6875
vt 0.008928571428571428 0.6964285714285714
vt 0.20535714285714285 0.6964285714285714
vt 0.20535714285714285 0.7053571428571428
vt 0.008928571428571428 0.7053571428571428
vt 0.20535714285714285 0.6875
vt 0.008928571428571428 0.6875
vt 0.008928571428571428 0.6964285714285714
vt 0.20535714285714285 0.6964285714285714
vt 0.008928571428571428 0.6875
vt 0.008928571428571428 0.7053571428571428
vt 0.017468944099378884 0.7053571428571428
vt 0.017468944099378884 0.6875
vn 1 0 0
vn -1 0 0
vn 0 1 0
vn 0 -1 0
vn 0 0 1
vn 0 0 -1
vn 1 0 0
vn -1 0 0
vn 0 1 0
vn 0 -1 0
vn 0 0 -1
usemtl xl_textures
f 4/1/1 2/2/1 1/3/1 3/4/1
f 7/5/2 5/6/2 6/7/2 8/8/2
f 1/9/3 2/10/3 6/11/3 5/12/3
f 4/13/4 3/14/4 7/15/4 8/16/4
f 3/17/5 1/18/5 5/19/5 7/20/5
f 8/21/6 6/22/6 2/23/6 4/24/6
f 12/25/7 10/26/7 9/27/7 11/28/7
f 15/29/8 13/30/8 14/31/8 16/32/8
f 9/33/9 10/34/9 14/35/9 13/36/9
f 12/37/10 11/38/10 15/39/10 16/40/10
f 16/41/11 14/42/11 10/43/11 12/44/11