# Made in Blockbench 4.12.5
mtllib textures.mtl

o cube
v 1.0625 0.125 -0.1875
v 1.0625 0.125 -2.0625
v 1.0625 -0.125 -0.1875
v 1.0625 -0.125 -2.0625
v 1.1875 0.125 -0.1875
v 1.1875 0.125 -2.0625
v 1.1875 -0.125 -0.1875
v 1.1875 -0.125 -2.0625
v 1.0625 0.1875 -2.0625
v 1.0625 0.1875 -2.4375
v 1.0625 -0.1875 -2.0625
v 1.0625 -0.1875 -2.4375
v 1.1875 0.1875 -2.0625
v 1.1875 0.1875 -2.4375
v 1.1875 -0.1875 -2.0625
v 1.1875 -0.1875 -2.4375
v 1.0625 0.1875 0.1875
v 1.0625 0.1875 -0.1875
v 1.0625 -0.1875 0.1875
v 1.0625 -0.1875 -0.1875
v 1.1875 0.1875 0.1875
v 1.1875 0.1875 -0.1875
v 1.1875 -0.1875 0.1875
v 1.1875 -0.1875 -0.1875
v 1.0625 0.125 2.0625
v 1.0625 0.125 0.1875
v 1.0625 -0.125 2.0625
v 1.0625 -0.125 0.1875
v 1.1875 0.125 2.0625
v 1.1875 0.125 0.1875
v 1.1875 -0.125 2.0625
v 1.1875 -0.125 0.1875
v 1.1875 0.125 2.375
v 1.1875 0.125 2.125
v 1.1875 -0.125 2.375
v 1.1875 -0.125 2.125
v 1.25 0.125 2.375
v 1.25 0.125 2.125
v 1.25 -0.125 2.375
v 1.25 -0.125 2.125
v 1.0625 0.1875 2.4375
v 1.0625 0.1875 2.0625
v 1.0625 -0.1875 2.4375
v 1.0625 -0.1875 2.0625
v 1.1875 0.1875 2.4375
v 1.1875 0.1875 2.0625
v 1.1875 -0.1875 2.4375
v 1.1875 -0.1875 2.0625
v 1.1875 0.125 0.125
v 1.1875 0.125 -0.125
v 1.1875 -0.125 0.125
v 1.1875 -0.125 -0.125
v 1.375 0.125 0.125
v 1.375 0.125 -0.125
v 1.375 -0.125 0.125
v 1.375 -0.125 -0.125
vt 0.7321428571428571 0.5357142857142857
vt 1 0.5357142857142857
vt 1 0.5714285714285714
vt 0.7321428571428571 0.5714285714285714
vt 0.7321428571428571 0.6071428571428572
vt 1 0.6071428571428572
vt 1 0.5714285714285714
vt 0.7321428571428571 0.5714285714285714
vt 0.7321428571428571 0.6071428571428572
vt 0.7321428571428571 0.5892857142857143
vt 1 0.5892857142857143
vt 1 0.6071428571428572
vt 1 0.5803571428571428
vt 1 0.5625
vt 0.7321428571428571 0.5625
vt 0.7321428571428571 0.5803571428571428
vt 0.8392857142857143 0.2142857142857143
vt 0.7857142857142857 0.2142857142857143
vt 0.7857142857142857 0.1607142857142857
vt 0.8392857142857143 0.1607142857142857
vt 0.8392857142857143 0.1607142857142857
vt 0.8571428571428571 0.1607142857142857
vt 0.8571428571428571 0.2142857142857143
vt 0.8392857142857143 0.2142857142857143
vt 0.8392857142857143 0.1607142857142857
vt 0.8571428571428571 0.1607142857142857
vt 0.8571428571428571 0.2142857142857143
vt 0.8392857142857143 0.2142857142857143
vt 0.8392857142857143 0.2142857142857143
vt 0.8571428571428571 0.2142857142857143
vt 0.8571428571428571 0.1607142857142857
vt 0.8392857142857143 0.1607142857142857
vt 0.8571428571428571 0.2142857142857143
vt 0.8392857142857143 0.2142857142857143
vt 0.8392857142857143 0.1607142857142857
vt 0.8571428571428571 0.1607142857142857
vt 0.7857142857142857 0.0625
vt 0.8392857142857143 0.0625
vt 0.8392857142857143 0.008928571428571397
vt 0.7857142857142857 0.008928571428571397
vt 0.8392857142857143 0.008928571428571397
vt 0.8571428571428571 0.008928571428571397
vt 0.8571428571428571 0.0625
vt 0.8392857142857143 0.0625
vt 0.8392857142857143 0.008928571428571397
vt 0.8571428571428571 0.008928571428571397
vt 0.8571428571428571 0.0625
vt 0.8392857142857143 0.0625
vt 0.8392857142857143 0.0625
vt 0.8571428571428571 0.0625
vt 0.8571428571428571 0.008928571428571397
vt 0.8392857142857143 0.008928571428571397
vt 0.8571428571428571 0.0625
vt 0.8392857142857143 0.0625
vt 0.8392857142857143 0.008928571428571397
vt 0.8571428571428571 0.008928571428571397
vt 0.7321428571428571 0.5357142857142857
vt 1 0.5357142857142857
vt 1 0.5714285714285714
vt 0.7321428571428571 0.5714285714285714
vt 0.7321428571428571 0.6071428571428572
vt 1 0.6071428571428572
vt 1 0.5714285714285714
vt 0.7321428571428571 0.5714285714285714
vt 0.7321428571428571 0.6071428571428572
vt 0.7321428571428571 0.5892857142857143
vt 1 0.5892857142857143
vt 1 0.6071428571428572
vt 1 0.5803571428571428
vt 1 0.5625
vt 0.7321428571428571 0.5625
vt 0.7321428571428571 0.5803571428571428
vt 0.8928571428571429 0.0714285714285714
vt 0.8571428571428571 0.0714285714285714
vt 0.8571428571428571 0.0357142857142857
vt 0.8928571428571429 0.0357142857142857
vt 0.8928571428571429 0.0714285714285714
vt 0.9017857142857143 0.0714285714285714
vt 0.9017857142857143 0.0357142857142857
vt 0.8928571428571429 0.0357142857142857
vt 0.8928571428571429 0.0714285714285714
vt 0.9017857142857143 0.0714285714285714
vt 0.9017857142857143 0.0357142857142857
vt 0.8928571428571429 0.0357142857142857
vt 0.8928571428571429 0.0714285714285714
vt 0.9017857142857143 0.0714285714285714
vt 0.9017857142857143 0.0357142857142857
vt 0.8928571428571429 0.0357142857142857
vt 0.9017857142857143 0.0714285714285714
vt 0.8928571428571429 0.0714285714285714
vt 0.8928571428571429 0.0357142857142857
vt 0.9017857142857143 0.0357142857142857
vt 0.8392857142857143 0.0625
vt 0.7857142857142857 0.0625
vt 0.7857142857142857 0.008928571428571397
vt 0.8392857142857143 0.008928571428571397
vt 0.8392857142857143 0.008928571428571397
vt 0.8571428571428571 0.008928571428571397
vt 0.8571428571428571 0.0625
vt 0.8392857142857143 0.0625
vt 0.8392857142857143 0.008928571428571397
vt 0.8571428571428571 0.008928571428571397
vt 0.8571428571428571 0.0625
vt 0.8392857142857143 0.0625
vt 0.8392857142857143 0.0625
vt 0.8571428571428571 0.0625
vt 0.8571428571428571 0.008928571428571397
vt 0.8392857142857143 0.008928571428571397
vt 0.8571428571428571 0.0625
vt 0.8392857142857143 0.0625
vt 0.8392857142857143 0.008928571428571397
vt 0.8571428571428571 0.008928571428571397
vt 0.8571428571428571 0.0357142857142857
vt 0.8571428571428571 0.0714285714285714
vt 0.8928571428571429 0.0714285714285714
vt 0.8928571428571429 0.0357142857142857
vt 0.8928571428571429 0.0714285714285714
vt 0.9196428571428571 0.0714285714285714
vt 0.9196428571428571 0.0357142857142857
vt 0.8928571428571429 0.0357142857142857
vt 0.8928571428571429 0.0714285714285714
vt 0.9196428571428571 0.0714285714285714
vt 0.9196428571428571 0.0357142857142857
vt 0.8928571428571429 0.0357142857142857
vt 0.8928571428571429 0.0714285714285714
vt 0.9196428571428571 0.0714285714285714
vt 0.9196428571428571 0.0357142857142857
vt 0.8928571428571429 0.0357142857142857
vt 0.9196428571428571 0.0357142857142857
vt 0.8928571428571429 0.0357142857142857
vt 0.8928571428571429 0.0714285714285714
vt 0.9196428571428571 0.0714285714285714
vn -1 0 0
vn 1 0 0
vn 0 1 0
vn 0 -1 0
vn 1 0 0
vn 0 1 0
vn 0 -1 0
vn 0 0 1
vn 0 0 -1
vn 1 0 0
vn 0 1 0
vn 0 -1 0
vn 0 0 1
vn 0 0 -1
vn -1 0 0
vn 1 0 0
vn 0 1 0
vn 0 -1 0
vn 1 0 0
vn 0 1 0
vn 0 -1 0
vn 0 0 1
vn 0 0 -1
vn 1 0 0
vn 0 1 0
vn 0 -1 0
vn 0 0 1
vn 0 0 -1
vn 1 0 0
vn 0 1 0
vn 0 -1 0
vn 0 0 1
vn 0 0 -1
usemtl xl_textures
f 1/1/1 2/2/1 4/3/1 3/4/1
f 6/5/2 5/6/2 7/7/2 8/8/2
f 6/9/3 2/10/3 1/11/3 5/12/3
f 7/13/4 3/14/4 4/15/4 8/16/4
f 14/17/5 13/18/5 15/19/5 16/20/5
f 14/21/6 10/22/6 9/23/6 13/24/6
f 15/25/7 11/26/7 12/27/7 16/28/7
f 13/29/8 9/30/8 11/31/8 15/32/8
f 10/33/9 14/34/9 16/35/9 12/36/9
f 22/37/10 21/38/10 23/39/10 24/40/10
f 22/41/11 18/42/11 17/43/11 21/44/11
f 23/45/12 19/46/12 20/47/12 24/48/12
f 21/49/13 17/50/13 19/51/13 23/52/13
f 18/53/14 22/54/14 24/55/14 20/56/14
f 25/57/15 26/58/15 28/59/15 27/60/15
f 30/61/16 29/62/16 31/63/16 32/64/16
f 30/65/17 26/66/17 25/67/17 29/68/17
f 31/69/18 27/70/18 28/71/18 32/72/18
f 38/73/19 37/74/19 39/75/19 40/76/19
f 38/77/20 34/78/20 33/79/20 37/80/20
f 39/81/21 35/82/21 36/83/21 40/84/21
f 37/85/22 33/86/22 35/87/22 39/88/22
f 34/89/23 38/90/23 40/91/23 36/92/23
f 46/93/24 45/94/24 47/95/24 48/96/24
f 46/97/25 42/98/25 41/99/25 45/100/25
f 47/101/26 43/102/26 44/103/26 48/104/26
f 45/105/27 41/106/27 43/107/27 47/108/27
f 42/109/28 46/110/28 48/111/28 44/112/28
f 54/113/29 53/114/29 55/115/29 56/116/29
f 54/117/30 50/118/30 49/119/30 53/120/30
f 55/121/31 51/122/31 52/123/31 56/124/31
f 53/125/32 49/126/32 51/127/32 55/128/32
f 50/129/33 54/130/33 56/131/33 52/132/33