# Made in Blockbench 4.12.5
mtllib textures.mtl

o cube
v 1.1875 1.5 -3.625
v 1.1875 1.5 -4.75
v 1.1875 1.3125 -3.625
v 1.1875 1.3125 -4.75
v 1.0625 1.5 -3.625
v 1.0625 1.5 -4.75
v 1.0625 1.3125 -3.625
v 1.0625 1.3125 -4.75
v 1.1875 1.1875 -3.625
v 1.1875 1.1875 -4.75
v 1.1875 1 -3.625
v 1.1875 1 -4.75
v 1.0625 1.1875 -3.625
v 1.0625 1.1875 -4.75
v 1.0625 1 -3.625
v 1.0625 1 -4.75
v 1.1875 1.5 -1.375
v 1.1875 1.5 -3.125
v 1.1875 1.3125 -1.375
v 1.1875 1.3125 -3.125
v 1.0625 1.5 -1.375
v 1.0625 1.5 -3.125
v 1.0625 1.3125 -1.375
v 1.0625 1.3125 -3.125
v 1.1875 1.1875 -1.375
v 1.1875 1.1875 -3.125
v 1.1875 1 -1.375
v 1.1875 1 -3.125
v 1.0625 1.1875 -1.375
v 1.0625 1.1875 -3.125
v 1.0625 1 -1.375
v 1.0625 1 -3.125
v 1.1875 1.5 0.875
v 1.1875 1.5 -0.875
v 1.1875 1.3125 0.875
v 1.1875 1.3125 -0.875
v 1.0625 1.5 0.875
v 1.0625 1.5 -0.875
v 1.0625 1.3125 0.875
v 1.0625 1.3125 -0.875
v 1.1875 1.1875 0.875
v 1.1875 1.1875 -0.875
v 1.1875 1 0.875
v 1.1875 1 -0.875
v 1.0625 1.1875 0.875
v 1.0625 1.1875 -0.875
v 1.0625 1 0.875
v 1.0625 1 -0.875
v 1.1875 1.5 3.125
v 1.1875 1.5 1.375
v 1.1875 1.3125 3.125
v 1.1875 1.3125 1.375
v 1.0625 1.5 3.125
v 1.0625 1.5 1.375
v 1.0625 1.3125 3.125
v 1.0625 1.3125 1.375
v 1.1875 1.1875 3.125
v 1.1875 1.1875 1.375
v 1.1875 1 3.125
v 1.1875 1 1.375
v 1.0625 1.1875 3.125
v 1.0625 1.1875 1.375
v 1.0625 1 3.125
v 1.0625 1 1.375
v 1.1875 1.5 4.75
v 1.1875 1.5 3.625
v 1.1875 1.3125 4.75
v 1.1875 1.3125 3.625
v 1.0625 1.5 4.75
v 1.0625 1.5 3.625
v 1.0625 1.3125 4.75
v 1.0625 1.3125 3.625
v 1.1875 1.1875 4.75
v 1.1875 1.1875 3.625
v 1.1875 1 4.75
v 1.1875 1 3.625
v 1.0625 1.1875 4.75
v 1.0625 1.1875 3.625
v 1.0625 1 4.75
v 1.0625 1 3.625
v 1.1875 1.8125 -3.1875
v 1.1875 1.8125 -3.5625
v 1.1875 1.6875 -3.1875
v 1.1875 1.6875 -3.5625
v 1.0625 1.8125 -3.1875
v 1.0625 1.8125 -3.5625
v 1.0625 1.6875 -3.1875
v 1.0625 1.6875 -3.5625
v 1.1875 1.6875 -3.1875
v 1.1875 1.6875 -3.3125
v 1.1875 0.8125 -3.1875
v 1.1875 0.8125 -3.3125
v 1.0625 1.6875 -3.1875
v 1.0625 1.6875 -3.3125
v 1.0625 0.8125 -3.1875
v 1.0625 0.8125 -3.3125
v 1.1875 1.6875 -3.4375
v 1.1875 1.6875 -3.5625
v 1.1875 0.8125 -3.4375
v 1.1875 0.8125 -3.5625
v 1.0625 1.6875 -3.4375
v 1.0625 1.6875 -3.5625
v 1.0625 0.8125 -3.4375
v 1.0625 0.8125 -3.5625
v 1.25 1.5625 -3.5
v 1.25 1.5625 -3.625
v 1.25 0.9375 -3.5
v 1.25 0.9375 -3.625
v 1.0625 1.5625 -3.5
v 1.0625 1.5625 -3.625
v 1.0625 0.9375 -3.5
v 1.0625 0.9375 -3.625
v 1.25 1.5625 -3.125
v 1.25 1.5625 -3.25
v 1.25 0.9375 -3.125
v 1.25 0.9375 -3.25
v 1.0625 1.5625 -3.125
v 1.0625 1.5625 -3.25
v 1.0625 0.9375 -3.125
v 1.0625 0.9375 -3.25
v 1.1875 0.8125 -3.1875
v 1.1875 0.8125 -3.5625
v 1.1875 0.6875 -3.1875
v 1.1875 0.6875 -3.5625
v 1.0625 0.8125 -3.1875
v 1.0625 0.8125 -3.5625
v 1.0625 0.6875 -3.1875
v 1.0625 0.6875 -3.5625
v 1.1875 1.8125 -0.9375
v 1.1875 1.8125 -1.3125
v 1.1875 1.6875 -0.9375
v 1.1875 1.6875 -1.3125
v 1.0625 1.8125 -0.9375
v 1.0625 1.8125 -1.3125
v 1.0625 1.6875 -0.9375
v 1.0625 1.6875 -1.3125
v 1.1875 1.6875 -1.1875
v 1.1875 1.6875 -1.3125
v 1.1875 0.8125 -1.1875
v 1.1875 0.8125 -1.3125
v 1.0625 1.6875 -1.1875
v 1.0625 1.6875 -1.3125
v 1.0625 0.8125 -1.1875
v 1.0625 0.8125 -1.3125
v 1.25 1.5625 -1.25
v 1.25 1.5625 -1.375
v 1.25 0.9375 -1.25
v 1.25 0.9375 -1.375
v 1.0625 1.5625 -1.25
v 1.0625 1.5625 -1.375
v 1.0625 0.9375 -1.25
v 1.0625 0.9375 -1.375
v 1.1875 1.6875 -0.9375
v 1.1875 1.6875 -1.0625
v 1.1875 0.8125 -0.9375
v 1.1875 0.8125 -1.0625
v 1.0625 1.6875 -0.9375
v 1.0625 1.6875 -1.0625
v 1.0625 0.8125 -0.9375
v 1.0625 0.8125 -1.0625
v 1.25 1.5625 -0.875
v 1.25 1.5625 -1
v 1.25 0.9375 -0.875
v 1.25 0.9375 -1
v 1.0625 1.5625 -0.875
v 1.0625 1.5625 -1
v 1.0625 0.9375 -0.875
v 1.0625 0.9375 -1
v 1.1875 0.8125 -0.9375
v 1.1875 0.8125 -1.3125
v 1.1875 0.6875 -0.9375
v 1.1875 0.6875 -1.3125
v 1.0625 0.8125 -0.9375
v 1.0625 0.8125 -1.3125
v 1.0625 0.6875 -0.9375
v 1.0625 0.6875 -1.3125
v 1.1875 1.8125 1.3125
v 1.1875 1.8125 0.9375
v 1.1875 1.6875 1.3125
v 1.1875 1.6875 0.9375
v 1.0625 1.8125 1.3125
v 1.0625 1.8125 0.9375
v 1.0625 1.6875 1.3125
v 1.0625 1.6875 0.9375
v 1.1875 0.8125 1.3125
v 1.1875 0.8125 0.9375
v 1.1875 0.6875 1.3125
v 1.1875 0.6875 0.9375
v 1.0625 0.8125 1.3125
v 1.0625 0.8125 0.9375
v 1.0625 0.6875 1.3125
v 1.0625 0.6875 0.9375
v 1.1875 1.6875 1.0625
v 1.1875 1.6875 0.9375
v 1.1875 0.8125 1.0625
v 1.1875 0.8125 0.9375
v 1.0625 1.6875 1.0625
v 1.0625 1.6875 0.9375
v 1.0625 0.8125 1.0625
v 1.0625 0.8125 0.9375
v 1.25 1.5625 1
v 1.25 1.5625 0.875
v 1.25 0.9375 1
v 1.25 0.9375 0.875
v 1.0625 1.5625 1
v 1.0625 1.5625 0.875
v 1.0625 0.9375 1
v 1.0625 0.9375 0.875
v 1.1875 1.6875 1.3125
v 1.1875 1.6875 1.1875
v 1.1875 0.8125 1.3125
v 1.1875 0.8125 1.1875
v 1.0625 1.6875 1.3125
v 1.0625 1.6875 1.1875
v 1.0625 0.8125 1.3125
v 1.0625 0.8125 1.1875
v 1.25 1.5625 1.375
v 1.25 1.5625 1.25
v 1.25 0.9375 1.375
v 1.25 0.9375 1.25
v 1.0625 1.5625 1.375
v 1.0625 1.5625 1.25
v 1.0625 0.9375 1.375
v 1.0625 0.9375 1.25
v 1.1875 1.8125 3.5625
v 1.1875 1.8125 3.1875
v 1.1875 1.6875 3.5625
v 1.1875 1.6875 3.1875
v 1.0625 1.8125 3.5625
v 1.0625 1.8125 3.1875
v 1.0625 1.6875 3.5625
v 1.0625 1.6875 3.1875
v 1.1875 1.6875 3.3125
v 1.1875 1.6875 3.1875
v 1.1875 0.8125 3.3125
v 1.1875 0.8125 3.1875
v 1.0625 1.6875 3.3125
v 1.0625 1.6875 3.1875
v 1.0625 0.8125 3.3125
v 1.0625 0.8125 3.1875
v 1.25 1.5625 3.25
v 1.25 1.5625 3.125
v 1.25 0.9375 3.25
v 1.25 0.9375 3.125
v 1.0625 1.5625 3.25
v 1.0625 1.5625 3.125
v 1.0625 0.9375 3.25
v 1.0625 0.9375 3.125
v 1.1875 1.6875 3.5625
v 1.1875 1.6875 3.4375
v 1.1875 0.8125 3.5625
v 1.1875 0.8125 3.4375
v 1.0625 1.6875 3.5625
v 1.0625 1.6875 3.4375
v 1.0625 0.8125 3.5625
v 1.0625 0.8125 3.4375
v 1.25 1.5625 3.625
v 1.25 1.5625 3.5
v 1.25 0.9375 3.625
v 1.25 0.9375 3.5
v 1.0625 1.5625 3.625
v 1.0625 1.5625 3.5
v 1.0625 0.9375 3.625
v 1.0625 0.9375 3.5
v 1.1875 0.8125 3.5625
v 1.1875 0.8125 3.1875
v 1.1875 0.6875 3.5625
v 1.1875 0.6875 3.1875
v 1.0625 0.8125 3.5625
v 1.0625 0.8125 3.1875
v 1.0625 0.6875 3.5625
v 1.0625 0.6875 3.1875
vt 0 0
vt 0 0.09375
vt 0.5625 0.09375
vt 0.5625 0
vt 0 0
vt 0 0.09375
vt 0.5625 0.09375
vt 0.5625 0
vt 0.5625 0.09375
vt 0 0.09375
vt 0 0.03125
vt 0.5625 0.03125
vt 0 0
vt 0.5625 0
vt 0.5625 0.0625
vt 0 0.0625
vt 0 0
vt 0 0.09375
vt 0.5625 0.09375
vt 0.5625 0
vt 0 0
vt 0 0.09375
vt 0.5625 0.09375
vt 0.5625 0
vt 0.5625 0.09375
vt 0 0.09375
vt 0 0.03125
vt 0.5625 0.03125
vt 0 0
vt 0.5625 0
vt 0.5625 0.0625
vt 0 0.0625
vt 0 0.09375
vt 0 0.1875
vt 0.875 0.1875
vt 0.875 0.09375
vt 0 0.09375
vt 0 0.1875
vt 0.875 0.1875
vt 0.875 0.09375
vt 0.875 0.1875
vt 0 0.1875
vt 0 0.125
vt 0.875 0.125
vt 0 0.09375
vt 0.875 0.09375
vt 0.875 0.15625
vt 0 0.15625
vt 0 0.09375
vt 0 0.1875
vt 0.8125 0.1875
vt 0.8125 0.09375
vt 0 0.09375
vt 0 0.1875
vt 0.875 0.1875
vt 0.875 0.09375
vt 0.875 0.1875
vt 0 0.1875
vt 0 0.125
vt 0.875 0.125
vt 0 0.09375
vt 0.875 0.09375
vt 0.875 0.15625
vt 0 0.15625
vt 0 0.09375
vt 0 0.1875
vt 0.875 0.1875
vt 0.875 0.09375
vt 0 0.09375
vt 0 0.1875
vt 0.875 0.1875
vt 0.875 0.09375
vt 0.875 0.1875
vt 0 0.1875
vt 0 0.125
vt 0.875 0.125
vt 0 0.09375
vt 0.875 0.09375
vt 0.875 0.15625
vt 0 0.15625
vt 0 0.09375
vt 0 0.1875
vt 0.875 0.1875
vt 0.875 0.09375
vt 0 0.09375
vt 0 0.1875
vt 0.875 0.1875
vt 0.875 0.09375
vt 0.875 0.1875
vt 0 0.1875
vt 0 0.125
vt 0.875 0.125
vt 0 0.09375
vt 0.875 0.09375
vt 0.875 0.15625
vt 0 0.15625
vt 0 0.09375
vt 0 0.1875
vt 0.875 0.1875
vt 0.875 0.09375
vt 0 0.09375
vt 0 0.1875
vt 0.875 0.1875
vt 0.875 0.09375
vt 0.875 0.1875
vt 0 0.1875
vt 0 0.125
vt 0.875 0.125
vt 0 0.09375
vt 0.875 0.09375
vt 0.875 0.15625
vt 0 0.15625
vt 0 0.09375
vt 0 0.1875
vt 0.8125 0.1875
vt 0.8125 0.09375
vt 0 0.09375
vt 0 0.1875
vt 0.875 0.1875
vt 0.875 0.09375
vt 0.875 0.1875
vt 0 0.1875
vt 0 0.125
vt 0.875 0.125
vt 0 0.09375
vt 0.875 0.09375
vt 0.875 0.15625
vt 0 0.15625
vt 0.5625 0
vt 0.5625 0.09375
vt 0 0.09375
vt 0 0
vt 0 0
vt 0 0.09375
vt 0.5625 0.09375
vt 0.5625 0
vt 0 0.09375
vt 0.5625 0.09375
vt 0.5625 0.03125
vt 0 0.03125
vt 0.5625 0
vt 0 0
vt 0 0.0625
vt 0.5625 0.0625
vt 0.5625 0
vt 0.5625 0.09375
vt 0 0.09375
vt 0 0
vt 0 0
vt 0 0.09375
vt 0.5625 0.09375
vt 0.5625 0
vt 0 0.09375
vt 0.5625 0.09375
vt 0.5625 0.03125
vt 0 0.03125
vt 0.5625 0
vt 0 0
vt 0 0.0625
vt 0.5625 0.0625
vt 0 0.5625
vt 0 0.5
vt 0.1875 0.5
vt 0.1875 0.5625
vt 0.0625 0.6875
vt 0.0625 0.875
vt 0.125 0.875
vt 0.125 0.6875
vt 0.125 0.6875
vt 0.125 0.875
vt 0.0625 0.875
vt 0.0625 0.6875
vt 0.1875 0.5
vt 0.1875 0.5625
vt 0.25 0.5625
vt 0.25 0.5
vt 0.25 0.5
vt 0.25 0.5625
vt 0.1875 0.5625
vt 0.1875 0.5
vt 0 0.1875
vt 0 0.625
vt 0.0625 0.625
vt 0.0625 0.1875
vt 0.1875 0.25
vt 0.1875 0.6875
vt 0.25 0.6875
vt 0.25 0.25
vt 0.25 0.1875
vt 0.25 0.625
vt 0.1875 0.625
vt 0.1875 0.1875
vt 0 0.1875
vt 0 0.625
vt 0.0625 0.625
vt 0.0625 0.1875
vt 0.25 0.1875
vt 0.25 0.625
vt 0.1875 0.625
vt 0.1875 0.1875
vt 0.25 0.25
vt 0.25 0.6875
vt 0.1875 0.6875
vt 0.1875 0.25
vt 0.625 0.28125
vt 0.9375 0.28125
vt 0.9375 0.21875
vt 0.625 0.21875
vt 0.15625 0.3125
vt 0.09375 0.3125
vt 0.09375 0.40625
vt 0.15625 0.40625
vt 0.09375 0.3125
vt 0.15625 0.3125
vt 0.15625 0.40625
vt 0.09375 0.40625
vt 0.34375 0.21875
vt 0.34375 0.53125
vt 0.25 0.53125
vt 0.25 0.21875
vt 0.34375 0.21875
vt 0.34375 0.53125
vt 0.25 0.53125
vt 0.25 0.21875
vt 0.625 0.21875
vt 0.9375 0.21875
vt 0.9375 0.28125
vt 0.625 0.28125
vt 0.09375 0.3125
vt 0.15625 0.3125
vt 0.15625 0.40625
vt 0.09375 0.40625
vt 0.15625 0.3125
vt 0.09375 0.3125
vt 0.09375 0.40625
vt 0.15625 0.40625
vt 0.34375 0.21875
vt 0.34375 0.53125
vt 0.25 0.53125
vt 0.25 0.21875
vt 0.34375 0.21875
vt 0.34375 0.53125
vt 0.25 0.53125
vt 0.25 0.21875
vt 0.1875 0.9375
vt 0.1875 0.875
vt 0 0.875
vt 0 0.9375
vt 0.125 0.6875
vt 0.125 0.875
vt 0.0625 0.875
vt 0.0625 0.6875
vt 0.0625 0.6875
vt 0.0625 0.875
vt 0.125 0.875
vt 0.125 0.6875
vt 0.1875 0.9375
vt 0.1875 0.875
vt 0.25 0.875
vt 0.25 0.9375
vt 0.25 0.9375
vt 0.25 0.875
vt 0.1875 0.875
vt 0.1875 0.9375
vt 0 0.5625
vt 0 0.5
vt 0.1875 0.5
vt 0.1875 0.5625
vt 0.0625 0.6875
vt 0.0625 0.875
vt 0.125 0.875
vt 0.125 0.6875
vt 0.125 0.6875
vt 0.125 0.875
vt 0.0625 0.875
vt 0.0625 0.6875
vt 0.1875 0.5
vt 0.1875 0.5625
vt 0.25 0.5625
vt 0.25 0.5
vt 0.25 0.5
vt 0.25 0.5625
vt 0.1875 0.5625
vt 0.1875 0.5
vt 0 0.1875
vt 0 0.625
vt 0.0625 0.625
vt 0.0625 0.1875
vt 0.25 0.1875
vt 0.25 0.625
vt 0.1875 0.625
vt 0.1875 0.1875
vt 0.25 0.25
vt 0.25 0.6875
vt 0.1875 0.6875
vt 0.1875 0.25
vt 0.625 0.28125
vt 0.9375 0.28125
vt 0.9375 0.21875
vt 0.625 0.21875
vt 0.15625 0.3125
vt 0.09375 0.3125
vt 0.09375 0.40625
vt 0.15625 0.40625
vt 0.09375 0.3125
vt 0.15625 0.3125
vt 0.15625 0.40625
vt 0.09375 0.40625
vt 0.34375 0.21875
vt 0.34375 0.53125
vt 0.25 0.53125
vt 0.25 0.21875
vt 0.34375 0.21875
vt 0.34375 0.53125
vt 0.25 0.53125
vt 0.25 0.21875
vt 0 0.1875
vt 0 0.625
vt 0.0625 0.625
vt 0.0625 0.1875
vt 0.1875 0.25
vt 0.1875 0.6875
vt 0.25 0.6875
vt 0.25 0.25
vt 0.25 0.1875
vt 0.25 0.625
vt 0.1875 0.625
vt 0.1875 0.1875
vt 0.625 0.21875
vt 0.9375 0.21875
vt 0.9375 0.28125
vt 0.625 0.28125
vt 0.09375 0.3125
vt 0.15625 0.3125
vt 0.15625 0.40625
vt 0.09375 0.40625
vt 0.15625 0.3125
vt 0.09375 0.3125
vt 0.09375 0.40625
vt 0.15625 0.40625
vt 0.34375 0.21875
vt 0.34375 0.53125
vt 0.25 0.53125
vt 0.25 0.21875
vt 0.34375 0.21875
vt 0.34375 0.53125
vt 0.25 0.53125
vt 0.25 0.21875
vt 0.1875 0.9375
vt 0.1875 0.875
vt 0 0.875
vt 0 0.9375
vt 0.125 0.6875
vt 0.125 0.875
vt 0.0625 0.875
vt 0.0625 0.6875
vt 0.0625 0.6875
vt 0.0625 0.875
vt 0.125 0.875
vt 0.125 0.6875
vt 0.1875 0.9375
vt 0.1875 0.875
vt 0.25 0.875
vt 0.25 0.9375
vt 0.25 0.9375
vt 0.25 0.875
vt 0.1875 0.875
vt 0.1875 0.9375
vt 0 0.5625
vt 0 0.5
vt 0.1875 0.5
vt 0.1875 0.5625
vt 0.0625 0.6875
vt 0.0625 0.875
vt 0.125 0.875
vt 0.125 0.6875
vt 0.125 0.6875
vt 0.125 0.875
vt 0.0625 0.875
vt 0.0625 0.6875
vt 0.1875 0.5
vt 0.1875 0.5625
vt 0.25 0.5625
vt 0.25 0.5
vt 0.25 0.5
vt 0.25 0.5625
vt 0.1875 0.5625
vt 0.1875 0.5
vt 0.1875 0.9375
vt 0.1875 0.875
vt 0 0.875
vt 0 0.9375
vt 0.125 0.6875
vt 0.125 0.875
vt 0.0625 0.875
vt 0.0625 0.6875
vt 0.0625 0.6875
vt 0.0625 0.875
vt 0.125 0.875
vt 0.125 0.6875
vt 0.1875 0.9375
vt 0.1875 0.875
vt 0.25 0.875
vt 0.25 0.9375
vt 0.25 0.9375
vt 0.25 0.875
vt 0.1875 0.875
vt 0.1875 0.9375
vt 0 0.1875
vt 0 0.625
vt 0.0625 0.625
vt 0.0625 0.1875
vt 0.25 0.1875
vt 0.25 0.625
vt 0.1875 0.625
vt 0.1875 0.1875
vt 0.25 0.25
vt 0.25 0.6875
vt 0.1875 0.6875
vt 0.1875 0.25
vt 0.625 0.28125
vt 0.9375 0.28125
vt 0.9375 0.21875
vt 0.625 0.21875
vt 0.15625 0.3125
vt 0.09375 0.3125
vt 0.09375 0.40625
vt 0.15625 0.40625
vt 0.09375 0.3125
vt 0.15625 0.3125
vt 0.15625 0.40625
vt 0.09375 0.40625
vt 0.34375 0.21875
vt 0.34375 0.53125
vt 0.25 0.53125
vt 0.25 0.21875
vt 0.34375 0.21875
vt 0.34375 0.53125
vt 0.25 0.53125
vt 0.25 0.21875
vt 0 0.1875
vt 0 0.625
vt 0.0625 0.625
vt 0.0625 0.1875
vt 0.1875 0.25
vt 0.1875 0.6875
vt 0.25 0.6875
vt 0.25 0.25
vt 0.25 0.1875
vt 0.25 0.625
vt 0.1875 0.625
vt 0.1875 0.1875
vt 0.625 0.21875
vt 0.9375 0.21875
vt 0.9375 0.28125
vt 0.625 0.28125
vt 0.09375 0.3125
vt 0.15625 0.3125
vt 0.15625 0.40625
vt 0.09375 0.40625
vt 0.15625 0.3125
vt 0.09375 0.3125
vt 0.09375 0.40625
vt 0.15625 0.40625
vt 0.34375 0.21875
vt 0.34375 0.53125
vt 0.25 0.53125
vt 0.25 0.21875
vt 0.34375 0.21875
vt 0.34375 0.53125
vt 0.25 0.53125
vt 0.25 0.21875
vt 0 0.5625
vt 0 0.5
vt 0.1875 0.5
vt 0.1875 0.5625
vt 0.0625 0.6875
vt 0.0625 0.875
vt 0.125 0.875
vt 0.125 0.6875
vt 0.125 0.6875
vt 0.125 0.875
vt 0.0625 0.875
vt 0.0625 0.6875
vt 0.1875 0.5
vt 0.1875 0.5625
vt 0.25 0.5625
vt 0.25 0.5
vt 0.25 0.5
vt 0.25 0.5625
vt 0.1875 0.5625
vt 0.1875 0.5
vt 0 0.1875
vt 0 0.625
vt 0.0625 0.625
vt 0.0625 0.1875
vt 0.25 0.1875
vt 0.25 0.625
vt 0.1875 0.625
vt 0.1875 0.1875
vt 0.25 0.25
vt 0.25 0.6875
vt 0.1875 0.6875
vt 0.1875 0.25
vt 0.625 0.28125
vt 0.9375 0.28125
vt 0.9375 0.21875
vt 0.625 0.21875
vt 0.15625 0.3125
vt 0.09375 0.3125
vt 0.09375 0.40625
vt 0.15625 0.40625
vt 0.09375 0.3125
vt 0.15625 0.3125
vt 0.15625 0.40625
vt 0.09375 0.40625
vt 0.34375 0.21875
vt 0.34375 0.53125
vt 0.25 0.53125
vt 0.25 0.21875
vt 0.34375 0.21875
vt 0.34375 0.53125
vt 0.25 0.53125
vt 0.25 0.21875
vt 0 0.1875
vt 0 0.625
vt 0.0625 0.625
vt 0.0625 0.1875
vt 0.1875 0.25
vt 0.1875 0.6875
vt 0.25 0.6875
vt 0.25 0.25
vt 0.25 0.1875
vt 0.25 0.625
vt 0.1875 0.625
vt 0.1875 0.1875
vt 0.625 0.21875
vt 0.9375 0.21875
vt 0.9375 0.28125
vt 0.625 0.28125
vt 0.09375 0.3125
vt 0.15625 0.3125
vt 0.15625 0.40625
vt 0.09375 0.40625
vt 0.15625 0.3125
vt 0.09375 0.3125
vt 0.09375 0.40625
vt 0.15625 0.40625
vt 0.34375 0.21875
vt 0.34375 0.53125
vt 0.25 0.53125
vt 0.25 0.21875
vt 0.34375 0.21875
vt 0.34375 0.53125
vt 0.25 0.53125
vt 0.25 0.21875
vt 0.1875 0.9375
vt 0.1875 0.875
vt 0 0.875
vt 0 0.9375
vt 0.125 0.6875
vt 0.125 0.875
vt 0.0625 0.875
vt 0.0625 0.6875
vt 0.0625 0.6875
vt 0.0625 0.875
vt 0.125 0.875
vt 0.125 0.6875
vt 0.1875 0.9375
vt 0.1875 0.875
vt 0.25 0.875
vt 0.25 0.9375
vt 0.25 0.9375
vt 0.25 0.875
vt 0.1875 0.875
vt 0.1875 0.9375
vn 1 0 0
vn -1 0 0
vn 0 1 0
vn 0 -1 0
vn 1 0 0
vn -1 0 0
vn 0 1 0
vn 0 -1 0
vn 1 0 0
vn -1 0 0
vn 0 1 0
vn 0 -1 0
vn 1 0 0
vn -1 0 0
vn 0 1 0
vn 0 -1 0
vn 1 0 0
vn -1 0 0
vn 0 1 0
vn 0 -1 0
vn 1 0 0
vn -1 0 0
vn 0 1 0
vn 0 -1 0
vn 1 0 0
vn -1 0 0
vn 0 1 0
vn 0 -1 0
vn 1 0 0
vn -1 0 0
vn 0 1 0
vn 0 -1 0
vn 1 0 0
vn -1 0 0
vn 0 1 0
vn 0 -1 0
vn 1 0 0
vn -1 0 0
vn 0 1 0
vn 0 -1 0
vn 1 0 0
vn 0 1 0
vn 0 -1 0
vn 0 0 1
vn 0 0 -1
vn 1 0 0
vn 0 0 1
vn 0 0 -1
vn 1 0 0
vn 0 0 1
vn 0 0 -1
vn 1 0 0
vn 0 1 0
vn 0 -1 0
vn 0 0 1
vn 0 0 -1
vn 1 0 0
vn 0 1 0
vn 0 -1 0
vn 0 0 1
vn 0 0 -1
vn 1 0 0
vn 0 1 0
vn 0 -1 0
vn 0 0 1
vn 0 0 -1
vn 1 0 0
vn 0 1 0
vn 0 -1 0
vn 0 0 1
vn 0 0 -1
vn 1 0 0
vn 0 0 1
vn 0 0 -1
vn 1 0 0
vn 0 1 0
vn 0 -1 0
vn 0 0 1
vn 0 0 -1
vn 1 0 0
vn 0 0 1
vn 0 0 -1
vn 1 0 0
vn 0 1 0
vn 0 -1 0
vn 0 0 1
vn 0 0 -1
vn 1 0 0
vn 0 1 0
vn 0 -1 0
vn 0 0 1
vn 0 0 -1
vn 1 0 0
vn 0 1 0
vn 0 -1 0
vn 0 0 1
vn 0 0 -1
vn 1 0 0
vn 0 1 0
vn 0 -1 0
vn 0 0 1
vn 0 0 -1
vn 1 0 0
vn 0 0 1
vn 0 0 -1
vn 1 0 0
vn 0 1 0
vn 0 -1 0
vn 0 0 1
vn 0 0 -1
vn 1 0 0
vn 0 0 1
vn 0 0 -1
vn 1 0 0
vn 0 1 0
vn 0 -1 0
vn 0 0 1
vn 0 0 -1
vn 1 0 0
vn 0 1 0
vn 0 -1 0
vn 0 0 1
vn 0 0 -1
vn 1 0 0
vn 0 0 1
vn 0 0 -1
vn 1 0 0
vn 0 1 0
vn 0 -1 0
vn 0 0 1
vn 0 0 -1
vn 1 0 0
vn 0 0 1
vn 0 0 -1
vn 1 0 0
vn 0 1 0
vn 0 -1 0
vn 0 0 1
vn 0 0 -1
vn 1 0 0
vn 0 1 0
vn 0 -1 0
vn 0 0 1
vn 0 0 -1
usemtl broad_piston
f 4/1/1 2/2/1 1/3/1 3/4/1
f 7/5/2 5/6/2 6/7/2 8/8/2
f 1/9/3 2/10/3 6/11/3 5/12/3
f 4/13/4 3/14/4 7/15/4 8/16/4
f 12/17/5 10/18/5 9/19/5 11/20/5
f 15/21/6 13/22/6 14/23/6 16/24/6
f 9/25/7 10/26/7 14/27/7 13/28/7
f 12/29/8 11/30/8 15/31/8 16/32/8
f 20/33/9 18/34/9 17/35/9 19/36/9
f 23/37/10 21/38/10 22/39/10 24/40/10
f 17/41/11 18/42/11 22/43/11 21/44/11
f 20/45/12 19/46/12 23/47/12 24/48/12
f 28/49/13 26/50/13 25/51/13 27/52/13
f 31/53/14 29/54/14 30/55/14 32/56/14
f 25/57/15 26/58/15 30/59/15 29/60/15
f 28/61/16 27/62/16 31/63/16 32/64/16
f 36/65/17 34/66/17 33/67/17 35/68/17
f 39/69/18 37/70/18 38/71/18 40/72/18
f 33/73/19 34/74/19 38/75/19 37/76/19
f 36/77/20 35/78/20 39/79/20 40/80/20
f 44/81/21 42/82/21 41/83/21 43/84/21
f 47/85/22 45/86/22 46/87/22 48/88/22
f 41/89/23 42/90/23 46/91/23 45/92/23
f 44/93/24 43/94/24 47/95/24 48/96/24
f 52/97/25 50/98/25 49/99/25 51/100/25
f 55/101/26 53/102/26 54/103/26 56/104/26
f 49/105/27 50/106/27 54/107/27 53/108/27
f 52/109/28 51/110/28 55/111/28 56/112/28
f 60/113/29 58/114/29 57/115/29 59/116/29
f 63/117/30 61/118/30 62/119/30 64/120/30
f 57/121/31 58/122/31 62/123/31 61/124/31
f 60/125/32 59/126/32 63/127/32 64/128/32
f 68/129/33 66/130/33 65/131/33 67/132/33
f 71/133/34 69/134/34 70/135/34 72/136/34
f 65/137/35 66/138/35 70/139/35 69/140/35
f 68/141/36 67/142/36 71/143/36 72/144/36
f 76/145/37 74/146/37 73/147/37 75/148/37
f 79/149/38 77/150/38 78/151/38 80/152/38
f 73/153/39 74/154/39 78/155/39 77/156/39
f 76/157/40 75/158/40 79/159/40 80/160/40
usemtl piston
f 84/161/41 82/162/41 81/163/41 83/164/41
f 81/165/42 82/166/42 86/167/42 85/168/42
f 84/169/43 83/170/43 87/171/43 88/172/43
f 83/173/44 81/174/44 85/175/44 87/176/44
f 88/177/45 86/178/45 82/179/45 84/180/45
usemtl broad_piston
f 92/181/46 90/182/46 89/183/46 91/184/46
f 91/185/47 89/186/47 93/187/47 95/188/47
f 96/189/48 94/190/48 90/191/48 92/192/48
f 100/193/49 98/194/49 97/195/49 99/196/49
f 99/197/50 97/198/50 101/199/50 103/200/50
f 104/201/51 102/202/51 98/203/51 100/204/51
f 108/205/52 106/206/52 105/207/52 107/208/52
f 105/209/53 106/210/53 110/211/53 109/212/53
f 108/213/54 107/214/54 111/215/54 112/216/54
f 107/217/55 105/218/55 109/219/55 111/220/55
f 112/221/56 110/222/56 106/223/56 108/224/56
f 116/225/57 114/226/57 113/227/57 115/228/57
f 113/229/58 114/230/58 118/231/58 117/232/58
f 116/233/59 115/234/59 119/235/59 120/236/59
f 115/237/60 113/238/60 117/239/60 119/240/60
f 120/241/61 118/242/61 114/243/61 116/244/61
usemtl piston
f 124/245/62 122/246/62 121/247/62 123/248/62
f 121/249/63 122/250/63 126/251/63 125/252/63
f 124/253/64 123/254/64 127/255/64 128/256/64
f 123/257/65 121/258/65 125/259/65 127/260/65
f 128/261/66 126/262/66 122/263/66 124/264/66
f 132/265/67 130/266/67 129/267/67 131/268/67
f 129/269/68 130/270/68 134/271/68 133/272/68
f 132/273/69 131/274/69 135/275/69 136/276/69
f 131/277/70 129/278/70 133/279/70 135/280/70
f 136/281/71 134/282/71 130/283/71 132/284/71
usemtl broad_piston
f 140/285/72 138/286/72 137/287/72 139/288/72
f 139/289/73 137/290/73 141/291/73 143/292/73
f 144/293/74 142/294/74 138/295/74 140/296/74
f 148/297/75 146/298/75 145/299/75 147/300/75
f 145/301/76 146/302/76 150/303/76 149/304/76
f 148/305/77 147/306/77 151/307/77 152/308/77
f 147/309/78 145/310/78 149/311/78 151/312/78
f 152/313/79 150/314/79 146/315/79 148/316/79
f 156/317/80 154/318/80 153/319/80 155/320/80
f 155/321/81 153/322/81 157/323/81 159/324/81
f 160/325/82 158/326/82 154/327/82 156/328/82
f 164/329/83 162/330/83 161/331/83 163/332/83
f 161/333/84 162/334/84 166/335/84 165/336/84
f 164/337/85 163/338/85 167/339/85 168/340/85
f 163/341/86 161/342/86 165/343/86 167/344/86
f 168/345/87 166/346/87 162/347/87 164/348/87
usemtl piston
f 172/349/88 170/350/88 169/351/88 171/352/88
f 169/353/89 170/354/89 174/355/89 173/356/89
f 172/357/90 171/358/90 175/359/90 176/360/90
f 171/361/91 169/362/91 173/363/91 175/364/91
f 176/365/92 174/366/92 170/367/92 172/368/92
f 180/369/93 178/370/93 177/371/93 179/372/93
f 177/373/94 178/374/94 182/375/94 181/376/94
f 180/377/95 179/378/95 183/379/95 184/380/95
f 179/381/96 177/382/96 181/383/96 183/384/96
f 184/385/97 182/386/97 178/387/97 180/388/97
f 188/389/98 186/390/98 185/391/98 187/392/98
f 185/393/99 186/394/99 190/395/99 189/396/99
f 188/397/100 187/398/100 191/399/100 192/400/100
f 187/401/101 185/402/101 189/403/101 191/404/101
f 192/405/102 190/406/102 186/407/102 188/408/102
usemtl broad_piston
f 196/409/103 194/410/103 193/411/103 195/412/103
f 195/413/104 193/414/104 197/415/104 199/416/104
f 200/417/105 198/418/105 194/419/105 196/420/105
f 204/421/106 202/422/106 201/423/106 203/424/106
f 201/425/107 202/426/107 206/427/107 205/428/107
f 204/429/108 203/430/108 207/431/108 208/432/108
f 203/433/109 201/434/109 205/435/109 207/436/109
f 208/437/110 206/438/110 202/439/110 204/440/110
f 212/441/111 210/442/111 209/443/111 211/444/111
f 211/445/112 209/446/112 213/447/112 215/448/112
f 216/449/113 214/450/113 210/451/113 212/452/113
f 220/453/114 218/454/114 217/455/114 219/456/114
f 217/457/115 218/458/115 222/459/115 221/460/115
f 220/461/116 219/462/116 223/463/116 224/464/116
f 219/465/117 217/466/117 221/467/117 223/468/117
f 224/469/118 222/470/118 218/471/118 220/472/118
usemtl piston
f 228/473/119 226/474/119 225/475/119 227/476/119
f 225/477/120 226/478/120 230/479/120 229/480/120
f 228/481/121 227/482/121 231/483/121 232/484/121
f 227/485/122 225/486/122 229/487/122 231/488/122
f 232/489/123 230/490/123 226/491/123 228/492/123
usemtl broad_piston
f 236/493/124 234/494/124 233/495/124 235/496/124
f 235/497/125 233/498/125 237/499/125 239/500/125
f 240/501/126 238/502/126 234/503/126 236/504/126
f 244/505/127 242/506/127 241/507/127 243/508/127
f 241/509/128 242/510/128 246/511/128 245/512/128
f 244/513/129 243/514/129 247/515/129 248/516/129
f 243/517/130 241/518/130 245/519/130 247/520/130
f 248/521/131 246/522/131 242/523/131 244/524/131
f 252/525/132 250/526/132 249/527/132 251/528/132
f 251/529/133 249/530/133 253/531/133 255/532/133
f 256/533/134 254/534/134 250/535/134 252/536/134
f 260/537/135 258/538/135 257/539/135 259/540/135
f 257/541/136 258/542/136 262/543/136 261/544/136
f 260/545/137 259/546/137 263/547/137 264/548/137
f 259/549/138 257/550/138 261/551/138 263/552/138
f 264/553/139 262/554/139 258/555/139 260/556/139
usemtl piston
f 268/557/140 266/558/140 265/559/140 267/560/140
f 265/561/141 266/562/141 270/563/141 269/564/141
f 268/565/142 267/566/142 271/567/142 272/568/142
f 267/569/143 265/570/143 269/571/143 271/572/143
f 272/573/144 270/574/144 266/575/144 268/576/144