# Blender 4.4.3
# www.blender.org
mtllib textures.mtl

o cube.013
v -1.000000 0.125000 -4.375000
v -1.000000 0.125000 -4.625000
v -1.000000 -0.125000 -4.375000
v -1.000000 -0.125000 -4.625000
v -1.250000 0.125000 -4.625000
v -1.250000 0.125000 -4.375000
v -1.250000 -0.125000 -4.625000
v -1.250000 -0.125000 -4.375000
v -1.062500 0.187500 -2.062500
v -1.062500 0.187500 -2.437500
v -1.062500 -0.187500 -2.062500
v -1.062500 -0.187500 -2.437500
v -1.187500 0.187500 -2.437500
v -1.187500 0.187500 -2.062500
v -1.187500 -0.187500 -2.437500
v -1.187500 -0.187500 -2.062500
v -1.062500 0.125000 -2.437500
v -1.062500 0.125000 -4.312500
v -1.062500 -0.125000 -2.437500
v -1.062500 -0.125000 -4.312500
v -1.187500 0.125000 -4.312500
v -1.187500 0.125000 -2.437500
v -1.187500 -0.125000 -4.312500
v -1.187500 -0.125000 -2.437500
v -1.062500 0.187500 -4.312500
v -1.062500 0.187500 -4.687500
v -1.062500 -0.187500 -4.312500
v -1.062500 -0.187500 -4.687500
v -1.187500 0.187500 -4.687500
v -1.187500 0.187500 -4.312500
v -1.187500 -0.187500 -4.687500
v -1.187500 -0.187500 -4.312500
v -1.062500 0.125000 -0.187500
v -1.062500 0.125000 -2.062500
v -1.062500 -0.125000 -0.187500
v -1.062500 -0.125000 -2.062500
v -1.187500 0.125000 -2.062500
v -1.187500 0.125000 -0.187500
v -1.187500 -0.125000 -2.062500
v -1.187500 -0.125000 -0.187500
v -1.062500 0.187500 0.187500
v -1.062500 0.187500 -0.187500
v -1.062500 -0.187500 0.187500
v -1.062500 -0.187500 -0.187500
v -1.187500 0.187500 -0.187500
v -1.187500 0.187500 0.187500
v -1.187500 -0.187500 -0.187500
v -1.187500 -0.187500 0.187500
v -1.062500 0.125000 2.062500
v -1.062500 0.125000 0.187500
v -1.062500 -0.125000 2.062500
v -1.062500 -0.125000 0.187500
v -1.187500 0.125000 0.187500
v -1.187500 0.125000 2.062500
v -1.187500 -0.125000 0.187500
v -1.187500 -0.125000 2.062500
v -1.062500 0.187500 2.437500
v -1.062500 0.187500 2.062500
v -1.062500 -0.187500 2.437500
v -1.062500 -0.187500 2.062500
v -1.187500 0.187500 2.062500
v -1.187500 0.187500 2.437500
v -1.187500 -0.187500 2.062500
v -1.187500 -0.187500 2.437500
v -1.000000 0.125000 2.375000
v -1.000000 0.125000 2.125000
v -1.000000 -0.125000 2.375000
v -1.000000 -0.125000 2.125000
v -1.250000 0.125000 2.125000
v -1.250000 0.125000 2.375000
v -1.250000 -0.125000 2.125000
v -1.250000 -0.125000 2.375000
v -1.062500 0.125000 4.312500
v -1.062500 0.125000 2.437500
v -1.062500 -0.125000 4.312500
v -1.062500 -0.125000 2.437500
v -1.187500 0.125000 2.437500
v -1.187500 0.125000 4.312500
v -1.187500 -0.125000 2.437500
v -1.187500 -0.125000 4.312500
v -1.062500 0.187500 4.687500
v -1.062500 0.187500 4.312500
v -1.062500 -0.187500 4.687500
v -1.062500 -0.187500 4.312500
v -1.187500 0.187500 4.312500
v -1.187500 0.187500 4.687500
v -1.187500 -0.187500 4.312500
v -1.187500 -0.187500 4.687500
v -1.000000 0.125000 4.625000
v -1.000000 0.125000 4.375000
v -1.000000 -0.125000 4.625000
v -1.000000 -0.125000 4.375000
v -1.250000 0.125000 4.375000
v -1.250000 0.125000 4.625000
v -1.250000 -0.125000 4.375000
v -1.250000 -0.125000 4.625000
v -1.000000 0.125000 0.125000
v -1.000000 0.125000 -0.125000
v -1.000000 -0.125000 0.125000
v -1.000000 -0.125000 -0.125000
v -1.250000 0.125000 -0.125000
v -1.250000 0.125000 0.125000
v -1.250000 -0.125000 -0.125000
v -1.250000 -0.125000 0.125000
v -1.000000 0.125000 -2.125000
v -1.000000 0.125000 -2.375000
v -1.000000 -0.125000 -2.125000
v -1.000000 -0.125000 -2.375000
v -1.250000 0.125000 -2.375000
v -1.250000 0.125000 -2.125000
v -1.250000 -0.125000 -2.375000
v -1.250000 -0.125000 -2.125000
vn -0.0000 -0.0000 -1.0000
vn 1.0000 -0.0000 -0.0000
vn -0.0000 -0.0000 1.0000
vn -1.0000 -0.0000 -0.0000
vn -0.0000 1.0000 -0.0000
vn -0.0000 -1.0000 -0.0000
vt 0.928571 0.035714
vt 0.892857 0.035714
vt 0.892857 0.071429
vt 0.928571 0.071429
vt 0.857143 0.035714
vt 0.857143 0.071429
vt 0.839286 0.008929
vt 0.857143 0.008929
vt 0.857143 0.062500
vt 0.839286 0.062500
vt 0.785714 0.008929
vt 0.785714 0.062500
vt 0.982143 0.571429
vt 1.000000 0.571429
vt 1.000000 0.607143
vt 0.982143 0.607143
vt 0.732143 0.571429
vt 0.732143 0.607143
vt 0.750000 0.571429
vt 0.750000 0.607143
vt 1.000000 0.553571
vt 0.732143 0.553571
s 1
usemtl xl_textures
f 4/1/1 7/2/1 5/3/1 2/4/1
f 3/5/2 4/2/2 2/3/2 1/6/2
f 8/2/3 3/1/3 1/4/3 6/3/3
f 7/2/4 8/5/4 6/6/4 5/3/4
f 6/2/5 1/1/5 2/4/5 5/3/5
f 7/2/6 4/1/6 3/4/6 8/3/6
f 12/7/1 15/8/1 13/9/1 10/10/1
f 11/11/2 12/7/2 10/10/2 9/12/2
f 16/7/3 11/8/3 9/9/3 14/10/3
f 15/11/4 16/7/4 14/10/4 13/12/4
f 14/10/5 9/9/5 10/8/5 13/7/5
f 15/10/6 12/9/6 11/8/6 16/7/6
f 20/13/1 23/14/1 21/15/1 18/16/1
f 19/17/2 20/14/2 18/15/2 17/18/2
f 24/17/3 19/19/3 17/20/3 22/18/3
f 23/17/4 24/14/4 22/15/4 21/18/4
f 22/21/5 17/14/5 18/17/5 21/22/5
f 23/21/6 20/14/6 19/17/6 24/22/6
f 28/7/1 31/8/1 29/9/1 26/10/1
f 27/11/2 28/7/2 26/10/2 25/12/2
f 32/7/3 27/8/3 25/9/3 30/10/3
f 31/11/4 32/7/4 30/10/4 29/12/4
f 30/10/5 25/9/5 26/8/5 29/7/5
f 31/10/6 28/9/6 27/8/6 32/7/6
f 36/13/1 39/14/1 37/15/1 34/16/1
f 35/17/2 36/14/2 34/15/2 33/18/2
f 40/17/3 35/19/3 33/20/3 38/18/3
f 39/17/4 40/14/4 38/15/4 37/18/4
f 38/21/5 33/14/5 34/17/5 37/22/5
f 39/21/6 36/14/6 35/17/6 40/22/6
f 44/7/1 47/8/1 45/9/1 42/10/1
f 43/11/2 44/7/2 42/10/2 41/12/2
f 48/7/3 43/8/3 41/9/3 46/10/3
f 47/11/4 48/7/4 46/10/4 45/12/4
f 46/10/5 41/9/5 42/8/5 45/7/5
f 47/10/6 44/9/6 43/8/6 48/7/6
f 52/13/1 55/14/1 53/15/1 50/16/1
f 51/17/2 52/14/2 50/15/2 49/18/2
f 56/17/3 51/19/3 49/20/3 54/18/3
f 55/17/4 56/14/4 54/15/4 53/18/4
f 54/21/5 49/14/5 50/17/5 53/22/5
f 55/21/6 52/14/6 51/17/6 56/22/6
f 60/7/1 63/8/1 61/9/1 58/10/1
f 59/11/2 60/7/2 58/10/2 57/12/2
f 64/7/3 59/8/3 57/9/3 62/10/3
f 63/11/4 64/7/4 62/10/4 61/12/4
f 62/10/5 57/9/5 58/8/5 61/7/5
f 63/10/6 60/9/6 59/8/6 64/7/6
f 68/1/1 71/2/1 69/3/1 66/4/1
f 67/5/2 68/2/2 66/3/2 65/6/2
f 72/2/3 67/1/3 65/4/3 70/3/3
f 71/2/4 72/5/4 70/6/4 69/3/4
f 70/2/5 65/1/5 66/4/5 69/3/5
f 71/2/6 68/1/6 67/4/6 72/3/6
f 76/13/1 79/14/1 77/15/1 74/16/1
f 75/17/2 76/14/2 74/15/2 73/18/2
f 80/17/3 75/19/3 73/20/3 78/18/3
f 79/17/4 80/14/4 78/15/4 77/18/4
f 78/21/5 73/14/5 74/17/5 77/22/5
f 79/21/6 76/14/6 75/17/6 80/22/6
f 84/7/1 87/8/1 85/9/1 82/10/1
f 83/11/2 84/7/2 82/10/2 81/12/2
f 88/7/3 83/8/3 81/9/3 86/10/3
f 87/11/4 88/7/4 86/10/4 85/12/4
f 86/10/5 81/9/5 82/8/5 85/7/5
f 87/10/6 84/9/6 83/8/6 88/7/6
f 92/1/1 95/2/1 93/3/1 90/4/1
f 91/5/2 92/2/2 90/3/2 89/6/2
f 96/2/3 91/1/3 89/4/3 94/3/3
f 95/2/4 96/5/4 94/6/4 93/3/4
f 94/2/5 89/1/5 90/4/5 93/3/5
f 95/2/6 92/1/6 91/4/6 96/3/6
f 100/1/1 103/2/1 101/3/1 98/4/1
f 99/5/2 100/2/2 98/3/2 97/6/2
f 104/2/3 99/1/3 97/4/3 102/3/3
f 103/2/4 104/5/4 102/6/4 101/3/4
f 102/2/5 97/1/5 98/4/5 101/3/5
f 103/2/6 100/1/6 99/4/6 104/3/6
f 108/1/1 111/2/1 109/3/1 106/4/1
f 107/5/2 108/2/2 106/3/2 105/6/2
f 112/2/3 107/1/3 105/4/3 110/3/3
f 111/2/4 112/5/4 110/6/4 109/3/4
f 110/2/5 105/1/5 106/4/5 109/3/5
f 111/2/6 108/1/6 107/4/6 112/3/6
