# Made in Blockbench 4.12.5
mtllib textures.mtl

o cube
v 0.6875 0.625 2.5
v 0.6875 0.625 1.5
v 0.6875 0.5625 2.5
v 0.6875 0.5625 1.5
v 0.5 0.625 2.5
v 0.5 0.625 1.5
v 0.5 0.5625 2.5
v 0.5 0.5625 1.5
v 0.6875 0.625 1.5
v 0.6875 0.625 0.5
v 0.6875 0.5625 1.5
v 0.6875 0.5625 0.5
v 0.5 0.625 1.5
v 0.5 0.625 0.5
v 0.5 0.5625 1.5
v 0.5 0.5625 0.5
v 0.6875 0.625 0.5
v 0.6875 0.625 -0.5
v 0.6875 0.5625 0.5
v 0.6875 0.5625 -0.5
v 0.5 0.625 0.5
v 0.5 0.625 -0.5
v 0.5 0.5625 0.5
v 0.5 0.5625 -0.5
v 0.6875 0.625 -0.5
v 0.6875 0.625 -1.5
v 0.6875 0.5625 -0.5
v 0.6875 0.5625 -1.5
v 0.5 0.625 -0.5
v 0.5 0.625 -1.5
v 0.5 0.5625 -0.5
v 0.5 0.5625 -1.5
v 0.6875 0.625 -1.5
v 0.6875 0.625 -2.5
v 0.6875 0.5625 -1.5
v 0.6875 0.5625 -2.5
v 0.5 0.625 -1.5
v 0.5 0.625 -2.5
v 0.5 0.5625 -1.5
v 0.5 0.5625 -2.5
v 0.6875 1.3125 0.375
v 0.6875 1.3125 0.3125
v 0.6875 1.25 0.375
v 0.6875 1.25 0.3125
v 0.5 1.3125 0.375
v 0.5 1.3125 0.3125
v 0.5 1.25 0.375
v 0.5 1.25 0.3125
v 0.6875 1.3125 -1.3125
v 0.6875 1.3125 -1.375
v 0.6875 1.25 -1.3125
v 0.6875 1.25 -1.375
v 0.5 1.3125 -1.3125
v 0.5 1.3125 -1.375
v 0.5 1.25 -1.3125
v 0.5 1.25 -1.375
v -0.5 1.3125 0.375
v -0.5 1.3125 0.3125
v -0.5 1.25 0.375
v -0.5 1.25 0.3125
v -0.6875 1.3125 0.375
v -0.6875 1.3125 0.3125
v -0.6875 1.25 0.375
v -0.6875 1.25 0.3125
v -0.5 1.3125 -1.3125
v -0.5 1.3125 -1.375
v -0.5 1.25 -1.3125
v -0.5 1.25 -1.375
v -0.6875 1.3125 -1.3125
v -0.6875 1.3125 -1.375
v -0.6875 1.25 -1.3125
v -0.6875 1.25 -1.375
v 0.6875 1.3125 -0.3125
v 0.6875 1.3125 -1.3125
v 0.6875 1.25 -0.3125
v 0.6875 1.25 -1.3125
v 0.5 1.3125 -0.3125
v 0.5 1.3125 -1.3125
v 0.5 1.25 -0.3125
v 0.5 1.25 -1.3125
v 0.6875 1.3125 1.375
v 0.6875 1.3125 0.375
v 0.6875 1.25 1.375
v 0.6875 1.25 0.375
v 0.5 1.3125 1.375
v 0.5 1.3125 0.375
v 0.5 1.25 1.375
v 0.5 1.25 0.375
v 0.6875 1.3125 2.0625
v 0.6875 1.3125 1.375
v 0.6875 1.25 2.0625
v 0.6875 1.25 1.375
v 0.5 1.3125 2.0625
v 0.5 1.3125 1.375
v 0.5 1.25 2.0625
v 0.5 1.25 1.375
v -0.5 1.3125 2.0625
v -0.5 1.3125 1.375
v -0.5 1.25 2.0625
v -0.5 1.25 1.375
v -0.6875 1.3125 2.0625
v -0.6875 1.3125 1.375
v -0.6875 1.25 2.0625
v -0.6875 1.25 1.375
v 0.6875 0.9776518750000001 3.4958943749999998
v 0.6875 1.3125 2.6875
v 0.6875 0.919909375 3.471976875
v 0.6875 1.2547575 2.6635825
v 0.5 0.9776518750000001 3.4958943749999998
v 0.5 1.3125 2.6875
v 0.5 0.919909375 3.471976875
v 0.5 1.2547575 2.6635825
v 0.6875 1.3125 -2
v 0.6875 0.9776518750000001 -2.8083943749999998
v 0.6875 1.2547575 -1.9760825
v 0.6875 0.919909375 -2.784476875
v 0.5 1.3125 -2
v 0.5 0.9776518750000001 -2.8083943749999998
v 0.5 1.2547575 -1.9760825
v 0.5 0.919909375 -2.784476875
v -0.5 0.625 1.5
v -0.5 0.625 0.5
v -0.5 0.5625 1.5
v -0.5 0.5625 0.5
v -0.6875 0.625 1.5
v -0.6875 0.625 0.5
v -0.6875 0.5625 1.5
v -0.6875 0.5625 0.5
v -0.5 0.625 2.5
v -0.5 0.625 1.5
v -0.5 0.5625 2.5
v -0.5 0.5625 1.5
v -0.6875 0.625 2.5
v -0.6875 0.625 1.5
v -0.6875 0.5625 2.5
v -0.6875 0.5625 1.5
v -0.5 0.625 3.125
v -0.5 0.625 2.5
v -0.5 0.5625 3.125
v -0.5 0.5625 2.5
v -0.6875 0.625 3.125
v -0.6875 0.625 2.5
v -0.6875 0.5625 3.125
v -0.6875 0.5625 2.5
v 0.6875 0.625 3.125
v 0.6875 0.625 2.5
v 0.6875 0.5625 3.125
v 0.6875 0.5625 2.5
v 0.5 0.625 3.125
v 0.5 0.625 2.5
v 0.5 0.5625 3.125
v 0.5 0.5625 2.5
v -0.5 0.625 0.5
v -0.5 0.625 -0.5
v -0.5 0.5625 0.5
v -0.5 0.5625 -0.5
v -0.6875 0.625 0.5
v -0.6875 0.625 -0.5
v -0.6875 0.5625 0.5
v -0.6875 0.5625 -0.5
v -0.5 0.625 -0.5
v -0.5 0.625 -1.5
v -0.5 0.5625 -0.5
v -0.5 0.5625 -1.5
v -0.6875 0.625 -0.5
v -0.6875 0.625 -1.5
v -0.6875 0.5625 -0.5
v -0.6875 0.5625 -1.5
v -0.5 0.625 -1.5
v -0.5 0.625 -2.5
v -0.5 0.5625 -1.5
v -0.5 0.5625 -2.5
v -0.6875 0.625 -1.5
v -0.6875 0.625 -2.5
v -0.6875 0.5625 -1.5
v -0.6875 0.5625 -2.5
v -0.5 1.3125 -2
v -0.5 0.9776518750000001 -2.8083943749999998
v -0.5 1.2547575 -1.9760825
v -0.5 0.919909375 -2.784476875
v -0.6875 1.3125 -2
v -0.6875 0.9776518750000001 -2.8083943749999998
v -0.6875 1.2547575 -1.9760825
v -0.6875 0.919909375 -2.784476875
v -0.5 1.3125 -0.3125
v -0.5 1.3125 -1.3125
v -0.5 1.25 -0.3125
v -0.5 1.25 -1.3125
v -0.6875 1.3125 -0.3125
v -0.6875 1.3125 -1.3125
v -0.6875 1.25 -0.3125
v -0.6875 1.25 -1.3125
v -0.5 1.3125 1.375
v -0.5 1.3125 0.375
v -0.5 1.25 1.375
v -0.5 1.25 0.375
v -0.6875 1.3125 1.375
v -0.6875 1.3125 0.375
v -0.6875 1.25 1.375
v -0.6875 1.25 0.375
v -0.5 0.9776518750000001 3.4958943749999998
v -0.5 1.3125 2.6875
v -0.5 0.919909375 3.471976875
v -0.5 1.2547575 2.6635825
v -0.6875 0.9776518750000001 3.4958943749999998
v -0.6875 1.3125 2.6875
v -0.6875 0.919909375 3.471976875
v -0.6875 1.2547575 2.6635825
vt 0.1875 1
vt 0.125 1
vt 0.125 0
vt 0.1875 0
vt 0.25 0
vt 0.3125 0
vt 0.3125 1
vt 0.25 1
vt 0.125 0
vt 0.125 1
vt 0.3125 1
vt 0.3125 0
vt 0.125 1
vt 0.125 0
vt 0.3125 0
vt 0.3125 1
vt 0.1875 1
vt 0.125 1
vt 0.125 0
vt 0.1875 0
vt 0.25 0
vt 0.3125 0
vt 0.3125 1
vt 0.25 1
vt 0.125 0
vt 0.125 1
vt 0.3125 1
vt 0.3125 0
vt 0.125 1
vt 0.125 0
vt 0.3125 0
vt 0.3125 1
vt 0.1875 1
vt 0.125 1
vt 0.125 0
vt 0.1875 0
vt 0.25 0
vt 0.3125 0
vt 0.3125 1
vt 0.25 1
vt 0.125 0
vt 0.125 1
vt 0.3125 1
vt 0.3125 0
vt 0.125 1
vt 0.125 0
vt 0.3125 0
vt 0.3125 1
vt 0.1875 1
vt 0.125 1
vt 0.125 0
vt 0.1875 0
vt 0.25 0
vt 0.3125 0
vt 0.3125 1
vt 0.25 1
vt 0.125 0
vt 0.125 1
vt 0.3125 1
vt 0.3125 0
vt 0.125 1
vt 0.125 0
vt 0.3125 0
vt 0.3125 1
vt 0.1875 1
vt 0.125 1
vt 0.125 0
vt 0.1875 0
vt 0.25 0
vt 0.3125 0
vt 0.3125 1
vt 0.25 1
vt 0.125 0
vt 0.125 1
vt 0.3125 1
vt 0.3125 0
vt 0.125 1
vt 0.125 0
vt 0.3125 0
vt 0.3125 1
vt 0.1875 0.9375
vt 0.125 0.9375
vt 0.125 1
vt 0.1875 1
vt 0.25 1
vt 0.3125 1
vt 0.3125 0.9375
vt 0.25 0.9375
vt 0.125 1
vt 0.125 0.9375
vt 0.3125 0.9375
vt 0.3125 1
vt 0.125 0.9375
vt 0.125 1
vt 0.3125 1
vt 0.3125 0.9375
vt 0.1875 0.9375
vt 0.125 0.9375
vt 0.125 1
vt 0.1875 1
vt 0.25 1
vt 0.3125 1
vt 0.3125 0.9375
vt 0.25 0.9375
vt 0.125 1
vt 0.125 0.9375
vt 0.3125 0.9375
vt 0.3125 1
vt 0.125 0.9375
vt 0.125 1
vt 0.3125 1
vt 0.3125 0.9375
vt 0.25 0.9375
vt 0.3125 0.9375
vt 0.3125 1
vt 0.25 1
vt 0.1875 1
vt 0.125 1
vt 0.125 0.9375
vt 0.1875 0.9375
vt 0.3125 1
vt 0.3125 0.9375
vt 0.125 0.9375
vt 0.125 1
vt 0.3125 0.9375
vt 0.3125 1
vt 0.125 1
vt 0.125 0.9375
vt 0.25 0.9375
vt 0.3125 0.9375
vt 0.3125 1
vt 0.25 1
vt 0.1875 1
vt 0.125 1
vt 0.125 0.9375
vt 0.1875 0.9375
vt 0.3125 1
vt 0.3125 0.9375
vt 0.125 0.9375
vt 0.125 1
vt 0.3125 0.9375
vt 0.3125 1
vt 0.125 1
vt 0.125 0.9375
vt 0.1875 0
vt 0.125 0
vt 0.125 1
vt 0.1875 1
vt 0.25 1
vt 0.3125 1
vt 0.3125 0
vt 0.25 0
vt 0.125 1
vt 0.125 0
vt 0.3125 0
vt 0.3125 1
vt 0.125 0
vt 0.125 1
vt 0.3125 1
vt 0.3125 0
vt 0.1875 0
vt 0.125 0
vt 0.125 1
vt 0.1875 1
vt 0.25 1
vt 0.3125 1
vt 0.3125 0
vt 0.25 0
vt 0.125 1
vt 0.125 0
vt 0.3125 0
vt 0.3125 1
vt 0.125 0
vt 0.125 1
vt 0.3125 1
vt 0.3125 0
vt 0.1875 0
vt 0.125 0
vt 0.125 0.6875
vt 0.1875 0.6875
vt 0.25 0.6875
vt 0.3125 0.6875
vt 0.3125 0
vt 0.25 0
vt 0.125 0.6875
vt 0.125 0
vt 0.3125 0
vt 0.3125 0.6875
vt 0.125 0
vt 0.125 0.6875
vt 0.3125 0.6875
vt 0.3125 0
vt 0.25 0
vt 0.3125 0
vt 0.3125 0.6875
vt 0.25 0.6875
vt 0.1875 0.6875
vt 0.125 0.6875
vt 0.125 0
vt 0.1875 0
vt 0.3125 0.6875
vt 0.3125 0
vt 0.125 0
vt 0.125 0.6875
vt 0.3125 0
vt 0.3125 0.6875
vt 0.125 0.6875
vt 0.125 0
vt 0.125 0.0625
vt 0.1875 0.0625
vt 0.1875 0.9375
vt 0.125 0.9375
vt 0.375 0.9375
vt 0.3125 0.9375
vt 0.3125 0.0625
vt 0.375 0.0625
vt 0.125 0.9375
vt 0.125 0.0625
vt 0.3125 0.0625
vt 0.3125 0.9375
vt 0.125 0.0625
vt 0.125 0.9375
vt 0.3125 0.9375
vt 0.3125 0.0625
vt 0.125 0.0625
vt 0.1875 0.0625
vt 0.1875 0.9375
vt 0.125 0.9375
vt 0.375 0.9375
vt 0.3125 0.9375
vt 0.3125 0.0625
vt 0.375 0.0625
vt 0.125 0.9375
vt 0.125 0.0625
vt 0.3125 0.0625
vt 0.3125 0.9375
vt 0.125 0.0625
vt 0.125 0.9375
vt 0.3125 0.9375
vt 0.3125 0.0625
vt 0.25 1
vt 0.3125 1
vt 0.3125 0
vt 0.25 0
vt 0.1875 0
vt 0.125 0
vt 0.125 1
vt 0.1875 1
vt 0.3125 0
vt 0.3125 1
vt 0.125 1
vt 0.125 0
vt 0.3125 1
vt 0.3125 0
vt 0.125 0
vt 0.125 1
vt 0.25 1
vt 0.3125 1
vt 0.3125 0
vt 0.25 0
vt 0.1875 0
vt 0.125 0
vt 0.125 1
vt 0.1875 1
vt 0.3125 0
vt 0.3125 1
vt 0.125 1
vt 0.125 0
vt 0.3125 1
vt 0.3125 0
vt 0.125 0
vt 0.125 1
vt 0.25 1
vt 0.3125 1
vt 0.3125 0.375
vt 0.25 0.375
vt 0.1875 0.375
vt 0.125 0.375
vt 0.125 1
vt 0.1875 1
vt 0.3125 0.375
vt 0.3125 1
vt 0.125 1
vt 0.125 0.375
vt 0.3125 1
vt 0.3125 0.375
vt 0.125 0.375
vt 0.125 1
vt 0.1875 1
vt 0.125 1
vt 0.125 0.375
vt 0.1875 0.375
vt 0.25 0.375
vt 0.3125 0.375
vt 0.3125 1
vt 0.25 1
vt 0.125 0.375
vt 0.125 1
vt 0.3125 1
vt 0.3125 0.375
vt 0.125 1
vt 0.125 0.375
vt 0.3125 0.375
vt 0.3125 1
vt 0.25 1
vt 0.3125 1
vt 0.3125 0
vt 0.25 0
vt 0.1875 0
vt 0.125 0
vt 0.125 1
vt 0.1875 1
vt 0.3125 0
vt 0.3125 1
vt 0.125 1
vt 0.125 0
vt 0.3125 1
vt 0.3125 0
vt 0.125 0
vt 0.125 1
vt 0.25 1
vt 0.3125 1
vt 0.3125 0
vt 0.25 0
vt 0.1875 0
vt 0.125 0
vt 0.125 1
vt 0.1875 1
vt 0.3125 0
vt 0.3125 1
vt 0.125 1
vt 0.125 0
vt 0.3125 1
vt 0.3125 0
vt 0.125 0
vt 0.125 1
vt 0.25 1
vt 0.3125 1
vt 0.3125 0
vt 0.25 0
vt 0.1875 0
vt 0.125 0
vt 0.125 1
vt 0.1875 1
vt 0.3125 0
vt 0.3125 1
vt 0.125 1
vt 0.125 0
vt 0.3125 1
vt 0.3125 0
vt 0.125 0
vt 0.125 1
vt 0.375 0.0625
vt 0.3125 0.0625
vt 0.3125 0.9375
vt 0.375 0.9375
vt 0.125 0.9375
vt 0.1875 0.9375
vt 0.1875 0.0625
vt 0.125 0.0625
vt 0.3125 0.9375
vt 0.3125 0.0625
vt 0.125 0.0625
vt 0.125 0.9375
vt 0.3125 0.0625
vt 0.3125 0.9375
vt 0.125 0.9375
vt 0.125 0.0625
vt 0.25 0
vt 0.3125 0
vt 0.3125 1
vt 0.25 1
vt 0.1875 1
vt 0.125 1
vt 0.125 0
vt 0.1875 0
vt 0.3125 1
vt 0.3125 0
vt 0.125 0
vt 0.125 1
vt 0.3125 0
vt 0.3125 1
vt 0.125 1
vt 0.125 0
vt 0.25 0
vt 0.3125 0
vt 0.3125 1
vt 0.25 1
vt 0.1875 1
vt 0.125 1
vt 0.125 0
vt 0.1875 0
vt 0.3125 1
vt 0.3125 0
vt 0.125 0
vt 0.125 1
vt 0.3125 0
vt 0.3125 1
vt 0.125 1
vt 0.125 0
vt 0.375 0.0625
vt 0.3125 0.0625
vt 0.3125 0.9375
vt 0.375 0.9375
vt 0.125 0.9375
vt 0.1875 0.9375
vt 0.1875 0.0625
vt 0.125 0.0625
vt 0.3125 0.9375
vt 0.3125 0.0625
vt 0.125 0.0625
vt 0.125 0.9375
vt 0.3125 0.0625
vt 0.3125 0.9375
vt 0.125 0.9375
vt 0.125 0.0625
vn 1 0 0
vn -1 0 0
vn 0 1 0
vn 0 -1 0
vn 1 0 0
vn -1 0 0
vn 0 1 0
vn 0 -1 0
vn 1 0 0
vn -1 0 0
vn 0 1 0
vn 0 -1 0
vn 1 0 0
vn -1 0 0
vn 0 1 0
vn 0 -1 0
vn 1 0 0
vn -1 0 0
vn 0 1 0
vn 0 -1 0
vn 1 0 0
vn -1 0 0
vn 0 1 0
vn 0 -1 0
vn 1 0 0
vn -1 0 0
vn 0 1 0
vn 0 -1 0
vn 1 0 0
vn -1 0 0
vn 0 1 0
vn 0 -1 0
vn 1 0 0
vn -1 0 0
vn 0 1 0
vn 0 -1 0
vn 1 0 0
vn -1 0 0
vn 0 1 0
vn 0 -1 0
vn 1 0 0
vn -1 0 0
vn 0 1 0
vn 0 -1 0
vn 1 0 0
vn -1 0 0
vn 0 1 0
vn 0 -1 0
vn 1 0 0
vn -1 0 0
vn 0 1 0
vn 0 -1 0
vn 1 0 0
vn -1 0 0
vn 0 0.9238794472022994 0.38268363831913904
vn 0 -0.9238794472022994 -0.38268363831913904
vn 1 0 0
vn -1 0 0
vn 0 0.9238794472022994 -0.38268363831913915
vn 0 -0.9238794472022994 0.382683638319139
vn 1 0 0
vn -1 0 0
vn 0 1 0
vn 0 -1 0
vn 1 0 0
vn -1 0 0
vn 0 1 0
vn 0 -1 0
vn 1 0 0
vn -1 0 0
vn 0 1 0
vn 0 -1 0
vn 1 0 0
vn -1 0 0
vn 0 1 0
vn 0 -1 0
vn 1 0 0
vn -1 0 0
vn 0 1 0
vn 0 -1 0
vn 1 0 0
vn -1 0 0
vn 0 1 0
vn 0 -1 0
vn 1 0 0
vn -1 0 0
vn 0 1 0
vn 0 -1 0
vn 1 0 0
vn -1 0 0
vn 0 0.9238794472022994 -0.38268363831913915
vn 0 -0.9238794472022994 0.382683638319139
vn 1 0 0
vn -1 0 0
vn 0 1 0
vn 0 -1 0
vn 1 0 0
vn -1 0 0
vn 0 1 0
vn 0 -1 0
vn 1 0 0
vn -1 0 0
vn 0 0.9238794472022994 0.38268363831913904
vn 0 -0.9238794472022994 -0.38268363831913904
usemtl belts
f 4/1/1 2/2/1 1/3/1 3/4/1
f 7/5/2 5/6/2 6/7/2 8/8/2
f 1/9/3 2/10/3 6/11/3 5/12/3
f 4/13/4 3/14/4 7/15/4 8/16/4
f 12/17/5 10/18/5 9/19/5 11/20/5
f 15/21/6 13/22/6 14/23/6 16/24/6
f 9/25/7 10/26/7 14/27/7 13/28/7
f 12/29/8 11/30/8 15/31/8 16/32/8
f 20/33/9 18/34/9 17/35/9 19/36/9
f 23/37/10 21/38/10 22/39/10 24/40/10
f 17/41/11 18/42/11 22/43/11 21/44/11
f 20/45/12 19/46/12 23/47/12 24/48/12
f 28/49/13 26/50/13 25/51/13 27/52/13
f 31/53/14 29/54/14 30/55/14 32/56/14
f 25/57/15 26/58/15 30/59/15 29/60/15
f 28/61/16 27/62/16 31/63/16 32/64/16
f 36/65/17 34/66/17 33/67/17 35/68/17
f 39/69/18 37/70/18 38/71/18 40/72/18
f 33/73/19 34/74/19 38/75/19 37/76/19
f 36/77/20 35/78/20 39/79/20 40/80/20
f 44/81/21 42/82/21 41/83/21 43/84/21
f 47/85/22 45/86/22 46/87/22 48/88/22
f 41/89/23 42/90/23 46/91/23 45/92/23
f 44/93/24 43/94/24 47/95/24 48/96/24
f 52/97/25 50/98/25 49/99/25 51/100/25
f 55/101/26 53/102/26 54/103/26 56/104/26
f 49/105/27 50/106/27 54/107/27 53/108/27
f 52/109/28 51/110/28 55/111/28 56/112/28
f 60/113/29 58/114/29 57/115/29 59/116/29
f 63/117/30 61/118/30 62/119/30 64/120/30
f 57/121/31 58/122/31 62/123/31 61/124/31
f 60/125/32 59/126/32 63/127/32 64/128/32
f 68/129/33 66/130/33 65/131/33 67/132/33
f 71/133/34 69/134/34 70/135/34 72/136/34
f 65/137/35 66/138/35 70/139/35 69/140/35
f 68/141/36 67/142/36 71/143/36 72/144/36
f 76/145/37 74/146/37 73/147/37 75/148/37
f 79/149/38 77/150/38 78/151/38 80/152/38
f 73/153/39 74/154/39 78/155/39 77/156/39
f 76/157/40 75/158/40 79/159/40 80/160/40
f 84/161/41 82/162/41 81/163/41 83/164/41
f 87/165/42 85/166/42 86/167/42 88/168/42
f 81/169/43 82/170/43 86/171/43 85/172/43
f 84/173/44 83/174/44 87/175/44 88/176/44
f 92/177/45 90/178/45 89/179/45 91/180/45
f 95/181/46 93/182/46 94/183/46 96/184/46
f 89/185/47 90/186/47 94/187/47 93/188/47
f 92/189/48 91/190/48 95/191/48 96/192/48
f 100/193/49 98/194/49 97/195/49 99/196/49
f 103/197/50 101/198/50 102/199/50 104/200/50
f 97/201/51 98/202/51 102/203/51 101/204/51
f 100/205/52 99/206/52 103/207/52 104/208/52
f 108/209/53 106/210/53 105/211/53 107/212/53
f 111/213/54 109/214/54 110/215/54 112/216/54
f 105/217/55 106/218/55 110/219/55 109/220/55
f 108/221/56 107/222/56 111/223/56 112/224/56
f 116/225/57 114/226/57 113/227/57 115/228/57
f 119/229/58 117/230/58 118/231/58 120/232/58
f 113/233/59 114/234/59 118/235/59 117/236/59
f 116/237/60 115/238/60 119/239/60 120/240/60
f 124/241/61 122/242/61 121/243/61 123/244/61
f 127/245/62 125/246/62 126/247/62 128/248/62
f 121/249/63 122/250/63 126/251/63 125/252/63
f 124/253/64 123/254/64 127/255/64 128/256/64
f 132/257/65 130/258/65 129/259/65 131/260/65
f 135/261/66 133/262/66 134/263/66 136/264/66
f 129/265/67 130/266/67 134/267/67 133/268/67
f 132/269/68 131/270/68 135/271/68 136/272/68
f 140/273/69 138/274/69 137/275/69 139/276/69
f 143/277/70 141/278/70 142/279/70 144/280/70
f 137/281/71 138/282/71 142/283/71 141/284/71
f 140/285/72 139/286/72 143/287/72 144/288/72
f 148/289/73 146/290/73 145/291/73 147/292/73
f 151/293/74 149/294/74 150/295/74 152/296/74
f 145/297/75 146/298/75 150/299/75 149/300/75
f 148/301/76 147/302/76 151/303/76 152/304/76
f 156/305/77 154/306/77 153/307/77 155/308/77
f 159/309/78 157/310/78 158/311/78 160/312/78
f 153/313/79 154/314/79 158/315/79 157/316/79
f 156/317/80 155/318/80 159/319/80 160/320/80
f 164/321/81 162/322/81 161/323/81 163/324/81
f 167/325/82 165/326/82 166/327/82 168/328/82
f 161/329/83 162/330/83 166/331/83 165/332/83
f 164/333/84 163/334/84 167/335/84 168/336/84
f 172/337/85 170/338/85 169/339/85 171/340/85
f 175/341/86 173/342/86 174/343/86 176/344/86
f 169/345/87 170/346/87 174/347/87 173/348/87
f 172/349/88 171/350/88 175/351/88 176/352/88
f 180/353/89 178/354/89 177/355/89 179/356/89
f 183/357/90 181/358/90 182/359/90 184/360/90
f 177/361/91 178/362/91 182/363/91 181/364/91
f 180/365/92 179/366/92 183/367/92 184/368/92
f 188/369/93 186/370/93 185/371/93 187/372/93
f 191/373/94 189/374/94 190/375/94 192/376/94
f 185/377/95 186/378/95 190/379/95 189/380/95
f 188/381/96 187/382/96 191/383/96 192/384/96
f 196/385/97 194/386/97 193/387/97 195/388/97
f 199/389/98 197/390/98 198/391/98 200/392/98
f 193/393/99 194/394/99 198/395/99 197/396/99
f 196/397/100 195/398/100 199/399/100 200/400/100
f 204/401/101 202/402/101 201/403/101 203/404/101
f 207/405/102 205/406/102 206/407/102 208/408/102
f 201/409/103 202/410/103 206/411/103 205/412/103
f 204/413/104 203/414/104 207/415/104 208/416/104