# Made in Blockbench 4.12.5
mtllib textures.mtl

o cube
v -1.1875 0.1875 3.625
v -1.1875 0.1875 3.25
v -1.1875 -0.1875 3.625
v -1.1875 -0.1875 3.25
v -1.3125 0.1875 3.625
v -1.3125 0.1875 3.25
v -1.3125 -0.1875 3.625
v -1.3125 -0.1875 3.25
v -1.1875000000000009 0.125 3.25
v -1.3125000000000009 0.125 3.25
v -1.1875000000000009 -0.125 3.25
v -1.3125000000000009 -0.125 3.25
v -1.1875 0.125 0.1250000000000001
v -1.3125 0.125 0.1250000000000001
v -1.1875 -0.125 0.1250000000000001
v -1.3125 -0.125 0.1250000000000001
v -1.1875000000000004 0.125 1.6875
v -1.3125000000000004 0.125 1.6875
v -1.1875000000000004 -0.125 1.6875
v -1.3125000000000004 -0.125 1.6875
v -1.1875000000000004 0.125 1.6875
v -1.3125000000000004 0.125 1.6875
v -1.1875000000000004 -0.125 1.6875
v -1.3125000000000004 -0.125 1.6875
vt 0.7857142857142857 0.008928571428571397
vt 0.7857142857142857 0.0625
vt 0.8392857142857143 0.0625
vt 0.8392857142857143 0.008928571428571397
vt 0.7857142857142857 0.008928571428571397
vt 0.7857142857142857 0.0625
vt 0.8392857142857143 0.0625
vt 0.8392857142857143 0.008928571428571397
vt 0.8571428571428571 0.0625
vt 0.8571428571428571 0.008928571428571397
vt 0.8392857142857143 0.008928571428571397
vt 0.8392857142857143 0.0625
vt 0.8571428571428571 0.0625
vt 0.8571428571428571 0.008928571428571397
vt 0.8392857142857143 0.008928571428571397
vt 0.8392857142857143 0.0625
vt 0.8571428571428571 0.008928571428571397
vt 0.8571428571428571 0.0625
vt 0.8392857142857143 0.0625
vt 0.8392857142857143 0.008928571428571397
vt 0.8392857142857143 0.008928571428571397
vt 0.8392857142857143 0.0625
vt 0.8571428571428571 0.0625
vt 0.8571428571428571 0.008928571428571397
vt 0.4375 0.7321428571428572
vt 0.4375 0.7678571428571428
vt 0.45535714285714285 0.7678571428571428
vt 0.45535714285714285 0.7321428571428572
vt 0.8660714285714286 0.7321428571428572
vt 0.8660714285714286 0.7678571428571428
vt 0.8839285714285714 0.7678571428571428
vt 0.8839285714285714 0.7321428571428572
vt 0.4375 0.7321428571428572
vt 0.4375 0.7678571428571428
vt 0.45535714285714285 0.7678571428571428
vt 0.45535714285714285 0.7321428571428572
vt 1 0.75
vt 1 0.7678571428571428
vt 0.7767857142857143 0.7678571428571428
vt 0.7767857142857143 0.75
vt 1 0.7410714285714286
vt 1 0.7232142857142857
vt 0.7767857142857143 0.7232142857142857
vt 0.7767857142857143 0.7410714285714286
vt 1 0.6964285714285714
vt 1 0.7321428571428572
vt 0.7767857142857143 0.7321428571428572
vt 0.7767857142857143 0.6964285714285714
vt 0.7767857142857143 0.7321428571428572
vt 0.7767857142857143 0.7678571428571428
vt 1 0.7678571428571428
vt 1 0.7321428571428572
vt 0.8660714285714286 0.7321428571428572
vt 0.8660714285714286 0.7678571428571428
vt 0.8839285714285714 0.7678571428571428
vt 0.8839285714285714 0.7321428571428572
vt 0.6607142857142857 0.75
vt 0.6607142857142857 0.7678571428571428
vt 0.4375 0.7678571428571428
vt 0.4375 0.75
vt 0.6607142857142857 0.7410714285714286
vt 0.6607142857142857 0.7232142857142857
vt 0.4375 0.7232142857142857
vt 0.4375 0.7410714285714286
vt 0.6607142857142857 0.6964285714285714
vt 0.6607142857142857 0.7321428571428572
vt 0.4375 0.7321428571428572
vt 0.4375 0.6964285714285714
vt 0.4375 0.7321428571428572
vt 0.4375 0.7678571428571428
vt 0.6607142857142857 0.7678571428571428
vt 0.6607142857142857 0.7321428571428572
vn 1 0 0
vn -1 0 0
vn 0 1 0
vn 0 -1 0
vn 0 0 1
vn 0 0 -1
vn 0 0 1
vn 0 0 -1
vn 0 0 1
vn 0 1 0
vn 0 -1 0
vn 1 0 2.842170943040401e-16
vn -1 0 -2.842170943040401e-16
vn 0 0 -1
vn 0 1 0
vn 0 -1 0
vn 1 0 2.842170943040401e-16
vn -1 0 -2.842170943040401e-16
usemtl xl_textures
f 4/1/1 2/2/1 1/3/1 3/4/1
f 7/5/2 5/6/2 6/7/2 8/8/2
f 1/9/3 2/10/3 6/11/3 5/12/3
f 4/13/4 3/14/4 7/15/4 8/16/4
f 3/17/5 1/18/5 5/19/5 7/20/5
f 8/21/6 6/22/6 2/23/6 4/24/6
f 11/25/7 9/26/7 10/27/7 12/28/7
f 16/29/8 14/30/8 13/31/8 15/32/8
f 19/33/9 17/34/9 18/35/9 20/36/9
f 13/37/10 14/38/10 18/39/10 17/40/10
f 16/41/11 15/42/11 19/43/11 20/44/11
f 15/45/12 13/46/12 17/47/12 19/48/12
f 20/49/13 18/50/13 14/51/13 16/52/13
f 24/53/14 22/54/14 21/55/14 23/56/14
f 21/57/15 22/58/15 10/59/15 9/60/15
f 24/61/16 23/62/16 11/63/16 12/64/16
f 23/65/17 21/66/17 9/67/17 11/68/17
f 12/69/18 10/70/18 22/71/18 24/72/18