# Made in Blockbench 4.12.5
mtllib textures.mtl

o cube
v -1.375 0.0625 0.25
v -1.375 0.0625 -1.3125
v -1.375 -0.0625 0.25
v -1.375 -0.0625 -1.3125
v -1.4375 0.0625 0.25
v -1.4375 0.0625 -1.3125
v -1.4375 -0.0625 0.25
v -1.4375 -0.0625 -1.3125
v -1.375 0.0625 -1.3125
v -1.375 0.0625 -2.9375
v -1.375 -0.0625 -1.3125
v -1.375 -0.0625 -2.9375
v -1.4375 0.0625 -1.3125
v -1.4375 0.0625 -2.9375
v -1.4375 -0.0625 -1.3125
v -1.4375 -0.0625 -2.9375
v -1.44375 0.0625 0.0625
v -1.44375 0.0625 -0.0625
v -1.44375 -0.0625 0.0625
v -1.44375 -0.0625 -0.0625
v -1.50625 0.0625 0.0625
v -1.50625 0.0625 -0.0625
v -1.50625 -0.0625 0.0625
v -1.50625 -0.0625 -0.0625
vt 0.16071428571428573 0.8214285714285714
vt 0.16071428571428573 0.8392857142857143
vt 0.38392857142857145 0.8392857142857143
vt 0.38392857142857145 0.8214285714285714
vt 0.38392857142857145 0.8214285714285714
vt 0.38392857142857145 0.8392857142857143
vt 0.16071428571428573 0.8392857142857143
vt 0.16071428571428573 0.8214285714285714
vt 0.38392857142857145 0.8303571428571428
vt 0.16071428571428573 0.8303571428571428
vt 0.16071428571428573 0.8392857142857143
vt 0.38392857142857145 0.8392857142857143
vt 0.16071428571428573 0.8214285714285714
vt 0.38392857142857145 0.8214285714285714
vt 0.38392857142857145 0.8303571428571428
vt 0.16071428571428573 0.8303571428571428
vt 0.38392857142857145 0.8214285714285714
vt 0.38392857142857145 0.8392857142857143
vt 0.375 0.8392857142857143
vt 0.375 0.8214285714285714
vt 0 0.8214285714285714
vt 0 0.8392857142857143
vt 0.23214285714285715 0.8392857142857143
vt 0.23214285714285715 0.8214285714285714
vt 0.23214285714285715 0.8214285714285714
vt 0.23214285714285715 0.8392857142857143
vt 0 0.8392857142857143
vt 0 0.8214285714285714
vt 0.23214285714285715 0.8303571428571428
vt 0 0.8303571428571428
vt 0 0.8392857142857143
vt 0.23214285714285715 0.8392857142857143
vt 0 0.8214285714285714
vt 0.23214285714285715 0.8214285714285714
vt 0.23214285714285715 0.8303571428571428
vt 0 0.8303571428571428
vt 0 0.8214285714285714
vt 0 0.8392857142857143
vt 0.008928571428571428 0.8392857142857143
vt 0.008928571428571428 0.8214285714285714
vt 0.875 0.0357142857142857
vt 0.875 0.017857142857142905
vt 0.8571428571428571 0.017857142857142905
vt 0.8571428571428571 0.0357142857142857
vt 0.875 0.0357142857142857
vt 0.875 0.017857142857142905
vt 0.8571428571428571 0.017857142857142905
vt 0.8571428571428571 0.0357142857142857
vt 0.9107142857142857 0.008928571428571397
vt 0.9107142857142857 0.0267857142857143
vt 0.8839285714285714 0.0267857142857143
vt 0.8839285714285714 0.008928571428571397
vt 0.9107142857142857 0.008928571428571397
vt 0.9107142857142857 0.0267857142857143
vt 0.8839285714285714 0.0267857142857143
vt 0.8839285714285714 0.008928571428571397
vt 0.9107142857142857 0.008928571428571397
vt 0.9107142857142857 0.0267857142857143
vt 0.8839285714285714 0.0267857142857143
vt 0.8839285714285714 0.008928571428571397
vt 0.8839285714285714 0.008928571428571397
vt 0.8839285714285714 0.0267857142857143
vt 0.9107142857142857 0.0267857142857143
vt 0.9107142857142857 0.008928571428571397
vn 1 0 0
vn -1 0 0
vn 0 1 0
vn 0 -1 0
vn 0 0 1
vn 1 0 0
vn -1 0 0
vn 0 1 0
vn 0 -1 0
vn 0 0 -1
vn 1 0 0
vn -1 0 0
vn 0 1 0
vn 0 -1 0
vn 0 0 1
vn 0 0 -1
usemtl xl_textures
f 4/1/1 2/2/1 1/3/1 3/4/1
f 7/5/2 5/6/2 6/7/2 8/8/2
f 1/9/3 2/10/3 6/11/3 5/12/3
f 4/13/4 3/14/4 7/15/4 8/16/4
f 3/17/5 1/18/5 5/19/5 7/20/5
f 12/21/6 10/22/6 9/23/6 11/24/6
f 15/25/7 13/26/7 14/27/7 16/28/7
f 9/29/8 10/30/8 14/31/8 13/32/8
f 12/33/9 11/34/9 15/35/9 16/36/9
f 16/37/10 14/38/10 10/39/10 12/40/10
f 20/41/11 18/42/11 17/43/11 19/44/11
f 23/45/12 21/46/12 22/47/12 24/48/12
f 17/49/13 18/50/13 22/51/13 21/52/13
f 20/53/14 19/54/14 23/55/14 24/56/14
f 19/57/15 17/58/15 21/59/15 23/60/15
f 24/61/16 22/62/16 18/63/16 20/64/16