# Made in Blockbench 4.12.5
mtllib textures.mtl

o cube
v 1.0625 0.125 4.3125
v 1.1875 0.125 2.375
v 1.1875 0.125 2.125
v 1.1875 -0.125 2.375
v 1.1875 -0.125 2.125
v 1.25 0.125 2.375
v 1.25 0.125 2.125
v 1.25 -0.125 2.375
v 1.25 -0.125 2.125
v 1.0625 0.125 2.0625
v 1.0625 0.125 0.1875
v 1.0625 -0.125 2.0625
v 1.0625 -0.125 0.1875
v 1.1875 0.125 2.0625
v 1.1875 0.125 0.1875
v 1.1875 -0.125 2.0625
v 1.1875 -0.125 0.1875
v 1.0625 0.125 -0.1875
v 1.0625 0.125 -2.0625
v 1.0625 -0.125 -0.1875
v 1.0625 -0.125 -2.0625
v 1.1875 0.125 -0.1875
v 1.1875 0.125 -2.0625
v 1.1875 -0.125 -0.1875
v 1.1875 -0.125 -2.0625
v 1.0625 0.125 -2.4375
v 1.0625 0.125 -4.3125
v 1.0625 -0.125 -2.4375
v 1.0625 -0.125 -4.3125
v 1.1875 0.125 -2.4375
v 1.1875 0.125 -4.3125
v 1.1875 -0.125 -2.4375
v 1.1875 -0.125 -4.3125
v 1.0625 0.125 2.4375
v 1.0625 -0.125 4.3125
v 1.0625 -0.125 2.4375
v 1.1875 0.125 4.3125
v 1.1875 0.125 2.4375
v 1.1875 -0.125 4.3125
v 1.1875 -0.125 2.4375
v 1.1875 0.125 4.625
v 1.1875 0.125 4.375
v 1.1875 -0.125 4.625
v 1.1875 -0.125 4.375
v 1.25 0.125 4.625
v 1.25 0.125 4.375
v 1.25 -0.125 4.625
v 1.25 -0.125 4.375
v 1.0625 0.1875 0.1875
v 1.0625 0.1875 -0.1875
v 1.0625 -0.1875 0.1875
v 1.0625 -0.1875 -0.1875
v 1.1875 0.1875 0.1875
v 1.1875 0.1875 -0.1875
v 1.1875 -0.1875 0.1875
v 1.1875 -0.1875 -0.1875
v 1.0625 0.1875 2.4375
v 1.0625 0.1875 2.0625
v 1.0625 -0.1875 2.4375
v 1.0625 -0.1875 2.0625
v 1.1875 0.1875 2.4375
v 1.1875 0.1875 2.0625
v 1.1875 -0.1875 2.4375
v 1.1875 -0.1875 2.0625
v 1.0625 0.1875 4.6875
v 1.0625 0.1875 4.3125
v 1.0625 -0.1875 4.6875
v 1.0625 -0.1875 4.3125
v 1.1875 0.1875 4.6875
v 1.1875 0.1875 4.3125
v 1.1875 -0.1875 4.6875
v 1.1875 -0.1875 4.3125
v 1.0625 0.1875 -2.0625
v 1.0625 0.1875 -2.4375
v 1.0625 -0.1875 -2.0625
v 1.0625 -0.1875 -2.4375
v 1.1875 0.1875 -2.0625
v 1.1875 0.1875 -2.4375
v 1.1875 -0.1875 -2.0625
v 1.1875 -0.1875 -2.4375
v 1.0625 0.1875 -4.3125
v 1.0625 0.1875 -4.6875
v 1.0625 -0.1875 -4.3125
v 1.0625 -0.1875 -4.6875
v 1.1875 0.1875 -4.3125
v 1.1875 0.1875 -4.6875
v 1.1875 -0.1875 -4.3125
v 1.1875 -0.1875 -4.6875
vt 0.8928571428571429 0.0714285714285714
vt 0.8571428571428571 0.0714285714285714
vt 0.8571428571428571 0.0357142857142857
vt 0.8928571428571429 0.0357142857142857
vt 0.8928571428571429 0.0714285714285714
vt 0.9017857142857143 0.0714285714285714
vt 0.9017857142857143 0.0357142857142857
vt 0.8928571428571429 0.0357142857142857
vt 0.8928571428571429 0.0714285714285714
vt 0.9017857142857143 0.0714285714285714
vt 0.9017857142857143 0.0357142857142857
vt 0.8928571428571429 0.0357142857142857
vt 0.8928571428571429 0.0714285714285714
vt 0.9017857142857143 0.0714285714285714
vt 0.9017857142857143 0.0357142857142857
vt 0.8928571428571429 0.0357142857142857
vt 0.9017857142857143 0.0714285714285714
vt 0.8928571428571429 0.0714285714285714
vt 0.8928571428571429 0.0357142857142857
vt 0.9017857142857143 0.0357142857142857
vt 1 0.5714285714285714
vt 0.7321428571428571 0.5714285714285714
vt 0.7321428571428571 0.5357142857142857
vt 1 0.5357142857142857
vt 0.7321428571428571 0.6071428571428572
vt 1 0.6071428571428572
vt 1 0.5714285714285714
vt 0.7321428571428571 0.5714285714285714
vt 0.7321428571428571 0.5535714285714286
vt 0.7321428571428571 0.5714285714285714
vt 1 0.5714285714285714
vt 1 0.5535714285714286
vt 1 0.5714285714285714
vt 1 0.5892857142857143
vt 0.7321428571428571 0.5892857142857143
vt 0.7321428571428571 0.5714285714285714
vt 1 0.5714285714285714
vt 0.7321428571428571 0.5714285714285714
vt 0.7321428571428571 0.5357142857142857
vt 1 0.5357142857142857
vt 0.7321428571428571 0.6071428571428572
vt 1 0.6071428571428572
vt 1 0.5714285714285714
vt 0.7321428571428571 0.5714285714285714
vt 0.7321428571428571 0.5535714285714286
vt 0.7321428571428571 0.5714285714285714
vt 1 0.5714285714285714
vt 1 0.5535714285714286
vt 1 0.5714285714285714
vt 1 0.5892857142857143
vt 0.7321428571428571 0.5892857142857143
vt 0.7321428571428571 0.5714285714285714
vt 1 0.5714285714285714
vt 0.7321428571428571 0.5714285714285714
vt 0.7321428571428571 0.5357142857142857
vt 1 0.5357142857142857
vt 0.7321428571428571 0.6071428571428572
vt 1 0.6071428571428572
vt 1 0.5714285714285714
vt 0.7321428571428571 0.5714285714285714
vt 0.7321428571428571 0.5535714285714286
vt 0.7321428571428571 0.5714285714285714
vt 1 0.5714285714285714
vt 1 0.5535714285714286
vt 1 0.5714285714285714
vt 1 0.5892857142857143
vt 0.7321428571428571 0.5892857142857143
vt 0.7321428571428571 0.5714285714285714
vt 1 0.5714285714285714
vt 0.7321428571428571 0.5714285714285714
vt 0.7321428571428571 0.5357142857142857
vt 1 0.5357142857142857
vt 0.7321428571428571 0.6071428571428572
vt 1 0.6071428571428572
vt 1 0.5714285714285714
vt 0.7321428571428571 0.5714285714285714
vt 0.7321428571428571 0.5535714285714286
vt 0.7321428571428571 0.5714285714285714
vt 1 0.5714285714285714
vt 1 0.5535714285714286
vt 1 0.5714285714285714
vt 1 0.5892857142857143
vt 0.7321428571428571 0.5892857142857143
vt 0.7321428571428571 0.5714285714285714
vt 0.8928571428571429 0.0714285714285714
vt 0.8571428571428571 0.0714285714285714
vt 0.8571428571428571 0.0357142857142857
vt 0.8928571428571429 0.0357142857142857
vt 0.8928571428571429 0.0714285714285714
vt 0.9017857142857143 0.0714285714285714
vt 0.9017857142857143 0.0357142857142857
vt 0.8928571428571429 0.0357142857142857
vt 0.8928571428571429 0.0714285714285714
vt 0.9017857142857143 0.0714285714285714
vt 0.9017857142857143 0.0357142857142857
vt 0.8928571428571429 0.0357142857142857
vt 0.8928571428571429 0.0714285714285714
vt 0.9017857142857143 0.0714285714285714
vt 0.9017857142857143 0.0357142857142857
vt 0.8928571428571429 0.0357142857142857
vt 0.9017857142857143 0.0714285714285714
vt 0.8928571428571429 0.0714285714285714
vt 0.8928571428571429 0.0357142857142857
vt 0.9017857142857143 0.0357142857142857
vt 0.7857142857142857 0.0625
vt 0.8392857142857143 0.0625
vt 0.8392857142857143 0.008928571428571397
vt 0.7857142857142857 0.008928571428571397
vt 0.8392857142857143 0.0625
vt 0.8571428571428571 0.0625
vt 0.8571428571428571 0.008928571428571397
vt 0.8392857142857143 0.008928571428571397
vt 0.8392857142857143 0.0625
vt 0.8571428571428571 0.0625
vt 0.8571428571428571 0.008928571428571397
vt 0.8392857142857143 0.008928571428571397
vt 0.8392857142857143 0.0625
vt 0.8571428571428571 0.0625
vt 0.8571428571428571 0.008928571428571397
vt 0.8392857142857143 0.008928571428571397
vt 0.8571428571428571 0.0625
vt 0.8392857142857143 0.0625
vt 0.8392857142857143 0.008928571428571397
vt 0.8571428571428571 0.008928571428571397
vt 0.7857142857142857 0.0625
vt 0.8392857142857143 0.0625
vt 0.8392857142857143 0.008928571428571397
vt 0.7857142857142857 0.008928571428571397
vt 0.8392857142857143 0.0625
vt 0.8571428571428571 0.0625
vt 0.8571428571428571 0.008928571428571397
vt 0.8392857142857143 0.008928571428571397
vt 0.8392857142857143 0.0625
vt 0.8571428571428571 0.0625
vt 0.8571428571428571 0.008928571428571397
vt 0.8392857142857143 0.008928571428571397
vt 0.8392857142857143 0.0625
vt 0.8571428571428571 0.0625
vt 0.8571428571428571 0.008928571428571397
vt 0.8392857142857143 0.008928571428571397
vt 0.8571428571428571 0.0625
vt 0.8392857142857143 0.0625
vt 0.8392857142857143 0.008928571428571397
vt 0.8571428571428571 0.008928571428571397
vt 0.7857142857142857 0.0625
vt 0.8392857142857143 0.0625
vt 0.8392857142857143 0.008928571428571397
vt 0.7857142857142857 0.008928571428571397
vt 0.8392857142857143 0.0625
vt 0.8571428571428571 0.0625
vt 0.8571428571428571 0.008928571428571397
vt 0.8392857142857143 0.008928571428571397
vt 0.8392857142857143 0.0625
vt 0.8571428571428571 0.0625
vt 0.8571428571428571 0.008928571428571397
vt 0.8392857142857143 0.008928571428571397
vt 0.8392857142857143 0.0625
vt 0.8571428571428571 0.0625
vt 0.8571428571428571 0.008928571428571397
vt 0.8392857142857143 0.008928571428571397
vt 0.8571428571428571 0.0625
vt 0.8392857142857143 0.0625
vt 0.8392857142857143 0.008928571428571397
vt 0.8571428571428571 0.008928571428571397
vt 0.7857142857142857 0.2142857142857143
vt 0.8392857142857143 0.2142857142857143
vt 0.8392857142857143 0.1607142857142857
vt 0.7857142857142857 0.1607142857142857
vt 0.8392857142857143 0.2142857142857143
vt 0.8571428571428571 0.2142857142857143
vt 0.8571428571428571 0.1607142857142857
vt 0.8392857142857143 0.1607142857142857
vt 0.8392857142857143 0.2142857142857143
vt 0.8571428571428571 0.2142857142857143
vt 0.8571428571428571 0.1607142857142857
vt 0.8392857142857143 0.1607142857142857
vt 0.8392857142857143 0.2142857142857143
vt 0.8571428571428571 0.2142857142857143
vt 0.8571428571428571 0.1607142857142857
vt 0.8392857142857143 0.1607142857142857
vt 0.8571428571428571 0.2142857142857143
vt 0.8392857142857143 0.2142857142857143
vt 0.8392857142857143 0.1607142857142857
vt 0.8571428571428571 0.1607142857142857
vt 0.7857142857142857 0.2142857142857143
vt 0.8392857142857143 0.2142857142857143
vt 0.8392857142857143 0.1607142857142857
vt 0.7857142857142857 0.1607142857142857
vt 0.8392857142857143 0.2142857142857143
vt 0.8571428571428571 0.2142857142857143
vt 0.8571428571428571 0.1607142857142857
vt 0.8392857142857143 0.1607142857142857
vt 0.8392857142857143 0.2142857142857143
vt 0.8571428571428571 0.2142857142857143
vt 0.8571428571428571 0.1607142857142857
vt 0.8392857142857143 0.1607142857142857
vt 0.8392857142857143 0.2142857142857143
vt 0.8571428571428571 0.2142857142857143
vt 0.8571428571428571 0.1607142857142857
vt 0.8392857142857143 0.1607142857142857
vt 0.8571428571428571 0.2142857142857143
vt 0.8392857142857143 0.2142857142857143
vt 0.8392857142857143 0.1607142857142857
vt 0.8571428571428571 0.1607142857142857
vn 1 0 0
vn 0 1 0
vn 0 -1 0
vn 0 0 1
vn 0 0 -1
vn -1 0 0
vn 1 0 0
vn 0 1 0
vn 0 -1 0
vn -1 0 0
vn 1 0 0
vn 0 1 0
vn 0 -1 0
vn -1 0 0
vn 1 0 0
vn 0 1 0
vn 0 -1 0
vn -1 0 0
vn 1 0 0
vn 0 1 0
vn 0 -1 0
vn 1 0 0
vn 0 1 0
vn 0 -1 0
vn 0 0 1
vn 0 0 -1
vn 1 0 0
vn 0 1 0
vn 0 -1 0
vn 0 0 1
vn 0 0 -1
vn 1 0 0
vn 0 1 0
vn 0 -1 0
vn 0 0 1
vn 0 0 -1
vn 1 0 0
vn 0 1 0
vn 0 -1 0
vn 0 0 1
vn 0 0 -1
vn 1 0 0
vn 0 1 0
vn 0 -1 0
vn 0 0 1
vn 0 0 -1
vn 1 0 0
vn 0 1 0
vn 0 -1 0
vn 0 0 1
vn 0 0 -1
usemtl xl_textures
f 7/1/1 6/2/1 8/3/1 9/4/1
f 7/5/2 3/6/2 2/7/2 6/8/2
f 8/9/3 4/10/3 5/11/3 9/12/3
f 6/13/4 2/14/4 4/15/4 8/16/4
f 3/17/5 7/18/5 9/19/5 5/20/5
f 10/21/6 11/22/6 13/23/6 12/24/6
f 15/25/7 14/26/7 16/27/7 17/28/7
f 15/29/8 11/30/8 10/31/8 14/32/8
f 16/33/9 12/34/9 13/35/9 17/36/9
f 18/37/10 19/38/10 21/39/10 20/40/10
f 23/41/11 22/42/11 24/43/11 25/44/11
f 23/45/12 19/46/12 18/47/12 22/48/12
f 24/49/13 20/50/13 21/51/13 25/52/13
f 26/53/14 27/54/14 29/55/14 28/56/14
f 31/57/15 30/58/15 32/59/15 33/60/15
f 31/61/16 27/62/16 26/63/16 30/64/16
f 32/65/17 28/66/17 29/67/17 33/68/17
f 1/69/18 34/70/18 36/71/18 35/72/18
f 38/73/19 37/74/19 39/75/19 40/76/19
f 38/77/20 34/78/20 1/79/20 37/80/20
f 39/81/21 35/82/21 36/83/21 40/84/21
f 46/85/22 45/86/22 47/87/22 48/88/22
f 46/89/23 42/90/23 41/91/23 45/92/23
f 47/93/24 43/94/24 44/95/24 48/96/24
f 45/97/25 41/98/25 43/99/25 47/100/25
f 42/101/26 46/102/26 48/103/26 44/104/26
f 54/105/27 53/106/27 55/107/27 56/108/27
f 54/109/28 50/110/28 49/111/28 53/112/28
f 55/113/29 51/114/29 52/115/29 56/116/29
f 53/117/30 49/118/30 51/119/30 55/120/30
f 50/121/31 54/122/31 56/123/31 52/124/31
f 62/125/32 61/126/32 63/127/32 64/128/32
f 62/129/33 58/130/33 57/131/33 61/132/33
f 63/133/34 59/134/34 60/135/34 64/136/34
f 61/137/35 57/138/35 59/139/35 63/140/35
f 58/141/36 62/142/36 64/143/36 60/144/36
f 70/145/37 69/146/37 71/147/37 72/148/37
f 70/149/38 66/150/38 65/151/38 69/152/38
f 71/153/39 67/154/39 68/155/39 72/156/39
f 69/157/40 65/158/40 67/159/40 71/160/40
f 66/161/41 70/162/41 72/163/41 68/164/41
f 78/165/42 77/166/42 79/167/42 80/168/42
f 78/169/43 74/170/43 73/171/43 77/172/43
f 79/173/44 75/174/44 76/175/44 80/176/44
f 77/177/45 73/178/45 75/179/45 79/180/45
f 74/181/46 78/182/46 80/183/46 76/184/46
f 86/185/47 85/186/47 87/187/47 88/188/47
f 86/189/48 82/190/48 81/191/48 85/192/48
f 87/193/49 83/194/49 84/195/49 88/196/49
f 85/197/50 81/198/50 83/199/50 87/200/50
f 82/201/51 86/202/51 88/203/51 84/204/51